%TF.GenerationSoftware,Altium Limited,Altium Designer,24.6.1 (21)*%
G04 Layer_Physical_Order=3*
G04 Layer_Color=16440176*
%FSLAX45Y45*%
%MOMM*%
%TF.SameCoordinates,FD53202A-208C-403B-AAB2-15DF5564725B*%
%TF.FilePolarity,Positive*%
%TF.FileFunction,Copper,L3,Inr,Signal*%
%TF.Part,Single*%
G01*
G75*
%TA.AperFunction,Conductor*%
%ADD39C,0.25400*%
%TA.AperFunction,ComponentPad*%
%ADD43C,2.10000*%
%ADD44R,2.10000X2.10000*%
%ADD45C,1.20000*%
%ADD46R,1.20000X1.20000*%
%ADD47C,1.65000*%
%ADD48C,4.72500*%
%ADD49C,1.50000*%
%ADD50R,1.50000X1.50000*%
%TA.AperFunction,ViaPad*%
%ADD51C,0.70000*%
%ADD52C,0.50000*%
%ADD53C,0.80000*%
G36*
X11709400Y12344400D02*
Y11442700D01*
X11684000Y11417300D01*
X7239000D01*
X7188200Y11366500D01*
Y10668000D01*
X6896100Y10375900D01*
X5956300D01*
X5842000Y10490200D01*
X4508500Y11823700D01*
Y12356602D01*
X11697198D01*
X11709400Y12344400D01*
D02*
G37*
G36*
X9982200Y10731500D02*
Y10388600D01*
X9931400Y10337800D01*
X9766300D01*
X9715500Y10287000D01*
Y9626600D01*
X9829800Y9512300D01*
X10223500D01*
X10261600Y9474200D01*
Y8953500D01*
X10236200Y8928100D01*
X9575800D01*
X9512300Y8864600D01*
Y8331200D01*
X9563100Y8280400D01*
X10502900D01*
X10566400Y8216900D01*
Y7188200D01*
X10528798Y7150598D01*
X8178302D01*
X8064500Y7264400D01*
X8064500Y10248900D01*
X8166100Y10350500D01*
X9283699Y10350499D01*
X9347200Y10414000D01*
Y10706100D01*
X9398000Y10756900D01*
X9956800D01*
X9982200Y10731500D01*
D02*
G37*
G36*
X11797802Y7150598D02*
X10632920D01*
X10627683Y7155586D01*
X10615768Y7175998D01*
X10618195Y7188200D01*
Y8216900D01*
X10614253Y8236721D01*
X10603025Y8253525D01*
X10539525Y8317025D01*
X10522721Y8328253D01*
X10502900Y8332195D01*
X9584554D01*
X9564095Y8352654D01*
Y8537761D01*
X9588500Y8558805D01*
X10782300D01*
X10802121Y8562747D01*
X10818925Y8573975D01*
X10920525Y8675575D01*
X10931753Y8692379D01*
X10935122Y8709319D01*
X10940168Y8712764D01*
X10941819Y8713519D01*
X10961095Y8717672D01*
X10973246Y8705521D01*
X10994954Y8692988D01*
X11019167Y8686500D01*
X11044233D01*
X11068446Y8692988D01*
X11090154Y8705521D01*
X11107879Y8723246D01*
X11120412Y8744954D01*
X11126900Y8769167D01*
Y8794233D01*
X11120412Y8818446D01*
X11107879Y8840154D01*
X11090154Y8857879D01*
X11068446Y8870412D01*
X11044233Y8876900D01*
X11019167D01*
X10994954Y8870412D01*
X10973246Y8857879D01*
X10961095Y8845728D01*
X10937889Y8852930D01*
X10935695Y8854520D01*
Y8985880D01*
X10937889Y8987470D01*
X10961095Y8994672D01*
X10973246Y8982521D01*
X10994954Y8969988D01*
X11019167Y8963500D01*
X11044233D01*
X11068446Y8969988D01*
X11090154Y8982521D01*
X11107879Y9000246D01*
X11120412Y9021955D01*
X11126900Y9046167D01*
Y9071234D01*
X11124684Y9079505D01*
X11142733Y9104905D01*
X11167246D01*
X11228275Y9043875D01*
X11245079Y9032647D01*
X11263067Y9029069D01*
X11265623Y9024476D01*
X11269242Y9003305D01*
X11257246Y8996379D01*
X11239521Y8978654D01*
X11226988Y8956946D01*
X11220500Y8932733D01*
Y8907667D01*
X11226988Y8883454D01*
X11239521Y8861746D01*
X11257246Y8844021D01*
X11278954Y8831488D01*
X11303167Y8825000D01*
X11328233D01*
X11352446Y8831488D01*
X11374154Y8844021D01*
X11391879Y8861746D01*
X11404412Y8883454D01*
X11410900Y8907667D01*
Y8932733D01*
X11404412Y8956946D01*
X11391879Y8978654D01*
X11374154Y8996379D01*
X11362158Y9003305D01*
X11368964Y9028705D01*
X11404600D01*
X11424421Y9032647D01*
X11441225Y9043875D01*
X11441225Y9043876D01*
X11453924Y9056575D01*
X11453925Y9056575D01*
X11465153Y9073379D01*
X11469095Y9093200D01*
X11469095Y9301660D01*
X11465153Y9321481D01*
X11453925Y9338285D01*
X11433786Y9358425D01*
X11416982Y9369653D01*
X11397161Y9373595D01*
X11382647D01*
X11375371Y9394522D01*
X11375128Y9398995D01*
X11391879Y9415746D01*
X11404412Y9437454D01*
X11410900Y9461667D01*
Y9486733D01*
X11404412Y9510946D01*
X11391879Y9532654D01*
X11374154Y9550379D01*
X11352446Y9562912D01*
X11328233Y9569400D01*
X11303167D01*
X11278954Y9562912D01*
X11257246Y9550379D01*
X11239521Y9532654D01*
X11226988Y9510946D01*
X11220500Y9486733D01*
Y9461667D01*
X11226988Y9437454D01*
X11239521Y9415746D01*
X11257246Y9398021D01*
X11264462Y9393855D01*
X11265891Y9388104D01*
X11263573Y9365038D01*
X11253675Y9358425D01*
X11167246Y9271995D01*
X11134177D01*
X11119512Y9297395D01*
X11120412Y9298954D01*
X11126900Y9323167D01*
Y9348234D01*
X11120412Y9372446D01*
X11107879Y9394154D01*
X11090154Y9411879D01*
X11068446Y9424412D01*
X11044233Y9430900D01*
X11019167D01*
X10994954Y9424412D01*
X10973246Y9411879D01*
X10961095Y9399728D01*
X10937890Y9406930D01*
X10935695Y9408520D01*
Y9520190D01*
X10961095Y9530711D01*
X10965448Y9526359D01*
X10990052Y9512153D01*
X11017495Y9504800D01*
X11019000D01*
Y9612701D01*
Y9720600D01*
X11017495D01*
X10990052Y9713247D01*
X10965448Y9699042D01*
X10961095Y9694689D01*
X10935695Y9705210D01*
Y10147724D01*
X10961095Y10155429D01*
X10970463Y10141408D01*
X11006908Y10104963D01*
X11049762Y10076329D01*
X11097380Y10056605D01*
X11147930Y10046550D01*
X11161000D01*
Y10308200D01*
Y10569850D01*
X11147930D01*
X11097380Y10559795D01*
X11049762Y10540071D01*
X11006908Y10511437D01*
X10970463Y10474992D01*
X10961095Y10460971D01*
X10935695Y10468677D01*
Y10858500D01*
X10931752Y10878321D01*
X10920524Y10895125D01*
X10920523Y10895125D01*
X10691925Y11123725D01*
X10675121Y11134953D01*
X10655300Y11138895D01*
X9626600D01*
X9606779Y11134953D01*
X9589975Y11123725D01*
X9564575Y11098325D01*
X9553347Y11081521D01*
X9549405Y11061700D01*
Y10998201D01*
X9549405Y10998200D01*
X9553347Y10978379D01*
X9564575Y10961575D01*
X9577275Y10948875D01*
X9594079Y10937647D01*
X9613900Y10933705D01*
X10583046Y10933704D01*
X10730505Y10786246D01*
Y8835254D01*
X10722745Y8827495D01*
X10421734D01*
X10411213Y8852895D01*
X10412493Y8854175D01*
X10418232Y8868031D01*
Y8883029D01*
X10412493Y8896885D01*
X10401887Y8907491D01*
X10388031Y8913230D01*
X10373033D01*
X10359177Y8907491D01*
X10348571Y8896885D01*
X10342832Y8883029D01*
Y8868031D01*
X10348571Y8854175D01*
X10349851Y8852895D01*
X10339330Y8827495D01*
X9588500D01*
X9584424Y8830109D01*
X9578155Y8857205D01*
X9597254Y8876305D01*
X10236200D01*
X10256021Y8880247D01*
X10272824Y8891475D01*
X10298224Y8916874D01*
X10298225Y8916875D01*
X10309453Y8933679D01*
X10313395Y8953499D01*
Y8981343D01*
X10330746Y9001649D01*
X10345744D01*
X10359601Y9007388D01*
X10370206Y9017993D01*
X10375945Y9031850D01*
Y9046848D01*
X10370206Y9060704D01*
X10359601Y9071309D01*
X10345744Y9077049D01*
X10330746D01*
X10313395Y9097355D01*
Y9159143D01*
X10330746Y9179449D01*
X10345744D01*
X10359601Y9185188D01*
X10370206Y9195793D01*
X10375945Y9209650D01*
Y9224648D01*
X10370206Y9238504D01*
X10359601Y9249109D01*
X10345744Y9254849D01*
X10330746D01*
X10313395Y9275155D01*
Y9338868D01*
X10333535Y9358019D01*
X10348533D01*
X10362389Y9363759D01*
X10372994Y9374364D01*
X10378734Y9388220D01*
Y9403218D01*
X10372994Y9417074D01*
X10362389Y9427680D01*
X10348533Y9433419D01*
X10333535D01*
X10313395Y9452570D01*
Y9474200D01*
X10309453Y9494021D01*
X10298225Y9510825D01*
X10298224Y9510825D01*
X10260125Y9548925D01*
X10243321Y9560153D01*
X10223500Y9564095D01*
X9851254D01*
X9767295Y9648054D01*
Y10265546D01*
X9787754Y10286005D01*
X9931400D01*
X9951221Y10289947D01*
X9968025Y10301175D01*
X10018825Y10351975D01*
X10030053Y10368779D01*
X10033995Y10388600D01*
Y10731500D01*
X10030053Y10751321D01*
X10018825Y10768125D01*
X9993425Y10793525D01*
X9976621Y10804753D01*
X9956800Y10808695D01*
X9398000D01*
X9378179Y10804753D01*
X9361375Y10793525D01*
X9310575Y10742725D01*
X9299347Y10725921D01*
X9295405Y10706100D01*
Y10435454D01*
X9262245Y10402295D01*
X8166100Y10402295D01*
X8146278Y10398352D01*
X8129475Y10387125D01*
X8114362Y10372011D01*
X8090895Y10381732D01*
Y10960099D01*
X8090895Y10960100D01*
X8086953Y10979921D01*
X8075725Y10996725D01*
X8063025Y11009425D01*
X8046221Y11020653D01*
X8026400Y11024595D01*
X7416801D01*
X7416800Y11024595D01*
X7396979Y11020653D01*
X7380175Y11009425D01*
X7367475Y10996725D01*
X7356247Y10979921D01*
X7352305Y10960100D01*
Y10782300D01*
X7356247Y10762479D01*
X7367475Y10745675D01*
X7517405Y10595746D01*
X7517405Y8856078D01*
X7518839Y8848865D01*
X7519487Y8841539D01*
X7520795Y8839031D01*
X7521347Y8836257D01*
X7525434Y8830141D01*
X7528835Y8823621D01*
X7530522Y8821524D01*
X7530653Y8821414D01*
X7530734Y8821262D01*
X7533068Y8817393D01*
X7534385Y8811892D01*
Y8798205D01*
X7533072Y8792739D01*
X7530734Y8788865D01*
X7530653Y8788713D01*
X7530521Y8788603D01*
X7528835Y8786505D01*
X7525434Y8779986D01*
X7521347Y8773870D01*
X7520795Y8771095D01*
X7519487Y8768588D01*
X7518839Y8761262D01*
X7517405Y8754049D01*
Y7620000D01*
X7521347Y7600178D01*
X7532575Y7583375D01*
X7532576Y7583374D01*
X7533832Y7582119D01*
X7530947Y7575155D01*
Y7560156D01*
X7536686Y7546300D01*
X7547292Y7535695D01*
X7561148Y7529955D01*
X7576146D01*
X7590002Y7535695D01*
X7597112Y7542805D01*
X7731071D01*
X7735286Y7532630D01*
X7745891Y7522025D01*
X7759747Y7516285D01*
X7774745D01*
X7788602Y7522025D01*
X7799207Y7532630D01*
X7803421Y7542805D01*
X7988300D01*
X8012705Y7521761D01*
Y7264400D01*
X8016647Y7244579D01*
X8027875Y7227775D01*
X8027876Y7227775D01*
X8081586Y7174064D01*
X8071866Y7150598D01*
X3759495D01*
X3749513Y7175998D01*
X3753061Y7179545D01*
X3758800Y7193401D01*
Y7208399D01*
X3753061Y7222255D01*
X3742455Y7232861D01*
X3728599Y7238600D01*
X3713601D01*
X3699745Y7232861D01*
X3689139Y7222255D01*
X3683400Y7208399D01*
Y7193401D01*
X3689139Y7179545D01*
X3692687Y7175998D01*
X3682705Y7150598D01*
X2565898D01*
Y12356602D01*
X4456705D01*
Y11823700D01*
X4460647Y11803879D01*
X4471875Y11787075D01*
X5805375Y10453575D01*
X5919675Y10339275D01*
X5936479Y10328047D01*
X5956300Y10324105D01*
X6896099D01*
X6896100Y10324105D01*
X6915921Y10328047D01*
X6932725Y10339275D01*
X7224825Y10631375D01*
X7236053Y10648179D01*
X7239995Y10668000D01*
Y11345046D01*
X7260454Y11365505D01*
X11684000D01*
X11703821Y11369447D01*
X11720625Y11380675D01*
X11746025Y11406075D01*
X11757253Y11422879D01*
X11761195Y11442700D01*
Y12344400D01*
X11771210Y12356602D01*
X11797802D01*
Y7150598D01*
D02*
G37*
G36*
X10883899Y10858500D02*
X10883900Y9283700D01*
X10947400Y9220200D01*
X11188700D01*
X11290300Y9321800D01*
X11397161D01*
X11417300Y9301660D01*
X11417300Y9093200D01*
X11404600Y9080500D01*
X11264900D01*
X11188700Y9156700D01*
X10947400D01*
X10883900Y9093200D01*
Y8712200D01*
X10782300Y8610600D01*
X9588500D01*
X9564095Y8635005D01*
Y8751295D01*
X9588500Y8775700D01*
X10744200D01*
X10782300Y8813800D01*
Y10807700D01*
X10604500Y10985499D01*
X9613900Y10985500D01*
X9601200Y10998200D01*
Y11061700D01*
X9626600Y11087100D01*
X10655300D01*
X10883899Y10858500D01*
D02*
G37*
G36*
X8039100Y10960100D02*
Y10296750D01*
X8027875Y10285525D01*
X8016647Y10268721D01*
X8012705Y10248900D01*
X8012705Y8826100D01*
X8006201D01*
X7992345Y8820361D01*
X7981739Y8809755D01*
X7976000Y8795899D01*
Y8780901D01*
X7981739Y8767045D01*
X7992345Y8756439D01*
X8006201Y8750700D01*
X8012705D01*
Y7619005D01*
X7988300Y7594600D01*
X7595018D01*
X7590002Y7599616D01*
X7589288Y7599912D01*
X7569200Y7620000D01*
Y8754049D01*
X7570887Y8756147D01*
X7594600Y8768928D01*
X7598377Y8767363D01*
X7613376D01*
X7627232Y8773103D01*
X7637837Y8783708D01*
X7643577Y8797564D01*
Y8812563D01*
X7637837Y8826419D01*
X7627232Y8837024D01*
X7613376Y8842763D01*
X7598377D01*
X7594600Y8841199D01*
X7570887Y8853980D01*
X7569200Y8856078D01*
X7569200Y10617200D01*
X7404100Y10782300D01*
Y10960100D01*
X7416800Y10972800D01*
X8026400D01*
X8039100Y10960100D01*
D02*
G37*
%LPC*%
G36*
X5519299Y11594700D02*
X5504301D01*
X5490445Y11588961D01*
X5479839Y11578355D01*
X5474100Y11564499D01*
Y11549501D01*
X5479839Y11535645D01*
X5490445Y11525039D01*
X5504301Y11519300D01*
X5519299D01*
X5533155Y11525039D01*
X5543761Y11535645D01*
X5549500Y11549501D01*
Y11564499D01*
X5543761Y11578355D01*
X5533155Y11588961D01*
X5519299Y11594700D01*
D02*
G37*
G36*
X6359571Y11651100D02*
X6340429D01*
X6321939Y11646146D01*
X6305361Y11636574D01*
X6291826Y11623039D01*
X6282254Y11606461D01*
X6277300Y11587971D01*
Y11568829D01*
X6282254Y11550339D01*
X6291826Y11533761D01*
X6305361Y11520226D01*
X6321939Y11510654D01*
X6340429Y11505700D01*
X6359571D01*
X6378061Y11510654D01*
X6394639Y11520226D01*
X6408174Y11533761D01*
X6417746Y11550339D01*
X6422700Y11568829D01*
Y11587971D01*
X6417746Y11606461D01*
X6408174Y11623039D01*
X6394639Y11636574D01*
X6378061Y11646146D01*
X6359571Y11651100D01*
D02*
G37*
G36*
X6435400Y11163800D02*
X6400000D01*
Y11128400D01*
X6435400D01*
Y11163800D01*
D02*
G37*
G36*
X6300000D02*
X6264600D01*
Y11128400D01*
X6300000D01*
Y11163800D01*
D02*
G37*
G36*
X6435400Y11028400D02*
X6400000D01*
Y10993000D01*
X6435400D01*
Y11028400D01*
D02*
G37*
G36*
X6300000D02*
X6264600D01*
Y10993000D01*
X6300000D01*
Y11028400D01*
D02*
G37*
G36*
X5620899Y10921600D02*
X5605901D01*
X5592045Y10915861D01*
X5581439Y10905255D01*
X5575700Y10891399D01*
Y10876401D01*
X5581439Y10862545D01*
X5592045Y10851939D01*
X5605901Y10846200D01*
X5620899D01*
X5634755Y10851939D01*
X5645361Y10862545D01*
X5651100Y10876401D01*
Y10891399D01*
X5645361Y10905255D01*
X5634755Y10915861D01*
X5620899Y10921600D01*
D02*
G37*
G36*
X8732399Y10273900D02*
X8717401D01*
X8703545Y10268161D01*
X8692939Y10257555D01*
X8687200Y10243699D01*
Y10228701D01*
X8692939Y10214845D01*
X8703545Y10204239D01*
X8717401Y10198500D01*
X8732399D01*
X8746255Y10204239D01*
X8756861Y10214845D01*
X8762600Y10228701D01*
Y10243699D01*
X8756861Y10257555D01*
X8746255Y10268161D01*
X8732399Y10273900D01*
D02*
G37*
G36*
X8897499Y10108800D02*
X8882501D01*
X8868645Y10103061D01*
X8858039Y10092455D01*
X8852300Y10078599D01*
Y10063601D01*
X8858039Y10049745D01*
X8868645Y10039139D01*
X8882501Y10033400D01*
X8897499D01*
X8911355Y10039139D01*
X8921961Y10049745D01*
X8927700Y10063601D01*
Y10078599D01*
X8921961Y10092455D01*
X8911355Y10103061D01*
X8897499Y10108800D01*
D02*
G37*
G36*
X8797619Y10016217D02*
X8782621D01*
X8768765Y10010478D01*
X8758160Y9999872D01*
X8752420Y9986016D01*
Y9971018D01*
X8758160Y9957162D01*
X8768765Y9946556D01*
X8782621Y9940817D01*
X8797619D01*
X8811475Y9946556D01*
X8822081Y9957162D01*
X8827820Y9971018D01*
Y9986016D01*
X8822081Y9999872D01*
X8811475Y10010478D01*
X8797619Y10016217D01*
D02*
G37*
G36*
X9063403Y10028242D02*
X9048405D01*
X9034548Y10022503D01*
X9023943Y10011898D01*
X9018204Y9998041D01*
Y9983043D01*
X9023943Y9969187D01*
X9034548Y9958582D01*
X9048405Y9952842D01*
X9063402D01*
X9069286Y9948911D01*
Y9946686D01*
X9075026Y9932830D01*
X9085631Y9922224D01*
X9099487Y9916485D01*
X9114485D01*
X9128341Y9922224D01*
X9138947Y9932830D01*
X9144686Y9946686D01*
Y9961684D01*
X9138947Y9975540D01*
X9128341Y9986145D01*
X9114485Y9991885D01*
X9099487D01*
X9093604Y9995816D01*
Y9998041D01*
X9087864Y10011898D01*
X9077259Y10022503D01*
X9063403Y10028242D01*
D02*
G37*
G36*
X9203220Y9901303D02*
X9188221D01*
X9174365Y9895564D01*
X9163760Y9884959D01*
X9158021Y9871102D01*
Y9856104D01*
X9163760Y9842248D01*
X9174365Y9831643D01*
X9188221Y9825903D01*
X9203220D01*
X9217076Y9831643D01*
X9227681Y9842248D01*
X9233420Y9856104D01*
Y9871102D01*
X9227681Y9884959D01*
X9217076Y9895564D01*
X9203220Y9901303D01*
D02*
G37*
G36*
X8942084Y9871938D02*
X8927086D01*
X8913229Y9866199D01*
X8902624Y9855593D01*
X8896885Y9841737D01*
Y9826739D01*
X8902624Y9812883D01*
X8913229Y9802278D01*
X8927086Y9796538D01*
X8942084D01*
X8955940Y9802278D01*
X8966545Y9812883D01*
X8972285Y9826739D01*
Y9841737D01*
X8966545Y9855593D01*
X8955940Y9866199D01*
X8942084Y9871938D01*
D02*
G37*
G36*
X9496519Y9785542D02*
X9481521D01*
X9467665Y9779803D01*
X9457060Y9769198D01*
X9451320Y9755341D01*
Y9740343D01*
X9457060Y9726487D01*
X9467665Y9715882D01*
X9481521Y9710142D01*
X9496519D01*
X9510376Y9715882D01*
X9520981Y9726487D01*
X9526720Y9740343D01*
Y9755341D01*
X9520981Y9769198D01*
X9510376Y9779803D01*
X9496519Y9785542D01*
D02*
G37*
G36*
X8465699Y9867500D02*
X8450701D01*
X8436845Y9861761D01*
X8426239Y9851155D01*
X8420500Y9837299D01*
Y9827467D01*
X8418921Y9820850D01*
X8400588Y9804000D01*
X8399901D01*
X8386045Y9798261D01*
X8375439Y9787655D01*
X8369700Y9773799D01*
Y9758801D01*
X8375439Y9744945D01*
X8386045Y9734339D01*
X8399901Y9728600D01*
X8414899D01*
X8433200Y9710299D01*
Y9695301D01*
X8438939Y9681445D01*
X8449545Y9670839D01*
X8463401Y9665100D01*
X8478399D01*
X8492255Y9670839D01*
X8502861Y9681445D01*
X8508600Y9695301D01*
Y9710299D01*
X8502861Y9724155D01*
X8492255Y9734761D01*
X8478399Y9740500D01*
X8472254D01*
X8452130Y9761231D01*
X8452902Y9780970D01*
X8465012Y9792100D01*
X8465699D01*
X8479555Y9797839D01*
X8490161Y9808445D01*
X8495900Y9822301D01*
Y9837299D01*
X8490161Y9851155D01*
X8479555Y9861761D01*
X8465699Y9867500D01*
D02*
G37*
G36*
X9260282Y9553740D02*
X9245284D01*
X9231428Y9548000D01*
X9220822Y9537395D01*
X9215083Y9523539D01*
Y9508541D01*
X9220822Y9494685D01*
X9231428Y9484079D01*
X9245284Y9478340D01*
X9260282D01*
X9274138Y9484079D01*
X9284743Y9494685D01*
X9290483Y9508541D01*
Y9523539D01*
X9284743Y9537395D01*
X9274138Y9548000D01*
X9260282Y9553740D01*
D02*
G37*
G36*
X8623885D02*
X8608887D01*
X8595031Y9548000D01*
X8584426Y9537395D01*
X8578686Y9523539D01*
Y9508541D01*
X8584426Y9494685D01*
X8595031Y9484079D01*
X8608887Y9478340D01*
X8623885D01*
X8637742Y9484079D01*
X8648347Y9494685D01*
X8654086Y9508541D01*
Y9523539D01*
X8648347Y9537395D01*
X8637742Y9548000D01*
X8623885Y9553740D01*
D02*
G37*
G36*
X9391478Y9386253D02*
X9376480D01*
X9362624Y9380514D01*
X9352019Y9369909D01*
X9346279Y9356052D01*
Y9341054D01*
X9352019Y9327198D01*
X9362624Y9316593D01*
X9376480Y9310853D01*
X9391478D01*
X9405335Y9316593D01*
X9415940Y9327198D01*
X9421679Y9341054D01*
Y9356052D01*
X9415940Y9369909D01*
X9405335Y9380514D01*
X9391478Y9386253D01*
D02*
G37*
G36*
X8942084Y9235542D02*
X8927086D01*
X8913229Y9229802D01*
X8902624Y9219197D01*
X8896885Y9205341D01*
Y9190343D01*
X8902624Y9176486D01*
X8913229Y9165881D01*
X8927086Y9160142D01*
X8942084D01*
X8955940Y9165881D01*
X8966545Y9176486D01*
X8972285Y9190343D01*
Y9205341D01*
X8966545Y9219197D01*
X8955940Y9229802D01*
X8942084Y9235542D01*
D02*
G37*
G36*
X8135499Y9219800D02*
X8120501D01*
X8106645Y9214061D01*
X8096039Y9203455D01*
X8090300Y9189599D01*
Y9174601D01*
X8096039Y9160745D01*
X8106645Y9150139D01*
X8120501Y9144400D01*
X8135499D01*
X8149355Y9150139D01*
X8159961Y9160745D01*
X8165700Y9174601D01*
Y9189599D01*
X8159961Y9203455D01*
X8149355Y9214061D01*
X8135499Y9219800D01*
D02*
G37*
G36*
X9749745Y9205754D02*
X9734747D01*
X9720891Y9200015D01*
X9710285Y9189409D01*
X9704546Y9175553D01*
Y9160555D01*
X9710285Y9146699D01*
X9720891Y9136093D01*
X9734747Y9130354D01*
X9749745D01*
X9763601Y9136093D01*
X9774207Y9146699D01*
X9779946Y9160555D01*
Y9175553D01*
X9774207Y9189409D01*
X9763601Y9200015D01*
X9749745Y9205754D01*
D02*
G37*
G36*
X8712176Y9154513D02*
X8697177D01*
X8683321Y9148773D01*
X8672716Y9138168D01*
X8666977Y9124312D01*
Y9109314D01*
X8672716Y9095458D01*
X8683321Y9084852D01*
X8697177Y9079113D01*
X8712176D01*
X8726032Y9084852D01*
X8736637Y9095458D01*
X8742376Y9109314D01*
Y9124312D01*
X8736637Y9138168D01*
X8726032Y9148773D01*
X8712176Y9154513D01*
D02*
G37*
G36*
X8567299Y8622900D02*
X8552301D01*
X8538445Y8617161D01*
X8527839Y8606555D01*
X8522100Y8592699D01*
Y8577701D01*
X8527839Y8563845D01*
X8538445Y8553239D01*
X8552301Y8547500D01*
X8567299D01*
X8581155Y8553239D01*
X8591761Y8563845D01*
X8597500Y8577701D01*
Y8592699D01*
X8591761Y8606555D01*
X8581155Y8617161D01*
X8567299Y8622900D01*
D02*
G37*
G36*
X8533246Y8431600D02*
X8510154D01*
X8487849Y8425623D01*
X8467851Y8414077D01*
X8451523Y8397749D01*
X8439977Y8377751D01*
X8434000Y8355446D01*
Y8332354D01*
X8439977Y8310049D01*
X8451523Y8290051D01*
X8467851Y8273723D01*
X8487849Y8262177D01*
X8510154Y8256200D01*
X8533246D01*
X8555551Y8262177D01*
X8575549Y8273723D01*
X8591877Y8290051D01*
X8603423Y8310049D01*
X8609400Y8332354D01*
Y8355446D01*
X8603423Y8377751D01*
X8591877Y8397749D01*
X8575549Y8414077D01*
X8555551Y8425623D01*
X8533246Y8431600D01*
D02*
G37*
G36*
X9075299Y8292700D02*
X9060301D01*
X9046445Y8286961D01*
X9035839Y8276355D01*
X9030100Y8262499D01*
Y8247501D01*
X9035839Y8233645D01*
X9046445Y8223039D01*
X9060301Y8217300D01*
X9075299D01*
X9089155Y8223039D01*
X9099761Y8233645D01*
X9105500Y8247501D01*
Y8262499D01*
X9099761Y8276355D01*
X9089155Y8286961D01*
X9075299Y8292700D01*
D02*
G37*
G36*
X8299158Y8079324D02*
X8284160D01*
X8270303Y8073584D01*
X8259698Y8062979D01*
X8253959Y8049123D01*
Y8034125D01*
X8259698Y8020268D01*
X8270303Y8009663D01*
X8284160Y8003924D01*
X8299158D01*
X8313014Y8009663D01*
X8323619Y8020268D01*
X8329359Y8034125D01*
Y8049123D01*
X8323619Y8062979D01*
X8313014Y8073584D01*
X8299158Y8079324D01*
D02*
G37*
G36*
X8533246Y8177600D02*
X8510154D01*
X8487849Y8171623D01*
X8467851Y8160077D01*
X8451523Y8143749D01*
X8439977Y8123751D01*
X8434000Y8101446D01*
Y8078354D01*
X8439977Y8056049D01*
X8451523Y8036051D01*
X8467851Y8019723D01*
X8487849Y8008177D01*
X8510154Y8002200D01*
X8533246D01*
X8555551Y8008177D01*
X8575549Y8019723D01*
X8591877Y8036051D01*
X8603423Y8056049D01*
X8609400Y8078354D01*
Y8101446D01*
X8603423Y8123751D01*
X8591877Y8143749D01*
X8575549Y8160077D01*
X8555551Y8171623D01*
X8533246Y8177600D01*
D02*
G37*
G36*
X9239307Y8003395D02*
X9224309D01*
X9210453Y7997656D01*
X9199848Y7987051D01*
X9194108Y7973195D01*
Y7958196D01*
X9199848Y7944340D01*
X9210453Y7933735D01*
X9224309Y7927996D01*
X9239307D01*
X9253164Y7933735D01*
X9263769Y7944340D01*
X9269508Y7958196D01*
Y7973195D01*
X9263769Y7987051D01*
X9253164Y7997656D01*
X9239307Y8003395D01*
D02*
G37*
G36*
X9366307Y8002304D02*
X9351309D01*
X9337453Y7996564D01*
X9326848Y7985959D01*
X9321108Y7972103D01*
Y7957105D01*
X9326848Y7943249D01*
X9337453Y7932643D01*
X9351309Y7926904D01*
X9366307D01*
X9380164Y7932643D01*
X9390769Y7943249D01*
X9396508Y7957105D01*
Y7972103D01*
X9390769Y7985959D01*
X9380164Y7996564D01*
X9366307Y8002304D01*
D02*
G37*
G36*
X9677552Y8002237D02*
X9662554D01*
X9648698Y7996497D01*
X9638093Y7985892D01*
X9632353Y7972036D01*
Y7957038D01*
X9638093Y7943181D01*
X9648698Y7932576D01*
X9662554Y7926837D01*
X9677552D01*
X9691409Y7932576D01*
X9702014Y7943181D01*
X9707753Y7957038D01*
Y7972036D01*
X9702014Y7985892D01*
X9691409Y7996497D01*
X9677552Y8002237D01*
D02*
G37*
G36*
X8533246Y7923600D02*
X8510154D01*
X8487849Y7917623D01*
X8467851Y7906077D01*
X8451523Y7889749D01*
X8439977Y7869751D01*
X8434000Y7847446D01*
Y7824354D01*
X8439977Y7802049D01*
X8451523Y7782051D01*
X8467851Y7765723D01*
X8487849Y7754177D01*
X8510154Y7748200D01*
X8533246D01*
X8555551Y7754177D01*
X8575549Y7765723D01*
X8591877Y7782051D01*
X8603423Y7802049D01*
X8609400Y7824354D01*
Y7847446D01*
X8603423Y7869751D01*
X8591877Y7889749D01*
X8575549Y7906077D01*
X8555551Y7917623D01*
X8533246Y7923600D01*
D02*
G37*
G36*
Y7669600D02*
X8510154D01*
X8487849Y7663623D01*
X8467851Y7652077D01*
X8451523Y7635749D01*
X8439977Y7615751D01*
X8434000Y7593446D01*
Y7570354D01*
X8439977Y7548049D01*
X8451523Y7528051D01*
X8467851Y7511723D01*
X8487849Y7500177D01*
X8510154Y7494200D01*
X8533246D01*
X8555551Y7500177D01*
X8575549Y7511723D01*
X8591877Y7528051D01*
X8603423Y7548049D01*
X8609400Y7570354D01*
Y7593446D01*
X8603423Y7615751D01*
X8591877Y7635749D01*
X8575549Y7652077D01*
X8555551Y7663623D01*
X8533246Y7669600D01*
D02*
G37*
G36*
X8622100Y7428300D02*
X8534400D01*
Y7340600D01*
X8622100D01*
Y7428300D01*
D02*
G37*
G36*
X8509000D02*
X8421300D01*
Y7340600D01*
X8509000D01*
Y7428300D01*
D02*
G37*
G36*
X8622100Y7315200D02*
X8534400D01*
Y7227500D01*
X8622100D01*
Y7315200D01*
D02*
G37*
G36*
X8509000D02*
X8421300D01*
Y7227500D01*
X8509000D01*
Y7315200D01*
D02*
G37*
G36*
X2796796Y12039000D02*
X2765804D01*
X2735870Y12030979D01*
X2709030Y12015483D01*
X2687117Y11993570D01*
X2671621Y11966730D01*
X2663600Y11936796D01*
Y11905804D01*
X2671621Y11875870D01*
X2687117Y11849030D01*
X2709030Y11827117D01*
X2735870Y11811621D01*
X2765804Y11803600D01*
X2796796D01*
X2826730Y11811621D01*
X2853570Y11827117D01*
X2875483Y11849030D01*
X2890979Y11875870D01*
X2899000Y11905804D01*
Y11936796D01*
X2890979Y11966730D01*
X2875483Y11993570D01*
X2853570Y12015483D01*
X2826730Y12030979D01*
X2796796Y12039000D01*
D02*
G37*
G36*
X9522643Y11314752D02*
X9507645D01*
X9493788Y11309013D01*
X9483183Y11298408D01*
X9483115Y11298243D01*
X9481646D01*
X9471735Y11296272D01*
X9463333Y11290658D01*
X9285163Y11112487D01*
X9279549Y11104085D01*
X9277577Y11094175D01*
Y11088177D01*
X9269004Y11079604D01*
X9263265Y11065748D01*
Y11050750D01*
X9269004Y11036893D01*
X9279610Y11026288D01*
X9293466Y11020549D01*
X9308464D01*
X9322320Y11026288D01*
X9332925Y11036893D01*
X9338665Y11050750D01*
Y11065748D01*
X9332925Y11079604D01*
X9329373Y11083157D01*
Y11083448D01*
X9492373Y11246448D01*
X9492432D01*
X9493788Y11245092D01*
X9507645Y11239352D01*
X9522643D01*
X9536499Y11245092D01*
X9547104Y11255697D01*
X9552844Y11269553D01*
Y11284551D01*
X9547104Y11298408D01*
X9536499Y11309013D01*
X9522643Y11314752D01*
D02*
G37*
G36*
X8783199Y10947000D02*
X8768201D01*
X8754345Y10941261D01*
X8743739Y10930655D01*
X8738000Y10916799D01*
Y10901801D01*
X8743739Y10887945D01*
X8754345Y10877339D01*
X8768201Y10871600D01*
X8783199D01*
X8797055Y10877339D01*
X8807661Y10887945D01*
X8813400Y10901801D01*
Y10916799D01*
X8807661Y10930655D01*
X8797055Y10941261D01*
X8783199Y10947000D01*
D02*
G37*
G36*
X11199470Y10569850D02*
X11186400D01*
Y10320900D01*
X11435350D01*
Y10333970D01*
X11425295Y10384521D01*
X11405571Y10432138D01*
X11376937Y10474992D01*
X11340492Y10511437D01*
X11297638Y10540071D01*
X11250020Y10559795D01*
X11199470Y10569850D01*
D02*
G37*
G36*
X6860811Y10156643D02*
X6845813D01*
X6831956Y10150904D01*
X6821351Y10140299D01*
X6815612Y10126443D01*
Y10111444D01*
X6821351Y10097588D01*
X6831956Y10086983D01*
X6845813Y10081243D01*
X6860811D01*
X6874667Y10086983D01*
X6885272Y10097588D01*
X6891012Y10111444D01*
Y10126443D01*
X6885272Y10140299D01*
X6874667Y10150904D01*
X6860811Y10156643D01*
D02*
G37*
G36*
X11435350Y10295500D02*
X11186400D01*
Y10046550D01*
X11199470D01*
X11250020Y10056605D01*
X11297638Y10076329D01*
X11340492Y10104963D01*
X11376937Y10141408D01*
X11405571Y10184262D01*
X11425295Y10231880D01*
X11435350Y10282430D01*
Y10295500D01*
D02*
G37*
G36*
X4289388Y10753800D02*
X4270412D01*
X4252880Y10746538D01*
X4239462Y10733120D01*
X4232200Y10715588D01*
Y10696612D01*
X4239462Y10679080D01*
X4252880Y10665662D01*
X4260039Y10662696D01*
Y10635204D01*
X4252880Y10632238D01*
X4239462Y10618820D01*
X4232200Y10601288D01*
Y10582312D01*
X4239462Y10564780D01*
X4248094Y10556148D01*
X4250936Y10541000D01*
X4248094Y10525852D01*
X4239462Y10517220D01*
X4232200Y10499688D01*
Y10480712D01*
X4239462Y10463180D01*
X4248094Y10454548D01*
X4250936Y10439400D01*
X4248094Y10424252D01*
X4239462Y10415620D01*
X4232200Y10398088D01*
Y10379112D01*
X4239462Y10361580D01*
X4248094Y10352948D01*
X4250936Y10337800D01*
X4248094Y10322652D01*
X4239462Y10314020D01*
X4232200Y10296488D01*
Y10277512D01*
X4239462Y10259980D01*
X4248094Y10251348D01*
X4250936Y10236200D01*
X4248094Y10221052D01*
X4239462Y10212420D01*
X4232200Y10194888D01*
Y10175912D01*
X4239462Y10158380D01*
X4248094Y10149748D01*
X4250936Y10134600D01*
X4248094Y10119452D01*
X4239462Y10110820D01*
X4232200Y10093288D01*
Y10074312D01*
X4239462Y10056780D01*
X4252880Y10043362D01*
X4270412Y10036100D01*
X4289388D01*
X4306920Y10043362D01*
X4320338Y10056780D01*
X4327600Y10074312D01*
Y10093288D01*
X4320338Y10110820D01*
X4311706Y10119452D01*
X4308864Y10134600D01*
X4311706Y10149748D01*
X4320338Y10158380D01*
X4327600Y10175912D01*
Y10194888D01*
X4320338Y10212420D01*
X4311706Y10221052D01*
X4308864Y10236200D01*
X4311706Y10251348D01*
X4320338Y10259980D01*
X4327600Y10277512D01*
Y10296488D01*
X4320338Y10314020D01*
X4311706Y10322652D01*
X4308864Y10337800D01*
X4311706Y10352948D01*
X4320338Y10361580D01*
X4327600Y10379112D01*
Y10398088D01*
X4320338Y10415620D01*
X4311706Y10424252D01*
X4308864Y10439400D01*
X4311706Y10454548D01*
X4320338Y10463180D01*
X4327600Y10480712D01*
Y10499688D01*
X4320338Y10517220D01*
X4311706Y10525852D01*
X4308864Y10541000D01*
X4311706Y10556148D01*
X4320338Y10564780D01*
X4327600Y10582312D01*
Y10601288D01*
X4320338Y10618820D01*
X4306920Y10632238D01*
X4299761Y10635204D01*
Y10662696D01*
X4306920Y10665662D01*
X4320338Y10679080D01*
X4327600Y10696612D01*
Y10715588D01*
X4320338Y10733120D01*
X4306920Y10746538D01*
X4289388Y10753800D01*
D02*
G37*
G36*
X4149688D02*
X4130712D01*
X4113180Y10746538D01*
X4099762Y10733120D01*
X4092500Y10715588D01*
Y10696612D01*
X4099762Y10679080D01*
X4113180Y10665662D01*
X4120339Y10662696D01*
Y10635204D01*
X4113180Y10632238D01*
X4099762Y10618820D01*
X4092500Y10601288D01*
Y10582312D01*
X4099762Y10564780D01*
X4108394Y10556148D01*
X4111236Y10541000D01*
X4108394Y10525852D01*
X4099762Y10517220D01*
X4092500Y10499688D01*
Y10480712D01*
X4099762Y10463180D01*
X4108394Y10454548D01*
X4111236Y10439400D01*
X4108394Y10424252D01*
X4099762Y10415620D01*
X4092500Y10398088D01*
Y10379112D01*
X4099762Y10361580D01*
X4108394Y10352948D01*
X4111236Y10337800D01*
X4108394Y10322652D01*
X4099762Y10314020D01*
X4092500Y10296488D01*
Y10277512D01*
X4099762Y10259980D01*
X4108394Y10251348D01*
X4111236Y10236200D01*
X4108394Y10221052D01*
X4099762Y10212420D01*
X4092500Y10194888D01*
Y10175912D01*
X4099762Y10158380D01*
X4108394Y10149748D01*
X4111236Y10134600D01*
X4108394Y10119452D01*
X4099762Y10110820D01*
X4092500Y10093288D01*
Y10074312D01*
X4099762Y10056780D01*
X4113180Y10043362D01*
X4130712Y10036100D01*
X4149688D01*
X4167220Y10043362D01*
X4180638Y10056780D01*
X4187900Y10074312D01*
Y10093288D01*
X4180638Y10110820D01*
X4172006Y10119452D01*
X4169164Y10134600D01*
X4172006Y10149748D01*
X4180638Y10158380D01*
X4187900Y10175912D01*
Y10194888D01*
X4180638Y10212420D01*
X4172006Y10221052D01*
X4169164Y10236200D01*
X4172006Y10251348D01*
X4180638Y10259980D01*
X4187900Y10277512D01*
Y10296488D01*
X4180638Y10314020D01*
X4172006Y10322652D01*
X4169164Y10337800D01*
X4172006Y10352948D01*
X4180638Y10361580D01*
X4187900Y10379112D01*
Y10398088D01*
X4180638Y10415620D01*
X4172006Y10424252D01*
X4169164Y10439400D01*
X4172006Y10454548D01*
X4180638Y10463180D01*
X4187900Y10480712D01*
Y10499688D01*
X4180638Y10517220D01*
X4172006Y10525852D01*
X4169164Y10541000D01*
X4172006Y10556148D01*
X4180638Y10564780D01*
X4187900Y10582312D01*
Y10601288D01*
X4180638Y10618820D01*
X4167220Y10632238D01*
X4160061Y10635204D01*
Y10662696D01*
X4167220Y10665662D01*
X4180638Y10679080D01*
X4187900Y10696612D01*
Y10715588D01*
X4180638Y10733120D01*
X4167220Y10746538D01*
X4149688Y10753800D01*
D02*
G37*
G36*
X4009988D02*
X3991012D01*
X3973480Y10746538D01*
X3960062Y10733120D01*
X3952800Y10715588D01*
Y10696612D01*
X3960062Y10679080D01*
X3973480Y10665662D01*
X3980639Y10662696D01*
Y10635204D01*
X3973480Y10632238D01*
X3960062Y10618820D01*
X3952800Y10601288D01*
Y10582312D01*
X3960062Y10564780D01*
X3968694Y10556148D01*
X3971536Y10541000D01*
X3968694Y10525852D01*
X3960062Y10517220D01*
X3952800Y10499688D01*
Y10480712D01*
X3960062Y10463180D01*
X3968694Y10454548D01*
X3971536Y10439400D01*
X3968694Y10424252D01*
X3960062Y10415620D01*
X3952800Y10398088D01*
Y10379112D01*
X3960062Y10361580D01*
X3968694Y10352948D01*
X3971536Y10337800D01*
X3968694Y10322652D01*
X3960062Y10314020D01*
X3952800Y10296488D01*
Y10277512D01*
X3960062Y10259980D01*
X3968694Y10251348D01*
X3971536Y10236200D01*
X3968694Y10221052D01*
X3960062Y10212420D01*
X3952800Y10194888D01*
Y10175912D01*
X3960062Y10158380D01*
X3968694Y10149748D01*
X3971536Y10134600D01*
X3968694Y10119452D01*
X3960062Y10110820D01*
X3952800Y10093288D01*
Y10074312D01*
X3960062Y10056780D01*
X3973480Y10043362D01*
X3991012Y10036100D01*
X4009988D01*
X4027520Y10043362D01*
X4040938Y10056780D01*
X4048200Y10074312D01*
Y10093288D01*
X4040938Y10110820D01*
X4032306Y10119452D01*
X4029464Y10134600D01*
X4032306Y10149748D01*
X4040938Y10158380D01*
X4048200Y10175912D01*
Y10194888D01*
X4040938Y10212420D01*
X4032306Y10221052D01*
X4029464Y10236200D01*
X4032306Y10251348D01*
X4040938Y10259980D01*
X4048200Y10277512D01*
Y10296488D01*
X4040938Y10314020D01*
X4032306Y10322652D01*
X4029464Y10337800D01*
X4032306Y10352948D01*
X4040938Y10361580D01*
X4048200Y10379112D01*
Y10398088D01*
X4040938Y10415620D01*
X4032306Y10424252D01*
X4029464Y10439400D01*
X4032306Y10454548D01*
X4040938Y10463180D01*
X4048200Y10480712D01*
Y10499688D01*
X4040938Y10517220D01*
X4032306Y10525852D01*
X4029464Y10541000D01*
X4032306Y10556148D01*
X4040938Y10564780D01*
X4048200Y10582312D01*
Y10601288D01*
X4040938Y10618820D01*
X4027520Y10632238D01*
X4020361Y10635204D01*
Y10662696D01*
X4027520Y10665662D01*
X4040938Y10679080D01*
X4048200Y10696612D01*
Y10715588D01*
X4040938Y10733120D01*
X4027520Y10746538D01*
X4009988Y10753800D01*
D02*
G37*
G36*
X3870288D02*
X3851312D01*
X3833780Y10746538D01*
X3820362Y10733120D01*
X3813100Y10715588D01*
Y10696612D01*
X3820362Y10679080D01*
X3833780Y10665662D01*
X3840939Y10662696D01*
Y10635204D01*
X3833780Y10632238D01*
X3820362Y10618820D01*
X3813100Y10601288D01*
Y10582312D01*
X3820362Y10564780D01*
X3828994Y10556148D01*
X3831836Y10541000D01*
X3828994Y10525852D01*
X3820362Y10517220D01*
X3813100Y10499688D01*
Y10480712D01*
X3820362Y10463180D01*
X3828994Y10454548D01*
X3831836Y10439400D01*
X3828994Y10424252D01*
X3820362Y10415620D01*
X3813100Y10398088D01*
Y10379112D01*
X3820362Y10361580D01*
X3828994Y10352948D01*
X3831836Y10337800D01*
X3828994Y10322652D01*
X3820362Y10314020D01*
X3813100Y10296488D01*
Y10277512D01*
X3820362Y10259980D01*
X3828994Y10251348D01*
X3831836Y10236200D01*
X3828994Y10221052D01*
X3820362Y10212420D01*
X3813100Y10194888D01*
Y10175912D01*
X3820362Y10158380D01*
X3828994Y10149748D01*
X3831836Y10134600D01*
X3828994Y10119452D01*
X3820362Y10110820D01*
X3813100Y10093288D01*
Y10074312D01*
X3820362Y10056780D01*
X3833780Y10043362D01*
X3851312Y10036100D01*
X3870288D01*
X3887820Y10043362D01*
X3901238Y10056780D01*
X3908500Y10074312D01*
Y10093288D01*
X3901238Y10110820D01*
X3892606Y10119452D01*
X3889764Y10134600D01*
X3892606Y10149748D01*
X3901238Y10158380D01*
X3908500Y10175912D01*
Y10194888D01*
X3901238Y10212420D01*
X3892606Y10221052D01*
X3889764Y10236200D01*
X3892606Y10251348D01*
X3901238Y10259980D01*
X3908500Y10277512D01*
Y10296488D01*
X3901238Y10314020D01*
X3892606Y10322652D01*
X3889764Y10337800D01*
X3892606Y10352948D01*
X3901238Y10361580D01*
X3908500Y10379112D01*
Y10398088D01*
X3901238Y10415620D01*
X3892606Y10424252D01*
X3889764Y10439400D01*
X3892606Y10454548D01*
X3901238Y10463180D01*
X3908500Y10480712D01*
Y10499688D01*
X3901238Y10517220D01*
X3892606Y10525852D01*
X3889764Y10541000D01*
X3892606Y10556148D01*
X3901238Y10564780D01*
X3908500Y10582312D01*
Y10601288D01*
X3901238Y10618820D01*
X3887820Y10632238D01*
X3880661Y10635204D01*
Y10662696D01*
X3887820Y10665662D01*
X3901238Y10679080D01*
X3908500Y10696612D01*
Y10715588D01*
X3901238Y10733120D01*
X3887820Y10746538D01*
X3870288Y10753800D01*
D02*
G37*
G36*
X3730588D02*
X3711612D01*
X3694080Y10746538D01*
X3680662Y10733120D01*
X3673400Y10715588D01*
Y10696612D01*
X3680662Y10679080D01*
X3694080Y10665662D01*
X3701239Y10662696D01*
Y10635204D01*
X3694080Y10632238D01*
X3680662Y10618820D01*
X3673400Y10601288D01*
Y10582312D01*
X3680662Y10564780D01*
X3689294Y10556148D01*
X3692136Y10541000D01*
X3689294Y10525852D01*
X3680662Y10517220D01*
X3673400Y10499688D01*
Y10480712D01*
X3680662Y10463180D01*
X3689294Y10454548D01*
X3692136Y10439400D01*
X3689294Y10424252D01*
X3680662Y10415620D01*
X3673400Y10398088D01*
Y10379112D01*
X3680662Y10361580D01*
X3689294Y10352948D01*
X3692136Y10337800D01*
X3689294Y10322652D01*
X3680662Y10314020D01*
X3673400Y10296488D01*
Y10277512D01*
X3680662Y10259980D01*
X3689294Y10251348D01*
X3692136Y10236200D01*
X3689294Y10221052D01*
X3680662Y10212420D01*
X3673400Y10194888D01*
Y10175912D01*
X3680662Y10158380D01*
X3689294Y10149748D01*
X3692136Y10134600D01*
X3689294Y10119452D01*
X3680662Y10110820D01*
X3673400Y10093288D01*
Y10074312D01*
X3680662Y10056780D01*
X3694080Y10043362D01*
X3711612Y10036100D01*
X3730588D01*
X3748120Y10043362D01*
X3761538Y10056780D01*
X3768800Y10074312D01*
Y10093288D01*
X3761538Y10110820D01*
X3752906Y10119452D01*
X3750064Y10134600D01*
X3752906Y10149748D01*
X3761538Y10158380D01*
X3768800Y10175912D01*
Y10194888D01*
X3761538Y10212420D01*
X3752906Y10221052D01*
X3750064Y10236200D01*
X3752906Y10251348D01*
X3761538Y10259980D01*
X3768800Y10277512D01*
Y10296488D01*
X3761538Y10314020D01*
X3752906Y10322652D01*
X3750064Y10337800D01*
X3752906Y10352948D01*
X3761538Y10361580D01*
X3768800Y10379112D01*
Y10398088D01*
X3761538Y10415620D01*
X3752906Y10424252D01*
X3750064Y10439400D01*
X3752906Y10454548D01*
X3761538Y10463180D01*
X3768800Y10480712D01*
Y10499688D01*
X3761538Y10517220D01*
X3752906Y10525852D01*
X3750064Y10541000D01*
X3752906Y10556148D01*
X3761538Y10564780D01*
X3768800Y10582312D01*
Y10601288D01*
X3761538Y10618820D01*
X3748120Y10632238D01*
X3740961Y10635204D01*
Y10662696D01*
X3748120Y10665662D01*
X3761538Y10679080D01*
X3768800Y10696612D01*
Y10715588D01*
X3761538Y10733120D01*
X3748120Y10746538D01*
X3730588Y10753800D01*
D02*
G37*
G36*
X3590888D02*
X3571912D01*
X3554380Y10746538D01*
X3540962Y10733120D01*
X3533700Y10715588D01*
Y10696612D01*
X3540962Y10679080D01*
X3554380Y10665662D01*
X3561539Y10662696D01*
Y10635204D01*
X3554380Y10632238D01*
X3540962Y10618820D01*
X3533700Y10601288D01*
Y10582312D01*
X3540962Y10564780D01*
X3549594Y10556148D01*
X3552436Y10541000D01*
X3549594Y10525852D01*
X3540962Y10517220D01*
X3533700Y10499688D01*
Y10480712D01*
X3540962Y10463180D01*
X3549594Y10454548D01*
X3552436Y10439400D01*
X3549594Y10424252D01*
X3540962Y10415620D01*
X3533700Y10398088D01*
Y10379112D01*
X3540962Y10361580D01*
X3549594Y10352948D01*
X3552436Y10337800D01*
X3549594Y10322652D01*
X3540962Y10314020D01*
X3533700Y10296488D01*
Y10277512D01*
X3540962Y10259980D01*
X3549594Y10251348D01*
X3552436Y10236200D01*
X3549594Y10221052D01*
X3540962Y10212420D01*
X3533700Y10194888D01*
Y10175912D01*
X3540962Y10158380D01*
X3549594Y10149748D01*
X3552436Y10134600D01*
X3549594Y10119452D01*
X3540962Y10110820D01*
X3533700Y10093288D01*
Y10074312D01*
X3540962Y10056780D01*
X3554380Y10043362D01*
X3571912Y10036100D01*
X3590888D01*
X3608420Y10043362D01*
X3621838Y10056780D01*
X3629100Y10074312D01*
Y10093288D01*
X3621838Y10110820D01*
X3613206Y10119452D01*
X3610364Y10134600D01*
X3613206Y10149748D01*
X3621838Y10158380D01*
X3629100Y10175912D01*
Y10194888D01*
X3621838Y10212420D01*
X3613206Y10221052D01*
X3610364Y10236200D01*
X3613206Y10251348D01*
X3621838Y10259980D01*
X3629100Y10277512D01*
Y10296488D01*
X3621838Y10314020D01*
X3613206Y10322652D01*
X3610364Y10337800D01*
X3613206Y10352948D01*
X3621838Y10361580D01*
X3629100Y10379112D01*
Y10398088D01*
X3621838Y10415620D01*
X3613206Y10424252D01*
X3610364Y10439400D01*
X3613206Y10454548D01*
X3621838Y10463180D01*
X3629100Y10480712D01*
Y10499688D01*
X3621838Y10517220D01*
X3613206Y10525852D01*
X3610364Y10541000D01*
X3613206Y10556148D01*
X3621838Y10564780D01*
X3629100Y10582312D01*
Y10601288D01*
X3621838Y10618820D01*
X3608420Y10632238D01*
X3601261Y10635204D01*
Y10662696D01*
X3608420Y10665662D01*
X3621838Y10679080D01*
X3629100Y10696612D01*
Y10715588D01*
X3621838Y10733120D01*
X3608420Y10746538D01*
X3590888Y10753800D01*
D02*
G37*
G36*
X3451188D02*
X3432212D01*
X3414680Y10746538D01*
X3401262Y10733120D01*
X3394000Y10715588D01*
Y10696612D01*
X3401262Y10679080D01*
X3414680Y10665662D01*
X3421839Y10662696D01*
Y10635204D01*
X3414680Y10632238D01*
X3401262Y10618820D01*
X3394000Y10601288D01*
Y10582312D01*
X3401262Y10564780D01*
X3409894Y10556148D01*
X3412736Y10541000D01*
X3409894Y10525852D01*
X3401262Y10517220D01*
X3394000Y10499688D01*
Y10480712D01*
X3401262Y10463180D01*
X3409894Y10454548D01*
X3412736Y10439400D01*
X3409894Y10424252D01*
X3401262Y10415620D01*
X3394000Y10398088D01*
Y10379112D01*
X3401262Y10361580D01*
X3409894Y10352948D01*
X3412736Y10337800D01*
X3409894Y10322652D01*
X3401262Y10314020D01*
X3394000Y10296488D01*
Y10277512D01*
X3401262Y10259980D01*
X3409894Y10251348D01*
X3412736Y10236200D01*
X3409894Y10221052D01*
X3401262Y10212420D01*
X3394000Y10194888D01*
Y10175912D01*
X3401262Y10158380D01*
X3409894Y10149748D01*
X3412736Y10134600D01*
X3409894Y10119452D01*
X3401262Y10110820D01*
X3394000Y10093288D01*
Y10074312D01*
X3401262Y10056780D01*
X3414680Y10043362D01*
X3432212Y10036100D01*
X3451188D01*
X3468720Y10043362D01*
X3482138Y10056780D01*
X3489400Y10074312D01*
Y10093288D01*
X3482138Y10110820D01*
X3473506Y10119452D01*
X3470664Y10134600D01*
X3473506Y10149748D01*
X3482138Y10158380D01*
X3489400Y10175912D01*
Y10194888D01*
X3482138Y10212420D01*
X3473506Y10221052D01*
X3470664Y10236200D01*
X3473506Y10251348D01*
X3482138Y10259980D01*
X3489400Y10277512D01*
Y10296488D01*
X3482138Y10314020D01*
X3473506Y10322652D01*
X3470664Y10337800D01*
X3473506Y10352948D01*
X3482138Y10361580D01*
X3489400Y10379112D01*
Y10398088D01*
X3482138Y10415620D01*
X3473506Y10424252D01*
X3470664Y10439400D01*
X3473506Y10454548D01*
X3482138Y10463180D01*
X3489400Y10480712D01*
Y10499688D01*
X3482138Y10517220D01*
X3473506Y10525852D01*
X3470664Y10541000D01*
X3473506Y10556148D01*
X3482138Y10564780D01*
X3489400Y10582312D01*
Y10601288D01*
X3482138Y10618820D01*
X3468720Y10632238D01*
X3461561Y10635204D01*
Y10662696D01*
X3468720Y10665662D01*
X3482138Y10679080D01*
X3489400Y10696612D01*
Y10715588D01*
X3482138Y10733120D01*
X3468720Y10746538D01*
X3451188Y10753800D01*
D02*
G37*
G36*
X4490599Y10299300D02*
X4475601D01*
X4461745Y10293561D01*
X4451139Y10282955D01*
X4445400Y10269099D01*
Y10254101D01*
X4451139Y10240245D01*
X4461745Y10229639D01*
X4475601Y10223900D01*
X4490599D01*
X4504455Y10229639D01*
X4510518Y10235702D01*
X5437573D01*
X5919305Y9753970D01*
X5927707Y9748356D01*
X5937618Y9746385D01*
X7128664D01*
X7134727Y9740322D01*
X7148583Y9734582D01*
X7163581D01*
X7177438Y9740322D01*
X7188043Y9750927D01*
X7193782Y9764783D01*
Y9779781D01*
X7188043Y9793638D01*
X7177438Y9804243D01*
X7163581Y9809982D01*
X7148583D01*
X7134727Y9804243D01*
X7128664Y9798180D01*
X5948345D01*
X5466612Y10279912D01*
X5458211Y10285526D01*
X5448300Y10287498D01*
X4510518D01*
X4504455Y10293561D01*
X4490599Y10299300D01*
D02*
G37*
G36*
X11045905Y9720600D02*
X11044400D01*
Y9625401D01*
X11139600D01*
Y9626905D01*
X11132247Y9654348D01*
X11118042Y9678952D01*
X11097952Y9699042D01*
X11073348Y9713247D01*
X11045905Y9720600D01*
D02*
G37*
G36*
X7143700Y9680039D02*
X7128702D01*
X7114846Y9674300D01*
X7104241Y9663695D01*
X7098501Y9649838D01*
Y9634840D01*
X7104241Y9620984D01*
X7114846Y9610379D01*
X7128702Y9604639D01*
X7143700D01*
X7157556Y9610379D01*
X7168162Y9620984D01*
X7173901Y9634840D01*
Y9649838D01*
X7168162Y9663695D01*
X7157556Y9674300D01*
X7143700Y9680039D01*
D02*
G37*
G36*
X6751199Y9677000D02*
X6736201D01*
X6722345Y9671261D01*
X6711739Y9660655D01*
X6706000Y9646799D01*
Y9631801D01*
X6711739Y9617945D01*
X6722345Y9607339D01*
X6736201Y9601600D01*
X6751199D01*
X6765055Y9607339D01*
X6775661Y9617945D01*
X6781400Y9631801D01*
Y9646799D01*
X6775661Y9660655D01*
X6765055Y9671261D01*
X6751199Y9677000D01*
D02*
G37*
G36*
X7360799Y9615137D02*
X7345801D01*
X7331945Y9609397D01*
X7321339Y9598792D01*
X7315600Y9584936D01*
Y9569938D01*
X7321339Y9556081D01*
X7331945Y9545476D01*
X7345801Y9539737D01*
X7360799D01*
X7374655Y9545476D01*
X7385261Y9556081D01*
X7391000Y9569938D01*
Y9584936D01*
X7385261Y9598792D01*
X7374655Y9609397D01*
X7360799Y9615137D01*
D02*
G37*
G36*
X11139600Y9600001D02*
X11044400D01*
Y9504800D01*
X11045905D01*
X11073348Y9512153D01*
X11097952Y9526359D01*
X11118042Y9546448D01*
X11132247Y9571052D01*
X11139600Y9598495D01*
Y9600001D01*
D02*
G37*
G36*
X2899000Y9499000D02*
X2663600D01*
Y9263600D01*
X2899000D01*
Y9499000D01*
D02*
G37*
G36*
X5660988Y9911200D02*
X5642012D01*
X5624480Y9903938D01*
X5611062Y9890520D01*
X5603800Y9872988D01*
Y9854012D01*
X5611062Y9836480D01*
X5624480Y9823062D01*
X5631639Y9820096D01*
Y9792603D01*
X5624480Y9789638D01*
X5611062Y9776220D01*
X5603800Y9758688D01*
Y9739712D01*
X5611062Y9722180D01*
X5619694Y9713548D01*
X5622536Y9698400D01*
X5619694Y9683252D01*
X5611062Y9674620D01*
X5603800Y9657088D01*
Y9638112D01*
X5611062Y9620580D01*
X5619694Y9611948D01*
X5622536Y9596800D01*
X5619694Y9581652D01*
X5611062Y9573020D01*
X5603800Y9555488D01*
Y9536512D01*
X5611062Y9518980D01*
X5619694Y9510348D01*
X5622536Y9495200D01*
X5619694Y9480052D01*
X5611062Y9471420D01*
X5603800Y9453888D01*
Y9434912D01*
X5611062Y9417380D01*
X5619694Y9408748D01*
X5622536Y9393600D01*
X5619694Y9378452D01*
X5611062Y9369820D01*
X5603800Y9352288D01*
Y9333312D01*
X5611062Y9315780D01*
X5619694Y9307148D01*
X5622536Y9292000D01*
X5619694Y9276852D01*
X5611062Y9268220D01*
X5603800Y9250688D01*
Y9231712D01*
X5611062Y9214180D01*
X5624480Y9200762D01*
X5642012Y9193500D01*
X5660988D01*
X5678520Y9200762D01*
X5691938Y9214180D01*
X5699200Y9231712D01*
Y9250688D01*
X5691938Y9268220D01*
X5683306Y9276852D01*
X5680464Y9292000D01*
X5683306Y9307148D01*
X5691938Y9315780D01*
X5699200Y9333312D01*
Y9352288D01*
X5691938Y9369820D01*
X5683306Y9378452D01*
X5680464Y9393600D01*
X5683306Y9408748D01*
X5691938Y9417380D01*
X5699200Y9434912D01*
Y9453888D01*
X5691938Y9471420D01*
X5683306Y9480052D01*
X5680464Y9495200D01*
X5683306Y9510348D01*
X5691938Y9518980D01*
X5699200Y9536512D01*
Y9555488D01*
X5691938Y9573020D01*
X5683306Y9581652D01*
X5680464Y9596800D01*
X5683306Y9611948D01*
X5691938Y9620580D01*
X5699200Y9638112D01*
Y9657088D01*
X5691938Y9674620D01*
X5683306Y9683252D01*
X5680464Y9698400D01*
X5683306Y9713548D01*
X5691938Y9722180D01*
X5699200Y9739712D01*
Y9758688D01*
X5691938Y9776220D01*
X5678520Y9789638D01*
X5671361Y9792603D01*
Y9820096D01*
X5678520Y9823062D01*
X5691938Y9836480D01*
X5699200Y9854012D01*
Y9872988D01*
X5691938Y9890520D01*
X5678520Y9903938D01*
X5660988Y9911200D01*
D02*
G37*
G36*
X5521288D02*
X5502312D01*
X5484780Y9903938D01*
X5471362Y9890520D01*
X5464100Y9872988D01*
Y9854012D01*
X5471362Y9836480D01*
X5484780Y9823062D01*
X5491939Y9820096D01*
Y9792603D01*
X5484780Y9789638D01*
X5471362Y9776220D01*
X5464100Y9758688D01*
Y9739712D01*
X5471362Y9722180D01*
X5479994Y9713548D01*
X5482836Y9698400D01*
X5479994Y9683252D01*
X5471362Y9674620D01*
X5464100Y9657088D01*
Y9638112D01*
X5471362Y9620580D01*
X5479994Y9611948D01*
X5482836Y9596800D01*
X5479994Y9581652D01*
X5471362Y9573020D01*
X5464100Y9555488D01*
Y9536512D01*
X5471362Y9518980D01*
X5479994Y9510348D01*
X5482836Y9495200D01*
X5479994Y9480052D01*
X5471362Y9471420D01*
X5464100Y9453888D01*
Y9434912D01*
X5471362Y9417380D01*
X5479994Y9408748D01*
X5482836Y9393600D01*
X5479994Y9378452D01*
X5471362Y9369820D01*
X5464100Y9352288D01*
Y9333312D01*
X5471362Y9315780D01*
X5479994Y9307148D01*
X5482836Y9292000D01*
X5479994Y9276852D01*
X5471362Y9268220D01*
X5464100Y9250688D01*
Y9231712D01*
X5471362Y9214180D01*
X5484780Y9200762D01*
X5502312Y9193500D01*
X5521288D01*
X5538820Y9200762D01*
X5552238Y9214180D01*
X5559500Y9231712D01*
Y9250688D01*
X5552238Y9268220D01*
X5543606Y9276852D01*
X5540764Y9292000D01*
X5543606Y9307148D01*
X5552238Y9315780D01*
X5559500Y9333312D01*
Y9352288D01*
X5552238Y9369820D01*
X5543606Y9378452D01*
X5540764Y9393600D01*
X5543606Y9408748D01*
X5552238Y9417380D01*
X5559500Y9434912D01*
Y9453888D01*
X5552238Y9471420D01*
X5543606Y9480052D01*
X5540764Y9495200D01*
X5543606Y9510348D01*
X5552238Y9518980D01*
X5559500Y9536512D01*
Y9555488D01*
X5552238Y9573020D01*
X5543606Y9581652D01*
X5540764Y9596800D01*
X5543606Y9611948D01*
X5552238Y9620580D01*
X5559500Y9638112D01*
Y9657088D01*
X5552238Y9674620D01*
X5543606Y9683252D01*
X5540764Y9698400D01*
X5543606Y9713548D01*
X5552238Y9722180D01*
X5559500Y9739712D01*
Y9758688D01*
X5552238Y9776220D01*
X5538820Y9789638D01*
X5531661Y9792603D01*
Y9820096D01*
X5538820Y9823062D01*
X5552238Y9836480D01*
X5559500Y9854012D01*
Y9872988D01*
X5552238Y9890520D01*
X5538820Y9903938D01*
X5521288Y9911200D01*
D02*
G37*
G36*
X5381588D02*
X5362612D01*
X5345080Y9903938D01*
X5331662Y9890520D01*
X5324400Y9872988D01*
Y9854012D01*
X5331662Y9836480D01*
X5345080Y9823062D01*
X5352239Y9820096D01*
Y9792603D01*
X5345080Y9789638D01*
X5331662Y9776220D01*
X5324400Y9758688D01*
Y9739712D01*
X5331662Y9722180D01*
X5340294Y9713548D01*
X5343136Y9698400D01*
X5340294Y9683252D01*
X5331662Y9674620D01*
X5324400Y9657088D01*
Y9638112D01*
X5331662Y9620580D01*
X5340294Y9611948D01*
X5343136Y9596800D01*
X5340294Y9581652D01*
X5331662Y9573020D01*
X5324400Y9555488D01*
Y9536512D01*
X5331662Y9518980D01*
X5340294Y9510348D01*
X5343136Y9495200D01*
X5340294Y9480052D01*
X5331662Y9471420D01*
X5324400Y9453888D01*
Y9434912D01*
X5331662Y9417380D01*
X5340294Y9408748D01*
X5343136Y9393600D01*
X5340294Y9378452D01*
X5331662Y9369820D01*
X5324400Y9352288D01*
Y9333312D01*
X5331662Y9315780D01*
X5340294Y9307148D01*
X5343136Y9292000D01*
X5340294Y9276852D01*
X5331662Y9268220D01*
X5324400Y9250688D01*
Y9231712D01*
X5331662Y9214180D01*
X5345080Y9200762D01*
X5362612Y9193500D01*
X5381588D01*
X5399120Y9200762D01*
X5412538Y9214180D01*
X5419800Y9231712D01*
Y9250688D01*
X5412538Y9268220D01*
X5403906Y9276852D01*
X5401064Y9292000D01*
X5403906Y9307148D01*
X5412538Y9315780D01*
X5419800Y9333312D01*
Y9352288D01*
X5412538Y9369820D01*
X5403906Y9378452D01*
X5401064Y9393600D01*
X5403906Y9408748D01*
X5412538Y9417380D01*
X5419800Y9434912D01*
Y9453888D01*
X5412538Y9471420D01*
X5403906Y9480052D01*
X5401064Y9495200D01*
X5403906Y9510348D01*
X5412538Y9518980D01*
X5419800Y9536512D01*
Y9555488D01*
X5412538Y9573020D01*
X5403906Y9581652D01*
X5401064Y9596800D01*
X5403906Y9611948D01*
X5412538Y9620580D01*
X5419800Y9638112D01*
Y9657088D01*
X5412538Y9674620D01*
X5403906Y9683252D01*
X5401064Y9698400D01*
X5403906Y9713548D01*
X5412538Y9722180D01*
X5419800Y9739712D01*
Y9758688D01*
X5412538Y9776220D01*
X5399120Y9789638D01*
X5391961Y9792603D01*
Y9820096D01*
X5399120Y9823062D01*
X5412538Y9836480D01*
X5419800Y9854012D01*
Y9872988D01*
X5412538Y9890520D01*
X5399120Y9903938D01*
X5381588Y9911200D01*
D02*
G37*
G36*
X5241888D02*
X5222912D01*
X5205380Y9903938D01*
X5191962Y9890520D01*
X5184700Y9872988D01*
Y9854012D01*
X5191962Y9836480D01*
X5205380Y9823062D01*
X5212539Y9820096D01*
Y9792603D01*
X5205380Y9789638D01*
X5191962Y9776220D01*
X5184700Y9758688D01*
Y9739712D01*
X5191962Y9722180D01*
X5200594Y9713548D01*
X5203436Y9698400D01*
X5200594Y9683252D01*
X5191962Y9674620D01*
X5184700Y9657088D01*
Y9638112D01*
X5191962Y9620580D01*
X5200594Y9611948D01*
X5203436Y9596800D01*
X5200594Y9581652D01*
X5191962Y9573020D01*
X5184700Y9555488D01*
Y9536512D01*
X5191962Y9518980D01*
X5200594Y9510348D01*
X5203436Y9495200D01*
X5200594Y9480052D01*
X5191962Y9471420D01*
X5184700Y9453888D01*
Y9434912D01*
X5191962Y9417380D01*
X5200594Y9408748D01*
X5203436Y9393600D01*
X5200594Y9378452D01*
X5191962Y9369820D01*
X5184700Y9352288D01*
Y9333312D01*
X5191962Y9315780D01*
X5200594Y9307148D01*
X5203436Y9292000D01*
X5200594Y9276852D01*
X5191962Y9268220D01*
X5184700Y9250688D01*
Y9231712D01*
X5191962Y9214180D01*
X5205380Y9200762D01*
X5222912Y9193500D01*
X5241888D01*
X5259420Y9200762D01*
X5272838Y9214180D01*
X5280100Y9231712D01*
Y9250688D01*
X5272838Y9268220D01*
X5264206Y9276852D01*
X5261364Y9292000D01*
X5264206Y9307148D01*
X5272838Y9315780D01*
X5280100Y9333312D01*
Y9352288D01*
X5272838Y9369820D01*
X5264206Y9378452D01*
X5261364Y9393600D01*
X5264206Y9408748D01*
X5272838Y9417380D01*
X5280100Y9434912D01*
Y9453888D01*
X5272838Y9471420D01*
X5264206Y9480052D01*
X5261364Y9495200D01*
X5264206Y9510348D01*
X5272838Y9518980D01*
X5280100Y9536512D01*
Y9555488D01*
X5272838Y9573020D01*
X5264206Y9581652D01*
X5261364Y9596800D01*
X5264206Y9611948D01*
X5272838Y9620580D01*
X5280100Y9638112D01*
Y9657088D01*
X5272838Y9674620D01*
X5264206Y9683252D01*
X5261364Y9698400D01*
X5264206Y9713548D01*
X5272838Y9722180D01*
X5280100Y9739712D01*
Y9758688D01*
X5272838Y9776220D01*
X5259420Y9789638D01*
X5252261Y9792603D01*
Y9820096D01*
X5259420Y9823062D01*
X5272838Y9836480D01*
X5280100Y9854012D01*
Y9872988D01*
X5272838Y9890520D01*
X5259420Y9903938D01*
X5241888Y9911200D01*
D02*
G37*
G36*
X5102188D02*
X5083212D01*
X5065680Y9903938D01*
X5052262Y9890520D01*
X5045000Y9872988D01*
Y9854012D01*
X5052262Y9836480D01*
X5065680Y9823062D01*
X5072839Y9820096D01*
Y9792603D01*
X5065680Y9789638D01*
X5052262Y9776220D01*
X5045000Y9758688D01*
Y9739712D01*
X5052262Y9722180D01*
X5060894Y9713548D01*
X5063736Y9698400D01*
X5060894Y9683252D01*
X5052262Y9674620D01*
X5045000Y9657088D01*
Y9638112D01*
X5052262Y9620580D01*
X5060894Y9611948D01*
X5063736Y9596800D01*
X5060894Y9581652D01*
X5052262Y9573020D01*
X5045000Y9555488D01*
Y9536512D01*
X5052262Y9518980D01*
X5060894Y9510348D01*
X5063736Y9495200D01*
X5060894Y9480052D01*
X5052262Y9471420D01*
X5045000Y9453888D01*
Y9434912D01*
X5052262Y9417380D01*
X5060894Y9408748D01*
X5063736Y9393600D01*
X5060894Y9378452D01*
X5052262Y9369820D01*
X5045000Y9352288D01*
Y9333312D01*
X5052262Y9315780D01*
X5060894Y9307148D01*
X5063736Y9292000D01*
X5060894Y9276852D01*
X5052262Y9268220D01*
X5045000Y9250688D01*
Y9231712D01*
X5052262Y9214180D01*
X5065680Y9200762D01*
X5083212Y9193500D01*
X5102188D01*
X5119720Y9200762D01*
X5133138Y9214180D01*
X5140400Y9231712D01*
Y9250688D01*
X5133138Y9268220D01*
X5124506Y9276852D01*
X5121664Y9292000D01*
X5124506Y9307148D01*
X5133138Y9315780D01*
X5140400Y9333312D01*
Y9352288D01*
X5133138Y9369820D01*
X5124506Y9378452D01*
X5121664Y9393600D01*
X5124506Y9408748D01*
X5133138Y9417380D01*
X5140400Y9434912D01*
Y9453888D01*
X5133138Y9471420D01*
X5124506Y9480052D01*
X5121664Y9495200D01*
X5124506Y9510348D01*
X5133138Y9518980D01*
X5140400Y9536512D01*
Y9555488D01*
X5133138Y9573020D01*
X5124506Y9581652D01*
X5121664Y9596800D01*
X5124506Y9611948D01*
X5133138Y9620580D01*
X5140400Y9638112D01*
Y9657088D01*
X5133138Y9674620D01*
X5124506Y9683252D01*
X5121664Y9698400D01*
X5124506Y9713548D01*
X5133138Y9722180D01*
X5140400Y9739712D01*
Y9758688D01*
X5133138Y9776220D01*
X5119720Y9789638D01*
X5112561Y9792603D01*
Y9820096D01*
X5119720Y9823062D01*
X5133138Y9836480D01*
X5140400Y9854012D01*
Y9872988D01*
X5133138Y9890520D01*
X5119720Y9903938D01*
X5102188Y9911200D01*
D02*
G37*
G36*
X4962488D02*
X4943512D01*
X4925980Y9903938D01*
X4912562Y9890520D01*
X4905300Y9872988D01*
Y9854012D01*
X4912562Y9836480D01*
X4925980Y9823062D01*
X4933139Y9820096D01*
Y9792603D01*
X4925980Y9789638D01*
X4912562Y9776220D01*
X4905300Y9758688D01*
Y9739712D01*
X4912562Y9722180D01*
X4921194Y9713548D01*
X4924036Y9698400D01*
X4921194Y9683252D01*
X4912562Y9674620D01*
X4905300Y9657088D01*
Y9638112D01*
X4912562Y9620580D01*
X4921194Y9611948D01*
X4924036Y9596800D01*
X4921194Y9581652D01*
X4912562Y9573020D01*
X4905300Y9555488D01*
Y9536512D01*
X4912562Y9518980D01*
X4921194Y9510348D01*
X4924036Y9495200D01*
X4921194Y9480052D01*
X4912562Y9471420D01*
X4905300Y9453888D01*
Y9434912D01*
X4912562Y9417380D01*
X4921194Y9408748D01*
X4924036Y9393600D01*
X4921194Y9378452D01*
X4912562Y9369820D01*
X4905300Y9352288D01*
Y9333312D01*
X4912562Y9315780D01*
X4921194Y9307148D01*
X4924036Y9292000D01*
X4921194Y9276852D01*
X4912562Y9268220D01*
X4905300Y9250688D01*
Y9231712D01*
X4912562Y9214180D01*
X4925980Y9200762D01*
X4943512Y9193500D01*
X4962488D01*
X4980020Y9200762D01*
X4993438Y9214180D01*
X5000700Y9231712D01*
Y9250688D01*
X4993438Y9268220D01*
X4984806Y9276852D01*
X4981964Y9292000D01*
X4984806Y9307148D01*
X4993438Y9315780D01*
X5000700Y9333312D01*
Y9352288D01*
X4993438Y9369820D01*
X4984806Y9378452D01*
X4981964Y9393600D01*
X4984806Y9408748D01*
X4993438Y9417380D01*
X5000700Y9434912D01*
Y9453888D01*
X4993438Y9471420D01*
X4984806Y9480052D01*
X4981964Y9495200D01*
X4984806Y9510348D01*
X4993438Y9518980D01*
X5000700Y9536512D01*
Y9555488D01*
X4993438Y9573020D01*
X4984806Y9581652D01*
X4981964Y9596800D01*
X4984806Y9611948D01*
X4993438Y9620580D01*
X5000700Y9638112D01*
Y9657088D01*
X4993438Y9674620D01*
X4984806Y9683252D01*
X4981964Y9698400D01*
X4984806Y9713548D01*
X4993438Y9722180D01*
X5000700Y9739712D01*
Y9758688D01*
X4993438Y9776220D01*
X4980020Y9789638D01*
X4972861Y9792603D01*
Y9820096D01*
X4980020Y9823062D01*
X4993438Y9836480D01*
X5000700Y9854012D01*
Y9872988D01*
X4993438Y9890520D01*
X4980020Y9903938D01*
X4962488Y9911200D01*
D02*
G37*
G36*
X4822788D02*
X4803812D01*
X4786280Y9903938D01*
X4772862Y9890520D01*
X4765600Y9872988D01*
Y9854012D01*
X4772862Y9836480D01*
X4786280Y9823062D01*
X4793439Y9820096D01*
Y9792603D01*
X4786280Y9789638D01*
X4772862Y9776220D01*
X4765600Y9758688D01*
Y9739712D01*
X4772862Y9722180D01*
X4781494Y9713548D01*
X4784336Y9698400D01*
X4781494Y9683252D01*
X4772862Y9674620D01*
X4765600Y9657088D01*
Y9638112D01*
X4772862Y9620580D01*
X4781494Y9611948D01*
X4784336Y9596800D01*
X4781494Y9581652D01*
X4772862Y9573020D01*
X4765600Y9555488D01*
Y9536512D01*
X4772862Y9518980D01*
X4781494Y9510348D01*
X4784336Y9495200D01*
X4781494Y9480052D01*
X4772862Y9471420D01*
X4765600Y9453888D01*
Y9434912D01*
X4772862Y9417380D01*
X4781494Y9408748D01*
X4784336Y9393600D01*
X4781494Y9378452D01*
X4772862Y9369820D01*
X4765600Y9352288D01*
Y9333312D01*
X4772862Y9315780D01*
X4781494Y9307148D01*
X4784336Y9292000D01*
X4781494Y9276852D01*
X4772862Y9268220D01*
X4765600Y9250688D01*
Y9231712D01*
X4772862Y9214180D01*
X4786280Y9200762D01*
X4803812Y9193500D01*
X4822788D01*
X4840320Y9200762D01*
X4853738Y9214180D01*
X4861000Y9231712D01*
Y9250688D01*
X4853738Y9268220D01*
X4845106Y9276852D01*
X4842264Y9292000D01*
X4845106Y9307148D01*
X4853738Y9315780D01*
X4861000Y9333312D01*
Y9352288D01*
X4853738Y9369820D01*
X4845106Y9378452D01*
X4842264Y9393600D01*
X4845106Y9408748D01*
X4853738Y9417380D01*
X4861000Y9434912D01*
Y9453888D01*
X4853738Y9471420D01*
X4845106Y9480052D01*
X4842264Y9495200D01*
X4845106Y9510348D01*
X4853738Y9518980D01*
X4861000Y9536512D01*
Y9555488D01*
X4853738Y9573020D01*
X4845106Y9581652D01*
X4842264Y9596800D01*
X4845106Y9611948D01*
X4853738Y9620580D01*
X4861000Y9638112D01*
Y9657088D01*
X4853738Y9674620D01*
X4845106Y9683252D01*
X4842264Y9698400D01*
X4845106Y9713548D01*
X4853738Y9722180D01*
X4861000Y9739712D01*
Y9758688D01*
X4853738Y9776220D01*
X4840320Y9789638D01*
X4833161Y9792603D01*
Y9820096D01*
X4840320Y9823062D01*
X4853738Y9836480D01*
X4861000Y9854012D01*
Y9872988D01*
X4853738Y9890520D01*
X4840320Y9903938D01*
X4822788Y9911200D01*
D02*
G37*
G36*
X3703199Y9105500D02*
X3688201D01*
X3674345Y9099761D01*
X3663739Y9089155D01*
X3658000Y9075299D01*
Y9060301D01*
X3663739Y9046445D01*
X3674345Y9035839D01*
X3688201Y9030100D01*
X3703199D01*
X3717055Y9035839D01*
X3727661Y9046445D01*
X3733400Y9060301D01*
Y9075299D01*
X3727661Y9089155D01*
X3717055Y9099761D01*
X3703199Y9105500D01*
D02*
G37*
G36*
X5608199Y9042000D02*
X5593201D01*
X5579345Y9036261D01*
X5568739Y9025655D01*
X5563000Y9011799D01*
Y8996801D01*
X5568739Y8982945D01*
X5579345Y8972339D01*
X5593201Y8966600D01*
X5608199D01*
X5622055Y8972339D01*
X5632661Y8982945D01*
X5638400Y8996801D01*
Y9011799D01*
X5632661Y9025655D01*
X5622055Y9036261D01*
X5608199Y9042000D01*
D02*
G37*
G36*
X2796796Y8999000D02*
X2765804D01*
X2735870Y8990979D01*
X2709030Y8975483D01*
X2687117Y8953570D01*
X2671621Y8926730D01*
X2663600Y8896796D01*
Y8865804D01*
X2671621Y8835870D01*
X2687117Y8809030D01*
X2709030Y8787117D01*
X2735870Y8771621D01*
X2765804Y8763600D01*
X2796796D01*
X2826730Y8771621D01*
X2853570Y8787117D01*
X2875483Y8809030D01*
X2890979Y8835870D01*
X2899000Y8865804D01*
Y8896796D01*
X2890979Y8926730D01*
X2875483Y8953570D01*
X2853570Y8975483D01*
X2826730Y8990979D01*
X2796796Y8999000D01*
D02*
G37*
G36*
X6771897Y8791703D02*
X6756898D01*
X6743042Y8785964D01*
X6732437Y8775359D01*
X6726697Y8761502D01*
Y8746504D01*
X6732437Y8732648D01*
X6743042Y8722043D01*
X6756898Y8716303D01*
X6771897D01*
X6785753Y8722043D01*
X6796358Y8732648D01*
X6802097Y8746504D01*
Y8761502D01*
X6796358Y8775359D01*
X6785753Y8785964D01*
X6771897Y8791703D01*
D02*
G37*
G36*
X7143749Y8789150D02*
X7128751D01*
X7114895Y8783411D01*
X7104290Y8772805D01*
X7098550Y8758949D01*
Y8743951D01*
X7104290Y8730095D01*
X7114895Y8719490D01*
X7128751Y8713750D01*
X7143749D01*
X7157605Y8719490D01*
X7168211Y8730095D01*
X7173950Y8743951D01*
Y8758949D01*
X7168211Y8772805D01*
X7157605Y8783411D01*
X7143749Y8789150D01*
D02*
G37*
G36*
X7157599Y8597500D02*
X7142601D01*
X7128745Y8591761D01*
X7122682Y8585698D01*
X4815318D01*
X4809255Y8591761D01*
X4795399Y8597500D01*
X4780401D01*
X4766545Y8591761D01*
X4755939Y8581155D01*
X4750200Y8567299D01*
Y8552301D01*
X4755939Y8538445D01*
X4766545Y8527839D01*
X4780401Y8522100D01*
X4795399D01*
X4809255Y8527839D01*
X4815318Y8533902D01*
X7122682D01*
X7128745Y8527839D01*
X7142601Y8522100D01*
X7157599D01*
X7171455Y8527839D01*
X7182061Y8538445D01*
X7187800Y8552301D01*
Y8567299D01*
X7182061Y8581155D01*
X7171455Y8591761D01*
X7157599Y8597500D01*
D02*
G37*
G36*
X11328233Y8738400D02*
X11303167D01*
X11278954Y8731912D01*
X11257246Y8719379D01*
X11239521Y8701654D01*
X11226988Y8679946D01*
X11220500Y8655734D01*
Y8630667D01*
X11226988Y8606454D01*
X11239521Y8584746D01*
X11257246Y8567021D01*
X11278954Y8554488D01*
X11303167Y8548000D01*
X11328233D01*
X11352446Y8554488D01*
X11374154Y8567021D01*
X11391879Y8584746D01*
X11404412Y8606454D01*
X11410900Y8630667D01*
Y8655734D01*
X11404412Y8679946D01*
X11391879Y8701654D01*
X11374154Y8719379D01*
X11352446Y8731912D01*
X11328233Y8738400D01*
D02*
G37*
G36*
X11044233Y8599900D02*
X11019167D01*
X10994954Y8593412D01*
X10973246Y8580879D01*
X10955521Y8563154D01*
X10942988Y8541446D01*
X10936500Y8517233D01*
Y8492167D01*
X10942988Y8467954D01*
X10955521Y8446246D01*
X10973246Y8428521D01*
X10994954Y8415988D01*
X11019167Y8409500D01*
X11044233D01*
X11068446Y8415988D01*
X11090154Y8428521D01*
X11107879Y8446246D01*
X11120412Y8467954D01*
X11126900Y8492167D01*
Y8517233D01*
X11120412Y8541446D01*
X11107879Y8563154D01*
X11090154Y8580879D01*
X11068446Y8593412D01*
X11044233Y8599900D01*
D02*
G37*
G36*
X6771897Y8474203D02*
X6756898D01*
X6743042Y8468464D01*
X6732437Y8457859D01*
X6726697Y8444002D01*
Y8429004D01*
X6732437Y8415148D01*
X6743042Y8404543D01*
X6756898Y8398803D01*
X6771897D01*
X6785753Y8404543D01*
X6796358Y8415148D01*
X6802097Y8429004D01*
Y8444002D01*
X6796358Y8457859D01*
X6785753Y8468464D01*
X6771897Y8474203D01*
D02*
G37*
G36*
X7143700Y8471903D02*
X7128702D01*
X7114846Y8466163D01*
X7104241Y8455558D01*
X7098501Y8441702D01*
Y8426703D01*
X7104241Y8412847D01*
X7114846Y8402242D01*
X7128702Y8396503D01*
X7143700D01*
X7157556Y8402242D01*
X7168162Y8412847D01*
X7173901Y8426703D01*
Y8441702D01*
X7168162Y8455558D01*
X7157556Y8466163D01*
X7143700Y8471903D01*
D02*
G37*
G36*
X9773799Y8445100D02*
X9758801D01*
X9744945Y8439361D01*
X9734339Y8428755D01*
X9728600Y8414899D01*
Y8399901D01*
X9734339Y8386045D01*
X9744945Y8375439D01*
X9758801Y8369700D01*
X9773799D01*
X9787655Y8375439D01*
X9798261Y8386045D01*
X9804000Y8399901D01*
Y8414899D01*
X9798261Y8428755D01*
X9787655Y8439361D01*
X9773799Y8445100D01*
D02*
G37*
G36*
X7360799Y8407000D02*
X7345801D01*
X7331945Y8401261D01*
X7321339Y8390655D01*
X7315600Y8376799D01*
Y8361801D01*
X7321339Y8347945D01*
X7331945Y8337339D01*
X7345801Y8331600D01*
X7360799D01*
X7374655Y8337339D01*
X7385261Y8347945D01*
X7391000Y8361801D01*
Y8376799D01*
X7385261Y8390655D01*
X7374655Y8401261D01*
X7360799Y8407000D01*
D02*
G37*
G36*
X4289388Y8848800D02*
X4270412D01*
X4252880Y8841538D01*
X4239462Y8828120D01*
X4232200Y8810588D01*
Y8791612D01*
X4239462Y8774080D01*
X4252880Y8760662D01*
X4260039Y8757696D01*
Y8730204D01*
X4252880Y8727238D01*
X4239462Y8713820D01*
X4232200Y8696288D01*
Y8677312D01*
X4239462Y8659780D01*
X4248094Y8651148D01*
X4250936Y8636000D01*
X4248094Y8620852D01*
X4239462Y8612220D01*
X4232200Y8594688D01*
Y8575712D01*
X4239462Y8558180D01*
X4248094Y8549548D01*
X4250936Y8534400D01*
X4248094Y8519252D01*
X4239462Y8510620D01*
X4232200Y8493088D01*
Y8474112D01*
X4239462Y8456580D01*
X4248094Y8447948D01*
X4250936Y8432800D01*
X4248094Y8417652D01*
X4239462Y8409020D01*
X4232200Y8391488D01*
Y8372512D01*
X4239462Y8354980D01*
X4248094Y8346348D01*
X4250936Y8331200D01*
X4248094Y8316052D01*
X4239462Y8307420D01*
X4232200Y8289888D01*
Y8270912D01*
X4239462Y8253380D01*
X4248094Y8244748D01*
X4250936Y8229600D01*
X4248094Y8214452D01*
X4239462Y8205820D01*
X4232200Y8188288D01*
Y8169312D01*
X4239462Y8151780D01*
X4252880Y8138362D01*
X4270412Y8131100D01*
X4289388D01*
X4306920Y8138362D01*
X4320338Y8151780D01*
X4327600Y8169312D01*
Y8188288D01*
X4320338Y8205820D01*
X4311706Y8214452D01*
X4308864Y8229600D01*
X4311706Y8244748D01*
X4320338Y8253380D01*
X4327600Y8270912D01*
Y8289888D01*
X4320338Y8307420D01*
X4311706Y8316052D01*
X4308864Y8331200D01*
X4311706Y8346348D01*
X4320338Y8354980D01*
X4327600Y8372512D01*
Y8391488D01*
X4320338Y8409020D01*
X4311706Y8417652D01*
X4308864Y8432800D01*
X4311706Y8447948D01*
X4320338Y8456580D01*
X4327600Y8474112D01*
Y8493088D01*
X4320338Y8510620D01*
X4311706Y8519252D01*
X4308864Y8534400D01*
X4311706Y8549548D01*
X4320338Y8558180D01*
X4327600Y8575712D01*
Y8594688D01*
X4320338Y8612220D01*
X4311706Y8620852D01*
X4308864Y8636000D01*
X4311706Y8651148D01*
X4320338Y8659780D01*
X4327600Y8677312D01*
Y8696288D01*
X4320338Y8713820D01*
X4306920Y8727238D01*
X4299761Y8730204D01*
Y8757696D01*
X4306920Y8760662D01*
X4320338Y8774080D01*
X4327600Y8791612D01*
Y8810588D01*
X4320338Y8828120D01*
X4306920Y8841538D01*
X4289388Y8848800D01*
D02*
G37*
G36*
X4149688D02*
X4130712D01*
X4113180Y8841538D01*
X4099762Y8828120D01*
X4092500Y8810588D01*
Y8791612D01*
X4099762Y8774080D01*
X4113180Y8760662D01*
X4120339Y8757696D01*
Y8730204D01*
X4113180Y8727238D01*
X4099762Y8713820D01*
X4092500Y8696288D01*
Y8677312D01*
X4099762Y8659780D01*
X4108394Y8651148D01*
X4111236Y8636000D01*
X4108394Y8620852D01*
X4099762Y8612220D01*
X4092500Y8594688D01*
Y8575712D01*
X4099762Y8558180D01*
X4108394Y8549548D01*
X4111236Y8534400D01*
X4108394Y8519252D01*
X4099762Y8510620D01*
X4092500Y8493088D01*
Y8474112D01*
X4099762Y8456580D01*
X4108394Y8447948D01*
X4111236Y8432800D01*
X4108394Y8417652D01*
X4099762Y8409020D01*
X4092500Y8391488D01*
Y8372512D01*
X4099762Y8354980D01*
X4108394Y8346348D01*
X4111236Y8331200D01*
X4108394Y8316052D01*
X4099762Y8307420D01*
X4092500Y8289888D01*
Y8270912D01*
X4099762Y8253380D01*
X4108394Y8244748D01*
X4111236Y8229600D01*
X4108394Y8214452D01*
X4099762Y8205820D01*
X4092500Y8188288D01*
Y8169312D01*
X4099762Y8151780D01*
X4113180Y8138362D01*
X4130712Y8131100D01*
X4149688D01*
X4167220Y8138362D01*
X4180638Y8151780D01*
X4187900Y8169312D01*
Y8188288D01*
X4180638Y8205820D01*
X4172006Y8214452D01*
X4169164Y8229600D01*
X4172006Y8244748D01*
X4180638Y8253380D01*
X4187900Y8270912D01*
Y8289888D01*
X4180638Y8307420D01*
X4172006Y8316052D01*
X4169164Y8331200D01*
X4172006Y8346348D01*
X4180638Y8354980D01*
X4187900Y8372512D01*
Y8391488D01*
X4180638Y8409020D01*
X4172006Y8417652D01*
X4169164Y8432800D01*
X4172006Y8447948D01*
X4180638Y8456580D01*
X4187900Y8474112D01*
Y8493088D01*
X4180638Y8510620D01*
X4172006Y8519252D01*
X4169164Y8534400D01*
X4172006Y8549548D01*
X4180638Y8558180D01*
X4187900Y8575712D01*
Y8594688D01*
X4180638Y8612220D01*
X4172006Y8620852D01*
X4169164Y8636000D01*
X4172006Y8651148D01*
X4180638Y8659780D01*
X4187900Y8677312D01*
Y8696288D01*
X4180638Y8713820D01*
X4167220Y8727238D01*
X4160061Y8730204D01*
Y8757696D01*
X4167220Y8760662D01*
X4180638Y8774080D01*
X4187900Y8791612D01*
Y8810588D01*
X4180638Y8828120D01*
X4167220Y8841538D01*
X4149688Y8848800D01*
D02*
G37*
G36*
X4009988D02*
X3991012D01*
X3973480Y8841538D01*
X3960062Y8828120D01*
X3952800Y8810588D01*
Y8791612D01*
X3960062Y8774080D01*
X3973480Y8760662D01*
X3980639Y8757696D01*
Y8730204D01*
X3973480Y8727238D01*
X3960062Y8713820D01*
X3952800Y8696288D01*
Y8677312D01*
X3960062Y8659780D01*
X3968694Y8651148D01*
X3971536Y8636000D01*
X3968694Y8620852D01*
X3960062Y8612220D01*
X3952800Y8594688D01*
Y8575712D01*
X3960062Y8558180D01*
X3968694Y8549548D01*
X3971536Y8534400D01*
X3968694Y8519252D01*
X3960062Y8510620D01*
X3952800Y8493088D01*
Y8474112D01*
X3960062Y8456580D01*
X3968694Y8447948D01*
X3971536Y8432800D01*
X3968694Y8417652D01*
X3960062Y8409020D01*
X3952800Y8391488D01*
Y8372512D01*
X3960062Y8354980D01*
X3968694Y8346348D01*
X3971536Y8331200D01*
X3968694Y8316052D01*
X3960062Y8307420D01*
X3952800Y8289888D01*
Y8270912D01*
X3960062Y8253380D01*
X3968694Y8244748D01*
X3971536Y8229600D01*
X3968694Y8214452D01*
X3960062Y8205820D01*
X3952800Y8188288D01*
Y8169312D01*
X3960062Y8151780D01*
X3973480Y8138362D01*
X3991012Y8131100D01*
X4009988D01*
X4027520Y8138362D01*
X4040938Y8151780D01*
X4048200Y8169312D01*
Y8188288D01*
X4040938Y8205820D01*
X4032306Y8214452D01*
X4029464Y8229600D01*
X4032306Y8244748D01*
X4040938Y8253380D01*
X4048200Y8270912D01*
Y8289888D01*
X4040938Y8307420D01*
X4032306Y8316052D01*
X4029464Y8331200D01*
X4032306Y8346348D01*
X4040938Y8354980D01*
X4048200Y8372512D01*
Y8391488D01*
X4040938Y8409020D01*
X4032306Y8417652D01*
X4029464Y8432800D01*
X4032306Y8447948D01*
X4040938Y8456580D01*
X4048200Y8474112D01*
Y8493088D01*
X4040938Y8510620D01*
X4032306Y8519252D01*
X4029464Y8534400D01*
X4032306Y8549548D01*
X4040938Y8558180D01*
X4048200Y8575712D01*
Y8594688D01*
X4040938Y8612220D01*
X4032306Y8620852D01*
X4029464Y8636000D01*
X4032306Y8651148D01*
X4040938Y8659780D01*
X4048200Y8677312D01*
Y8696288D01*
X4040938Y8713820D01*
X4027520Y8727238D01*
X4020361Y8730204D01*
Y8757696D01*
X4027520Y8760662D01*
X4040938Y8774080D01*
X4048200Y8791612D01*
Y8810588D01*
X4040938Y8828120D01*
X4027520Y8841538D01*
X4009988Y8848800D01*
D02*
G37*
G36*
X3870288D02*
X3851312D01*
X3833780Y8841538D01*
X3820362Y8828120D01*
X3813100Y8810588D01*
Y8791612D01*
X3820362Y8774080D01*
X3833780Y8760662D01*
X3840939Y8757696D01*
Y8730204D01*
X3833780Y8727238D01*
X3820362Y8713820D01*
X3813100Y8696288D01*
Y8677312D01*
X3820362Y8659780D01*
X3828994Y8651148D01*
X3831836Y8636000D01*
X3828994Y8620852D01*
X3820362Y8612220D01*
X3813100Y8594688D01*
Y8575712D01*
X3820362Y8558180D01*
X3828994Y8549548D01*
X3831836Y8534400D01*
X3828994Y8519252D01*
X3820362Y8510620D01*
X3813100Y8493088D01*
Y8474112D01*
X3820362Y8456580D01*
X3828994Y8447948D01*
X3831836Y8432800D01*
X3828994Y8417652D01*
X3820362Y8409020D01*
X3813100Y8391488D01*
Y8372512D01*
X3820362Y8354980D01*
X3828994Y8346348D01*
X3831836Y8331200D01*
X3828994Y8316052D01*
X3820362Y8307420D01*
X3813100Y8289888D01*
Y8270912D01*
X3820362Y8253380D01*
X3828994Y8244748D01*
X3831836Y8229600D01*
X3828994Y8214452D01*
X3820362Y8205820D01*
X3813100Y8188288D01*
Y8169312D01*
X3820362Y8151780D01*
X3833780Y8138362D01*
X3851312Y8131100D01*
X3870288D01*
X3887820Y8138362D01*
X3901238Y8151780D01*
X3908500Y8169312D01*
Y8188288D01*
X3901238Y8205820D01*
X3892606Y8214452D01*
X3889764Y8229600D01*
X3892606Y8244748D01*
X3901238Y8253380D01*
X3908500Y8270912D01*
Y8289888D01*
X3901238Y8307420D01*
X3892606Y8316052D01*
X3889764Y8331200D01*
X3892606Y8346348D01*
X3901238Y8354980D01*
X3908500Y8372512D01*
Y8391488D01*
X3901238Y8409020D01*
X3892606Y8417652D01*
X3889764Y8432800D01*
X3892606Y8447948D01*
X3901238Y8456580D01*
X3908500Y8474112D01*
Y8493088D01*
X3901238Y8510620D01*
X3892606Y8519252D01*
X3889764Y8534400D01*
X3892606Y8549548D01*
X3901238Y8558180D01*
X3908500Y8575712D01*
Y8594688D01*
X3901238Y8612220D01*
X3892606Y8620852D01*
X3889764Y8636000D01*
X3892606Y8651148D01*
X3901238Y8659780D01*
X3908500Y8677312D01*
Y8696288D01*
X3901238Y8713820D01*
X3887820Y8727238D01*
X3880661Y8730204D01*
Y8757696D01*
X3887820Y8760662D01*
X3901238Y8774080D01*
X3908500Y8791612D01*
Y8810588D01*
X3901238Y8828120D01*
X3887820Y8841538D01*
X3870288Y8848800D01*
D02*
G37*
G36*
X3730588D02*
X3711612D01*
X3694080Y8841538D01*
X3680662Y8828120D01*
X3673400Y8810588D01*
Y8791612D01*
X3680662Y8774080D01*
X3694080Y8760662D01*
X3701239Y8757696D01*
Y8730204D01*
X3694080Y8727238D01*
X3680662Y8713820D01*
X3673400Y8696288D01*
Y8677312D01*
X3680662Y8659780D01*
X3689294Y8651148D01*
X3692136Y8636000D01*
X3689294Y8620852D01*
X3680662Y8612220D01*
X3673400Y8594688D01*
Y8575712D01*
X3680662Y8558180D01*
X3689294Y8549548D01*
X3692136Y8534400D01*
X3689294Y8519252D01*
X3680662Y8510620D01*
X3673400Y8493088D01*
Y8474112D01*
X3680662Y8456580D01*
X3689294Y8447948D01*
X3692136Y8432800D01*
X3689294Y8417652D01*
X3680662Y8409020D01*
X3673400Y8391488D01*
Y8372512D01*
X3680662Y8354980D01*
X3689294Y8346348D01*
X3692136Y8331200D01*
X3689294Y8316052D01*
X3680662Y8307420D01*
X3673400Y8289888D01*
Y8270912D01*
X3680662Y8253380D01*
X3689294Y8244748D01*
X3692136Y8229600D01*
X3689294Y8214452D01*
X3680662Y8205820D01*
X3673400Y8188288D01*
Y8169312D01*
X3680662Y8151780D01*
X3694080Y8138362D01*
X3711612Y8131100D01*
X3730588D01*
X3748120Y8138362D01*
X3761538Y8151780D01*
X3768800Y8169312D01*
Y8188288D01*
X3761538Y8205820D01*
X3752906Y8214452D01*
X3750064Y8229600D01*
X3752906Y8244748D01*
X3761538Y8253380D01*
X3768800Y8270912D01*
Y8289888D01*
X3761538Y8307420D01*
X3752906Y8316052D01*
X3750064Y8331200D01*
X3752906Y8346348D01*
X3761538Y8354980D01*
X3768800Y8372512D01*
Y8391488D01*
X3761538Y8409020D01*
X3752906Y8417652D01*
X3750064Y8432800D01*
X3752906Y8447948D01*
X3761538Y8456580D01*
X3768800Y8474112D01*
Y8493088D01*
X3761538Y8510620D01*
X3752906Y8519252D01*
X3750064Y8534400D01*
X3752906Y8549548D01*
X3761538Y8558180D01*
X3768800Y8575712D01*
Y8594688D01*
X3761538Y8612220D01*
X3752906Y8620852D01*
X3750064Y8636000D01*
X3752906Y8651148D01*
X3761538Y8659780D01*
X3768800Y8677312D01*
Y8696288D01*
X3761538Y8713820D01*
X3748120Y8727238D01*
X3740961Y8730204D01*
Y8757696D01*
X3748120Y8760662D01*
X3761538Y8774080D01*
X3768800Y8791612D01*
Y8810588D01*
X3761538Y8828120D01*
X3748120Y8841538D01*
X3730588Y8848800D01*
D02*
G37*
G36*
X3590888D02*
X3571912D01*
X3554380Y8841538D01*
X3540962Y8828120D01*
X3533700Y8810588D01*
Y8791612D01*
X3540962Y8774080D01*
X3554380Y8760662D01*
X3561539Y8757696D01*
Y8730204D01*
X3554380Y8727238D01*
X3540962Y8713820D01*
X3533700Y8696288D01*
Y8677312D01*
X3540962Y8659780D01*
X3549594Y8651148D01*
X3552436Y8636000D01*
X3549594Y8620852D01*
X3540962Y8612220D01*
X3533700Y8594688D01*
Y8575712D01*
X3540962Y8558180D01*
X3549594Y8549548D01*
X3552436Y8534400D01*
X3549594Y8519252D01*
X3540962Y8510620D01*
X3533700Y8493088D01*
Y8474112D01*
X3540962Y8456580D01*
X3549594Y8447948D01*
X3552436Y8432800D01*
X3549594Y8417652D01*
X3540962Y8409020D01*
X3533700Y8391488D01*
Y8372512D01*
X3540962Y8354980D01*
X3549594Y8346348D01*
X3552436Y8331200D01*
X3549594Y8316052D01*
X3540962Y8307420D01*
X3533700Y8289888D01*
Y8270912D01*
X3540962Y8253380D01*
X3549594Y8244748D01*
X3552436Y8229600D01*
X3549594Y8214452D01*
X3540962Y8205820D01*
X3533700Y8188288D01*
Y8169312D01*
X3540962Y8151780D01*
X3554380Y8138362D01*
X3571912Y8131100D01*
X3590888D01*
X3608420Y8138362D01*
X3621838Y8151780D01*
X3629100Y8169312D01*
Y8188288D01*
X3621838Y8205820D01*
X3613206Y8214452D01*
X3610364Y8229600D01*
X3613206Y8244748D01*
X3621838Y8253380D01*
X3629100Y8270912D01*
Y8289888D01*
X3621838Y8307420D01*
X3613206Y8316052D01*
X3610364Y8331200D01*
X3613206Y8346348D01*
X3621838Y8354980D01*
X3629100Y8372512D01*
Y8391488D01*
X3621838Y8409020D01*
X3613206Y8417652D01*
X3610364Y8432800D01*
X3613206Y8447948D01*
X3621838Y8456580D01*
X3629100Y8474112D01*
Y8493088D01*
X3621838Y8510620D01*
X3613206Y8519252D01*
X3610364Y8534400D01*
X3613206Y8549548D01*
X3621838Y8558180D01*
X3629100Y8575712D01*
Y8594688D01*
X3621838Y8612220D01*
X3613206Y8620852D01*
X3610364Y8636000D01*
X3613206Y8651148D01*
X3621838Y8659780D01*
X3629100Y8677312D01*
Y8696288D01*
X3621838Y8713820D01*
X3608420Y8727238D01*
X3601261Y8730204D01*
Y8757696D01*
X3608420Y8760662D01*
X3621838Y8774080D01*
X3629100Y8791612D01*
Y8810588D01*
X3621838Y8828120D01*
X3608420Y8841538D01*
X3590888Y8848800D01*
D02*
G37*
G36*
X3451188D02*
X3432212D01*
X3414680Y8841538D01*
X3401262Y8828120D01*
X3394000Y8810588D01*
Y8791612D01*
X3401262Y8774080D01*
X3414680Y8760662D01*
X3421839Y8757696D01*
Y8730204D01*
X3414680Y8727238D01*
X3401262Y8713820D01*
X3394000Y8696288D01*
Y8677312D01*
X3401262Y8659780D01*
X3409894Y8651148D01*
X3412736Y8636000D01*
X3409894Y8620852D01*
X3401262Y8612220D01*
X3394000Y8594688D01*
Y8575712D01*
X3401262Y8558180D01*
X3409894Y8549548D01*
X3412736Y8534400D01*
X3409894Y8519252D01*
X3401262Y8510620D01*
X3394000Y8493088D01*
Y8474112D01*
X3401262Y8456580D01*
X3409894Y8447948D01*
X3412736Y8432800D01*
X3409894Y8417652D01*
X3401262Y8409020D01*
X3394000Y8391488D01*
Y8372512D01*
X3401262Y8354980D01*
X3409894Y8346348D01*
X3412736Y8331200D01*
X3409894Y8316052D01*
X3401262Y8307420D01*
X3394000Y8289888D01*
Y8270912D01*
X3401262Y8253380D01*
X3409894Y8244748D01*
X3412736Y8229600D01*
X3409894Y8214452D01*
X3401262Y8205820D01*
X3394000Y8188288D01*
Y8169312D01*
X3401262Y8151780D01*
X3414680Y8138362D01*
X3432212Y8131100D01*
X3451188D01*
X3468720Y8138362D01*
X3482138Y8151780D01*
X3489400Y8169312D01*
Y8188288D01*
X3482138Y8205820D01*
X3473506Y8214452D01*
X3470664Y8229600D01*
X3473506Y8244748D01*
X3482138Y8253380D01*
X3489400Y8270912D01*
Y8289888D01*
X3482138Y8307420D01*
X3473506Y8316052D01*
X3470664Y8331200D01*
X3473506Y8346348D01*
X3482138Y8354980D01*
X3489400Y8372512D01*
Y8391488D01*
X3482138Y8409020D01*
X3473506Y8417652D01*
X3470664Y8432800D01*
X3473506Y8447948D01*
X3482138Y8456580D01*
X3489400Y8474112D01*
Y8493088D01*
X3482138Y8510620D01*
X3473506Y8519252D01*
X3470664Y8534400D01*
X3473506Y8549548D01*
X3482138Y8558180D01*
X3489400Y8575712D01*
Y8594688D01*
X3482138Y8612220D01*
X3473506Y8620852D01*
X3470664Y8636000D01*
X3473506Y8651148D01*
X3482138Y8659780D01*
X3489400Y8677312D01*
Y8696288D01*
X3482138Y8713820D01*
X3468720Y8727238D01*
X3461561Y8730204D01*
Y8757696D01*
X3468720Y8760662D01*
X3482138Y8774080D01*
X3489400Y8791612D01*
Y8810588D01*
X3482138Y8828120D01*
X3468720Y8841538D01*
X3451188Y8848800D01*
D02*
G37*
G36*
X11199470Y8070850D02*
X11186400D01*
Y7821900D01*
X11435350D01*
Y7834970D01*
X11425295Y7885520D01*
X11405571Y7933138D01*
X11376937Y7975992D01*
X11340492Y8012437D01*
X11297638Y8041071D01*
X11250020Y8060795D01*
X11199470Y8070850D01*
D02*
G37*
G36*
X11161000D02*
X11147930D01*
X11097380Y8060795D01*
X11049762Y8041071D01*
X11006908Y8012437D01*
X10970463Y7975992D01*
X10941829Y7933138D01*
X10922105Y7885520D01*
X10912050Y7834970D01*
Y7821900D01*
X11161000D01*
Y8070850D01*
D02*
G37*
G36*
X11435350Y7796500D02*
X11186400D01*
Y7547550D01*
X11199470D01*
X11250020Y7557605D01*
X11297638Y7577329D01*
X11340492Y7605963D01*
X11376937Y7642408D01*
X11405571Y7685262D01*
X11425295Y7732880D01*
X11435350Y7783430D01*
Y7796500D01*
D02*
G37*
G36*
X11161000D02*
X10912050D01*
Y7783430D01*
X10922105Y7732880D01*
X10941829Y7685262D01*
X10970463Y7642408D01*
X11006908Y7605963D01*
X11049762Y7577329D01*
X11097380Y7557605D01*
X11147930Y7547550D01*
X11161000D01*
Y7796500D01*
D02*
G37*
G36*
X6773300Y7582833D02*
X6758302D01*
X6744445Y7577094D01*
X6733840Y7566489D01*
X6728101Y7552633D01*
Y7537634D01*
X6733840Y7523778D01*
X6744445Y7513173D01*
X6758302Y7507434D01*
X6773300D01*
X6787156Y7513173D01*
X6797761Y7523778D01*
X6803501Y7537634D01*
Y7552633D01*
X6797761Y7566489D01*
X6787156Y7577094D01*
X6773300Y7582833D01*
D02*
G37*
G36*
X7143251Y7582385D02*
X7128253D01*
X7114397Y7576645D01*
X7103792Y7566040D01*
X7098052Y7552184D01*
Y7537186D01*
X7103792Y7523329D01*
X7114397Y7512724D01*
X7128253Y7506985D01*
X7143251D01*
X7157108Y7512724D01*
X7167713Y7523329D01*
X7173452Y7537186D01*
Y7552184D01*
X7167713Y7566040D01*
X7157108Y7576645D01*
X7143251Y7582385D01*
D02*
G37*
G36*
X5660988Y8031600D02*
X5642012D01*
X5624480Y8024338D01*
X5611062Y8010920D01*
X5603800Y7993388D01*
Y7974412D01*
X5611062Y7956880D01*
X5624480Y7943462D01*
X5631639Y7940496D01*
Y7913003D01*
X5624480Y7910038D01*
X5611062Y7896620D01*
X5603800Y7879088D01*
Y7860112D01*
X5611062Y7842580D01*
X5619694Y7833948D01*
X5622536Y7818800D01*
X5619694Y7803652D01*
X5611062Y7795020D01*
X5603800Y7777488D01*
Y7758512D01*
X5611062Y7740980D01*
X5619694Y7732348D01*
X5622536Y7717200D01*
X5619694Y7702052D01*
X5611062Y7693420D01*
X5603800Y7675888D01*
Y7656912D01*
X5611062Y7639380D01*
X5619694Y7630748D01*
X5622536Y7615600D01*
X5619694Y7600452D01*
X5611062Y7591820D01*
X5603800Y7574288D01*
Y7555312D01*
X5611062Y7537780D01*
X5619694Y7529148D01*
X5622536Y7514000D01*
X5619694Y7498852D01*
X5611062Y7490220D01*
X5603800Y7472688D01*
Y7453712D01*
X5611062Y7436180D01*
X5619694Y7427548D01*
X5622536Y7412400D01*
X5619694Y7397252D01*
X5611062Y7388620D01*
X5603800Y7371088D01*
Y7352112D01*
X5611062Y7334580D01*
X5624480Y7321162D01*
X5642012Y7313900D01*
X5660988D01*
X5678520Y7321162D01*
X5691938Y7334580D01*
X5699200Y7352112D01*
Y7371088D01*
X5691938Y7388620D01*
X5683306Y7397252D01*
X5680464Y7412400D01*
X5683306Y7427548D01*
X5691938Y7436180D01*
X5699200Y7453712D01*
Y7472688D01*
X5691938Y7490220D01*
X5683306Y7498852D01*
X5680464Y7514000D01*
X5683306Y7529148D01*
X5691938Y7537780D01*
X5699200Y7555312D01*
Y7574288D01*
X5691938Y7591820D01*
X5683306Y7600452D01*
X5680464Y7615600D01*
X5683306Y7630748D01*
X5691938Y7639380D01*
X5699200Y7656912D01*
Y7675888D01*
X5691938Y7693420D01*
X5683306Y7702052D01*
X5680464Y7717200D01*
X5683306Y7732348D01*
X5691938Y7740980D01*
X5699200Y7758512D01*
Y7777488D01*
X5691938Y7795020D01*
X5683306Y7803652D01*
X5680464Y7818800D01*
X5683306Y7833948D01*
X5691938Y7842580D01*
X5699200Y7860112D01*
Y7879088D01*
X5691938Y7896620D01*
X5678520Y7910038D01*
X5671361Y7913003D01*
Y7940496D01*
X5678520Y7943462D01*
X5691938Y7956880D01*
X5699200Y7974412D01*
Y7993388D01*
X5691938Y8010920D01*
X5678520Y8024338D01*
X5660988Y8031600D01*
D02*
G37*
G36*
X5521288D02*
X5502312D01*
X5484780Y8024338D01*
X5471362Y8010920D01*
X5464100Y7993388D01*
Y7974412D01*
X5471362Y7956880D01*
X5484780Y7943462D01*
X5491939Y7940496D01*
Y7913003D01*
X5484780Y7910038D01*
X5471362Y7896620D01*
X5464100Y7879088D01*
Y7860112D01*
X5471362Y7842580D01*
X5479994Y7833948D01*
X5482836Y7818800D01*
X5479994Y7803652D01*
X5471362Y7795020D01*
X5464100Y7777488D01*
Y7758512D01*
X5471362Y7740980D01*
X5479994Y7732348D01*
X5482836Y7717200D01*
X5479994Y7702052D01*
X5471362Y7693420D01*
X5464100Y7675888D01*
Y7656912D01*
X5471362Y7639380D01*
X5479994Y7630748D01*
X5482836Y7615600D01*
X5479994Y7600452D01*
X5471362Y7591820D01*
X5464100Y7574288D01*
Y7555312D01*
X5471362Y7537780D01*
X5479994Y7529148D01*
X5482836Y7514000D01*
X5479994Y7498852D01*
X5471362Y7490220D01*
X5464100Y7472688D01*
Y7453712D01*
X5471362Y7436180D01*
X5479994Y7427548D01*
X5482836Y7412400D01*
X5479994Y7397252D01*
X5471362Y7388620D01*
X5464100Y7371088D01*
Y7352112D01*
X5471362Y7334580D01*
X5484780Y7321162D01*
X5502312Y7313900D01*
X5521288D01*
X5538820Y7321162D01*
X5552238Y7334580D01*
X5559500Y7352112D01*
Y7371088D01*
X5552238Y7388620D01*
X5543606Y7397252D01*
X5540764Y7412400D01*
X5543606Y7427548D01*
X5552238Y7436180D01*
X5559500Y7453712D01*
Y7472688D01*
X5552238Y7490220D01*
X5543606Y7498852D01*
X5540764Y7514000D01*
X5543606Y7529148D01*
X5552238Y7537780D01*
X5559500Y7555312D01*
Y7574288D01*
X5552238Y7591820D01*
X5543606Y7600452D01*
X5540764Y7615600D01*
X5543606Y7630748D01*
X5552238Y7639380D01*
X5559500Y7656912D01*
Y7675888D01*
X5552238Y7693420D01*
X5543606Y7702052D01*
X5540764Y7717200D01*
X5543606Y7732348D01*
X5552238Y7740980D01*
X5559500Y7758512D01*
Y7777488D01*
X5552238Y7795020D01*
X5543606Y7803652D01*
X5540764Y7818800D01*
X5543606Y7833948D01*
X5552238Y7842580D01*
X5559500Y7860112D01*
Y7879088D01*
X5552238Y7896620D01*
X5538820Y7910038D01*
X5531661Y7913003D01*
Y7940496D01*
X5538820Y7943462D01*
X5552238Y7956880D01*
X5559500Y7974412D01*
Y7993388D01*
X5552238Y8010920D01*
X5538820Y8024338D01*
X5521288Y8031600D01*
D02*
G37*
G36*
X5381588D02*
X5362612D01*
X5345080Y8024338D01*
X5331662Y8010920D01*
X5324400Y7993388D01*
Y7974412D01*
X5331662Y7956880D01*
X5345080Y7943462D01*
X5352239Y7940496D01*
Y7913003D01*
X5345080Y7910038D01*
X5331662Y7896620D01*
X5324400Y7879088D01*
Y7860112D01*
X5331662Y7842580D01*
X5340294Y7833948D01*
X5343136Y7818800D01*
X5340294Y7803652D01*
X5331662Y7795020D01*
X5324400Y7777488D01*
Y7758512D01*
X5331662Y7740980D01*
X5340294Y7732348D01*
X5343136Y7717200D01*
X5340294Y7702052D01*
X5331662Y7693420D01*
X5324400Y7675888D01*
Y7656912D01*
X5331662Y7639380D01*
X5340294Y7630748D01*
X5343136Y7615600D01*
X5340294Y7600452D01*
X5331662Y7591820D01*
X5324400Y7574288D01*
Y7555312D01*
X5331662Y7537780D01*
X5340294Y7529148D01*
X5343136Y7514000D01*
X5340294Y7498852D01*
X5331662Y7490220D01*
X5324400Y7472688D01*
Y7453712D01*
X5331662Y7436180D01*
X5340294Y7427548D01*
X5343136Y7412400D01*
X5340294Y7397252D01*
X5331662Y7388620D01*
X5324400Y7371088D01*
Y7352112D01*
X5331662Y7334580D01*
X5345080Y7321162D01*
X5362612Y7313900D01*
X5381588D01*
X5399120Y7321162D01*
X5412538Y7334580D01*
X5419800Y7352112D01*
Y7371088D01*
X5412538Y7388620D01*
X5403906Y7397252D01*
X5401064Y7412400D01*
X5403906Y7427548D01*
X5412538Y7436180D01*
X5419800Y7453712D01*
Y7472688D01*
X5412538Y7490220D01*
X5403906Y7498852D01*
X5401064Y7514000D01*
X5403906Y7529148D01*
X5412538Y7537780D01*
X5419800Y7555312D01*
Y7574288D01*
X5412538Y7591820D01*
X5403906Y7600452D01*
X5401064Y7615600D01*
X5403906Y7630748D01*
X5412538Y7639380D01*
X5419800Y7656912D01*
Y7675888D01*
X5412538Y7693420D01*
X5403906Y7702052D01*
X5401064Y7717200D01*
X5403906Y7732348D01*
X5412538Y7740980D01*
X5419800Y7758512D01*
Y7777488D01*
X5412538Y7795020D01*
X5403906Y7803652D01*
X5401064Y7818800D01*
X5403906Y7833948D01*
X5412538Y7842580D01*
X5419800Y7860112D01*
Y7879088D01*
X5412538Y7896620D01*
X5399120Y7910038D01*
X5391961Y7913003D01*
Y7940496D01*
X5399120Y7943462D01*
X5412538Y7956880D01*
X5419800Y7974412D01*
Y7993388D01*
X5412538Y8010920D01*
X5399120Y8024338D01*
X5381588Y8031600D01*
D02*
G37*
G36*
X5241888D02*
X5222912D01*
X5205380Y8024338D01*
X5191962Y8010920D01*
X5184700Y7993388D01*
Y7974412D01*
X5191962Y7956880D01*
X5205380Y7943462D01*
X5212539Y7940496D01*
Y7913003D01*
X5205380Y7910038D01*
X5191962Y7896620D01*
X5184700Y7879088D01*
Y7860112D01*
X5191962Y7842580D01*
X5200594Y7833948D01*
X5203436Y7818800D01*
X5200594Y7803652D01*
X5191962Y7795020D01*
X5184700Y7777488D01*
Y7758512D01*
X5191962Y7740980D01*
X5200594Y7732348D01*
X5203436Y7717200D01*
X5200594Y7702052D01*
X5191962Y7693420D01*
X5184700Y7675888D01*
Y7656912D01*
X5191962Y7639380D01*
X5200594Y7630748D01*
X5203436Y7615600D01*
X5200594Y7600452D01*
X5191962Y7591820D01*
X5184700Y7574288D01*
Y7555312D01*
X5191962Y7537780D01*
X5200594Y7529148D01*
X5203436Y7514000D01*
X5200594Y7498852D01*
X5191962Y7490220D01*
X5184700Y7472688D01*
Y7453712D01*
X5191962Y7436180D01*
X5200594Y7427548D01*
X5203436Y7412400D01*
X5200594Y7397252D01*
X5191962Y7388620D01*
X5184700Y7371088D01*
Y7352112D01*
X5191962Y7334580D01*
X5205380Y7321162D01*
X5222912Y7313900D01*
X5241888D01*
X5259420Y7321162D01*
X5272838Y7334580D01*
X5280100Y7352112D01*
Y7371088D01*
X5272838Y7388620D01*
X5264206Y7397252D01*
X5261364Y7412400D01*
X5264206Y7427548D01*
X5272838Y7436180D01*
X5280100Y7453712D01*
Y7472688D01*
X5272838Y7490220D01*
X5264206Y7498852D01*
X5261364Y7514000D01*
X5264206Y7529148D01*
X5272838Y7537780D01*
X5280100Y7555312D01*
Y7574288D01*
X5272838Y7591820D01*
X5264206Y7600452D01*
X5261364Y7615600D01*
X5264206Y7630748D01*
X5272838Y7639380D01*
X5280100Y7656912D01*
Y7675888D01*
X5272838Y7693420D01*
X5264206Y7702052D01*
X5261364Y7717200D01*
X5264206Y7732348D01*
X5272838Y7740980D01*
X5280100Y7758512D01*
Y7777488D01*
X5272838Y7795020D01*
X5264206Y7803652D01*
X5261364Y7818800D01*
X5264206Y7833948D01*
X5272838Y7842580D01*
X5280100Y7860112D01*
Y7879088D01*
X5272838Y7896620D01*
X5259420Y7910038D01*
X5252261Y7913003D01*
Y7940496D01*
X5259420Y7943462D01*
X5272838Y7956880D01*
X5280100Y7974412D01*
Y7993388D01*
X5272838Y8010920D01*
X5259420Y8024338D01*
X5241888Y8031600D01*
D02*
G37*
G36*
X5102188D02*
X5083212D01*
X5065680Y8024338D01*
X5052262Y8010920D01*
X5045000Y7993388D01*
Y7974412D01*
X5052262Y7956880D01*
X5065680Y7943462D01*
X5072839Y7940496D01*
Y7913003D01*
X5065680Y7910038D01*
X5052262Y7896620D01*
X5045000Y7879088D01*
Y7860112D01*
X5052262Y7842580D01*
X5060894Y7833948D01*
X5063736Y7818800D01*
X5060894Y7803652D01*
X5052262Y7795020D01*
X5045000Y7777488D01*
Y7758512D01*
X5052262Y7740980D01*
X5060894Y7732348D01*
X5063736Y7717200D01*
X5060894Y7702052D01*
X5052262Y7693420D01*
X5045000Y7675888D01*
Y7656912D01*
X5052262Y7639380D01*
X5060894Y7630748D01*
X5063736Y7615600D01*
X5060894Y7600452D01*
X5052262Y7591820D01*
X5045000Y7574288D01*
Y7555312D01*
X5052262Y7537780D01*
X5060894Y7529148D01*
X5063736Y7514000D01*
X5060894Y7498852D01*
X5052262Y7490220D01*
X5045000Y7472688D01*
Y7453712D01*
X5052262Y7436180D01*
X5060894Y7427548D01*
X5063736Y7412400D01*
X5060894Y7397252D01*
X5052262Y7388620D01*
X5045000Y7371088D01*
Y7352112D01*
X5052262Y7334580D01*
X5065680Y7321162D01*
X5083212Y7313900D01*
X5102188D01*
X5119720Y7321162D01*
X5133138Y7334580D01*
X5140400Y7352112D01*
Y7371088D01*
X5133138Y7388620D01*
X5124506Y7397252D01*
X5121664Y7412400D01*
X5124506Y7427548D01*
X5133138Y7436180D01*
X5140400Y7453712D01*
Y7472688D01*
X5133138Y7490220D01*
X5124506Y7498852D01*
X5121664Y7514000D01*
X5124506Y7529148D01*
X5133138Y7537780D01*
X5140400Y7555312D01*
Y7574288D01*
X5133138Y7591820D01*
X5124506Y7600452D01*
X5121664Y7615600D01*
X5124506Y7630748D01*
X5133138Y7639380D01*
X5140400Y7656912D01*
Y7675888D01*
X5133138Y7693420D01*
X5124506Y7702052D01*
X5121664Y7717200D01*
X5124506Y7732348D01*
X5133138Y7740980D01*
X5140400Y7758512D01*
Y7777488D01*
X5133138Y7795020D01*
X5124506Y7803652D01*
X5121664Y7818800D01*
X5124506Y7833948D01*
X5133138Y7842580D01*
X5140400Y7860112D01*
Y7879088D01*
X5133138Y7896620D01*
X5119720Y7910038D01*
X5112561Y7913003D01*
Y7940496D01*
X5119720Y7943462D01*
X5133138Y7956880D01*
X5140400Y7974412D01*
Y7993388D01*
X5133138Y8010920D01*
X5119720Y8024338D01*
X5102188Y8031600D01*
D02*
G37*
G36*
X4962488D02*
X4943512D01*
X4925980Y8024338D01*
X4912562Y8010920D01*
X4905300Y7993388D01*
Y7974412D01*
X4912562Y7956880D01*
X4925980Y7943462D01*
X4933139Y7940496D01*
Y7913003D01*
X4925980Y7910038D01*
X4912562Y7896620D01*
X4905300Y7879088D01*
Y7860112D01*
X4912562Y7842580D01*
X4921194Y7833948D01*
X4924036Y7818800D01*
X4921194Y7803652D01*
X4912562Y7795020D01*
X4905300Y7777488D01*
Y7758512D01*
X4912562Y7740980D01*
X4921194Y7732348D01*
X4924036Y7717200D01*
X4921194Y7702052D01*
X4912562Y7693420D01*
X4905300Y7675888D01*
Y7656912D01*
X4912562Y7639380D01*
X4921194Y7630748D01*
X4924036Y7615600D01*
X4921194Y7600452D01*
X4912562Y7591820D01*
X4905300Y7574288D01*
Y7555312D01*
X4912562Y7537780D01*
X4921194Y7529148D01*
X4924036Y7514000D01*
X4921194Y7498852D01*
X4912562Y7490220D01*
X4905300Y7472688D01*
Y7453712D01*
X4912562Y7436180D01*
X4921194Y7427548D01*
X4924036Y7412400D01*
X4921194Y7397252D01*
X4912562Y7388620D01*
X4905300Y7371088D01*
Y7352112D01*
X4912562Y7334580D01*
X4925980Y7321162D01*
X4943512Y7313900D01*
X4962488D01*
X4980020Y7321162D01*
X4993438Y7334580D01*
X5000700Y7352112D01*
Y7371088D01*
X4993438Y7388620D01*
X4984806Y7397252D01*
X4981964Y7412400D01*
X4984806Y7427548D01*
X4993438Y7436180D01*
X5000700Y7453712D01*
Y7472688D01*
X4993438Y7490220D01*
X4984806Y7498852D01*
X4981964Y7514000D01*
X4984806Y7529148D01*
X4993438Y7537780D01*
X5000700Y7555312D01*
Y7574288D01*
X4993438Y7591820D01*
X4984806Y7600452D01*
X4981964Y7615600D01*
X4984806Y7630748D01*
X4993438Y7639380D01*
X5000700Y7656912D01*
Y7675888D01*
X4993438Y7693420D01*
X4984806Y7702052D01*
X4981964Y7717200D01*
X4984806Y7732348D01*
X4993438Y7740980D01*
X5000700Y7758512D01*
Y7777488D01*
X4993438Y7795020D01*
X4984806Y7803652D01*
X4981964Y7818800D01*
X4984806Y7833948D01*
X4993438Y7842580D01*
X5000700Y7860112D01*
Y7879088D01*
X4993438Y7896620D01*
X4980020Y7910038D01*
X4972861Y7913003D01*
Y7940496D01*
X4980020Y7943462D01*
X4993438Y7956880D01*
X5000700Y7974412D01*
Y7993388D01*
X4993438Y8010920D01*
X4980020Y8024338D01*
X4962488Y8031600D01*
D02*
G37*
G36*
X4822788D02*
X4803812D01*
X4786280Y8024338D01*
X4772862Y8010920D01*
X4765600Y7993388D01*
Y7974412D01*
X4772862Y7956880D01*
X4786280Y7943462D01*
X4793439Y7940496D01*
Y7913003D01*
X4786280Y7910038D01*
X4772862Y7896620D01*
X4765600Y7879088D01*
Y7860112D01*
X4772862Y7842580D01*
X4781494Y7833948D01*
X4784336Y7818800D01*
X4781494Y7803652D01*
X4772862Y7795020D01*
X4765600Y7777488D01*
Y7758512D01*
X4772862Y7740980D01*
X4781494Y7732348D01*
X4784336Y7717200D01*
X4781494Y7702052D01*
X4772862Y7693420D01*
X4765600Y7675888D01*
Y7656912D01*
X4772862Y7639380D01*
X4781494Y7630748D01*
X4784336Y7615600D01*
X4781494Y7600452D01*
X4772862Y7591820D01*
X4765600Y7574288D01*
Y7555312D01*
X4772862Y7537780D01*
X4781494Y7529148D01*
X4784336Y7514000D01*
X4781494Y7498852D01*
X4772862Y7490220D01*
X4765600Y7472688D01*
Y7453712D01*
X4772862Y7436180D01*
X4781494Y7427548D01*
X4784336Y7412400D01*
X4781494Y7397252D01*
X4772862Y7388620D01*
X4765600Y7371088D01*
Y7352112D01*
X4772862Y7334580D01*
X4786280Y7321162D01*
X4803812Y7313900D01*
X4822788D01*
X4840320Y7321162D01*
X4853738Y7334580D01*
X4861000Y7352112D01*
Y7371088D01*
X4853738Y7388620D01*
X4845106Y7397252D01*
X4842264Y7412400D01*
X4845106Y7427548D01*
X4853738Y7436180D01*
X4861000Y7453712D01*
Y7472688D01*
X4853738Y7490220D01*
X4845106Y7498852D01*
X4842264Y7514000D01*
X4845106Y7529148D01*
X4853738Y7537780D01*
X4861000Y7555312D01*
Y7574288D01*
X4853738Y7591820D01*
X4845106Y7600452D01*
X4842264Y7615600D01*
X4845106Y7630748D01*
X4853738Y7639380D01*
X4861000Y7656912D01*
Y7675888D01*
X4853738Y7693420D01*
X4845106Y7702052D01*
X4842264Y7717200D01*
X4845106Y7732348D01*
X4853738Y7740980D01*
X4861000Y7758512D01*
Y7777488D01*
X4853738Y7795020D01*
X4845106Y7803652D01*
X4842264Y7818800D01*
X4845106Y7833948D01*
X4853738Y7842580D01*
X4861000Y7860112D01*
Y7879088D01*
X4853738Y7896620D01*
X4840320Y7910038D01*
X4833161Y7913003D01*
Y7940496D01*
X4840320Y7943462D01*
X4853738Y7956880D01*
X4861000Y7974412D01*
Y7993388D01*
X4853738Y8010920D01*
X4840320Y8024338D01*
X4822788Y8031600D01*
D02*
G37*
%LPD*%
D39*
X5937618Y9772282D02*
X7156082D01*
X5448300Y10261600D02*
X5937618Y9772282D01*
X4483100Y10261600D02*
X5448300D01*
X4787900Y8559800D02*
X7150100D01*
X9510437Y11272346D02*
X9515144Y11277052D01*
X9481646Y11272346D02*
X9510437D01*
X9303475Y11094175D02*
X9481646Y11272346D01*
X9300965Y11058249D02*
X9303475Y11060759D01*
Y11094175D01*
D43*
X11493500Y11768900D02*
D03*
X2781300Y11421300D02*
D03*
Y11921300D02*
D03*
Y8881300D02*
D03*
D44*
X11493500Y11268900D02*
D03*
X2781300Y9381300D02*
D03*
D45*
X6350000Y11578400D02*
D03*
D46*
Y11078400D02*
D03*
D47*
X11031700Y9612700D02*
D03*
Y9335700D02*
D03*
Y9058700D02*
D03*
Y8781700D02*
D03*
Y8504700D02*
D03*
X11315700Y9474200D02*
D03*
Y9197200D02*
D03*
Y8920200D02*
D03*
Y8643200D02*
D03*
D48*
X11173700Y10308200D02*
D03*
Y7809200D02*
D03*
D49*
X8521700Y8343900D02*
D03*
Y8089900D02*
D03*
Y7835900D02*
D03*
Y7581900D02*
D03*
D50*
Y7327900D02*
D03*
D51*
X5651500Y9863500D02*
D03*
X5511800D02*
D03*
X5651500Y9749200D02*
D03*
X5511800D02*
D03*
X5372100Y9863500D02*
D03*
Y9749200D02*
D03*
X5232400Y9863500D02*
D03*
Y9749200D02*
D03*
X5092700Y9863500D02*
D03*
X4953000D02*
D03*
X5092700Y9749200D02*
D03*
X4813300Y7983900D02*
D03*
X4953000D02*
D03*
X4813300Y7869600D02*
D03*
X4953000D02*
D03*
Y7768000D02*
D03*
X4813300D02*
D03*
X4953000Y7564800D02*
D03*
X4813300D02*
D03*
X4953000Y7463200D02*
D03*
X4813300D02*
D03*
Y7361600D02*
D03*
X4953000D02*
D03*
X5232400D02*
D03*
X5092700D02*
D03*
Y7463200D02*
D03*
X5232400D02*
D03*
X5092700Y7564800D02*
D03*
X5232400D02*
D03*
X5092700Y7768000D02*
D03*
X5232400D02*
D03*
Y7869600D02*
D03*
X5092700D02*
D03*
X5232400Y7983900D02*
D03*
X5092700D02*
D03*
X5511800Y7361600D02*
D03*
X5372100D02*
D03*
Y7463200D02*
D03*
X5511800D02*
D03*
X5372100Y7564800D02*
D03*
X5511800D02*
D03*
X5372100Y7768000D02*
D03*
X5511800D02*
D03*
Y7869600D02*
D03*
X5372100D02*
D03*
X5511800Y7983900D02*
D03*
X5372100D02*
D03*
X5651500D02*
D03*
Y7869600D02*
D03*
Y7768000D02*
D03*
Y7564800D02*
D03*
Y7463200D02*
D03*
Y7361600D02*
D03*
Y7666400D02*
D03*
X5511800D02*
D03*
X5372100D02*
D03*
X4953000D02*
D03*
X4813300D02*
D03*
X5092700D02*
D03*
X5232400D02*
D03*
X4813300Y9863500D02*
D03*
Y9749200D02*
D03*
X4953000D02*
D03*
Y9647600D02*
D03*
X4813300D02*
D03*
X4953000Y9444400D02*
D03*
X4813300D02*
D03*
X4953000Y9342800D02*
D03*
X4813300D02*
D03*
Y9241200D02*
D03*
X4953000D02*
D03*
X5232400D02*
D03*
X5092700D02*
D03*
Y9342800D02*
D03*
X5232400D02*
D03*
X5092700Y9444400D02*
D03*
X5232400D02*
D03*
X5092700Y9647600D02*
D03*
X5232400D02*
D03*
X5511800Y9241200D02*
D03*
X5372100D02*
D03*
Y9342800D02*
D03*
X5511800D02*
D03*
X5372100Y9444400D02*
D03*
X5511800D02*
D03*
X5372100Y9647600D02*
D03*
X5511800D02*
D03*
X5651500D02*
D03*
Y9444400D02*
D03*
Y9342800D02*
D03*
Y9241200D02*
D03*
Y9546000D02*
D03*
X5511800D02*
D03*
X5372100D02*
D03*
X4953000D02*
D03*
X4813300D02*
D03*
X5092700D02*
D03*
X5232400D02*
D03*
X11689998Y11059998D02*
D03*
X11619998Y10919998D02*
D03*
X11689998Y10779998D02*
D03*
X11619998Y10639998D02*
D03*
X11689998Y10499998D02*
D03*
X11619998Y10359998D02*
D03*
X11689998Y10219998D02*
D03*
X11619998Y10079998D02*
D03*
X11689998Y9939998D02*
D03*
X11619998Y9799998D02*
D03*
X11689998Y9659998D02*
D03*
X11619998Y9519998D02*
D03*
X11689998Y9379998D02*
D03*
X11619998Y9239998D02*
D03*
Y8119998D02*
D03*
X11689998Y7979999D02*
D03*
X11619998Y7839999D02*
D03*
X11689998Y7699999D02*
D03*
X11619998Y7559999D02*
D03*
X11689998Y7419999D02*
D03*
X11619998Y7279999D02*
D03*
X11549998Y11059998D02*
D03*
X11479998Y10919998D02*
D03*
X11549998Y10779998D02*
D03*
X11479998Y10639998D02*
D03*
X11549998Y10499998D02*
D03*
X11479998Y10359998D02*
D03*
X11549998Y10219998D02*
D03*
X11479998Y10079998D02*
D03*
X11549998Y9939998D02*
D03*
X11479998Y9799998D02*
D03*
X11549998Y9659998D02*
D03*
X11479998Y9519998D02*
D03*
X11549998Y9379998D02*
D03*
X11479998Y8119998D02*
D03*
X11549998Y7979999D02*
D03*
X11479998Y7839999D02*
D03*
X11549998Y7699999D02*
D03*
X11479998Y7559999D02*
D03*
X11549998Y7419999D02*
D03*
X11479998Y7279999D02*
D03*
X11339998Y11199998D02*
D03*
X11409998Y11059998D02*
D03*
X11339998Y10919998D02*
D03*
X11409998Y10779998D02*
D03*
X11339998Y10639998D02*
D03*
X11409998Y10499998D02*
D03*
Y9939998D02*
D03*
X11339998Y9799998D02*
D03*
X11409998Y9659998D02*
D03*
X11339998Y8119998D02*
D03*
Y7559999D02*
D03*
X11409998Y7419999D02*
D03*
X11339998Y7279999D02*
D03*
X11199998Y11199998D02*
D03*
X11269998Y11059998D02*
D03*
X11199998Y10919998D02*
D03*
X11269998Y10779998D02*
D03*
X11199998Y10639998D02*
D03*
X11269998Y9939998D02*
D03*
X11199998Y9799998D02*
D03*
X11269998Y9659998D02*
D03*
Y8259998D02*
D03*
X11199998Y8119998D02*
D03*
X11269998Y7419999D02*
D03*
X11199998Y7279999D02*
D03*
X11059998Y11199998D02*
D03*
X11129998Y11059998D02*
D03*
X11059998Y10919998D02*
D03*
X11129998Y10779998D02*
D03*
X11059998Y10639998D02*
D03*
X11129998Y9939998D02*
D03*
X11059998Y9799998D02*
D03*
X11129998Y8259998D02*
D03*
X11059998Y8119998D02*
D03*
X11129998Y7419999D02*
D03*
X11059998Y7279999D02*
D03*
X10919998Y11199998D02*
D03*
X10989998Y11059998D02*
D03*
Y10779998D02*
D03*
Y9939998D02*
D03*
Y8259998D02*
D03*
X10919998Y8119998D02*
D03*
Y7559999D02*
D03*
X10989998Y7419999D02*
D03*
X10919998Y7279999D02*
D03*
X10849998Y8259998D02*
D03*
Y7979999D02*
D03*
X10779998Y7839999D02*
D03*
X10849998Y7699999D02*
D03*
X10779998Y7559999D02*
D03*
X10849998Y7419999D02*
D03*
X10779998Y7279999D02*
D03*
X10639998Y10639998D02*
D03*
Y10359998D02*
D03*
Y10079998D02*
D03*
Y9799998D02*
D03*
Y8959998D02*
D03*
Y8399998D02*
D03*
X10709998Y7699999D02*
D03*
Y7419999D02*
D03*
X10499998Y11199998D02*
D03*
X10569998Y10779998D02*
D03*
X10499998Y10639998D02*
D03*
X10569998Y10499998D02*
D03*
X10499998Y10359998D02*
D03*
X10569998Y10219998D02*
D03*
X10499998Y10079998D02*
D03*
X10569998Y9939998D02*
D03*
X10499998Y9799998D02*
D03*
X10569998Y9659998D02*
D03*
Y9099998D02*
D03*
X10499998Y8959998D02*
D03*
X10359998Y11199998D02*
D03*
X10429998Y10779998D02*
D03*
X10359998Y10639998D02*
D03*
X10429998Y10499998D02*
D03*
X10359998Y10359998D02*
D03*
X10429998Y9659998D02*
D03*
Y9099998D02*
D03*
X10359998Y8959998D02*
D03*
X10289998Y10779998D02*
D03*
X10219998Y10639998D02*
D03*
X10289998Y10499998D02*
D03*
X10219998Y10359998D02*
D03*
Y8399998D02*
D03*
X10149998Y10779998D02*
D03*
X10079998Y10639998D02*
D03*
X10149998Y10499998D02*
D03*
X10079998Y10359998D02*
D03*
X10149998Y9659998D02*
D03*
X10079998Y8399998D02*
D03*
X10009998Y9659998D02*
D03*
X9239998Y11199998D02*
D03*
Y10639998D02*
D03*
X9169998Y11059998D02*
D03*
X9099998Y10639998D02*
D03*
X8959998Y11199998D02*
D03*
X9029998Y10779998D02*
D03*
Y10499998D02*
D03*
X8889998Y11059998D02*
D03*
X8749998Y10499998D02*
D03*
X8609998Y10779998D02*
D03*
X8539998Y10639998D02*
D03*
X8609998Y10499998D02*
D03*
X8399998Y11199998D02*
D03*
X8469998Y11059998D02*
D03*
Y10779998D02*
D03*
X8399998Y10639998D02*
D03*
X8469998Y10499998D02*
D03*
X8259998Y11199998D02*
D03*
X8329998Y11059998D02*
D03*
Y10779998D02*
D03*
X8259998Y10639998D02*
D03*
X8329998Y10499998D02*
D03*
X8119998Y11199998D02*
D03*
X8189998Y11059998D02*
D03*
Y10779998D02*
D03*
Y10499998D02*
D03*
X7839999Y11199998D02*
D03*
X7909998Y7419999D02*
D03*
X7839999Y7279999D02*
D03*
X7699999D02*
D03*
X7559999D02*
D03*
X7419999Y10639998D02*
D03*
Y10079998D02*
D03*
Y9239998D02*
D03*
Y7279999D02*
D03*
X7279999Y10639998D02*
D03*
X7349999Y10499998D02*
D03*
Y10219998D02*
D03*
X7279999Y10079998D02*
D03*
Y9239998D02*
D03*
X7349999Y9099998D02*
D03*
Y7979999D02*
D03*
X7279999Y7279999D02*
D03*
X7209999Y10499998D02*
D03*
X7139999Y9519998D02*
D03*
Y9239998D02*
D03*
X7209999Y9099998D02*
D03*
X7139999Y8959998D02*
D03*
Y8119998D02*
D03*
X7209999Y7979999D02*
D03*
X7139999Y7839999D02*
D03*
X7209999Y7419999D02*
D03*
X7139999Y7279999D02*
D03*
X6999999Y9519998D02*
D03*
X7069999Y9379998D02*
D03*
X6999999Y9239998D02*
D03*
X7069999Y9099998D02*
D03*
X6999999Y8959998D02*
D03*
X7069999Y8259998D02*
D03*
X6999999Y8119998D02*
D03*
X7069999Y7979999D02*
D03*
X6999999Y7839999D02*
D03*
X7069999Y7699999D02*
D03*
Y7419999D02*
D03*
X6999999Y7279999D02*
D03*
X6859999Y9519998D02*
D03*
X6929999Y9379998D02*
D03*
X6859999Y9239998D02*
D03*
X6929999Y9099998D02*
D03*
X6859999Y8959998D02*
D03*
X6929999Y8259998D02*
D03*
X6859999Y8119998D02*
D03*
X6929999Y7979999D02*
D03*
X6859999Y7839999D02*
D03*
X6929999Y7699999D02*
D03*
Y7419999D02*
D03*
X6859999Y7279999D02*
D03*
X6719999Y9519998D02*
D03*
X6789999Y9379998D02*
D03*
X6719999Y9239998D02*
D03*
X6789999Y9099998D02*
D03*
X6719999Y8959998D02*
D03*
Y8679998D02*
D03*
X6789999Y8259998D02*
D03*
X6719999Y8119998D02*
D03*
X6789999Y7979999D02*
D03*
X6719999Y7839999D02*
D03*
X6789999Y7699999D02*
D03*
Y7419999D02*
D03*
X6719999Y7279999D02*
D03*
X5109999Y11059998D02*
D03*
X4899999Y11199998D02*
D03*
X4969999Y11059998D02*
D03*
X4829999Y11339998D02*
D03*
X4759999Y11199998D02*
D03*
X4829999Y11059998D02*
D03*
X4619999Y11479998D02*
D03*
X4689999Y11339998D02*
D03*
X4619999Y11199998D02*
D03*
X4689999Y11059998D02*
D03*
X4549999Y11339998D02*
D03*
X4479999Y11199998D02*
D03*
X4549999Y11059998D02*
D03*
X4479999Y9799998D02*
D03*
X4549999Y9659998D02*
D03*
X4479999Y9519998D02*
D03*
X4549999Y9379998D02*
D03*
X4479999Y9239998D02*
D03*
X4549999Y7979999D02*
D03*
X4479999Y7839999D02*
D03*
X4549999Y7699999D02*
D03*
X4479999Y7559999D02*
D03*
X4549999Y7419999D02*
D03*
X4479999Y7279999D02*
D03*
X4409999Y11899998D02*
D03*
Y11339998D02*
D03*
X4339999Y11199998D02*
D03*
X4409999Y11059998D02*
D03*
X4339999Y9799998D02*
D03*
X4409999Y9659998D02*
D03*
X4339999Y9519998D02*
D03*
X4409999Y9379998D02*
D03*
X4339999Y9239998D02*
D03*
X4409999Y7979999D02*
D03*
X4339999Y7839999D02*
D03*
X4409999Y7699999D02*
D03*
X4339999Y7559999D02*
D03*
X4409999Y7419999D02*
D03*
X4339999Y7279999D02*
D03*
X4269999Y11339998D02*
D03*
X4199999Y11199998D02*
D03*
X4269999Y11059998D02*
D03*
X4199999Y9799998D02*
D03*
X4269999Y9659998D02*
D03*
Y9379998D02*
D03*
Y7979999D02*
D03*
X4199999Y7839999D02*
D03*
X4269999Y7699999D02*
D03*
Y7419999D02*
D03*
X4059999Y11479998D02*
D03*
X4129999Y11339998D02*
D03*
X4059999Y11199998D02*
D03*
X4129999Y11059998D02*
D03*
X4059999Y9799998D02*
D03*
X4129999Y9659998D02*
D03*
Y7979999D02*
D03*
X4059999Y7839999D02*
D03*
X3919999Y11479998D02*
D03*
X3989999Y11339998D02*
D03*
X3919999Y11199998D02*
D03*
X3989999Y11059998D02*
D03*
X3919999Y9799998D02*
D03*
X3989999Y9659998D02*
D03*
X3919999Y9519998D02*
D03*
X3989999Y9379998D02*
D03*
X3919999Y9239998D02*
D03*
X3989999Y7979999D02*
D03*
X3919999Y7839999D02*
D03*
X3989999Y7699999D02*
D03*
X3919999Y7559999D02*
D03*
X3989999Y7419999D02*
D03*
X3919999Y7279999D02*
D03*
X3779999Y11479998D02*
D03*
X3849999Y11339998D02*
D03*
X3779999Y11199998D02*
D03*
X3849999Y11059998D02*
D03*
X3779999Y9799998D02*
D03*
X3849999Y9659998D02*
D03*
X3779999Y9519998D02*
D03*
X3849999Y9379998D02*
D03*
X3779999Y9239998D02*
D03*
X3849999Y7979999D02*
D03*
X3779999Y7839999D02*
D03*
X3849999Y7699999D02*
D03*
X3779999Y7559999D02*
D03*
X3849999Y7419999D02*
D03*
X3779999Y7279999D02*
D03*
X3639999Y11479998D02*
D03*
X3709999Y11339998D02*
D03*
X3639999Y11199998D02*
D03*
X3709999Y11059998D02*
D03*
X3639999Y9799998D02*
D03*
X3709999Y9659998D02*
D03*
Y7979999D02*
D03*
X3639999Y7839999D02*
D03*
X3709999Y7699999D02*
D03*
X3499999Y11479998D02*
D03*
X3569999Y11339998D02*
D03*
X3499999Y11199998D02*
D03*
X3569999Y11059998D02*
D03*
X3499999Y9799998D02*
D03*
X3569999Y9659998D02*
D03*
X3499999Y9519998D02*
D03*
Y9239998D02*
D03*
X3569999Y7979999D02*
D03*
X3499999Y7839999D02*
D03*
Y7559999D02*
D03*
Y7279999D02*
D03*
X3359999Y11479998D02*
D03*
X3429999Y11339998D02*
D03*
X3359999Y11199998D02*
D03*
X3429999Y11059998D02*
D03*
Y9659998D02*
D03*
Y9379998D02*
D03*
Y9099998D02*
D03*
Y7979999D02*
D03*
X3359999Y7839999D02*
D03*
X3429999Y7699999D02*
D03*
X3359999Y7559999D02*
D03*
X3429999Y7419999D02*
D03*
X3359999Y7279999D02*
D03*
X3219999Y11479998D02*
D03*
X3289999Y11339998D02*
D03*
X3219999Y11199998D02*
D03*
X3289999Y11059998D02*
D03*
Y7979999D02*
D03*
X3219999Y7839999D02*
D03*
X3289999Y7699999D02*
D03*
X3219999Y7559999D02*
D03*
X3289999Y7419999D02*
D03*
X3219999Y7279999D02*
D03*
X3079999Y11479998D02*
D03*
X3149999Y11339998D02*
D03*
X3079999Y11199998D02*
D03*
X3149999Y11059998D02*
D03*
Y7979999D02*
D03*
X3079999Y7839999D02*
D03*
X3149999Y7699999D02*
D03*
X3079999Y7559999D02*
D03*
X3149999Y7419999D02*
D03*
X3079999Y7279999D02*
D03*
X2939999Y11479998D02*
D03*
X3009999Y11339998D02*
D03*
X2939999Y11199998D02*
D03*
X3009999Y11059998D02*
D03*
Y7979999D02*
D03*
X2939999Y7839999D02*
D03*
X3009999Y7699999D02*
D03*
X2939999Y7559999D02*
D03*
X3009999Y7419999D02*
D03*
X2939999Y7279999D02*
D03*
X2799999Y11199998D02*
D03*
X2869999Y11059998D02*
D03*
Y7979999D02*
D03*
X2799999Y7839999D02*
D03*
X2869999Y7699999D02*
D03*
X2799999Y7559999D02*
D03*
X2869999Y7419999D02*
D03*
X2799999Y7279999D02*
D03*
X2660000Y11199998D02*
D03*
X2729999Y11059998D02*
D03*
Y7979999D02*
D03*
X2660000Y7839999D02*
D03*
X2729999Y7699999D02*
D03*
X2660000Y7559999D02*
D03*
X2729999Y7419999D02*
D03*
X2660000Y7279999D02*
D03*
X3441700Y8801100D02*
D03*
X3581400D02*
D03*
X3441700Y8686800D02*
D03*
X3581400D02*
D03*
Y8585200D02*
D03*
X3441700D02*
D03*
X3581400Y8382000D02*
D03*
X3441700D02*
D03*
X3581400Y8280400D02*
D03*
X3441700D02*
D03*
Y8178800D02*
D03*
X3581400D02*
D03*
X3860800D02*
D03*
X3721100D02*
D03*
Y8280400D02*
D03*
X3860800D02*
D03*
X3721100Y8382000D02*
D03*
X3860800D02*
D03*
X3721100Y8585200D02*
D03*
X3860800D02*
D03*
Y8686800D02*
D03*
X3721100D02*
D03*
X3860800Y8801100D02*
D03*
X3721100D02*
D03*
X4140200Y8178800D02*
D03*
X4000500D02*
D03*
Y8280400D02*
D03*
X4140200D02*
D03*
X4000500Y8382000D02*
D03*
X4140200D02*
D03*
X4000500Y8585200D02*
D03*
X4140200D02*
D03*
Y8686800D02*
D03*
X4000500D02*
D03*
X4140200Y8801100D02*
D03*
X4000500D02*
D03*
X4279900D02*
D03*
Y8686800D02*
D03*
Y8585200D02*
D03*
Y8382000D02*
D03*
Y8280400D02*
D03*
Y8178800D02*
D03*
Y8483600D02*
D03*
X4140200D02*
D03*
X4000500D02*
D03*
X3581400D02*
D03*
X3441700D02*
D03*
X3721100D02*
D03*
X3860800D02*
D03*
Y10388600D02*
D03*
X3721100D02*
D03*
X3441700D02*
D03*
X3581400D02*
D03*
X4000500D02*
D03*
X4140200D02*
D03*
X4279900D02*
D03*
Y10083800D02*
D03*
Y10185400D02*
D03*
Y10287000D02*
D03*
Y10490200D02*
D03*
Y10591800D02*
D03*
Y10706100D02*
D03*
X4000500D02*
D03*
X4140200D02*
D03*
X4000500Y10591800D02*
D03*
X4140200D02*
D03*
Y10490200D02*
D03*
X4000500D02*
D03*
X4140200Y10287000D02*
D03*
X4000500D02*
D03*
X4140200Y10185400D02*
D03*
X4000500D02*
D03*
Y10083800D02*
D03*
X4140200D02*
D03*
X3721100Y10706100D02*
D03*
X3860800D02*
D03*
X3721100Y10591800D02*
D03*
X3860800D02*
D03*
Y10490200D02*
D03*
X3721100D02*
D03*
X3860800Y10287000D02*
D03*
X3721100D02*
D03*
X3860800Y10185400D02*
D03*
X3721100D02*
D03*
Y10083800D02*
D03*
X3860800D02*
D03*
X3581400D02*
D03*
X3441700D02*
D03*
Y10185400D02*
D03*
X3581400D02*
D03*
X3441700Y10287000D02*
D03*
X3581400D02*
D03*
X3441700Y10490200D02*
D03*
X3581400D02*
D03*
Y10591800D02*
D03*
X3441700D02*
D03*
X3581400Y10706100D02*
D03*
X3441700D02*
D03*
X5995002Y10560003D02*
D03*
X9021300Y11747500D02*
D03*
X9131300D02*
D03*
X11385003Y11880004D02*
D03*
X11330004Y11770004D02*
D03*
X11385003Y11660004D02*
D03*
X11275003D02*
D03*
X11165003D02*
D03*
X11055003D02*
D03*
X9185003D02*
D03*
X9075003D02*
D03*
X8965003D02*
D03*
X7150002Y11330004D02*
D03*
Y11110003D02*
D03*
Y10890003D02*
D03*
X7040002Y11330004D02*
D03*
X7095002Y11220003D02*
D03*
X7040002Y11110003D02*
D03*
X7095002Y11000003D02*
D03*
X7040002Y10890003D02*
D03*
X7095002Y10780003D02*
D03*
X7040002Y10670003D02*
D03*
X6930002Y11330004D02*
D03*
X6985002Y11220003D02*
D03*
X6930002Y11110003D02*
D03*
X6985002Y11000003D02*
D03*
X6930002Y10890003D02*
D03*
X6985002Y10780003D02*
D03*
X6930002Y10670003D02*
D03*
X6820002Y11330004D02*
D03*
X6875002Y11220003D02*
D03*
X6820002Y11110003D02*
D03*
X6875002Y11000003D02*
D03*
X6820002Y10890003D02*
D03*
X6875002Y10780003D02*
D03*
X6820002Y10670003D02*
D03*
X6710002Y11330004D02*
D03*
X6765002Y11220003D02*
D03*
X6710002Y11110003D02*
D03*
X6765002Y11000003D02*
D03*
X6710002Y10890003D02*
D03*
X6765002Y10780003D02*
D03*
X6710002Y10670003D02*
D03*
X6600002Y11330004D02*
D03*
X6655002Y11220003D02*
D03*
X6600002Y11110003D02*
D03*
X6655002Y11000003D02*
D03*
X6600002Y10890003D02*
D03*
X6655002Y10780003D02*
D03*
X6600002Y10670003D02*
D03*
X6490002Y11330004D02*
D03*
X6545002Y11220003D02*
D03*
X6490002Y11110003D02*
D03*
X6545002Y11000003D02*
D03*
X6490002Y10890003D02*
D03*
X6545002Y10780003D02*
D03*
X6490002Y10670003D02*
D03*
X6380002Y11330004D02*
D03*
X6435002Y11220003D02*
D03*
X6380002Y10890003D02*
D03*
X6435002Y10780003D02*
D03*
X6380002Y10670003D02*
D03*
X6270002Y11330004D02*
D03*
X6325002Y11220003D02*
D03*
X6270002Y10890003D02*
D03*
X6325002Y10780003D02*
D03*
X6270002Y10670003D02*
D03*
X6160002Y11330004D02*
D03*
X6215002Y11220003D02*
D03*
X6160002Y11110003D02*
D03*
X6215002Y11000003D02*
D03*
X6160002Y10890003D02*
D03*
X6215002Y10780003D02*
D03*
X6160002Y10670003D02*
D03*
X6050002Y11330004D02*
D03*
X6105002Y11220003D02*
D03*
X6050002Y11110003D02*
D03*
X6105002Y11000003D02*
D03*
X6050002Y10890003D02*
D03*
X6105002Y10780003D02*
D03*
X6050002Y10670003D02*
D03*
Y10450003D02*
D03*
D52*
X8559800Y8585200D02*
D03*
X7568647Y7567655D02*
D03*
X7767246Y7553985D02*
D03*
X4787900Y8559800D02*
D03*
X4483100Y10261600D02*
D03*
X7156082Y9772282D02*
D03*
X7150100Y8559800D02*
D03*
X4611446Y12190654D02*
D03*
X4687646D02*
D03*
X4713046Y12254154D02*
D03*
X4649546D02*
D03*
X4573346D02*
D03*
X9742246Y9168054D02*
D03*
X8934585Y9197842D02*
D03*
X8616386Y9516040D02*
D03*
X8934585Y9834238D02*
D03*
X9252783Y9516040D02*
D03*
X6985000Y10541000D02*
D03*
X6853312Y10118943D02*
D03*
X9055904Y9990542D02*
D03*
X9106986Y9954185D02*
D03*
X8890000Y10071100D02*
D03*
X8790120Y9978517D02*
D03*
X8153800Y9613900D02*
D03*
X9195720Y9863603D02*
D03*
X8291659Y8041624D02*
D03*
X6765801Y7545134D02*
D03*
X6764397Y8436503D02*
D03*
Y8754003D02*
D03*
X6743700Y9639300D02*
D03*
X5613400Y10883900D02*
D03*
X5600700Y9004300D02*
D03*
X3721100Y7200900D02*
D03*
X3695700Y9067800D02*
D03*
X7135752Y7544685D02*
D03*
X7605877Y8805063D02*
D03*
X7136250Y8751450D02*
D03*
X7353300Y9577437D02*
D03*
X7136201Y9642339D02*
D03*
Y8434203D02*
D03*
X7353300Y8369300D02*
D03*
X10790214Y10877969D02*
D03*
X7734300Y8382061D02*
D03*
X7797800D02*
D03*
X7861300D02*
D03*
X7899400Y8318561D02*
D03*
Y8255061D02*
D03*
Y9461500D02*
D03*
Y9525000D02*
D03*
X7861300Y9588500D02*
D03*
X7797800D02*
D03*
X7734300D02*
D03*
X9386752Y8892099D02*
D03*
X10338245Y9039349D02*
D03*
Y9217149D02*
D03*
X10341034Y9395719D02*
D03*
X8724900Y10236200D02*
D03*
X8128000Y9182100D02*
D03*
X5511800Y11557000D02*
D03*
X9067800Y8255000D02*
D03*
X9231808Y7965696D02*
D03*
X9358808Y7964604D02*
D03*
X8470900Y9702800D02*
D03*
X8407400Y9766300D02*
D03*
X8458200Y9829800D02*
D03*
X7683500Y10922000D02*
D03*
X7620000D02*
D03*
X7556500D02*
D03*
X7493000D02*
D03*
X7454900Y10871200D02*
D03*
X7518400D02*
D03*
X7581900D02*
D03*
X7645400D02*
D03*
X9296400Y8547100D02*
D03*
X8704677Y9116813D02*
D03*
X9670053Y7964537D02*
D03*
X9766300Y8407400D02*
D03*
X9383979Y9348553D02*
D03*
X10380532Y8875530D02*
D03*
X9489020Y9747842D02*
D03*
X9601200Y8661400D02*
D03*
X8013700Y8788400D02*
D03*
X9975203Y9391112D02*
D03*
X7707404Y10872384D02*
D03*
X8775700Y10909300D02*
D03*
X9144000Y11455400D02*
D03*
X9055100Y8724900D02*
D03*
X9017000Y8763000D02*
D03*
X9537700Y9613900D02*
D03*
X9588500Y9652000D02*
D03*
X8128000D02*
D03*
X9715500Y11036300D02*
D03*
X9652000D02*
D03*
X9918700Y10452100D02*
D03*
X9855200D02*
D03*
X9791700D02*
D03*
X9893300Y10515600D02*
D03*
X9817100D02*
D03*
X9918700Y10579100D02*
D03*
X9855200D02*
D03*
X9791700D02*
D03*
X9893300Y10642600D02*
D03*
X9817100D02*
D03*
X9918700Y10706100D02*
D03*
X9855200D02*
D03*
X9791700D02*
D03*
X9515144Y11277052D02*
D03*
X9300965Y11058249D02*
D03*
D53*
X8711138Y7855776D02*
D03*
X10436232Y8228466D02*
D03*
%TF.MD5,6141dd87ad2d0ad681e99d96ed24b7f9*%
M02*
