%TF.GenerationSoftware,Altium Limited,Altium Designer,24.6.1 (21)*%
G04 Layer_Color=65535*
%FSLAX45Y45*%
%MOMM*%
%TF.SameCoordinates,FD53202A-208C-403B-AAB2-15DF5564725B*%
%TF.FilePolarity,Positive*%
%TF.FileFunction,Legend,Top*%
%TF.Part,Single*%
G01*
G75*
%TA.AperFunction,NonConductor*%
%ADD54C,0.20000*%
%ADD55C,0.40000*%
%ADD56C,0.25400*%
%ADD57C,0.10000*%
%ADD58C,0.12700*%
%ADD59C,0.15000*%
G36*
X5866812Y12109382D02*
X5879015D01*
Y12104501D01*
X5876575D01*
Y12102061D01*
X5874134D01*
Y12099620D01*
X5871694D01*
Y12094739D01*
X5869253D01*
Y12092298D01*
X5866812D01*
Y12087417D01*
X5864372D01*
Y12084977D01*
X5861931D01*
Y12077655D01*
X5859491D01*
Y12072774D01*
X5857050D01*
Y12065452D01*
X5854610D01*
Y12058130D01*
X5852169D01*
Y12043487D01*
X5849728D01*
Y12028843D01*
X5847288D01*
Y12021522D01*
X5844847D01*
Y12011760D01*
X5842407D01*
Y12009319D01*
X5839966D01*
Y12004438D01*
X5837526D01*
Y11999557D01*
X5835085D01*
Y11997116D01*
X5832645D01*
Y11992235D01*
X5830204D01*
Y11989794D01*
X5827763D01*
Y11982473D01*
X5825323D01*
Y11980032D01*
X5822882D01*
Y11977591D01*
X5820442D01*
Y11972710D01*
X5818001D01*
Y11970270D01*
X5815561D01*
Y11965389D01*
X5813120D01*
Y11962948D01*
X5810680D01*
Y11960507D01*
X5808239D01*
Y11955626D01*
X5805798D01*
Y11953186D01*
X5803358D01*
Y11950745D01*
X5800917D01*
Y11945864D01*
X5798477D01*
Y11943423D01*
X5796036D01*
Y11940983D01*
X5793595D01*
Y11936102D01*
X5791155D01*
Y11933661D01*
X5788714D01*
Y11931221D01*
X5786274D01*
Y11928780D01*
X5783833D01*
Y11923899D01*
X5781393D01*
Y11921459D01*
X5778952D01*
Y11919018D01*
X5776511D01*
Y11916577D01*
X5774071D01*
Y11914137D01*
X5771630D01*
Y11909256D01*
X5769190D01*
Y11906815D01*
X5766749D01*
Y11904374D01*
X5764309D01*
Y11901934D01*
X5761868D01*
Y11899493D01*
X5759427D01*
Y11897053D01*
X5756987D01*
Y11894612D01*
X5754546D01*
Y11889731D01*
X5752106D01*
Y11887290D01*
X5749665D01*
Y11884850D01*
X5747225D01*
Y11882409D01*
X5742344D01*
Y11879969D01*
X5739903D01*
Y11877528D01*
X5737462D01*
Y11875088D01*
X5735022D01*
Y11872647D01*
X5732581D01*
Y11870206D01*
X5730141D01*
Y11867766D01*
X5727700D01*
Y11865325D01*
X5722819D01*
Y11862885D01*
X5720378D01*
Y11860444D01*
X5717938D01*
Y11858004D01*
X5713057D01*
Y11855563D01*
X5710616D01*
Y11853122D01*
X5705735D01*
Y11850682D01*
X5700854D01*
Y11848241D01*
X5698413D01*
Y11845801D01*
X5693532D01*
Y11843360D01*
X5688651D01*
Y11840920D01*
X5683770D01*
Y11838479D01*
X5678889D01*
Y11836039D01*
X5671567D01*
Y11833598D01*
X5666686D01*
Y11831157D01*
X5659364D01*
Y11828717D01*
X5652042D01*
Y11826276D01*
X5642280D01*
Y11823836D01*
X5632518D01*
Y11821395D01*
X5612993D01*
Y11818955D01*
X5566623D01*
Y11821395D01*
X5547098D01*
Y11823836D01*
X5534895D01*
Y11826276D01*
X5522692D01*
Y11828717D01*
X5515370D01*
Y11831157D01*
X5505608D01*
Y11833598D01*
X5495846D01*
Y11836039D01*
X5486084D01*
Y11838479D01*
X5476322D01*
Y11840920D01*
X5466559D01*
Y11843360D01*
X5459237D01*
Y11845801D01*
X5449475D01*
Y11848241D01*
X5439713D01*
Y11850682D01*
X5429951D01*
Y11853122D01*
X5420188D01*
Y11855563D01*
X5412866D01*
Y11858004D01*
X5398223D01*
Y11855563D01*
X5400664D01*
Y11853122D01*
X5405545D01*
Y11850682D01*
X5410426D01*
Y11848241D01*
X5412866D01*
Y11845801D01*
X5417748D01*
Y11843360D01*
X5422629D01*
Y11840920D01*
X5427510D01*
Y11838479D01*
X5429951D01*
Y11836039D01*
X5434832D01*
Y11833598D01*
X5439713D01*
Y11831157D01*
X5444594D01*
Y11828717D01*
X5449475D01*
Y11826276D01*
X5454356D01*
Y11823836D01*
X5456797D01*
Y11821395D01*
X5461678D01*
Y11818955D01*
X5466559D01*
Y11816514D01*
X5473881D01*
Y11814073D01*
X5478762D01*
Y11811633D01*
X5483643D01*
Y11809192D01*
X5488524D01*
Y11806752D01*
X5493405D01*
Y11804311D01*
X5498286D01*
Y11801870D01*
X5505608D01*
Y11799430D01*
X5510489D01*
Y11796989D01*
X5515370D01*
Y11794549D01*
X5522692D01*
Y11792108D01*
X5527573D01*
Y11789668D01*
X5534895D01*
Y11787227D01*
X5542217D01*
Y11784786D01*
X5549539D01*
Y11782346D01*
X5556860D01*
Y11779905D01*
X5564182D01*
Y11777465D01*
X5571504D01*
Y11775024D01*
X5581266D01*
Y11772584D01*
X5588588D01*
Y11770143D01*
X5598350D01*
Y11767703D01*
X5610553D01*
Y11765262D01*
X5620315D01*
Y11762821D01*
X5634959D01*
Y11760381D01*
X5647161D01*
Y11757940D01*
X5671567D01*
Y11755500D01*
X5742344D01*
Y11753059D01*
X5725260D01*
Y11750619D01*
X5705735D01*
Y11748178D01*
X5637399D01*
Y11750619D01*
X5617874D01*
Y11753059D01*
X5600790D01*
Y11755500D01*
X5591028D01*
Y11757940D01*
X5576385D01*
Y11760381D01*
X5569063D01*
Y11762821D01*
X5559301D01*
Y11765262D01*
X5551979D01*
Y11767703D01*
X5542217D01*
Y11770143D01*
X5534895D01*
Y11772584D01*
X5527573D01*
Y11775024D01*
X5522692D01*
Y11777465D01*
X5515370D01*
Y11779905D01*
X5508049D01*
Y11782346D01*
X5503168D01*
Y11784786D01*
X5495846D01*
Y11787227D01*
X5490965D01*
Y11789668D01*
X5483643D01*
Y11792108D01*
X5478762D01*
Y11794549D01*
X5473881D01*
Y11796989D01*
X5469000D01*
Y11799430D01*
X5464119D01*
Y11801870D01*
X5459237D01*
Y11804311D01*
X5454356D01*
Y11806752D01*
X5449475D01*
Y11809192D01*
X5444594D01*
Y11811633D01*
X5439713D01*
Y11814073D01*
X5434832D01*
Y11816514D01*
X5429951D01*
Y11818955D01*
X5425069D01*
Y11821395D01*
X5420188D01*
Y11823836D01*
X5417748D01*
Y11826276D01*
X5412866D01*
Y11828717D01*
X5407985D01*
Y11831157D01*
X5403104D01*
Y11833598D01*
X5400664D01*
Y11836039D01*
X5395783D01*
Y11838479D01*
X5390902D01*
Y11840920D01*
X5388461D01*
Y11843360D01*
X5386020D01*
Y11845801D01*
X5378699D01*
Y11848241D01*
X5376258D01*
Y11850682D01*
X5371377D01*
Y11853122D01*
X5368936D01*
Y11855563D01*
X5364055D01*
Y11858004D01*
X5361615D01*
Y11860444D01*
X5356734D01*
Y11862885D01*
X5351852D01*
Y11865325D01*
X5346971D01*
Y11867766D01*
X5344531D01*
Y11870206D01*
X5342090D01*
Y11872647D01*
X5339649D01*
Y11877528D01*
X5337209D01*
Y11882409D01*
X5334768D01*
Y11909256D01*
X5337209D01*
Y11914137D01*
X5339649D01*
Y11921459D01*
X5342090D01*
Y11926340D01*
X5344531D01*
Y11928780D01*
X5346971D01*
Y11931221D01*
X5349412D01*
Y11933661D01*
X5351852D01*
Y11936102D01*
X5354293D01*
Y11938542D01*
X5356734D01*
Y11940983D01*
X5359174D01*
Y11943423D01*
X5364055D01*
Y11945864D01*
X5366496D01*
Y11948305D01*
X5371377D01*
Y11950745D01*
X5378699D01*
Y11953186D01*
X5388461D01*
Y11955626D01*
X5403104D01*
Y11958067D01*
X5407985D01*
Y11960507D01*
X5412866D01*
Y11962948D01*
X5417748D01*
Y11965389D01*
X5422629D01*
Y11967829D01*
X5427510D01*
Y11970270D01*
X5432391D01*
Y11972710D01*
X5437272D01*
Y11975151D01*
X5442153D01*
Y11977591D01*
X5447035D01*
Y11980032D01*
X5451916D01*
Y11982473D01*
X5456797D01*
Y11984913D01*
X5461678D01*
Y11987354D01*
X5466559D01*
Y11989794D01*
X5471440D01*
Y11992235D01*
X5476322D01*
Y11994676D01*
X5481203D01*
Y11997116D01*
X5486084D01*
Y11999557D01*
X5490965D01*
Y12001997D01*
X5495846D01*
Y12004438D01*
X5500727D01*
Y12006878D01*
X5505608D01*
Y12009319D01*
X5510489D01*
Y12011760D01*
X5515370D01*
Y12014200D01*
X5520252D01*
Y12016641D01*
X5525133D01*
Y12019081D01*
X5530014D01*
Y12021522D01*
X5534895D01*
Y12023962D01*
X5542217D01*
Y12026403D01*
X5556860D01*
Y12028843D01*
X5573944D01*
Y12031284D01*
X5586147D01*
Y12033724D01*
X5595909D01*
Y12036165D01*
X5603231D01*
Y12038606D01*
X5610553D01*
Y12041046D01*
X5617874D01*
Y12043487D01*
X5625196D01*
Y12045927D01*
X5632518D01*
Y12048368D01*
X5637399D01*
Y12050809D01*
X5644721D01*
Y12053249D01*
X5649602D01*
Y12055690D01*
X5656924D01*
Y12058130D01*
X5661805D01*
Y12060571D01*
X5669126D01*
Y12063011D01*
X5674007D01*
Y12065452D01*
X5681329D01*
Y12067893D01*
X5686210D01*
Y12070333D01*
X5693532D01*
Y12072774D01*
X5698413D01*
Y12075214D01*
X5705735D01*
Y12077655D01*
X5710616D01*
Y12080095D01*
X5715497D01*
Y12082536D01*
X5720378D01*
Y12084977D01*
X5725260D01*
Y12087417D01*
X5732581D01*
Y12089858D01*
X5737462D01*
Y12092298D01*
X5744784D01*
Y12094739D01*
X5752106D01*
Y12097180D01*
X5759427D01*
Y12099620D01*
X5766749D01*
Y12102061D01*
X5776511D01*
Y12104501D01*
X5786274D01*
Y12106942D01*
X5798477D01*
Y12109382D01*
X5815561D01*
Y12111823D01*
X5866812D01*
Y12109382D01*
D02*
G37*
G36*
X9909086Y7260778D02*
X9909640Y7260686D01*
X9910195Y7260501D01*
X9910750Y7260316D01*
X9911397Y7259946D01*
X9911952Y7259484D01*
X9912044Y7259391D01*
X9912229Y7259206D01*
X9912414Y7258929D01*
X9912784Y7258559D01*
X9913061Y7258004D01*
X9913246Y7257450D01*
X9913431Y7256802D01*
X9913523Y7256063D01*
Y7255970D01*
Y7255693D01*
X9913431Y7255323D01*
X9913339Y7254861D01*
X9913154Y7254306D01*
X9912876Y7253751D01*
X9912506Y7253197D01*
X9911952Y7252642D01*
X9911859Y7252549D01*
X9911674Y7252457D01*
X9911397Y7252180D01*
X9910935Y7251995D01*
X9910380Y7251717D01*
X9909825Y7251440D01*
X9909086Y7251347D01*
X9908346Y7251255D01*
X9907976D01*
X9907606Y7251347D01*
X9907144Y7251440D01*
X9905942Y7251810D01*
X9905295Y7252087D01*
X9904740Y7252549D01*
X9904648Y7252642D01*
X9904555Y7252827D01*
X9904278Y7253104D01*
X9904001Y7253474D01*
X9903723Y7254029D01*
X9903538Y7254583D01*
X9903353Y7255323D01*
X9903261Y7256063D01*
Y7256155D01*
Y7256433D01*
X9903353Y7256802D01*
X9903446Y7257265D01*
X9903631Y7257819D01*
X9903908Y7258374D01*
X9904278Y7258929D01*
X9904740Y7259484D01*
X9904833Y7259576D01*
X9905018Y7259668D01*
X9905295Y7259946D01*
X9905757Y7260223D01*
X9906312Y7260408D01*
X9906867Y7260686D01*
X9907606Y7260778D01*
X9908346Y7260870D01*
X9908716D01*
X9909086Y7260778D01*
D02*
G37*
G36*
X10242389Y7259206D02*
X10243129D01*
X10244978Y7259021D01*
X10246920Y7258836D01*
X10248861Y7258467D01*
X10250803Y7258004D01*
X10251635Y7257727D01*
X10252375Y7257357D01*
Y7248759D01*
X10252282D01*
X10252190Y7248944D01*
X10251912Y7249036D01*
X10251543Y7249313D01*
X10251173Y7249498D01*
X10250618Y7249776D01*
X10249231Y7250423D01*
X10247567Y7250978D01*
X10245625Y7251532D01*
X10243406Y7251902D01*
X10240818Y7251995D01*
X10239616D01*
X10238321Y7251810D01*
X10236935Y7251625D01*
X10236842D01*
X10236657Y7251532D01*
X10236287Y7251440D01*
X10235825Y7251347D01*
X10234716Y7250978D01*
X10233514Y7250423D01*
X10233421D01*
X10233236Y7250238D01*
X10232959Y7250053D01*
X10232682Y7249868D01*
X10231849Y7249129D01*
X10231017Y7248204D01*
Y7248111D01*
X10230832Y7248019D01*
X10230740Y7247742D01*
X10230555Y7247372D01*
X10230278Y7246355D01*
X10230093Y7245060D01*
Y7244968D01*
Y7244783D01*
Y7244413D01*
X10230185Y7244043D01*
X10230370Y7243026D01*
X10230832Y7242009D01*
Y7241917D01*
X10231017Y7241824D01*
X10231387Y7241270D01*
X10232034Y7240438D01*
X10232959Y7239606D01*
X10233051D01*
X10233236Y7239421D01*
X10233514Y7239236D01*
X10233976Y7238958D01*
X10234438Y7238681D01*
X10235085Y7238311D01*
X10236472Y7237572D01*
X10236565D01*
X10236842Y7237387D01*
X10237304Y7237202D01*
X10237859Y7236924D01*
X10238506Y7236647D01*
X10239338Y7236277D01*
X10240263Y7235907D01*
X10241188Y7235445D01*
X10241280Y7235353D01*
X10241650Y7235168D01*
X10242205Y7234890D01*
X10242852Y7234520D01*
X10243591Y7234058D01*
X10244424Y7233503D01*
X10246273Y7232394D01*
X10246365Y7232302D01*
X10246735Y7232117D01*
X10247197Y7231839D01*
X10247752Y7231377D01*
X10249139Y7230267D01*
X10250618Y7228881D01*
X10250711Y7228788D01*
X10250895Y7228603D01*
X10251265Y7228141D01*
X10251635Y7227679D01*
X10252097Y7227032D01*
X10252652Y7226384D01*
X10253484Y7224720D01*
X10253577Y7224628D01*
X10253669Y7224350D01*
X10253854Y7223796D01*
X10254039Y7223241D01*
X10254224Y7222409D01*
X10254409Y7221484D01*
X10254594Y7220560D01*
Y7219450D01*
Y7219265D01*
Y7218803D01*
X10254501Y7218063D01*
X10254409Y7217046D01*
X10254224Y7216029D01*
X10253946Y7214827D01*
X10253577Y7213718D01*
X10253022Y7212608D01*
X10252929Y7212516D01*
X10252745Y7212146D01*
X10252375Y7211684D01*
X10251912Y7211037D01*
X10251265Y7210389D01*
X10250526Y7209650D01*
X10249693Y7208910D01*
X10248676Y7208170D01*
X10248584Y7208078D01*
X10248214Y7207893D01*
X10247659Y7207616D01*
X10246920Y7207246D01*
X10245995Y7206876D01*
X10244886Y7206414D01*
X10243684Y7206044D01*
X10242389Y7205767D01*
X10242205D01*
X10241742Y7205674D01*
X10241095Y7205582D01*
X10240171Y7205397D01*
X10239061Y7205304D01*
X10237767Y7205119D01*
X10236380Y7205027D01*
X10233976D01*
X10232959Y7205119D01*
X10231665Y7205212D01*
X10231295D01*
X10230925Y7205304D01*
X10230463Y7205397D01*
X10229815D01*
X10229168Y7205489D01*
X10227689Y7205767D01*
X10227597D01*
X10227319Y7205859D01*
X10226949Y7205952D01*
X10226487Y7206044D01*
X10225193Y7206321D01*
X10223806Y7206691D01*
X10223713D01*
X10223528Y7206784D01*
X10223159Y7206876D01*
X10222789Y7207061D01*
X10221864Y7207431D01*
X10221032Y7207893D01*
Y7216861D01*
X10221125Y7216769D01*
X10221217Y7216676D01*
X10221494Y7216492D01*
X10221864Y7216214D01*
X10222789Y7215567D01*
X10223898Y7214827D01*
X10223991D01*
X10224176Y7214735D01*
X10224545Y7214550D01*
X10225008Y7214365D01*
X10226117Y7213810D01*
X10227412Y7213348D01*
X10227504D01*
X10227689Y7213256D01*
X10228059Y7213163D01*
X10228614Y7213071D01*
X10229723Y7212701D01*
X10231110Y7212423D01*
X10231480D01*
X10231849Y7212331D01*
X10232312D01*
X10233421Y7212239D01*
X10234623Y7212146D01*
X10235548D01*
X10236472Y7212239D01*
X10237674Y7212423D01*
X10238969Y7212608D01*
X10240355Y7212886D01*
X10241650Y7213348D01*
X10242759Y7213995D01*
X10242852Y7214088D01*
X10243222Y7214365D01*
X10243591Y7214735D01*
X10244146Y7215382D01*
X10244608Y7216122D01*
X10245071Y7217046D01*
X10245348Y7218063D01*
X10245441Y7219265D01*
Y7219358D01*
Y7219635D01*
Y7219912D01*
X10245348Y7220375D01*
X10245071Y7221484D01*
X10244516Y7222501D01*
Y7222594D01*
X10244331Y7222779D01*
X10243869Y7223333D01*
X10243129Y7224165D01*
X10242020Y7224997D01*
X10241927Y7225090D01*
X10241742Y7225182D01*
X10241372Y7225460D01*
X10241003Y7225737D01*
X10240448Y7226107D01*
X10239801Y7226477D01*
X10238229Y7227216D01*
X10238136Y7227309D01*
X10237859Y7227401D01*
X10237397Y7227586D01*
X10236842Y7227956D01*
X10236195Y7228233D01*
X10235363Y7228603D01*
X10233606Y7229435D01*
X10233514Y7229528D01*
X10233144Y7229713D01*
X10232682Y7229990D01*
X10231942Y7230360D01*
X10231202Y7230730D01*
X10230370Y7231192D01*
X10228614Y7232302D01*
X10228521Y7232394D01*
X10228244Y7232579D01*
X10227781Y7232856D01*
X10227227Y7233226D01*
X10225932Y7234336D01*
X10224545Y7235537D01*
X10224453Y7235630D01*
X10224268Y7235815D01*
X10223991Y7236185D01*
X10223621Y7236739D01*
X10223159Y7237294D01*
X10222696Y7237941D01*
X10221864Y7239513D01*
Y7239606D01*
X10221679Y7239883D01*
X10221587Y7240438D01*
X10221402Y7241085D01*
X10221217Y7241824D01*
X10221125Y7242749D01*
X10220940Y7243674D01*
Y7244783D01*
Y7244968D01*
Y7245430D01*
X10221032Y7246077D01*
X10221125Y7247002D01*
X10221310Y7247927D01*
X10221679Y7249036D01*
X10222049Y7250146D01*
X10222604Y7251163D01*
X10222696Y7251255D01*
X10222881Y7251625D01*
X10223251Y7252180D01*
X10223806Y7252734D01*
X10224361Y7253474D01*
X10225100Y7254214D01*
X10226025Y7254953D01*
X10226949Y7255693D01*
X10227042Y7255785D01*
X10227412Y7255970D01*
X10228059Y7256340D01*
X10228798Y7256710D01*
X10229723Y7257172D01*
X10230740Y7257634D01*
X10231942Y7258004D01*
X10233236Y7258374D01*
X10233421D01*
X10233884Y7258559D01*
X10234531Y7258651D01*
X10235455Y7258836D01*
X10236565Y7259021D01*
X10237767Y7259114D01*
X10240355Y7259299D01*
X10241742D01*
X10242389Y7259206D01*
D02*
G37*
G36*
X10086694Y7205859D02*
X10078188D01*
Y7212146D01*
X10078003D01*
Y7212054D01*
X10077818Y7211869D01*
X10077540Y7211499D01*
X10077263Y7211037D01*
X10076801Y7210482D01*
X10076246Y7209927D01*
X10075599Y7209280D01*
X10074859Y7208633D01*
X10074027Y7207893D01*
X10073103Y7207246D01*
X10072086Y7206691D01*
X10070976Y7206136D01*
X10069682Y7205674D01*
X10068387Y7205304D01*
X10066908Y7205119D01*
X10065336Y7205027D01*
X10064689D01*
X10064227Y7205119D01*
X10063580Y7205212D01*
X10062932Y7205304D01*
X10061361Y7205674D01*
X10059604Y7206229D01*
X10057755Y7207153D01*
X10056830Y7207708D01*
X10055906Y7208355D01*
X10055074Y7209188D01*
X10054242Y7210020D01*
Y7210112D01*
X10054057Y7210297D01*
X10053872Y7210574D01*
X10053594Y7210944D01*
X10053317Y7211406D01*
X10052947Y7212054D01*
X10052577Y7212793D01*
X10052207Y7213625D01*
X10051745Y7214550D01*
X10051375Y7215567D01*
X10051006Y7216676D01*
X10050728Y7217878D01*
X10050451Y7219173D01*
X10050266Y7220652D01*
X10050173Y7222131D01*
X10050081Y7223703D01*
Y7223796D01*
Y7224073D01*
Y7224628D01*
X10050173Y7225275D01*
X10050266Y7226015D01*
X10050358Y7226939D01*
X10050451Y7227956D01*
X10050636Y7229066D01*
X10051190Y7231469D01*
X10052023Y7233966D01*
X10052577Y7235168D01*
X10053224Y7236370D01*
X10053872Y7237479D01*
X10054704Y7238589D01*
X10054796Y7238681D01*
X10054889Y7238866D01*
X10055166Y7239143D01*
X10055536Y7239513D01*
X10055998Y7239883D01*
X10056553Y7240345D01*
X10057200Y7240900D01*
X10057940Y7241455D01*
X10059696Y7242472D01*
X10061823Y7243396D01*
X10063025Y7243674D01*
X10064227Y7243951D01*
X10065614Y7244136D01*
X10067000Y7244228D01*
X10067740D01*
X10068202Y7244136D01*
X10068850Y7244043D01*
X10069589Y7243951D01*
X10071253Y7243489D01*
X10073010Y7242749D01*
X10073935Y7242287D01*
X10074859Y7241640D01*
X10075691Y7240992D01*
X10076523Y7240160D01*
X10077356Y7239236D01*
X10078003Y7238126D01*
X10078188D01*
Y7261425D01*
X10086694D01*
Y7205859D01*
D02*
G37*
G36*
X10483607Y7232302D02*
X10500157Y7205859D01*
X10489709D01*
X10478892Y7225090D01*
X10478799Y7225275D01*
X10478615Y7225737D01*
X10478245Y7226569D01*
X10477875Y7227586D01*
X10477690D01*
X10477598Y7227401D01*
X10477413Y7226939D01*
X10477135Y7226199D01*
X10476581Y7225090D01*
X10465486Y7205859D01*
X10454946D01*
X10472235Y7232209D01*
X10456333Y7258374D01*
X10467058D01*
X10476488Y7240623D01*
Y7240530D01*
X10476673Y7240345D01*
X10476858Y7239975D01*
X10477043Y7239513D01*
X10477598Y7238404D01*
X10478152Y7237109D01*
X10478245D01*
X10478337Y7237202D01*
X10478430Y7237479D01*
X10478615Y7237941D01*
X10478892Y7238404D01*
X10479539Y7239606D01*
X10480094Y7240807D01*
X10489987Y7258374D01*
X10499787D01*
X10483607Y7232302D01*
D02*
G37*
G36*
X10437934Y7244136D02*
X10439043Y7244043D01*
X10440338Y7243766D01*
X10441910Y7243304D01*
X10443389Y7242564D01*
X10444961Y7241547D01*
X10445608Y7240992D01*
X10446255Y7240253D01*
X10446440Y7240068D01*
X10446810Y7239513D01*
X10447272Y7238589D01*
X10447919Y7237294D01*
X10448474Y7235722D01*
X10449029Y7233781D01*
X10449398Y7231469D01*
X10449491Y7228788D01*
Y7205859D01*
X10440985D01*
Y7226939D01*
Y7227032D01*
Y7227401D01*
Y7227956D01*
X10440893Y7228603D01*
X10440800Y7229343D01*
X10440615Y7230267D01*
X10440060Y7232209D01*
X10439691Y7233226D01*
X10439228Y7234151D01*
X10438581Y7235075D01*
X10437841Y7235815D01*
X10437009Y7236554D01*
X10435992Y7237017D01*
X10434883Y7237387D01*
X10433588Y7237479D01*
X10432941D01*
X10432202Y7237294D01*
X10431277Y7237109D01*
X10430260Y7236739D01*
X10429151Y7236277D01*
X10428134Y7235537D01*
X10427117Y7234520D01*
X10427024Y7234428D01*
X10426747Y7233966D01*
X10426284Y7233411D01*
X10425915Y7232579D01*
X10425452Y7231469D01*
X10424990Y7230267D01*
X10424713Y7228788D01*
X10424620Y7227216D01*
Y7205859D01*
X10416022D01*
Y7243396D01*
X10424620D01*
Y7237109D01*
X10424713D01*
X10424805Y7237202D01*
X10424898Y7237387D01*
X10425175Y7237756D01*
X10425545Y7238219D01*
X10425915Y7238773D01*
X10426469Y7239328D01*
X10427117Y7239975D01*
X10427856Y7240715D01*
X10428688Y7241362D01*
X10429520Y7242009D01*
X10431647Y7243119D01*
X10432849Y7243581D01*
X10434143Y7243951D01*
X10435438Y7244136D01*
X10436917Y7244228D01*
X10437472D01*
X10437934Y7244136D01*
D02*
G37*
G36*
X9990724D02*
X9991834Y7244043D01*
X9993128Y7243766D01*
X9994700Y7243304D01*
X9996179Y7242564D01*
X9997751Y7241547D01*
X9998398Y7240992D01*
X9999045Y7240253D01*
X9999230Y7240068D01*
X9999600Y7239513D01*
X10000062Y7238589D01*
X10000709Y7237294D01*
X10001264Y7235722D01*
X10001819Y7233781D01*
X10002189Y7231469D01*
X10002281Y7228788D01*
Y7205859D01*
X9993775D01*
Y7226939D01*
Y7227032D01*
Y7227401D01*
Y7227956D01*
X9993683Y7228603D01*
X9993590Y7229343D01*
X9993405Y7230267D01*
X9992851Y7232209D01*
X9992481Y7233226D01*
X9992019Y7234151D01*
X9991371Y7235075D01*
X9990632Y7235815D01*
X9989800Y7236554D01*
X9988783Y7237017D01*
X9987673Y7237387D01*
X9986379Y7237479D01*
X9985732D01*
X9984992Y7237294D01*
X9984067Y7237109D01*
X9983050Y7236739D01*
X9981941Y7236277D01*
X9980924Y7235537D01*
X9979907Y7234520D01*
X9979814Y7234428D01*
X9979537Y7233966D01*
X9979075Y7233411D01*
X9978705Y7232579D01*
X9978243Y7231469D01*
X9977780Y7230267D01*
X9977503Y7228788D01*
X9977411Y7227216D01*
Y7205859D01*
X9968812D01*
Y7243396D01*
X9977411D01*
Y7237109D01*
X9977503D01*
X9977595Y7237202D01*
X9977688Y7237387D01*
X9977965Y7237756D01*
X9978335Y7238219D01*
X9978705Y7238773D01*
X9979260Y7239328D01*
X9979907Y7239975D01*
X9980647Y7240715D01*
X9981479Y7241362D01*
X9982311Y7242009D01*
X9984437Y7243119D01*
X9985639Y7243581D01*
X9986934Y7243951D01*
X9988228Y7244136D01*
X9989707Y7244228D01*
X9990262D01*
X9990724Y7244136D01*
D02*
G37*
G36*
X10322734Y7243951D02*
X10323936Y7243766D01*
X10324490Y7243581D01*
X10324953Y7243304D01*
Y7235260D01*
X10324860Y7235353D01*
X10324675Y7235445D01*
X10324305Y7235630D01*
X10323843Y7235907D01*
X10323196Y7236092D01*
X10322456Y7236277D01*
X10321532Y7236370D01*
X10320515Y7236462D01*
X10320330D01*
X10319868Y7236370D01*
X10319220Y7236277D01*
X10318296Y7236000D01*
X10317279Y7235630D01*
X10316262Y7234983D01*
X10315152Y7234151D01*
X10314135Y7233041D01*
X10314043Y7232856D01*
X10313766Y7232394D01*
X10313303Y7231654D01*
X10312933Y7230637D01*
X10312471Y7229250D01*
X10312009Y7227679D01*
X10311731Y7225830D01*
X10311639Y7223796D01*
Y7205859D01*
X10303133D01*
Y7243396D01*
X10311639D01*
Y7235630D01*
X10311824D01*
Y7235722D01*
X10311916Y7235815D01*
X10312101Y7236277D01*
X10312379Y7237017D01*
X10312748Y7237941D01*
X10313303Y7238866D01*
X10313950Y7239883D01*
X10314690Y7240900D01*
X10315615Y7241824D01*
X10315707Y7241917D01*
X10316077Y7242194D01*
X10316632Y7242564D01*
X10317279Y7242934D01*
X10318203Y7243304D01*
X10319128Y7243674D01*
X10320237Y7243951D01*
X10321439Y7244043D01*
X10322271D01*
X10322734Y7243951D01*
D02*
G37*
G36*
X9886526Y7244136D02*
X9887821Y7244043D01*
X9889208Y7243859D01*
X9890779Y7243581D01*
X9892444Y7243211D01*
X9894015Y7242657D01*
Y7235168D01*
X9893830Y7235260D01*
X9893276Y7235630D01*
X9892536Y7236092D01*
X9891426Y7236554D01*
X9890040Y7237109D01*
X9888560Y7237479D01*
X9886804Y7237849D01*
X9884955Y7237941D01*
X9883938D01*
X9883013Y7237756D01*
X9881996Y7237572D01*
X9881904D01*
X9881811Y7237479D01*
X9881256Y7237387D01*
X9880517Y7237109D01*
X9879777Y7236647D01*
X9879592Y7236554D01*
X9879222Y7236277D01*
X9878760Y7235815D01*
X9878298Y7235260D01*
X9878205Y7235075D01*
X9878113Y7234705D01*
X9877928Y7234151D01*
X9877835Y7233411D01*
Y7233319D01*
Y7233226D01*
X9877928Y7232671D01*
X9878020Y7232024D01*
X9878298Y7231377D01*
X9878390Y7231284D01*
X9878668Y7230915D01*
X9879222Y7230360D01*
X9879869Y7229898D01*
X9879962D01*
X9880054Y7229805D01*
X9880517Y7229528D01*
X9881349Y7229158D01*
X9882273Y7228696D01*
X9882366D01*
X9882551Y7228603D01*
X9882828Y7228511D01*
X9883198Y7228418D01*
X9884215Y7228049D01*
X9885509Y7227586D01*
X9885602D01*
X9885879Y7227401D01*
X9886341Y7227216D01*
X9886989Y7226939D01*
X9888375Y7226292D01*
X9889855Y7225552D01*
X9889947D01*
X9890225Y7225367D01*
X9890502Y7225182D01*
X9890964Y7224905D01*
X9892074Y7224165D01*
X9893091Y7223241D01*
X9893183Y7223148D01*
X9893368Y7223056D01*
X9893553Y7222779D01*
X9893923Y7222409D01*
X9894570Y7221392D01*
X9895217Y7220190D01*
Y7220097D01*
X9895310Y7219912D01*
X9895495Y7219543D01*
X9895587Y7219080D01*
X9895772Y7218526D01*
X9895864Y7217786D01*
X9895957Y7216214D01*
Y7216122D01*
Y7215752D01*
X9895864Y7215197D01*
X9895772Y7214550D01*
X9895679Y7213718D01*
X9895402Y7212886D01*
X9895125Y7212054D01*
X9894662Y7211222D01*
X9894570Y7211129D01*
X9894385Y7210852D01*
X9894108Y7210482D01*
X9893738Y7210020D01*
X9893276Y7209465D01*
X9892628Y7208818D01*
X9891981Y7208263D01*
X9891149Y7207708D01*
X9891057Y7207616D01*
X9890779Y7207523D01*
X9890317Y7207246D01*
X9889670Y7206969D01*
X9888930Y7206599D01*
X9888098Y7206229D01*
X9887081Y7205952D01*
X9886064Y7205674D01*
X9885972D01*
X9885602Y7205582D01*
X9884955Y7205489D01*
X9884215Y7205397D01*
X9883290Y7205212D01*
X9882273Y7205119D01*
X9881164Y7205027D01*
X9878945D01*
X9878390Y7205119D01*
X9877835D01*
X9876356Y7205304D01*
X9874692Y7205489D01*
X9872935Y7205859D01*
X9871086Y7206321D01*
X9869330Y7206969D01*
Y7214827D01*
X9869422D01*
X9869514Y7214642D01*
X9869792Y7214458D01*
X9870162Y7214273D01*
X9871179Y7213718D01*
X9872473Y7213071D01*
X9874045Y7212331D01*
X9875801Y7211776D01*
X9877743Y7211406D01*
X9879869Y7211222D01*
X9880609D01*
X9881071Y7211314D01*
X9882273Y7211499D01*
X9883753Y7211776D01*
X9885139Y7212331D01*
X9886341Y7213163D01*
X9886804Y7213625D01*
X9887174Y7214273D01*
X9887451Y7214920D01*
X9887543Y7215752D01*
Y7215844D01*
Y7215937D01*
X9887451Y7216492D01*
X9887266Y7217231D01*
X9886896Y7217971D01*
X9886804Y7218156D01*
X9886434Y7218526D01*
X9885879Y7218988D01*
X9885139Y7219543D01*
X9885047D01*
X9884955Y7219635D01*
X9884400Y7220005D01*
X9883568Y7220375D01*
X9882458Y7220837D01*
X9882366D01*
X9882181Y7220929D01*
X9881904Y7221022D01*
X9881441Y7221207D01*
X9880424Y7221577D01*
X9879037Y7222039D01*
X9878945D01*
X9878668Y7222224D01*
X9878205Y7222409D01*
X9877651Y7222594D01*
X9876356Y7223241D01*
X9874877Y7223980D01*
X9874784Y7224073D01*
X9874600Y7224165D01*
X9874230Y7224350D01*
X9873767Y7224628D01*
X9872843Y7225367D01*
X9871826Y7226292D01*
X9871733Y7226384D01*
X9871641Y7226569D01*
X9871456Y7226754D01*
X9871179Y7227124D01*
X9870531Y7228049D01*
X9869977Y7229250D01*
Y7229343D01*
X9869884Y7229528D01*
X9869792Y7229898D01*
X9869699Y7230360D01*
X9869514Y7230915D01*
X9869422Y7231562D01*
X9869330Y7233134D01*
Y7233226D01*
Y7233596D01*
X9869422Y7234058D01*
X9869514Y7234705D01*
X9869607Y7235445D01*
X9869884Y7236277D01*
X9870162Y7237109D01*
X9870624Y7237849D01*
X9870716Y7237941D01*
X9870901Y7238219D01*
X9871179Y7238589D01*
X9871548Y7239051D01*
X9872011Y7239606D01*
X9872658Y7240253D01*
X9874045Y7241362D01*
X9874137Y7241455D01*
X9874415Y7241640D01*
X9874877Y7241824D01*
X9875524Y7242194D01*
X9876264Y7242564D01*
X9877096Y7242841D01*
X9878945Y7243489D01*
X9879037D01*
X9879407Y7243581D01*
X9879962Y7243766D01*
X9880702Y7243859D01*
X9881534Y7244043D01*
X9882551Y7244136D01*
X9884677Y7244228D01*
X9885509D01*
X9886526Y7244136D01*
D02*
G37*
G36*
X10179242Y7199849D02*
X10179150Y7199757D01*
X10178965Y7199387D01*
X10178687Y7198740D01*
X10178317Y7198000D01*
X10177763Y7197168D01*
X10177116Y7196151D01*
X10176283Y7195134D01*
X10175451Y7194025D01*
X10174434Y7192915D01*
X10173325Y7191898D01*
X10172123Y7190881D01*
X10170736Y7190049D01*
X10169349Y7189309D01*
X10167777Y7188662D01*
X10166206Y7188292D01*
X10164449Y7188200D01*
X10163525D01*
X10162877Y7188292D01*
X10161398Y7188477D01*
X10159919Y7188755D01*
Y7195781D01*
X10160011D01*
X10160289Y7195689D01*
X10160658Y7195596D01*
X10161121Y7195504D01*
X10162323Y7195227D01*
X10163617Y7195134D01*
X10163802D01*
X10164449Y7195227D01*
X10165281Y7195412D01*
X10166298Y7195689D01*
X10167500Y7196244D01*
X10168610Y7197168D01*
X10169257Y7197631D01*
X10169812Y7198278D01*
X10170274Y7199017D01*
X10170736Y7199849D01*
X10173232Y7205859D01*
X10158347Y7243396D01*
X10167777D01*
X10176746Y7216122D01*
Y7216029D01*
X10176838Y7215844D01*
Y7215567D01*
X10176931Y7215197D01*
X10177023Y7214735D01*
X10177208Y7214088D01*
X10177393Y7213348D01*
X10177578D01*
Y7213533D01*
X10177763Y7213995D01*
X10177948Y7214827D01*
X10178040Y7215382D01*
X10178225Y7216029D01*
X10187563Y7243396D01*
X10196161D01*
X10179242Y7199849D01*
D02*
G37*
G36*
X10137267Y7258282D02*
X10137914D01*
X10138654Y7258189D01*
X10140411Y7258004D01*
X10142260Y7257542D01*
X10144294Y7256987D01*
X10146328Y7256155D01*
X10148084Y7255046D01*
X10148177D01*
X10148269Y7254861D01*
X10148824Y7254491D01*
X10149471Y7253751D01*
X10150303Y7252734D01*
X10151135Y7251440D01*
X10151875Y7249961D01*
X10152337Y7248296D01*
X10152430Y7247372D01*
X10152522Y7246355D01*
Y7246262D01*
Y7246170D01*
Y7245615D01*
X10152430Y7244783D01*
X10152245Y7243766D01*
X10151875Y7242472D01*
X10151413Y7241177D01*
X10150766Y7239883D01*
X10149933Y7238589D01*
X10149841Y7238404D01*
X10149471Y7238034D01*
X10148916Y7237479D01*
X10148177Y7236739D01*
X10147160Y7236000D01*
X10145958Y7235168D01*
X10144571Y7234520D01*
X10142999Y7233873D01*
Y7233781D01*
X10143277D01*
X10143554Y7233688D01*
X10143924Y7233596D01*
X10144848Y7233411D01*
X10146050Y7233041D01*
X10147437Y7232486D01*
X10148916Y7231839D01*
X10150303Y7230915D01*
X10151598Y7229713D01*
X10151783Y7229528D01*
X10152152Y7229066D01*
X10152615Y7228418D01*
X10153262Y7227401D01*
X10153909Y7226107D01*
X10154371Y7224628D01*
X10154741Y7222871D01*
X10154926Y7220929D01*
Y7220837D01*
Y7220652D01*
Y7220282D01*
X10154834Y7219820D01*
X10154741Y7219265D01*
X10154649Y7218618D01*
X10154279Y7217046D01*
X10153632Y7215290D01*
X10153169Y7214365D01*
X10152707Y7213440D01*
X10152060Y7212608D01*
X10151320Y7211684D01*
X10150488Y7210852D01*
X10149564Y7210020D01*
X10149471D01*
X10149286Y7209835D01*
X10149009Y7209650D01*
X10148639Y7209372D01*
X10148084Y7209095D01*
X10147437Y7208725D01*
X10146698Y7208355D01*
X10145958Y7207986D01*
X10145033Y7207523D01*
X10144016Y7207153D01*
X10141705Y7206506D01*
X10139116Y7206044D01*
X10137637Y7205952D01*
X10136158Y7205859D01*
X10119331D01*
Y7258374D01*
X10136712D01*
X10137267Y7258282D01*
D02*
G37*
G36*
X9912506Y7205859D02*
X9904001D01*
Y7243396D01*
X9912506D01*
Y7205859D01*
D02*
G37*
G36*
X9795457Y7258282D02*
X9796104D01*
X9796844Y7258189D01*
X9797769Y7258097D01*
X9798693Y7258004D01*
X9800912Y7257634D01*
X9803316Y7256987D01*
X9805997Y7256248D01*
X9808678Y7255138D01*
X9811360Y7253844D01*
X9812746Y7253012D01*
X9814041Y7252087D01*
X9815243Y7251163D01*
X9816445Y7250053D01*
X9817554Y7248851D01*
X9818664Y7247557D01*
X9819681Y7246170D01*
X9820513Y7244598D01*
X9821252Y7243026D01*
X9821992Y7241177D01*
X9822454Y7239328D01*
X9822917Y7237294D01*
X9823102Y7235075D01*
X9823194Y7232764D01*
Y7232671D01*
Y7232209D01*
X9823102Y7231562D01*
Y7230730D01*
X9822917Y7229713D01*
X9822732Y7228511D01*
X9822547Y7227216D01*
X9822177Y7225737D01*
X9821807Y7224165D01*
X9821252Y7222594D01*
X9820605Y7221022D01*
X9819773Y7219358D01*
X9818849Y7217693D01*
X9817832Y7216122D01*
X9816537Y7214642D01*
X9815150Y7213163D01*
X9815058Y7213071D01*
X9814780Y7212886D01*
X9814318Y7212516D01*
X9813671Y7212054D01*
X9812839Y7211499D01*
X9811914Y7210852D01*
X9810712Y7210205D01*
X9809418Y7209557D01*
X9807939Y7208818D01*
X9806367Y7208170D01*
X9804518Y7207523D01*
X9802669Y7206969D01*
X9800542Y7206506D01*
X9798323Y7206136D01*
X9796012Y7205952D01*
X9793516Y7205859D01*
X9779000D01*
Y7258374D01*
X9794902D01*
X9795457Y7258282D01*
D02*
G37*
G36*
X10393185Y7244136D02*
X10393832Y7244043D01*
X10394572Y7243951D01*
X10396236Y7243581D01*
X10398178Y7243026D01*
X10400119Y7242102D01*
X10401136Y7241547D01*
X10402061Y7240900D01*
X10402893Y7240160D01*
X10403725Y7239236D01*
X10403818Y7239143D01*
X10403910Y7239051D01*
X10404095Y7238773D01*
X10404372Y7238311D01*
X10404742Y7237849D01*
X10405112Y7237202D01*
X10405482Y7236554D01*
X10405852Y7235722D01*
X10406222Y7234798D01*
X10406591Y7233781D01*
X10406961Y7232579D01*
X10407331Y7231377D01*
X10407608Y7230083D01*
X10407793Y7228696D01*
X10407978Y7227124D01*
Y7225552D01*
Y7222316D01*
X10382368D01*
Y7222224D01*
Y7222131D01*
Y7221854D01*
X10382460Y7221484D01*
X10382553Y7220467D01*
X10382830Y7219358D01*
X10383200Y7217971D01*
X10383847Y7216676D01*
X10384587Y7215382D01*
X10385604Y7214180D01*
X10385789Y7214088D01*
X10386159Y7213718D01*
X10386898Y7213348D01*
X10387823Y7212793D01*
X10389025Y7212331D01*
X10390412Y7211869D01*
X10392076Y7211499D01*
X10394017Y7211406D01*
X10394572D01*
X10395034Y7211499D01*
X10395589D01*
X10396144Y7211591D01*
X10397623Y7211869D01*
X10399380Y7212331D01*
X10401229Y7212886D01*
X10403078Y7213810D01*
X10405020Y7215012D01*
Y7208170D01*
X10404927D01*
X10404742Y7208078D01*
X10404465Y7207893D01*
X10404095Y7207708D01*
X10403540Y7207431D01*
X10402986Y7207153D01*
X10402246Y7206876D01*
X10401414Y7206599D01*
X10400489Y7206321D01*
X10399472Y7206044D01*
X10398363Y7205767D01*
X10397161Y7205489D01*
X10394480Y7205119D01*
X10391521Y7205027D01*
X10390689D01*
X10390134Y7205119D01*
X10389487Y7205212D01*
X10388655Y7205304D01*
X10386806Y7205674D01*
X10384679Y7206229D01*
X10382553Y7207153D01*
X10381443Y7207801D01*
X10380426Y7208448D01*
X10379409Y7209188D01*
X10378485Y7210112D01*
X10378392Y7210205D01*
X10378300Y7210389D01*
X10378022Y7210667D01*
X10377745Y7211037D01*
X10377375Y7211591D01*
X10377005Y7212239D01*
X10376543Y7212978D01*
X10376173Y7213810D01*
X10375711Y7214735D01*
X10375249Y7215844D01*
X10374879Y7217046D01*
X10374509Y7218341D01*
X10374232Y7219727D01*
X10373954Y7221207D01*
X10373862Y7222779D01*
X10373769Y7224443D01*
Y7224535D01*
Y7224813D01*
Y7225275D01*
X10373862Y7225922D01*
X10373954Y7226662D01*
X10374047Y7227494D01*
X10374232Y7228511D01*
X10374417Y7229528D01*
X10375064Y7231747D01*
X10375988Y7234151D01*
X10376543Y7235353D01*
X10377283Y7236462D01*
X10378022Y7237664D01*
X10378947Y7238681D01*
X10379039Y7238773D01*
X10379224Y7238958D01*
X10379502Y7239236D01*
X10379872Y7239513D01*
X10380426Y7239975D01*
X10380981Y7240438D01*
X10381721Y7240900D01*
X10382553Y7241455D01*
X10384402Y7242472D01*
X10386621Y7243396D01*
X10387823Y7243674D01*
X10389117Y7243951D01*
X10390504Y7244136D01*
X10391891Y7244228D01*
X10392630D01*
X10393185Y7244136D01*
D02*
G37*
G36*
X10280296D02*
X10280944Y7244043D01*
X10281683Y7243951D01*
X10283347Y7243581D01*
X10285289Y7243026D01*
X10287231Y7242102D01*
X10288248Y7241547D01*
X10289172Y7240900D01*
X10290004Y7240160D01*
X10290836Y7239236D01*
X10290929Y7239143D01*
X10291021Y7239051D01*
X10291206Y7238773D01*
X10291484Y7238311D01*
X10291853Y7237849D01*
X10292223Y7237202D01*
X10292593Y7236554D01*
X10292963Y7235722D01*
X10293333Y7234798D01*
X10293703Y7233781D01*
X10294072Y7232579D01*
X10294442Y7231377D01*
X10294720Y7230083D01*
X10294904Y7228696D01*
X10295089Y7227124D01*
Y7225552D01*
Y7222316D01*
X10269479D01*
Y7222224D01*
Y7222131D01*
Y7221854D01*
X10269572Y7221484D01*
X10269664Y7220467D01*
X10269941Y7219358D01*
X10270311Y7217971D01*
X10270958Y7216676D01*
X10271698Y7215382D01*
X10272715Y7214180D01*
X10272900Y7214088D01*
X10273270Y7213718D01*
X10274009Y7213348D01*
X10274934Y7212793D01*
X10276136Y7212331D01*
X10277523Y7211869D01*
X10279187Y7211499D01*
X10281129Y7211406D01*
X10281683D01*
X10282146Y7211499D01*
X10282700D01*
X10283255Y7211591D01*
X10284734Y7211869D01*
X10286491Y7212331D01*
X10288340Y7212886D01*
X10290189Y7213810D01*
X10292131Y7215012D01*
Y7208170D01*
X10292038D01*
X10291853Y7208078D01*
X10291576Y7207893D01*
X10291206Y7207708D01*
X10290652Y7207431D01*
X10290097Y7207153D01*
X10289357Y7206876D01*
X10288525Y7206599D01*
X10287600Y7206321D01*
X10286583Y7206044D01*
X10285474Y7205767D01*
X10284272Y7205489D01*
X10281591Y7205119D01*
X10278632Y7205027D01*
X10277800D01*
X10277245Y7205119D01*
X10276598Y7205212D01*
X10275766Y7205304D01*
X10273917Y7205674D01*
X10271790Y7206229D01*
X10269664Y7207153D01*
X10268555Y7207801D01*
X10267538Y7208448D01*
X10266520Y7209188D01*
X10265596Y7210112D01*
X10265503Y7210205D01*
X10265411Y7210389D01*
X10265134Y7210667D01*
X10264856Y7211037D01*
X10264486Y7211591D01*
X10264117Y7212239D01*
X10263654Y7212978D01*
X10263285Y7213810D01*
X10262822Y7214735D01*
X10262360Y7215844D01*
X10261990Y7217046D01*
X10261620Y7218341D01*
X10261343Y7219727D01*
X10261066Y7221207D01*
X10260973Y7222779D01*
X10260881Y7224443D01*
Y7224535D01*
Y7224813D01*
Y7225275D01*
X10260973Y7225922D01*
X10261066Y7226662D01*
X10261158Y7227494D01*
X10261343Y7228511D01*
X10261528Y7229528D01*
X10262175Y7231747D01*
X10263100Y7234151D01*
X10263654Y7235353D01*
X10264394Y7236462D01*
X10265134Y7237664D01*
X10266058Y7238681D01*
X10266151Y7238773D01*
X10266336Y7238958D01*
X10266613Y7239236D01*
X10266983Y7239513D01*
X10267538Y7239975D01*
X10268092Y7240438D01*
X10268832Y7240900D01*
X10269664Y7241455D01*
X10271513Y7242472D01*
X10273732Y7243396D01*
X10274934Y7243674D01*
X10276228Y7243951D01*
X10277615Y7244136D01*
X10279002Y7244228D01*
X10279742D01*
X10280296Y7244136D01*
D02*
G37*
G36*
X10029648D02*
X10030295Y7244043D01*
X10031035Y7243951D01*
X10032699Y7243581D01*
X10034641Y7243026D01*
X10036582Y7242102D01*
X10037599Y7241547D01*
X10038524Y7240900D01*
X10039356Y7240160D01*
X10040188Y7239236D01*
X10040281Y7239143D01*
X10040373Y7239051D01*
X10040558Y7238773D01*
X10040835Y7238311D01*
X10041205Y7237849D01*
X10041575Y7237202D01*
X10041945Y7236554D01*
X10042315Y7235722D01*
X10042685Y7234798D01*
X10043054Y7233781D01*
X10043424Y7232579D01*
X10043794Y7231377D01*
X10044071Y7230083D01*
X10044256Y7228696D01*
X10044441Y7227124D01*
Y7225552D01*
Y7222316D01*
X10018831D01*
Y7222224D01*
Y7222131D01*
Y7221854D01*
X10018923Y7221484D01*
X10019016Y7220467D01*
X10019293Y7219358D01*
X10019663Y7217971D01*
X10020310Y7216676D01*
X10021050Y7215382D01*
X10022067Y7214180D01*
X10022252Y7214088D01*
X10022622Y7213718D01*
X10023361Y7213348D01*
X10024286Y7212793D01*
X10025488Y7212331D01*
X10026875Y7211869D01*
X10028539Y7211499D01*
X10030480Y7211406D01*
X10031035D01*
X10031497Y7211499D01*
X10032052D01*
X10032607Y7211591D01*
X10034086Y7211869D01*
X10035843Y7212331D01*
X10037692Y7212886D01*
X10039541Y7213810D01*
X10041483Y7215012D01*
Y7208170D01*
X10041390D01*
X10041205Y7208078D01*
X10040928Y7207893D01*
X10040558Y7207708D01*
X10040003Y7207431D01*
X10039449Y7207153D01*
X10038709Y7206876D01*
X10037877Y7206599D01*
X10036952Y7206321D01*
X10035935Y7206044D01*
X10034826Y7205767D01*
X10033624Y7205489D01*
X10030943Y7205119D01*
X10027984Y7205027D01*
X10027152D01*
X10026597Y7205119D01*
X10025950Y7205212D01*
X10025118Y7205304D01*
X10023269Y7205674D01*
X10021142Y7206229D01*
X10019016Y7207153D01*
X10017906Y7207801D01*
X10016889Y7208448D01*
X10015872Y7209188D01*
X10014948Y7210112D01*
X10014855Y7210205D01*
X10014763Y7210389D01*
X10014485Y7210667D01*
X10014208Y7211037D01*
X10013838Y7211591D01*
X10013468Y7212239D01*
X10013006Y7212978D01*
X10012636Y7213810D01*
X10012174Y7214735D01*
X10011712Y7215844D01*
X10011342Y7217046D01*
X10010972Y7218341D01*
X10010695Y7219727D01*
X10010417Y7221207D01*
X10010325Y7222779D01*
X10010232Y7224443D01*
Y7224535D01*
Y7224813D01*
Y7225275D01*
X10010325Y7225922D01*
X10010417Y7226662D01*
X10010510Y7227494D01*
X10010695Y7228511D01*
X10010880Y7229528D01*
X10011527Y7231747D01*
X10012451Y7234151D01*
X10013006Y7235353D01*
X10013746Y7236462D01*
X10014485Y7237664D01*
X10015410Y7238681D01*
X10015502Y7238773D01*
X10015687Y7238958D01*
X10015965Y7239236D01*
X10016335Y7239513D01*
X10016889Y7239975D01*
X10017444Y7240438D01*
X10018184Y7240900D01*
X10019016Y7241455D01*
X10020865Y7242472D01*
X10023084Y7243396D01*
X10024286Y7243674D01*
X10025580Y7243951D01*
X10026967Y7244136D01*
X10028354Y7244228D01*
X10029093D01*
X10029648Y7244136D01*
D02*
G37*
G36*
X9848804D02*
X9849451Y7244043D01*
X9850191Y7243951D01*
X9851855Y7243581D01*
X9853797Y7243026D01*
X9855738Y7242102D01*
X9856755Y7241547D01*
X9857680Y7240900D01*
X9858512Y7240160D01*
X9859344Y7239236D01*
X9859437Y7239143D01*
X9859529Y7239051D01*
X9859714Y7238773D01*
X9859991Y7238311D01*
X9860361Y7237849D01*
X9860731Y7237202D01*
X9861101Y7236554D01*
X9861471Y7235722D01*
X9861841Y7234798D01*
X9862210Y7233781D01*
X9862580Y7232579D01*
X9862950Y7231377D01*
X9863227Y7230083D01*
X9863412Y7228696D01*
X9863597Y7227124D01*
Y7225552D01*
Y7222316D01*
X9837987D01*
Y7222224D01*
Y7222131D01*
Y7221854D01*
X9838079Y7221484D01*
X9838172Y7220467D01*
X9838449Y7219358D01*
X9838819Y7217971D01*
X9839466Y7216676D01*
X9840206Y7215382D01*
X9841223Y7214180D01*
X9841408Y7214088D01*
X9841778Y7213718D01*
X9842517Y7213348D01*
X9843442Y7212793D01*
X9844644Y7212331D01*
X9846031Y7211869D01*
X9847695Y7211499D01*
X9849636Y7211406D01*
X9850191D01*
X9850653Y7211499D01*
X9851208D01*
X9851763Y7211591D01*
X9853242Y7211869D01*
X9854999Y7212331D01*
X9856848Y7212886D01*
X9858697Y7213810D01*
X9860639Y7215012D01*
Y7208170D01*
X9860546D01*
X9860361Y7208078D01*
X9860084Y7207893D01*
X9859714Y7207708D01*
X9859159Y7207431D01*
X9858605Y7207153D01*
X9857865Y7206876D01*
X9857033Y7206599D01*
X9856108Y7206321D01*
X9855091Y7206044D01*
X9853982Y7205767D01*
X9852780Y7205489D01*
X9850099Y7205119D01*
X9847140Y7205027D01*
X9846308D01*
X9845753Y7205119D01*
X9845106Y7205212D01*
X9844274Y7205304D01*
X9842425Y7205674D01*
X9840298Y7206229D01*
X9838172Y7207153D01*
X9837062Y7207801D01*
X9836045Y7208448D01*
X9835028Y7209188D01*
X9834104Y7210112D01*
X9834011Y7210205D01*
X9833919Y7210389D01*
X9833641Y7210667D01*
X9833364Y7211037D01*
X9832994Y7211591D01*
X9832624Y7212239D01*
X9832162Y7212978D01*
X9831792Y7213810D01*
X9831330Y7214735D01*
X9830868Y7215844D01*
X9830498Y7217046D01*
X9830128Y7218341D01*
X9829851Y7219727D01*
X9829573Y7221207D01*
X9829481Y7222779D01*
X9829389Y7224443D01*
Y7224535D01*
Y7224813D01*
Y7225275D01*
X9829481Y7225922D01*
X9829573Y7226662D01*
X9829666Y7227494D01*
X9829851Y7228511D01*
X9830036Y7229528D01*
X9830683Y7231747D01*
X9831607Y7234151D01*
X9832162Y7235353D01*
X9832902Y7236462D01*
X9833641Y7237664D01*
X9834566Y7238681D01*
X9834659Y7238773D01*
X9834843Y7238958D01*
X9835121Y7239236D01*
X9835491Y7239513D01*
X9836045Y7239975D01*
X9836600Y7240438D01*
X9837340Y7240900D01*
X9838172Y7241455D01*
X9840021Y7242472D01*
X9842240Y7243396D01*
X9843442Y7243674D01*
X9844736Y7243951D01*
X9846123Y7244136D01*
X9847510Y7244228D01*
X9848250D01*
X9848804Y7244136D01*
D02*
G37*
G36*
X10346680D02*
X10347327Y7244043D01*
X10347974Y7243951D01*
X10349638Y7243489D01*
X10351395Y7242749D01*
X10352320Y7242287D01*
X10353244Y7241640D01*
X10354169Y7240992D01*
X10355001Y7240160D01*
X10355741Y7239236D01*
X10356480Y7238126D01*
X10356665D01*
Y7243396D01*
X10365171D01*
Y7208818D01*
Y7208725D01*
Y7208633D01*
Y7208355D01*
Y7207893D01*
X10365079Y7206876D01*
X10364894Y7205582D01*
X10364524Y7204010D01*
X10364062Y7202253D01*
X10363414Y7200404D01*
X10362582Y7198555D01*
X10361473Y7196613D01*
X10360086Y7194764D01*
X10358422Y7193008D01*
X10356388Y7191436D01*
X10355278Y7190696D01*
X10353984Y7190142D01*
X10352689Y7189587D01*
X10351210Y7189125D01*
X10349731Y7188755D01*
X10348067Y7188477D01*
X10346218Y7188292D01*
X10344368Y7188200D01*
X10343167D01*
X10342519Y7188292D01*
X10341780D01*
X10340023Y7188477D01*
X10338081Y7188847D01*
X10335862Y7189217D01*
X10333736Y7189864D01*
X10331610Y7190696D01*
Y7198463D01*
X10331702D01*
X10331887Y7198278D01*
X10332257Y7198185D01*
X10332627Y7197908D01*
X10333181Y7197631D01*
X10333828Y7197353D01*
X10335400Y7196706D01*
X10337157Y7196059D01*
X10339098Y7195504D01*
X10341132Y7195134D01*
X10343259Y7194949D01*
X10343814D01*
X10344461Y7195042D01*
X10345385Y7195134D01*
X10346402Y7195319D01*
X10347512Y7195596D01*
X10348714Y7196059D01*
X10350008Y7196613D01*
X10351210Y7197261D01*
X10352412Y7198093D01*
X10353522Y7199202D01*
X10354539Y7200497D01*
X10355463Y7201976D01*
X10356110Y7203640D01*
X10356480Y7205674D01*
X10356665Y7207986D01*
Y7212146D01*
X10356480D01*
Y7212054D01*
X10356295Y7211869D01*
X10356018Y7211499D01*
X10355741Y7211037D01*
X10355278Y7210482D01*
X10354724Y7209927D01*
X10354076Y7209280D01*
X10353337Y7208633D01*
X10352505Y7207893D01*
X10351580Y7207246D01*
X10350563Y7206691D01*
X10349361Y7206136D01*
X10348159Y7205674D01*
X10346772Y7205304D01*
X10345385Y7205119D01*
X10343814Y7205027D01*
X10343167D01*
X10342704Y7205119D01*
X10342057Y7205212D01*
X10341410Y7205304D01*
X10339838Y7205674D01*
X10338081Y7206229D01*
X10336232Y7207061D01*
X10335308Y7207616D01*
X10334383Y7208355D01*
X10333551Y7209095D01*
X10332719Y7209927D01*
Y7210020D01*
X10332534Y7210205D01*
X10332349Y7210482D01*
X10332072Y7210852D01*
X10331794Y7211314D01*
X10331425Y7211961D01*
X10331055Y7212701D01*
X10330685Y7213440D01*
X10330223Y7214365D01*
X10329853Y7215382D01*
X10329483Y7216492D01*
X10329206Y7217693D01*
X10328743Y7220375D01*
X10328651Y7221762D01*
X10328558Y7223333D01*
Y7223426D01*
Y7223796D01*
Y7224258D01*
X10328651Y7224905D01*
X10328743Y7225737D01*
X10328836Y7226662D01*
X10328928Y7227679D01*
X10329113Y7228881D01*
X10329668Y7231284D01*
X10330500Y7233873D01*
X10330962Y7235075D01*
X10331610Y7236277D01*
X10332257Y7237479D01*
X10333089Y7238589D01*
X10333181Y7238681D01*
X10333274Y7238866D01*
X10333551Y7239143D01*
X10333921Y7239513D01*
X10334383Y7239883D01*
X10334938Y7240345D01*
X10335585Y7240900D01*
X10336325Y7241455D01*
X10338081Y7242472D01*
X10340208Y7243396D01*
X10341410Y7243674D01*
X10342704Y7243951D01*
X10344091Y7244136D01*
X10345478Y7244228D01*
X10346218D01*
X10346680Y7244136D01*
D02*
G37*
G36*
X9939319D02*
X9939966Y7244043D01*
X9940613Y7243951D01*
X9942277Y7243489D01*
X9944034Y7242749D01*
X9944959Y7242287D01*
X9945883Y7241640D01*
X9946808Y7240992D01*
X9947640Y7240160D01*
X9948379Y7239236D01*
X9949119Y7238126D01*
X9949304D01*
Y7243396D01*
X9957810D01*
Y7208818D01*
Y7208725D01*
Y7208633D01*
Y7208355D01*
Y7207893D01*
X9957717Y7206876D01*
X9957533Y7205582D01*
X9957163Y7204010D01*
X9956700Y7202253D01*
X9956053Y7200404D01*
X9955221Y7198555D01*
X9954112Y7196613D01*
X9952725Y7194764D01*
X9951061Y7193008D01*
X9949027Y7191436D01*
X9947917Y7190696D01*
X9946623Y7190142D01*
X9945328Y7189587D01*
X9943849Y7189125D01*
X9942370Y7188755D01*
X9940706Y7188477D01*
X9938856Y7188292D01*
X9937007Y7188200D01*
X9935805D01*
X9935158Y7188292D01*
X9934419D01*
X9932662Y7188477D01*
X9930720Y7188847D01*
X9928501Y7189217D01*
X9926375Y7189864D01*
X9924248Y7190696D01*
Y7198463D01*
X9924341D01*
X9924526Y7198278D01*
X9924896Y7198185D01*
X9925265Y7197908D01*
X9925820Y7197631D01*
X9926467Y7197353D01*
X9928039Y7196706D01*
X9929796Y7196059D01*
X9931737Y7195504D01*
X9933771Y7195134D01*
X9935898Y7194949D01*
X9936453D01*
X9937100Y7195042D01*
X9938024Y7195134D01*
X9939041Y7195319D01*
X9940151Y7195596D01*
X9941353Y7196059D01*
X9942647Y7196613D01*
X9943849Y7197261D01*
X9945051Y7198093D01*
X9946160Y7199202D01*
X9947177Y7200497D01*
X9948102Y7201976D01*
X9948749Y7203640D01*
X9949119Y7205674D01*
X9949304Y7207986D01*
Y7212146D01*
X9949119D01*
Y7212054D01*
X9948934Y7211869D01*
X9948657Y7211499D01*
X9948379Y7211037D01*
X9947917Y7210482D01*
X9947362Y7209927D01*
X9946715Y7209280D01*
X9945976Y7208633D01*
X9945143Y7207893D01*
X9944219Y7207246D01*
X9943202Y7206691D01*
X9942000Y7206136D01*
X9940798Y7205674D01*
X9939411Y7205304D01*
X9938024Y7205119D01*
X9936453Y7205027D01*
X9935805D01*
X9935343Y7205119D01*
X9934696Y7205212D01*
X9934049Y7205304D01*
X9932477Y7205674D01*
X9930720Y7206229D01*
X9928871Y7207061D01*
X9927947Y7207616D01*
X9927022Y7208355D01*
X9926190Y7209095D01*
X9925358Y7209927D01*
Y7210020D01*
X9925173Y7210205D01*
X9924988Y7210482D01*
X9924711Y7210852D01*
X9924433Y7211314D01*
X9924063Y7211961D01*
X9923694Y7212701D01*
X9923324Y7213440D01*
X9922862Y7214365D01*
X9922492Y7215382D01*
X9922122Y7216492D01*
X9921845Y7217693D01*
X9921382Y7220375D01*
X9921290Y7221762D01*
X9921197Y7223333D01*
Y7223426D01*
Y7223796D01*
Y7224258D01*
X9921290Y7224905D01*
X9921382Y7225737D01*
X9921475Y7226662D01*
X9921567Y7227679D01*
X9921752Y7228881D01*
X9922307Y7231284D01*
X9923139Y7233873D01*
X9923601Y7235075D01*
X9924248Y7236277D01*
X9924896Y7237479D01*
X9925728Y7238589D01*
X9925820Y7238681D01*
X9925913Y7238866D01*
X9926190Y7239143D01*
X9926560Y7239513D01*
X9927022Y7239883D01*
X9927577Y7240345D01*
X9928224Y7240900D01*
X9928964Y7241455D01*
X9930720Y7242472D01*
X9932847Y7243396D01*
X9934049Y7243674D01*
X9935343Y7243951D01*
X9936730Y7244136D01*
X9938117Y7244228D01*
X9938856D01*
X9939319Y7244136D01*
D02*
G37*
G36*
X6190336Y12148454D02*
X6162846D01*
X6149595Y12163115D01*
X6206124D01*
X6190336Y12148454D01*
D02*
G37*
G36*
X6111956D02*
X6084467D01*
X6071216Y12163115D01*
X6127745D01*
X6111956Y12148454D01*
D02*
G37*
G36*
X6033577D02*
X6006088D01*
X5992837Y12163115D01*
X6049366D01*
X6033577Y12148454D01*
D02*
G37*
G36*
X6283799Y12122234D02*
X6277737Y12116595D01*
X6269420Y12125899D01*
X6271252Y12145635D01*
X6287041Y12160296D01*
X6283799Y12122234D01*
D02*
G37*
G36*
X6238265Y12145635D02*
X6236574Y12125899D01*
X6226706Y12116595D01*
X6221772Y12122234D01*
X6225014Y12160296D01*
X6238265Y12145635D01*
D02*
G37*
G36*
X6205278Y12122234D02*
X6199217Y12116595D01*
X6191040Y12125899D01*
X6192732Y12145776D01*
X6208521Y12160296D01*
X6205278Y12122234D01*
D02*
G37*
G36*
X6126899D02*
X6120837Y12116595D01*
X6112661Y12125899D01*
X6114353Y12145776D01*
X6130141Y12160296D01*
X6126899Y12122234D01*
D02*
G37*
G36*
X6081366Y12145494D02*
X6079674Y12125899D01*
X6069665Y12116595D01*
X6064872Y12122234D01*
X6068115Y12160155D01*
X6081366Y12145494D01*
D02*
G37*
G36*
X6048520Y12122234D02*
X6042458Y12116595D01*
X6034282Y12125899D01*
X6035973Y12145776D01*
X6051762Y12160296D01*
X6048520Y12122234D01*
D02*
G37*
G36*
X6002986Y12145494D02*
X6001295Y12125899D01*
X5991286Y12116595D01*
X5986493Y12122234D01*
X5989735Y12160155D01*
X6002986Y12145494D01*
D02*
G37*
G36*
X6274918Y12113917D02*
X6267023Y12106727D01*
X6235869D01*
X6229384Y12113917D01*
X6237138Y12121247D01*
X6268292D01*
X6274918Y12113917D01*
D02*
G37*
G36*
X6196397D02*
X6188503Y12106727D01*
X6157349D01*
X6150864Y12113917D01*
X6158617Y12121247D01*
X6189772D01*
X6196397Y12113917D01*
D02*
G37*
G36*
X6118018D02*
X6110124Y12106727D01*
X6078969D01*
X6072485Y12113917D01*
X6080238Y12121247D01*
X6111392D01*
X6118018Y12113917D01*
D02*
G37*
G36*
X6155939Y12102075D02*
X6154247Y12082339D01*
X6138459Y12067819D01*
X6141701Y12105740D01*
X6147763Y12111097D01*
X6155939Y12102075D01*
D02*
G37*
G36*
X6125348Y12105740D02*
X6122106Y12067819D01*
X6108855Y12082339D01*
X6110547Y12102075D01*
X6120414Y12111097D01*
X6125348Y12105740D01*
D02*
G37*
G36*
X6077701Y12102075D02*
X6075868Y12082339D01*
X6060079Y12067819D01*
X6063181Y12105740D01*
X6069242Y12111097D01*
X6077701Y12102075D01*
D02*
G37*
G36*
X6046969Y12105740D02*
X6043727Y12067819D01*
X6030476Y12082339D01*
X6032167Y12102075D01*
X6042035Y12111097D01*
X6046969Y12105740D01*
D02*
G37*
G36*
X5999321Y12102075D02*
X5997489Y12082339D01*
X5981700Y12067819D01*
X5984801Y12105740D01*
X5990863Y12111097D01*
X5999321Y12102075D01*
D02*
G37*
G36*
X6282248Y12105740D02*
X6279006Y12067678D01*
X6265755Y12082339D01*
X6267446Y12102075D01*
X6277314Y12111097D01*
X6282248Y12105740D01*
D02*
G37*
G36*
X6197525Y12065000D02*
X6140996D01*
X6156785Y12079520D01*
X6184274D01*
X6197525Y12065000D01*
D02*
G37*
G36*
X6119146D02*
X6062617D01*
X6078405Y12079520D01*
X6105895D01*
X6119146Y12065000D01*
D02*
G37*
G36*
X6040766D02*
X5984237D01*
X6000026Y12079520D01*
X6027515D01*
X6040766Y12065000D01*
D02*
G37*
G36*
X4980426Y12289833D02*
X4981553D01*
X4984232Y12289551D01*
X4987333Y12289128D01*
X4990575Y12288564D01*
X4993818Y12287719D01*
X4996778Y12286591D01*
Y12273481D01*
X4996637D01*
X4996355Y12273622D01*
X4995932Y12273904D01*
X4995368Y12274186D01*
X4994664Y12274608D01*
X4993677Y12275031D01*
X4991562Y12275877D01*
X4988884Y12276723D01*
X4985783Y12277569D01*
X4982540Y12278133D01*
X4978875Y12278274D01*
X4977606D01*
X4976760Y12278133D01*
X4975633Y12277992D01*
X4974364Y12277851D01*
X4972954Y12277569D01*
X4971404Y12277287D01*
X4968020Y12276300D01*
X4966329Y12275595D01*
X4964496Y12274749D01*
X4962663Y12273763D01*
X4960972Y12272776D01*
X4959280Y12271366D01*
X4957729Y12269956D01*
X4957589Y12269815D01*
X4957448Y12269533D01*
X4957025Y12269111D01*
X4956461Y12268406D01*
X4955897Y12267560D01*
X4955192Y12266573D01*
X4954487Y12265445D01*
X4953782Y12264036D01*
X4952936Y12262485D01*
X4952232Y12260934D01*
X4951527Y12259102D01*
X4950963Y12256987D01*
X4950399Y12254873D01*
X4949976Y12252617D01*
X4949835Y12250221D01*
X4949694Y12247683D01*
Y12247542D01*
Y12247119D01*
Y12246414D01*
X4949835Y12245428D01*
X4949976Y12244441D01*
X4950117Y12243031D01*
X4950258Y12241621D01*
X4950681Y12240071D01*
X4951527Y12236687D01*
X4952796Y12233163D01*
X4953641Y12231472D01*
X4954769Y12229780D01*
X4955897Y12228088D01*
X4957166Y12226538D01*
X4957307Y12226397D01*
X4957589Y12226256D01*
X4958011Y12225833D01*
X4958575Y12225269D01*
X4959280Y12224705D01*
X4960267Y12224000D01*
X4961254Y12223295D01*
X4962522Y12222590D01*
X4963932Y12221886D01*
X4965342Y12221181D01*
X4968866Y12219912D01*
X4972813Y12218925D01*
X4974928Y12218784D01*
X4977183Y12218643D01*
X4978311D01*
X4979016Y12218784D01*
X4980003D01*
X4981130Y12218925D01*
X4983809Y12219348D01*
X4986910Y12220053D01*
X4990153Y12220899D01*
X4993536Y12222309D01*
X4996778Y12224141D01*
Y12211736D01*
X4996637D01*
X4996355Y12211595D01*
X4995791Y12211313D01*
X4995228Y12211031D01*
X4994241Y12210749D01*
X4993254Y12210326D01*
X4991985Y12209903D01*
X4990575Y12209480D01*
X4989025Y12209057D01*
X4987333Y12208634D01*
X4985501Y12208212D01*
X4983527Y12207930D01*
X4979016Y12207366D01*
X4974223Y12207225D01*
X4973518D01*
X4972531Y12207366D01*
X4971404D01*
X4969853Y12207507D01*
X4968161Y12207789D01*
X4966329Y12208071D01*
X4964214Y12208634D01*
X4962100Y12209198D01*
X4959844Y12209903D01*
X4957448Y12210749D01*
X4955192Y12211877D01*
X4952796Y12213005D01*
X4950540Y12214555D01*
X4948425Y12216106D01*
X4946311Y12218079D01*
X4946170Y12218220D01*
X4945888Y12218643D01*
X4945324Y12219207D01*
X4944619Y12220053D01*
X4943914Y12221181D01*
X4943069Y12222450D01*
X4942082Y12224000D01*
X4941095Y12225833D01*
X4940108Y12227806D01*
X4939121Y12229921D01*
X4938276Y12232317D01*
X4937571Y12234855D01*
X4936866Y12237674D01*
X4936302Y12240635D01*
X4936020Y12243736D01*
X4935879Y12246978D01*
Y12247260D01*
Y12247824D01*
X4936020Y12248811D01*
Y12250221D01*
X4936302Y12251771D01*
X4936443Y12253604D01*
X4936866Y12255718D01*
X4937289Y12258115D01*
X4937994Y12260511D01*
X4938699Y12263049D01*
X4939685Y12265586D01*
X4940813Y12268124D01*
X4942223Y12270802D01*
X4943773Y12273199D01*
X4945465Y12275736D01*
X4947580Y12277992D01*
X4947721Y12278133D01*
X4948144Y12278556D01*
X4948848Y12279119D01*
X4949694Y12279824D01*
X4950822Y12280811D01*
X4952232Y12281798D01*
X4953923Y12282926D01*
X4955756Y12284053D01*
X4957870Y12285040D01*
X4960126Y12286168D01*
X4962522Y12287155D01*
X4965201Y12288142D01*
X4968020Y12288846D01*
X4970981Y12289410D01*
X4974223Y12289833D01*
X4977465Y12289974D01*
X4979439D01*
X4980426Y12289833D01*
D02*
G37*
G36*
X5076285Y12208493D02*
X5063034D01*
Y12243172D01*
X5025254D01*
Y12208493D01*
X5012003D01*
Y12288564D01*
X5025254D01*
Y12254873D01*
X5063034D01*
Y12288564D01*
X5076285D01*
Y12208493D01*
D02*
G37*
G36*
X5401221Y12266573D02*
X5403054Y12266291D01*
X5403900Y12266009D01*
X5404604Y12265586D01*
Y12253322D01*
X5404463Y12253463D01*
X5404181Y12253604D01*
X5403618Y12253886D01*
X5402913Y12254309D01*
X5401926Y12254591D01*
X5400798Y12254873D01*
X5399388Y12255014D01*
X5397838Y12255155D01*
X5397556D01*
X5396851Y12255014D01*
X5395864Y12254873D01*
X5394455Y12254450D01*
X5392904Y12253886D01*
X5391353Y12252899D01*
X5389662Y12251630D01*
X5388111Y12249939D01*
X5387970Y12249657D01*
X5387547Y12248952D01*
X5386842Y12247824D01*
X5386278Y12246273D01*
X5385573Y12244159D01*
X5384869Y12241762D01*
X5384446Y12238943D01*
X5384305Y12235842D01*
Y12208493D01*
X5371335D01*
Y12265727D01*
X5384305D01*
Y12253886D01*
X5384587D01*
Y12254027D01*
X5384728Y12254168D01*
X5385010Y12254873D01*
X5385432Y12256000D01*
X5385996Y12257410D01*
X5386842Y12258820D01*
X5387829Y12260370D01*
X5388957Y12261921D01*
X5390366Y12263331D01*
X5390507Y12263472D01*
X5391071Y12263895D01*
X5391917Y12264459D01*
X5392904Y12265022D01*
X5394314Y12265586D01*
X5395723Y12266150D01*
X5397415Y12266573D01*
X5399248Y12266714D01*
X5400516D01*
X5401221Y12266573D01*
D02*
G37*
G36*
X5730527Y12234855D02*
X5700077D01*
Y12244441D01*
X5730527D01*
Y12234855D01*
D02*
G37*
G36*
X5229661Y12208493D02*
X5216550D01*
Y12260229D01*
Y12260370D01*
Y12260511D01*
Y12261357D01*
Y12262767D01*
X5216691Y12264600D01*
Y12266855D01*
X5216832Y12269533D01*
X5216973Y12272635D01*
X5217255Y12275877D01*
X5217114D01*
Y12275595D01*
X5216973Y12275031D01*
X5216691Y12274045D01*
X5216409Y12273058D01*
X5215564Y12270520D01*
X5215282Y12269393D01*
X5214859Y12268406D01*
X5191035Y12208493D01*
X5181731D01*
X5157766Y12267842D01*
Y12267983D01*
X5157625Y12268406D01*
X5157343Y12268970D01*
X5157202Y12269815D01*
X5156779Y12270943D01*
X5156497Y12272353D01*
X5156074Y12274045D01*
X5155651Y12275877D01*
X5155510D01*
Y12275595D01*
X5155651Y12275031D01*
Y12273763D01*
X5155792Y12272071D01*
Y12269956D01*
X5155933Y12267278D01*
Y12264036D01*
Y12262203D01*
Y12260229D01*
Y12208493D01*
X5143669D01*
Y12288564D01*
X5162418D01*
X5183422Y12235137D01*
X5183563Y12234855D01*
X5183845Y12234150D01*
X5184268Y12233022D01*
X5184691Y12231754D01*
X5185255Y12230203D01*
X5185678Y12228652D01*
X5186242Y12227242D01*
X5186524Y12225974D01*
X5186806D01*
Y12226115D01*
X5186947Y12226256D01*
X5187229Y12226961D01*
X5187511Y12228088D01*
X5188074Y12229498D01*
X5188497Y12231049D01*
X5189061Y12232599D01*
X5189625Y12234150D01*
X5190189Y12235419D01*
X5211616Y12288564D01*
X5229661D01*
Y12208493D01*
D02*
G37*
G36*
X6126935D02*
X6112133D01*
X6083798Y12288564D01*
X6098318D01*
X6118195Y12227806D01*
Y12227665D01*
X6118335Y12227242D01*
X6118476Y12226679D01*
X6118758Y12225833D01*
X6118899Y12224846D01*
X6119181Y12223718D01*
X6119604Y12221040D01*
X6119745D01*
Y12221181D01*
X6119886Y12221604D01*
Y12222168D01*
X6120168Y12223013D01*
X6120309Y12224000D01*
X6120591Y12225269D01*
X6121437Y12227806D01*
X6141596Y12288564D01*
X6155693D01*
X6126935Y12208493D01*
D02*
G37*
G36*
X5781840D02*
X5767038D01*
X5738703Y12288564D01*
X5753223D01*
X5773100Y12227806D01*
Y12227665D01*
X5773241Y12227242D01*
X5773382Y12226679D01*
X5773664Y12225833D01*
X5773805Y12224846D01*
X5774087Y12223718D01*
X5774510Y12221040D01*
X5774651D01*
Y12221181D01*
X5774792Y12221604D01*
Y12222168D01*
X5775074Y12223013D01*
X5775215Y12224000D01*
X5775496Y12225269D01*
X5776342Y12227806D01*
X5796501Y12288564D01*
X5810598D01*
X5781840Y12208493D01*
D02*
G37*
G36*
X5440975D02*
X5427019D01*
X5405873Y12265727D01*
X5419970D01*
X5432657Y12225692D01*
Y12225551D01*
X5432939Y12224987D01*
X5433080Y12224141D01*
X5433362Y12223013D01*
X5433785Y12221886D01*
X5434067Y12220476D01*
X5434490Y12217938D01*
X5434631D01*
Y12218079D01*
X5434772Y12218643D01*
Y12219348D01*
X5435054Y12220476D01*
X5435195Y12221604D01*
X5435477Y12222872D01*
X5436182Y12225410D01*
X5449433Y12265727D01*
X5463107D01*
X5440975Y12208493D01*
D02*
G37*
G36*
X6291306D02*
X6276645D01*
X6269455Y12228793D01*
X6237878D01*
X6230971Y12208493D01*
X6216451D01*
X6246477Y12288564D01*
X6261420D01*
X6291306Y12208493D01*
D02*
G37*
G36*
X6076890Y12277287D02*
X6047005D01*
Y12254591D01*
X6074635D01*
Y12243313D01*
X6047005D01*
Y12219630D01*
X6078723D01*
Y12208493D01*
X6033753D01*
Y12288564D01*
X6076890D01*
Y12277287D01*
D02*
G37*
G36*
X5992167Y12288423D02*
X5993718Y12288283D01*
X5995551Y12288001D01*
X5999075Y12287155D01*
X5999357D01*
X5999921Y12286873D01*
X6000767Y12286591D01*
X6001894Y12286168D01*
X6003163Y12285604D01*
X6004573Y12284899D01*
X6007392Y12283208D01*
X6007533Y12283067D01*
X6007956Y12282785D01*
X6008661Y12282080D01*
X6009366Y12281375D01*
X6010352Y12280388D01*
X6011198Y12279260D01*
X6012044Y12277851D01*
X6012890Y12276441D01*
X6013031Y12276300D01*
X6013172Y12275736D01*
X6013454Y12274890D01*
X6013877Y12273763D01*
X6014300Y12272353D01*
X6014582Y12270802D01*
X6014723Y12268970D01*
X6014864Y12266996D01*
Y12266855D01*
Y12266291D01*
Y12265445D01*
X6014723Y12264318D01*
X6014582Y12263190D01*
X6014300Y12261780D01*
X6013595Y12259102D01*
Y12258961D01*
X6013454Y12258538D01*
X6013172Y12257833D01*
X6012749Y12256987D01*
X6011621Y12255014D01*
X6010071Y12252758D01*
X6009930Y12252617D01*
X6009648Y12252335D01*
X6009225Y12251771D01*
X6008520Y12251207D01*
X6007674Y12250503D01*
X6006687Y12249657D01*
X6004432Y12248106D01*
X6004291Y12247965D01*
X6003868Y12247824D01*
X6003163Y12247401D01*
X6002317Y12246978D01*
X6001189Y12246555D01*
X5999921Y12245992D01*
X5997101Y12245146D01*
Y12244864D01*
X5997242D01*
X5997524Y12244582D01*
X5997947Y12244441D01*
X5998370Y12244018D01*
X5999639Y12243172D01*
X6000907Y12242044D01*
X6001048D01*
X6001189Y12241762D01*
X6001894Y12241199D01*
X6002881Y12240212D01*
X6004009Y12239084D01*
X6004291Y12238802D01*
X6004855Y12238097D01*
X6005841Y12236969D01*
X6006828Y12235560D01*
X6006969Y12235419D01*
X6007110Y12235278D01*
X6007392Y12234855D01*
X6007815Y12234291D01*
X6008802Y12232740D01*
X6010071Y12230908D01*
X6024309Y12208493D01*
X6008802D01*
X5995974Y12229921D01*
X5995833Y12230062D01*
X5995692Y12230485D01*
X5995410Y12230908D01*
X5994987Y12231613D01*
X5993859Y12233304D01*
X5992590Y12234996D01*
X5992449Y12235137D01*
X5992308Y12235419D01*
X5991603Y12236265D01*
X5990476Y12237251D01*
X5989207Y12238379D01*
X5989066D01*
X5988925Y12238661D01*
X5988079Y12239225D01*
X5986951Y12239789D01*
X5985542Y12240353D01*
X5985401D01*
X5985260Y12240494D01*
X5984837D01*
X5984273Y12240635D01*
X5982863Y12240776D01*
X5981031Y12240917D01*
X5975674D01*
Y12208493D01*
X5962423D01*
Y12288564D01*
X5990758D01*
X5992167Y12288423D01*
D02*
G37*
G36*
X5909277Y12208493D02*
X5896308D01*
Y12274467D01*
X5896167Y12274326D01*
X5895744Y12274045D01*
X5895039Y12273622D01*
X5894052Y12272917D01*
X5892924Y12272353D01*
X5891656Y12271507D01*
X5888695Y12270097D01*
X5888554Y12269956D01*
X5887991Y12269815D01*
X5887145Y12269533D01*
X5886017Y12269111D01*
X5884748Y12268688D01*
X5883198Y12268124D01*
X5881365Y12267701D01*
X5879532Y12267137D01*
Y12278133D01*
X5879673D01*
X5880096Y12278274D01*
X5880660Y12278556D01*
X5881506Y12278838D01*
X5883479Y12279542D01*
X5885735Y12280388D01*
X5885876D01*
X5886299Y12280670D01*
X5886863Y12280811D01*
X5887709Y12281234D01*
X5889541Y12282080D01*
X5891656Y12283067D01*
X5891797D01*
X5892220Y12283349D01*
X5892783Y12283631D01*
X5893488Y12284053D01*
X5895462Y12285040D01*
X5897576Y12286168D01*
X5897717Y12286309D01*
X5898140Y12286450D01*
X5898704Y12286873D01*
X5899550Y12287437D01*
X5900396Y12288001D01*
X5901524Y12288705D01*
X5903779Y12290397D01*
X5909277D01*
Y12208493D01*
D02*
G37*
G36*
X5680201D02*
X5667231D01*
Y12274467D01*
X5667091Y12274326D01*
X5666668Y12274045D01*
X5665963Y12273622D01*
X5664976Y12272917D01*
X5663848Y12272353D01*
X5662579Y12271507D01*
X5659619Y12270097D01*
X5659478Y12269956D01*
X5658914Y12269815D01*
X5658068Y12269533D01*
X5656941Y12269111D01*
X5655672Y12268688D01*
X5654121Y12268124D01*
X5652289Y12267701D01*
X5650456Y12267137D01*
Y12278133D01*
X5650597D01*
X5651020Y12278274D01*
X5651584Y12278556D01*
X5652430Y12278838D01*
X5654403Y12279542D01*
X5656659Y12280388D01*
X5656800D01*
X5657223Y12280670D01*
X5657787Y12280811D01*
X5658632Y12281234D01*
X5660465Y12282080D01*
X5662579Y12283067D01*
X5662720D01*
X5663143Y12283349D01*
X5663707Y12283631D01*
X5664412Y12284053D01*
X5666386Y12285040D01*
X5668500Y12286168D01*
X5668641Y12286309D01*
X5669064Y12286450D01*
X5669628Y12286873D01*
X5670474Y12287437D01*
X5671320Y12288001D01*
X5672447Y12288705D01*
X5674703Y12290397D01*
X5680201D01*
Y12208493D01*
D02*
G37*
G36*
X5550649Y12288423D02*
X5552200Y12288283D01*
X5554033Y12288001D01*
X5557557Y12287155D01*
X5557839D01*
X5558403Y12286873D01*
X5559248Y12286591D01*
X5560376Y12286168D01*
X5561645Y12285604D01*
X5563055Y12284899D01*
X5565874Y12283208D01*
X5566015Y12283067D01*
X5566438Y12282785D01*
X5567143Y12282080D01*
X5567848Y12281375D01*
X5568834Y12280388D01*
X5569680Y12279260D01*
X5570526Y12277851D01*
X5571372Y12276441D01*
X5571513Y12276300D01*
X5571654Y12275736D01*
X5571936Y12274890D01*
X5572359Y12273763D01*
X5572782Y12272353D01*
X5573064Y12270802D01*
X5573204Y12268970D01*
X5573345Y12266996D01*
Y12266855D01*
Y12266291D01*
Y12265445D01*
X5573204Y12264318D01*
X5573064Y12263190D01*
X5572782Y12261780D01*
X5572077Y12259102D01*
Y12258961D01*
X5571936Y12258538D01*
X5571654Y12257833D01*
X5571231Y12256987D01*
X5570103Y12255014D01*
X5568552Y12252758D01*
X5568412Y12252617D01*
X5568130Y12252335D01*
X5567707Y12251771D01*
X5567002Y12251207D01*
X5566156Y12250503D01*
X5565169Y12249657D01*
X5562914Y12248106D01*
X5562773Y12247965D01*
X5562350Y12247824D01*
X5561645Y12247401D01*
X5560799Y12246978D01*
X5559671Y12246555D01*
X5558403Y12245992D01*
X5555583Y12245146D01*
Y12244864D01*
X5555724D01*
X5556006Y12244582D01*
X5556429Y12244441D01*
X5556852Y12244018D01*
X5558121Y12243172D01*
X5559389Y12242044D01*
X5559530D01*
X5559671Y12241762D01*
X5560376Y12241199D01*
X5561363Y12240212D01*
X5562491Y12239084D01*
X5562773Y12238802D01*
X5563337Y12238097D01*
X5564323Y12236969D01*
X5565310Y12235560D01*
X5565451Y12235419D01*
X5565592Y12235278D01*
X5565874Y12234855D01*
X5566297Y12234291D01*
X5567284Y12232740D01*
X5568552Y12230908D01*
X5582790Y12208493D01*
X5567284D01*
X5554455Y12229921D01*
X5554315Y12230062D01*
X5554174Y12230485D01*
X5553892Y12230908D01*
X5553469Y12231613D01*
X5552341Y12233304D01*
X5551072Y12234996D01*
X5550931Y12235137D01*
X5550790Y12235419D01*
X5550085Y12236265D01*
X5548958Y12237251D01*
X5547689Y12238379D01*
X5547548D01*
X5547407Y12238661D01*
X5546561Y12239225D01*
X5545433Y12239789D01*
X5544024Y12240353D01*
X5543883D01*
X5543742Y12240494D01*
X5543319D01*
X5542755Y12240635D01*
X5541345Y12240776D01*
X5539513Y12240917D01*
X5534156D01*
Y12208493D01*
X5520905D01*
Y12288564D01*
X5549240D01*
X5550649Y12288423D01*
D02*
G37*
G36*
X5315934D02*
X5316921D01*
X5318049Y12288283D01*
X5319458Y12288142D01*
X5320868Y12288001D01*
X5324251Y12287437D01*
X5327917Y12286450D01*
X5332005Y12285322D01*
X5336093Y12283631D01*
X5340181Y12281657D01*
X5342296Y12280388D01*
X5344269Y12278978D01*
X5346102Y12277569D01*
X5347934Y12275877D01*
X5349626Y12274045D01*
X5351318Y12272071D01*
X5352868Y12269956D01*
X5354137Y12267560D01*
X5355265Y12265163D01*
X5356393Y12262344D01*
X5357097Y12259525D01*
X5357802Y12256423D01*
X5358084Y12253040D01*
X5358225Y12249516D01*
Y12249375D01*
Y12248670D01*
X5358084Y12247683D01*
Y12246414D01*
X5357802Y12244864D01*
X5357520Y12243031D01*
X5357238Y12241058D01*
X5356675Y12238802D01*
X5356111Y12236406D01*
X5355265Y12234009D01*
X5354278Y12231613D01*
X5353009Y12229075D01*
X5351600Y12226538D01*
X5350049Y12224141D01*
X5348075Y12221886D01*
X5345961Y12219630D01*
X5345820Y12219489D01*
X5345397Y12219207D01*
X5344692Y12218643D01*
X5343705Y12217938D01*
X5342437Y12217093D01*
X5341027Y12216106D01*
X5339194Y12215119D01*
X5337221Y12214132D01*
X5334965Y12213005D01*
X5332569Y12212018D01*
X5329749Y12211031D01*
X5326930Y12210185D01*
X5323688Y12209480D01*
X5320304Y12208916D01*
X5316780Y12208634D01*
X5312974Y12208493D01*
X5290842D01*
Y12288564D01*
X5315088D01*
X5315934Y12288423D01*
D02*
G37*
G36*
X4919245Y12208493D02*
X4906275D01*
Y12274467D01*
X4906134Y12274326D01*
X4905712Y12274045D01*
X4905007Y12273622D01*
X4904020Y12272917D01*
X4902892Y12272353D01*
X4901623Y12271507D01*
X4898663Y12270097D01*
X4898522Y12269956D01*
X4897958Y12269815D01*
X4897112Y12269533D01*
X4895985Y12269111D01*
X4894716Y12268688D01*
X4893165Y12268124D01*
X4891333Y12267701D01*
X4889500Y12267137D01*
Y12278133D01*
X4889641D01*
X4890064Y12278274D01*
X4890628Y12278556D01*
X4891474Y12278838D01*
X4893447Y12279542D01*
X4895703Y12280388D01*
X4895844D01*
X4896267Y12280670D01*
X4896830Y12280811D01*
X4897676Y12281234D01*
X4899509Y12282080D01*
X4901623Y12283067D01*
X4901764D01*
X4902187Y12283349D01*
X4902751Y12283631D01*
X4903456Y12284053D01*
X4905430Y12285040D01*
X4907544Y12286168D01*
X4907685Y12286309D01*
X4908108Y12286450D01*
X4908672Y12286873D01*
X4909518Y12287437D01*
X4910364Y12288001D01*
X4911491Y12288705D01*
X4913747Y12290397D01*
X4919245D01*
Y12208493D01*
D02*
G37*
G36*
X6171481Y12222168D02*
X6172327Y12222027D01*
X6173173Y12221745D01*
X6174160Y12221322D01*
X6175146Y12220758D01*
X6175992Y12220053D01*
X6176133Y12219912D01*
X6176415Y12219630D01*
X6176697Y12219207D01*
X6177261Y12218502D01*
X6177684Y12217798D01*
X6177966Y12216811D01*
X6178248Y12215824D01*
X6178389Y12214696D01*
Y12214555D01*
Y12214132D01*
X6178248Y12213568D01*
X6178107Y12212864D01*
X6177825Y12212018D01*
X6177402Y12211172D01*
X6176838Y12210326D01*
X6175992Y12209480D01*
X6175851Y12209339D01*
X6175569Y12209198D01*
X6175146Y12208775D01*
X6174442Y12208493D01*
X6173596Y12208071D01*
X6172609Y12207648D01*
X6171481Y12207507D01*
X6170212Y12207366D01*
X6169649D01*
X6169085Y12207507D01*
X6168239Y12207648D01*
X6167393Y12207930D01*
X6166406Y12208212D01*
X6165560Y12208775D01*
X6164574Y12209480D01*
X6164433Y12209621D01*
X6164151Y12209903D01*
X6163869Y12210326D01*
X6163446Y12210890D01*
X6162882Y12211736D01*
X6162600Y12212582D01*
X6162318Y12213568D01*
X6162177Y12214696D01*
Y12214837D01*
Y12215260D01*
X6162318Y12215824D01*
X6162459Y12216529D01*
X6162741Y12217375D01*
X6163164Y12218220D01*
X6163728Y12219207D01*
X6164574Y12220053D01*
X6164715Y12220194D01*
X6164997Y12220476D01*
X6165560Y12220758D01*
X6166124Y12221181D01*
X6166970Y12221604D01*
X6167957Y12222027D01*
X6169085Y12222168D01*
X6170212Y12222309D01*
X6170776D01*
X6171481Y12222168D01*
D02*
G37*
G36*
X5845277Y12289833D02*
X5846545Y12289692D01*
X5848237Y12289269D01*
X5850352Y12288705D01*
X5852607Y12287860D01*
X5854863Y12286591D01*
X5857400Y12284899D01*
X5859937Y12282644D01*
X5861065Y12281375D01*
X5862334Y12279965D01*
X5863462Y12278415D01*
X5864449Y12276582D01*
X5865576Y12274749D01*
X5866563Y12272635D01*
X5867409Y12270379D01*
X5868255Y12267842D01*
X5868960Y12265304D01*
X5869523Y12262344D01*
X5869946Y12259384D01*
X5870369Y12256000D01*
X5870510Y12252617D01*
X5870651Y12248811D01*
Y12248529D01*
Y12247965D01*
Y12246837D01*
X5870510Y12245428D01*
X5870369Y12243736D01*
X5870228Y12241762D01*
X5870087Y12239648D01*
X5869664Y12237392D01*
X5868819Y12232317D01*
X5867550Y12227102D01*
X5866704Y12224705D01*
X5865717Y12222168D01*
X5864449Y12219912D01*
X5863180Y12217798D01*
X5863039Y12217657D01*
X5862898Y12217375D01*
X5862475Y12216811D01*
X5861770Y12216106D01*
X5861065Y12215401D01*
X5860078Y12214414D01*
X5859092Y12213568D01*
X5857823Y12212582D01*
X5856413Y12211595D01*
X5854863Y12210608D01*
X5853030Y12209621D01*
X5851197Y12208916D01*
X5849224Y12208212D01*
X5847109Y12207648D01*
X5844713Y12207366D01*
X5842316Y12207225D01*
X5841752D01*
X5841047Y12207366D01*
X5840202D01*
X5839215Y12207507D01*
X5837946Y12207789D01*
X5835127Y12208493D01*
X5833576Y12209057D01*
X5832025Y12209762D01*
X5830334Y12210467D01*
X5828783Y12211454D01*
X5827091Y12212723D01*
X5825541Y12213991D01*
X5824131Y12215542D01*
X5822721Y12217375D01*
X5822580Y12217516D01*
X5822439Y12217798D01*
X5822017Y12218502D01*
X5821594Y12219207D01*
X5821030Y12220335D01*
X5820466Y12221604D01*
X5819902Y12223154D01*
X5819197Y12224846D01*
X5818492Y12226820D01*
X5817928Y12229075D01*
X5817365Y12231472D01*
X5816801Y12234150D01*
X5816378Y12236969D01*
X5815955Y12240071D01*
X5815814Y12243313D01*
X5815673Y12246837D01*
Y12247119D01*
Y12247824D01*
Y12248811D01*
X5815814Y12250362D01*
X5815955Y12252053D01*
X5816096Y12254168D01*
X5816237Y12256423D01*
X5816660Y12258820D01*
X5817506Y12264036D01*
X5818774Y12269393D01*
X5819620Y12271930D01*
X5820607Y12274467D01*
X5821735Y12276864D01*
X5823003Y12278978D01*
X5823144Y12279119D01*
X5823285Y12279401D01*
X5823708Y12279965D01*
X5824413Y12280670D01*
X5825118Y12281516D01*
X5826105Y12282503D01*
X5827091Y12283490D01*
X5828360Y12284476D01*
X5829770Y12285463D01*
X5831462Y12286450D01*
X5833153Y12287437D01*
X5834986Y12288283D01*
X5837100Y12288987D01*
X5839215Y12289551D01*
X5841611Y12289833D01*
X5844149Y12289974D01*
X5844431D01*
X5845277Y12289833D01*
D02*
G37*
G36*
X5616200D02*
X5617469Y12289692D01*
X5619161Y12289269D01*
X5621275Y12288705D01*
X5623531Y12287860D01*
X5625786Y12286591D01*
X5628324Y12284899D01*
X5630861Y12282644D01*
X5631989Y12281375D01*
X5633258Y12279965D01*
X5634385Y12278415D01*
X5635372Y12276582D01*
X5636500Y12274749D01*
X5637487Y12272635D01*
X5638333Y12270379D01*
X5639178Y12267842D01*
X5639883Y12265304D01*
X5640447Y12262344D01*
X5640870Y12259384D01*
X5641293Y12256000D01*
X5641434Y12252617D01*
X5641575Y12248811D01*
Y12248529D01*
Y12247965D01*
Y12246837D01*
X5641434Y12245428D01*
X5641293Y12243736D01*
X5641152Y12241762D01*
X5641011Y12239648D01*
X5640588Y12237392D01*
X5639742Y12232317D01*
X5638474Y12227102D01*
X5637628Y12224705D01*
X5636641Y12222168D01*
X5635372Y12219912D01*
X5634104Y12217798D01*
X5633963Y12217657D01*
X5633822Y12217375D01*
X5633399Y12216811D01*
X5632694Y12216106D01*
X5631989Y12215401D01*
X5631002Y12214414D01*
X5630015Y12213568D01*
X5628747Y12212582D01*
X5627337Y12211595D01*
X5625786Y12210608D01*
X5623954Y12209621D01*
X5622121Y12208916D01*
X5620148Y12208212D01*
X5618033Y12207648D01*
X5615636Y12207366D01*
X5613240Y12207225D01*
X5612676D01*
X5611971Y12207366D01*
X5611125D01*
X5610139Y12207507D01*
X5608870Y12207789D01*
X5606051Y12208493D01*
X5604500Y12209057D01*
X5602949Y12209762D01*
X5601258Y12210467D01*
X5599707Y12211454D01*
X5598015Y12212723D01*
X5596465Y12213991D01*
X5595055Y12215542D01*
X5593645Y12217375D01*
X5593504Y12217516D01*
X5593363Y12217798D01*
X5592940Y12218502D01*
X5592517Y12219207D01*
X5591954Y12220335D01*
X5591390Y12221604D01*
X5590826Y12223154D01*
X5590121Y12224846D01*
X5589416Y12226820D01*
X5588852Y12229075D01*
X5588288Y12231472D01*
X5587724Y12234150D01*
X5587302Y12236969D01*
X5586879Y12240071D01*
X5586738Y12243313D01*
X5586597Y12246837D01*
Y12247119D01*
Y12247824D01*
Y12248811D01*
X5586738Y12250362D01*
X5586879Y12252053D01*
X5587020Y12254168D01*
X5587161Y12256423D01*
X5587583Y12258820D01*
X5588429Y12264036D01*
X5589698Y12269393D01*
X5590544Y12271930D01*
X5591531Y12274467D01*
X5592658Y12276864D01*
X5593927Y12278978D01*
X5594068Y12279119D01*
X5594209Y12279401D01*
X5594632Y12279965D01*
X5595337Y12280670D01*
X5596042Y12281516D01*
X5597028Y12282503D01*
X5598015Y12283490D01*
X5599284Y12284476D01*
X5600694Y12285463D01*
X5602385Y12286450D01*
X5604077Y12287437D01*
X5605910Y12288283D01*
X5608024Y12288987D01*
X5610139Y12289551D01*
X5612535Y12289833D01*
X5615073Y12289974D01*
X5615355D01*
X5616200Y12289833D01*
D02*
G37*
G36*
X5264480Y12265727D02*
X5278154D01*
Y12255436D01*
X5264480D01*
Y12226820D01*
Y12226538D01*
Y12225974D01*
X5264621Y12225128D01*
X5264762Y12224000D01*
X5265326Y12221604D01*
X5265749Y12220476D01*
X5266313Y12219489D01*
X5266454Y12219348D01*
X5266736Y12219207D01*
X5267159Y12218784D01*
X5267863Y12218502D01*
X5268709Y12218079D01*
X5269837Y12217657D01*
X5271106Y12217516D01*
X5272515Y12217375D01*
X5273079D01*
X5273643Y12217516D01*
X5274489Y12217657D01*
X5276322Y12218220D01*
X5277168Y12218643D01*
X5278154Y12219348D01*
Y12209057D01*
X5278013Y12208916D01*
X5277449Y12208775D01*
X5276604Y12208493D01*
X5275617Y12208212D01*
X5274207Y12207789D01*
X5272515Y12207507D01*
X5270542Y12207366D01*
X5268286Y12207225D01*
X5267582D01*
X5266736Y12207366D01*
X5265608Y12207507D01*
X5264339Y12207648D01*
X5262930Y12208071D01*
X5261520Y12208493D01*
X5259969Y12209198D01*
X5258278Y12210044D01*
X5256868Y12211172D01*
X5255458Y12212441D01*
X5254189Y12213991D01*
X5253062Y12215824D01*
X5252216Y12217938D01*
X5251652Y12220335D01*
X5251511Y12223154D01*
Y12255436D01*
X5242066D01*
Y12265727D01*
X5251511D01*
Y12278838D01*
X5264480Y12282644D01*
Y12265727D01*
D02*
G37*
G36*
X5511037Y12192000D02*
X5463530D01*
Y12198626D01*
X5511037D01*
Y12192000D01*
D02*
G37*
G36*
X5133801D02*
X5086294D01*
Y12198626D01*
X5133801D01*
Y12192000D01*
D02*
G37*
%LPC*%
G36*
X5674007Y12053249D02*
X5671567D01*
Y12050809D01*
X5674007D01*
Y12053249D01*
D02*
G37*
G36*
X5669126Y12048368D02*
X5664245D01*
Y12045927D01*
X5661805D01*
Y12048368D01*
X5656924D01*
Y12045927D01*
X5652042D01*
Y12043487D01*
X5647161D01*
Y12041046D01*
X5642280D01*
Y12038606D01*
X5637399D01*
Y12036165D01*
X5634959D01*
Y12033724D01*
X5630077D01*
Y12031284D01*
X5627637D01*
Y12028843D01*
X5625196D01*
Y12026403D01*
X5622756D01*
Y12023962D01*
X5620315D01*
Y12019081D01*
X5622756D01*
Y12011760D01*
X5625196D01*
Y11999557D01*
X5627637D01*
Y11975151D01*
X5625196D01*
Y11965389D01*
X5622756D01*
Y11958067D01*
X5620315D01*
Y11953186D01*
X5617874D01*
Y11948305D01*
X5615434D01*
Y11945864D01*
X5612993D01*
Y11940983D01*
X5610553D01*
Y11938542D01*
X5608112D01*
Y11936102D01*
X5605672D01*
Y11933661D01*
X5603231D01*
Y11931221D01*
X5600790D01*
Y11928780D01*
X5598350D01*
Y11926340D01*
X5595909D01*
Y11923899D01*
X5593469D01*
Y11921459D01*
X5588588D01*
Y11919018D01*
X5583706D01*
Y11916577D01*
X5581266D01*
Y11914137D01*
X5573944D01*
Y11911696D01*
X5566623D01*
Y11909256D01*
X5537336D01*
Y11911696D01*
X5532455D01*
Y11914137D01*
X5530014D01*
Y11916577D01*
X5527573D01*
Y11919018D01*
X5522692D01*
Y11921459D01*
X5520252D01*
Y11923899D01*
X5517811D01*
Y11926340D01*
X5515370D01*
Y11928780D01*
X5512930D01*
Y11931221D01*
X5510489D01*
Y11933661D01*
X5508049D01*
Y11936102D01*
X5505608D01*
Y11943423D01*
X5503168D01*
Y11945864D01*
X5500727D01*
Y11950745D01*
X5498286D01*
Y11958067D01*
X5495846D01*
Y11962948D01*
X5493405D01*
Y11967829D01*
X5490965D01*
Y11972710D01*
X5488524D01*
Y11970270D01*
X5478762D01*
Y11967829D01*
X5473881D01*
Y11965389D01*
X5466559D01*
Y11962948D01*
X5461678D01*
Y11958067D01*
X5464119D01*
Y11943423D01*
X5466559D01*
Y11940983D01*
X5464119D01*
Y11936102D01*
X5461678D01*
Y11926340D01*
X5464119D01*
Y11923899D01*
X5466559D01*
Y11921459D01*
X5469000D01*
Y11916577D01*
X5466559D01*
Y11919018D01*
Y11921459D01*
X5464119D01*
Y11923899D01*
X5461678D01*
Y11926340D01*
X5459237D01*
Y11928780D01*
X5451916D01*
Y11926340D01*
X5449475D01*
Y11923899D01*
X5447035D01*
Y11921459D01*
X5444594D01*
Y11916577D01*
X5447035D01*
Y11914137D01*
X5449475D01*
Y11909256D01*
X5451916D01*
Y11906815D01*
X5454356D01*
Y11904374D01*
X5459237D01*
Y11901934D01*
X5464119D01*
Y11904374D01*
X5466559D01*
Y11906815D01*
X5469000D01*
Y11916577D01*
X5471440D01*
Y11914137D01*
X5473881D01*
Y11911696D01*
X5476322D01*
Y11914137D01*
X5478762D01*
Y11911696D01*
X5483643D01*
Y11904374D01*
X5486084D01*
Y11899493D01*
X5493405D01*
Y11897053D01*
X5490965D01*
Y11894612D01*
X5493405D01*
Y11892172D01*
X5495846D01*
Y11889731D01*
X5500727D01*
Y11884850D01*
X5505608D01*
Y11879969D01*
X5512930D01*
Y11877528D01*
X5515370D01*
Y11872647D01*
X5520252D01*
Y11870206D01*
X5525133D01*
Y11872647D01*
X5527573D01*
Y11870206D01*
X5530014D01*
Y11867766D01*
X5539776D01*
Y11865325D01*
X5583706D01*
Y11867766D01*
X5591028D01*
Y11870206D01*
X5603231D01*
Y11872647D01*
X5608112D01*
Y11875088D01*
X5615434D01*
Y11877528D01*
X5620315D01*
Y11879969D01*
X5627637D01*
Y11882409D01*
X5630077D01*
Y11884850D01*
X5637399D01*
Y11887290D01*
X5639840D01*
Y11889731D01*
X5644721D01*
Y11892172D01*
X5647161D01*
Y11894612D01*
X5652042D01*
Y11899493D01*
X5654483D01*
Y11901934D01*
X5656924D01*
Y11904374D01*
X5659364D01*
Y11906815D01*
X5661805D01*
Y11909256D01*
X5664245D01*
Y11911696D01*
X5666686D01*
Y11914137D01*
X5669126D01*
Y11916577D01*
X5671567D01*
Y11921459D01*
X5674007D01*
Y11923899D01*
X5676448D01*
Y11926340D01*
X5678889D01*
Y11933661D01*
X5683770D01*
Y11938542D01*
X5686210D01*
Y11945864D01*
X5688651D01*
Y11948305D01*
X5691091D01*
Y11950745D01*
X5688651D01*
Y11953186D01*
X5691091D01*
Y11958067D01*
X5688651D01*
Y11962948D01*
X5686210D01*
Y11965389D01*
X5683770D01*
Y11967829D01*
X5688651D01*
Y11965389D01*
X5693532D01*
Y11989794D01*
X5691091D01*
Y11992235D01*
X5688651D01*
Y11999557D01*
X5686210D01*
Y12004438D01*
X5688651D01*
Y12009319D01*
X5686210D01*
Y12011760D01*
X5683770D01*
Y12016641D01*
X5681329D01*
Y12019081D01*
X5683770D01*
Y12023962D01*
X5681329D01*
Y12026403D01*
X5678889D01*
Y12028843D01*
X5676448D01*
Y12036165D01*
X5674007D01*
Y12033724D01*
X5671567D01*
Y12043487D01*
X5666686D01*
Y12045927D01*
X5669126D01*
Y12048368D01*
D02*
G37*
G36*
X5591028Y12004438D02*
X5578825D01*
Y12001997D01*
X5573944D01*
Y11999557D01*
X5571504D01*
Y11997116D01*
X5569063D01*
Y11994676D01*
X5566623D01*
Y11989794D01*
X5564182D01*
Y11984913D01*
X5561741D01*
Y11972710D01*
X5564182D01*
Y11965389D01*
X5566623D01*
Y11960507D01*
X5569063D01*
Y11958067D01*
X5571504D01*
Y11955626D01*
X5573944D01*
Y11953186D01*
X5571504D01*
Y11950745D01*
X5569063D01*
Y11948305D01*
X5566623D01*
Y11945864D01*
X5561741D01*
Y11943423D01*
X5556860D01*
Y11940983D01*
X5547098D01*
Y11938542D01*
X5551979D01*
Y11936102D01*
X5571504D01*
Y11938542D01*
X5578825D01*
Y11940983D01*
X5583706D01*
Y11943423D01*
X5588588D01*
Y11945864D01*
X5591028D01*
Y11948305D01*
X5595909D01*
Y11950745D01*
X5598350D01*
Y11953186D01*
X5600790D01*
Y11958067D01*
X5603231D01*
Y11960507D01*
X5605672D01*
Y11967829D01*
X5608112D01*
Y11987354D01*
X5605672D01*
Y11992235D01*
X5603231D01*
Y11994676D01*
X5600790D01*
Y11997116D01*
X5598350D01*
Y11999557D01*
X5595909D01*
Y12001997D01*
X5591028D01*
Y12004438D01*
D02*
G37*
G36*
X5713057Y12063011D02*
X5693532D01*
Y12060571D01*
X5691091D01*
Y12058130D01*
X5693532D01*
Y12053249D01*
X5695973D01*
Y12045927D01*
X5698413D01*
Y12041046D01*
X5700854D01*
Y12036165D01*
X5703294D01*
Y12028843D01*
X5705735D01*
Y12019081D01*
X5708176D01*
Y12006878D01*
X5710616D01*
Y11975151D01*
X5708176D01*
Y11962948D01*
X5705735D01*
Y11955626D01*
X5703294D01*
Y11948305D01*
X5700854D01*
Y11943423D01*
X5698413D01*
Y11938542D01*
X5695973D01*
Y11933661D01*
X5693532D01*
Y11931221D01*
X5691091D01*
Y11926340D01*
X5688651D01*
Y11923899D01*
X5686210D01*
Y11919018D01*
X5683770D01*
Y11916577D01*
X5681329D01*
Y11914137D01*
X5678889D01*
Y11911696D01*
X5676448D01*
Y11909256D01*
X5674007D01*
Y11904374D01*
X5671567D01*
Y11901934D01*
X5669126D01*
Y11899493D01*
X5674007D01*
Y11901934D01*
X5676448D01*
Y11904374D01*
X5678889D01*
Y11906815D01*
X5681329D01*
Y11909256D01*
X5683770D01*
Y11911696D01*
X5686210D01*
Y11914137D01*
X5688651D01*
Y11916577D01*
X5691091D01*
Y11919018D01*
X5693532D01*
Y11921459D01*
X5695973D01*
Y11923899D01*
X5698413D01*
Y11926340D01*
X5700854D01*
Y11931221D01*
X5703294D01*
Y11933661D01*
X5705735D01*
Y11938542D01*
X5708176D01*
Y11940983D01*
X5710616D01*
Y11945864D01*
X5713057D01*
Y11950745D01*
X5715497D01*
Y11955626D01*
X5717938D01*
Y11960507D01*
X5720378D01*
Y11967829D01*
X5722819D01*
Y11977591D01*
X5725260D01*
Y11989794D01*
X5727700D01*
Y12038606D01*
X5725260D01*
Y12050809D01*
X5722819D01*
Y12055690D01*
X5720378D01*
Y12058130D01*
X5717938D01*
Y12060571D01*
X5713057D01*
Y12063011D01*
D02*
G37*
G36*
X5432391Y11916577D02*
X5427510D01*
Y11914137D01*
X5429951D01*
Y11909256D01*
X5427510D01*
Y11901934D01*
X5432391D01*
Y11904374D01*
X5437272D01*
Y11901934D01*
X5439713D01*
Y11897053D01*
X5442153D01*
Y11894612D01*
X5447035D01*
Y11899493D01*
X5444594D01*
Y11901934D01*
X5442153D01*
Y11904374D01*
X5439713D01*
Y11906815D01*
X5437272D01*
Y11911696D01*
X5434832D01*
Y11914137D01*
X5432391D01*
Y11916577D01*
D02*
G37*
G36*
X5669126Y11899493D02*
X5664245D01*
Y11897053D01*
X5661805D01*
Y11894612D01*
X5659364D01*
Y11892172D01*
X5664245D01*
Y11894612D01*
X5666686D01*
Y11897053D01*
X5669126D01*
Y11899493D01*
D02*
G37*
G36*
X5659364Y11892172D02*
X5656924D01*
Y11889731D01*
X5659364D01*
Y11892172D01*
D02*
G37*
G36*
X5442153Y11894612D02*
X5439713D01*
Y11889731D01*
X5444594D01*
Y11892172D01*
X5442153D01*
Y11894612D01*
D02*
G37*
G36*
X5656924Y11889731D02*
X5654483D01*
Y11887290D01*
X5656924D01*
Y11889731D01*
D02*
G37*
G36*
X5652042Y11887290D02*
X5649602D01*
Y11884850D01*
X5652042D01*
Y11887290D01*
D02*
G37*
G36*
X5461678Y11882409D02*
X5459237D01*
Y11877528D01*
X5456797D01*
Y11875088D01*
X5461678D01*
Y11872647D01*
X5464119D01*
Y11870206D01*
X5469000D01*
Y11867766D01*
X5471440D01*
Y11865325D01*
X5476322D01*
Y11862885D01*
X5481203D01*
Y11860444D01*
X5483643D01*
Y11858004D01*
X5490965D01*
Y11855563D01*
X5493405D01*
Y11853122D01*
X5500727D01*
Y11850682D01*
X5508049D01*
Y11848241D01*
X5517811D01*
Y11845801D01*
X5527573D01*
Y11843360D01*
X5581266D01*
Y11845801D01*
X5583706D01*
Y11848241D01*
X5586147D01*
Y11850682D01*
X5534895D01*
Y11853122D01*
X5525133D01*
Y11855563D01*
X5512930D01*
Y11858004D01*
X5505608D01*
Y11860444D01*
X5495846D01*
Y11862885D01*
X5490965D01*
Y11865325D01*
X5486084D01*
Y11867766D01*
X5481203D01*
Y11870206D01*
X5476322D01*
Y11872647D01*
X5471440D01*
Y11875088D01*
X5466559D01*
Y11877528D01*
X5464119D01*
Y11879969D01*
X5461678D01*
Y11882409D01*
D02*
G37*
%LPD*%
G36*
X5683770Y11967829D02*
X5681329D01*
Y11970270D01*
X5683770D01*
Y11967829D01*
D02*
G37*
G36*
Y11940983D02*
X5681329D01*
Y11943423D01*
X5683770D01*
Y11940983D01*
D02*
G37*
G36*
X5476322Y11923899D02*
X5473881D01*
Y11926340D01*
X5476322D01*
Y11923899D01*
D02*
G37*
G36*
X5456797Y11916577D02*
X5451916D01*
Y11919018D01*
Y11921459D01*
X5456797D01*
Y11916577D01*
D02*
G37*
G36*
X5464119Y11911696D02*
X5461678D01*
Y11909256D01*
X5456797D01*
Y11911696D01*
X5459237D01*
Y11914137D01*
X5461678D01*
Y11916577D01*
X5464119D01*
Y11911696D01*
D02*
G37*
%LPC*%
G36*
X10069034Y7237479D02*
X10068572D01*
X10068202Y7237387D01*
X10067370Y7237294D01*
X10066261Y7237017D01*
X10065059Y7236647D01*
X10063857Y7236000D01*
X10062563Y7235075D01*
X10061453Y7233873D01*
X10061361Y7233688D01*
X10061083Y7233226D01*
X10060621Y7232394D01*
X10060159Y7231377D01*
X10059604Y7229898D01*
X10059234Y7228233D01*
X10058864Y7226292D01*
X10058772Y7224073D01*
Y7223980D01*
Y7223796D01*
Y7223518D01*
Y7223148D01*
X10058957Y7222131D01*
X10059142Y7220837D01*
X10059419Y7219358D01*
X10059881Y7217878D01*
X10060529Y7216399D01*
X10061361Y7215012D01*
X10061453Y7214827D01*
X10061823Y7214458D01*
X10062470Y7213995D01*
X10063302Y7213348D01*
X10064319Y7212701D01*
X10065521Y7212239D01*
X10066908Y7211869D01*
X10068480Y7211684D01*
X10068665D01*
X10069219Y7211776D01*
X10069959Y7211869D01*
X10070976Y7212054D01*
X10072086Y7212423D01*
X10073287Y7212978D01*
X10074397Y7213810D01*
X10075506Y7214827D01*
X10075599Y7215012D01*
X10075969Y7215382D01*
X10076431Y7216122D01*
X10076893Y7217046D01*
X10077448Y7218248D01*
X10077818Y7219635D01*
X10078188Y7221207D01*
X10078280Y7222963D01*
Y7227864D01*
Y7227956D01*
Y7228049D01*
Y7228511D01*
X10078188Y7229250D01*
X10077910Y7230175D01*
X10077633Y7231284D01*
X10077171Y7232394D01*
X10076523Y7233503D01*
X10075599Y7234613D01*
X10075506Y7234705D01*
X10075137Y7235075D01*
X10074582Y7235537D01*
X10073842Y7236092D01*
X10072825Y7236554D01*
X10071716Y7237017D01*
X10070421Y7237387D01*
X10069034Y7237479D01*
D02*
G37*
G36*
X10134308Y7251347D02*
X10128021D01*
Y7236462D01*
X10134401D01*
X10135233Y7236554D01*
X10136250Y7236739D01*
X10137359Y7237017D01*
X10138561Y7237387D01*
X10139763Y7237849D01*
X10140780Y7238589D01*
X10140873Y7238681D01*
X10141150Y7238958D01*
X10141612Y7239513D01*
X10142075Y7240160D01*
X10142537Y7240992D01*
X10142999Y7242009D01*
X10143277Y7243211D01*
X10143369Y7244598D01*
Y7244691D01*
Y7244876D01*
X10143277Y7245245D01*
Y7245615D01*
X10142907Y7246725D01*
X10142629Y7247372D01*
X10142260Y7248019D01*
X10141797Y7248574D01*
X10141150Y7249221D01*
X10140411Y7249776D01*
X10139578Y7250330D01*
X10138469Y7250700D01*
X10137267Y7251070D01*
X10135880Y7251255D01*
X10134308Y7251347D01*
D02*
G37*
G36*
Y7229435D02*
X10128021D01*
Y7212793D01*
X10136250D01*
X10137082Y7212886D01*
X10138192Y7213071D01*
X10139393Y7213348D01*
X10140688Y7213718D01*
X10141890Y7214273D01*
X10142907Y7215012D01*
X10142999Y7215105D01*
X10143369Y7215475D01*
X10143739Y7215937D01*
X10144294Y7216676D01*
X10144756Y7217509D01*
X10145218Y7218618D01*
X10145496Y7219820D01*
X10145588Y7221207D01*
Y7221299D01*
Y7221577D01*
X10145496Y7221946D01*
X10145403Y7222501D01*
X10145218Y7223148D01*
X10145033Y7223796D01*
X10144663Y7224535D01*
X10144201Y7225367D01*
X10143554Y7226107D01*
X10142814Y7226847D01*
X10141890Y7227494D01*
X10140873Y7228141D01*
X10139578Y7228696D01*
X10138007Y7229066D01*
X10136342Y7229343D01*
X10134308Y7229435D01*
D02*
G37*
G36*
X9794995Y7250978D02*
X9787691D01*
Y7213163D01*
X9795550D01*
X9796197Y7213256D01*
X9796936Y7213348D01*
X9797861Y7213440D01*
X9798786Y7213625D01*
X9799895Y7213810D01*
X9802206Y7214365D01*
X9804610Y7215290D01*
X9805720Y7215937D01*
X9806922Y7216584D01*
X9807939Y7217324D01*
X9808956Y7218248D01*
X9809048Y7218341D01*
X9809141Y7218526D01*
X9809418Y7218803D01*
X9809788Y7219173D01*
X9810158Y7219727D01*
X9810527Y7220375D01*
X9810990Y7221114D01*
X9811545Y7221946D01*
X9812007Y7222871D01*
X9812469Y7223980D01*
X9812839Y7225182D01*
X9813209Y7226477D01*
X9813579Y7227864D01*
X9813856Y7229343D01*
X9813948Y7230915D01*
X9814041Y7232579D01*
Y7232671D01*
Y7232764D01*
Y7233041D01*
Y7233411D01*
X9813948Y7234243D01*
X9813763Y7235445D01*
X9813486Y7236832D01*
X9813024Y7238404D01*
X9812469Y7240068D01*
X9811637Y7241824D01*
X9810620Y7243489D01*
X9809418Y7245153D01*
X9807846Y7246725D01*
X9805997Y7248111D01*
X9803871Y7249313D01*
X9802576Y7249776D01*
X9801282Y7250146D01*
X9799895Y7250515D01*
X9798323Y7250793D01*
X9796752Y7250885D01*
X9794995Y7250978D01*
D02*
G37*
G36*
X10391706Y7237941D02*
X10391151D01*
X10390412Y7237849D01*
X10389579Y7237572D01*
X10388655Y7237294D01*
X10387545Y7236832D01*
X10386528Y7236185D01*
X10385511Y7235260D01*
X10385419Y7235168D01*
X10385142Y7234798D01*
X10384679Y7234151D01*
X10384217Y7233411D01*
X10383662Y7232394D01*
X10383108Y7231192D01*
X10382738Y7229805D01*
X10382368Y7228326D01*
X10399750D01*
Y7228418D01*
Y7228511D01*
Y7229066D01*
X10399657Y7229898D01*
X10399472Y7230915D01*
X10399195Y7232024D01*
X10398825Y7233226D01*
X10398363Y7234336D01*
X10397623Y7235353D01*
X10397531Y7235445D01*
X10397253Y7235722D01*
X10396791Y7236185D01*
X10396051Y7236647D01*
X10395219Y7237109D01*
X10394202Y7237572D01*
X10393093Y7237849D01*
X10391706Y7237941D01*
D02*
G37*
G36*
X10278817D02*
X10278262D01*
X10277523Y7237849D01*
X10276691Y7237572D01*
X10275766Y7237294D01*
X10274657Y7236832D01*
X10273640Y7236185D01*
X10272623Y7235260D01*
X10272530Y7235168D01*
X10272253Y7234798D01*
X10271790Y7234151D01*
X10271328Y7233411D01*
X10270773Y7232394D01*
X10270219Y7231192D01*
X10269849Y7229805D01*
X10269479Y7228326D01*
X10286861D01*
Y7228418D01*
Y7228511D01*
Y7229066D01*
X10286768Y7229898D01*
X10286583Y7230915D01*
X10286306Y7232024D01*
X10285936Y7233226D01*
X10285474Y7234336D01*
X10284734Y7235353D01*
X10284642Y7235445D01*
X10284364Y7235722D01*
X10283902Y7236185D01*
X10283163Y7236647D01*
X10282330Y7237109D01*
X10281313Y7237572D01*
X10280204Y7237849D01*
X10278817Y7237941D01*
D02*
G37*
G36*
X10028169D02*
X10027614D01*
X10026875Y7237849D01*
X10026042Y7237572D01*
X10025118Y7237294D01*
X10024008Y7236832D01*
X10022991Y7236185D01*
X10021974Y7235260D01*
X10021882Y7235168D01*
X10021605Y7234798D01*
X10021142Y7234151D01*
X10020680Y7233411D01*
X10020125Y7232394D01*
X10019571Y7231192D01*
X10019201Y7229805D01*
X10018831Y7228326D01*
X10036213D01*
Y7228418D01*
Y7228511D01*
Y7229066D01*
X10036120Y7229898D01*
X10035935Y7230915D01*
X10035658Y7232024D01*
X10035288Y7233226D01*
X10034826Y7234336D01*
X10034086Y7235353D01*
X10033994Y7235445D01*
X10033716Y7235722D01*
X10033254Y7236185D01*
X10032514Y7236647D01*
X10031682Y7237109D01*
X10030665Y7237572D01*
X10029556Y7237849D01*
X10028169Y7237941D01*
D02*
G37*
G36*
X9847325D02*
X9846770D01*
X9846031Y7237849D01*
X9845198Y7237572D01*
X9844274Y7237294D01*
X9843164Y7236832D01*
X9842147Y7236185D01*
X9841130Y7235260D01*
X9841038Y7235168D01*
X9840761Y7234798D01*
X9840298Y7234151D01*
X9839836Y7233411D01*
X9839281Y7232394D01*
X9838727Y7231192D01*
X9838357Y7229805D01*
X9837987Y7228326D01*
X9855369D01*
Y7228418D01*
Y7228511D01*
Y7229066D01*
X9855276Y7229898D01*
X9855091Y7230915D01*
X9854814Y7232024D01*
X9854444Y7233226D01*
X9853982Y7234336D01*
X9853242Y7235353D01*
X9853150Y7235445D01*
X9852872Y7235722D01*
X9852410Y7236185D01*
X9851670Y7236647D01*
X9850838Y7237109D01*
X9849821Y7237572D01*
X9848712Y7237849D01*
X9847325Y7237941D01*
D02*
G37*
G36*
X10347604Y7237479D02*
X10347142D01*
X10346772Y7237387D01*
X10345940Y7237294D01*
X10344831Y7237017D01*
X10343536Y7236647D01*
X10342334Y7236000D01*
X10341040Y7235075D01*
X10339931Y7233873D01*
X10339838Y7233688D01*
X10339561Y7233226D01*
X10339098Y7232394D01*
X10338636Y7231284D01*
X10338081Y7229898D01*
X10337712Y7228141D01*
X10337342Y7226107D01*
X10337249Y7223888D01*
Y7223796D01*
Y7223611D01*
Y7223333D01*
Y7222963D01*
X10337434Y7221946D01*
X10337619Y7220745D01*
X10337897Y7219265D01*
X10338359Y7217786D01*
X10339006Y7216307D01*
X10339838Y7215012D01*
X10339931Y7214827D01*
X10340300Y7214458D01*
X10340948Y7213995D01*
X10341687Y7213348D01*
X10342704Y7212701D01*
X10343906Y7212239D01*
X10345293Y7211869D01*
X10346865Y7211684D01*
X10347050D01*
X10347604Y7211776D01*
X10348344Y7211869D01*
X10349361Y7212054D01*
X10350471Y7212423D01*
X10351672Y7212978D01*
X10352874Y7213810D01*
X10353984Y7214827D01*
X10354076Y7215012D01*
X10354446Y7215382D01*
X10354908Y7216122D01*
X10355371Y7217046D01*
X10355925Y7218248D01*
X10356295Y7219635D01*
X10356665Y7221207D01*
X10356758Y7222963D01*
Y7227864D01*
Y7227956D01*
Y7228049D01*
Y7228511D01*
X10356665Y7229250D01*
X10356388Y7230175D01*
X10356110Y7231284D01*
X10355648Y7232394D01*
X10355001Y7233503D01*
X10354076Y7234613D01*
X10353984Y7234705D01*
X10353614Y7235075D01*
X10353059Y7235537D01*
X10352320Y7236092D01*
X10351395Y7236554D01*
X10350286Y7237017D01*
X10348991Y7237387D01*
X10347604Y7237479D01*
D02*
G37*
G36*
X9940243D02*
X9939781D01*
X9939411Y7237387D01*
X9938579Y7237294D01*
X9937470Y7237017D01*
X9936175Y7236647D01*
X9934973Y7236000D01*
X9933679Y7235075D01*
X9932569Y7233873D01*
X9932477Y7233688D01*
X9932200Y7233226D01*
X9931737Y7232394D01*
X9931275Y7231284D01*
X9930720Y7229898D01*
X9930350Y7228141D01*
X9929981Y7226107D01*
X9929888Y7223888D01*
Y7223796D01*
Y7223611D01*
Y7223333D01*
Y7222963D01*
X9930073Y7221946D01*
X9930258Y7220745D01*
X9930535Y7219265D01*
X9930998Y7217786D01*
X9931645Y7216307D01*
X9932477Y7215012D01*
X9932569Y7214827D01*
X9932939Y7214458D01*
X9933586Y7213995D01*
X9934326Y7213348D01*
X9935343Y7212701D01*
X9936545Y7212239D01*
X9937932Y7211869D01*
X9939504Y7211684D01*
X9939689D01*
X9940243Y7211776D01*
X9940983Y7211869D01*
X9942000Y7212054D01*
X9943109Y7212423D01*
X9944311Y7212978D01*
X9945513Y7213810D01*
X9946623Y7214827D01*
X9946715Y7215012D01*
X9947085Y7215382D01*
X9947547Y7216122D01*
X9948010Y7217046D01*
X9948564Y7218248D01*
X9948934Y7219635D01*
X9949304Y7221207D01*
X9949396Y7222963D01*
Y7227864D01*
Y7227956D01*
Y7228049D01*
Y7228511D01*
X9949304Y7229250D01*
X9949027Y7230175D01*
X9948749Y7231284D01*
X9948287Y7232394D01*
X9947640Y7233503D01*
X9946715Y7234613D01*
X9946623Y7234705D01*
X9946253Y7235075D01*
X9945698Y7235537D01*
X9944959Y7236092D01*
X9944034Y7236554D01*
X9942924Y7237017D01*
X9941630Y7237387D01*
X9940243Y7237479D01*
D02*
G37*
G36*
X6253808Y12276723D02*
X6253526D01*
Y12276582D01*
X6253385Y12276159D01*
Y12275595D01*
X6253244Y12274890D01*
X6252821Y12273199D01*
X6252398Y12271648D01*
X6241402Y12239648D01*
X6265931D01*
X6254794Y12271648D01*
Y12271789D01*
Y12271930D01*
X6254653Y12272353D01*
X6254513Y12272917D01*
X6254372Y12273622D01*
X6254231Y12274467D01*
X6253949Y12275454D01*
X6253808Y12276723D01*
D02*
G37*
G36*
X5986810Y12277851D02*
X5975674D01*
Y12251771D01*
X5987797D01*
X5988502Y12251912D01*
X5990335Y12252194D01*
X5992308Y12252617D01*
X5992449D01*
X5992731Y12252758D01*
X5993295Y12253040D01*
X5993859Y12253322D01*
X5995410Y12254168D01*
X5996819Y12255436D01*
X5996960Y12255577D01*
X5997101Y12255718D01*
X5997524Y12256141D01*
X5997947Y12256705D01*
X5998934Y12258115D01*
X5999780Y12259807D01*
Y12259948D01*
X5999921Y12260229D01*
X6000203Y12260793D01*
X6000344Y12261498D01*
X6000626Y12262344D01*
X6000767Y12263331D01*
X6000907Y12265586D01*
Y12265868D01*
Y12266573D01*
X6000767Y12267560D01*
X6000485Y12268829D01*
X6000062Y12270379D01*
X5999357Y12271789D01*
X5998511Y12273340D01*
X5997242Y12274608D01*
X5997101Y12274749D01*
X5996537Y12275172D01*
X5995692Y12275595D01*
X5994564Y12276300D01*
X5993154Y12276864D01*
X5991322Y12277287D01*
X5989207Y12277710D01*
X5986810Y12277851D01*
D02*
G37*
G36*
X5545292D02*
X5534156D01*
Y12251771D01*
X5546279D01*
X5546984Y12251912D01*
X5548817Y12252194D01*
X5550790Y12252617D01*
X5550931D01*
X5551213Y12252758D01*
X5551777Y12253040D01*
X5552341Y12253322D01*
X5553892Y12254168D01*
X5555301Y12255436D01*
X5555442Y12255577D01*
X5555583Y12255718D01*
X5556006Y12256141D01*
X5556429Y12256705D01*
X5557416Y12258115D01*
X5558262Y12259807D01*
Y12259948D01*
X5558403Y12260229D01*
X5558685Y12260793D01*
X5558826Y12261498D01*
X5559107Y12262344D01*
X5559248Y12263331D01*
X5559389Y12265586D01*
Y12265868D01*
Y12266573D01*
X5559248Y12267560D01*
X5558967Y12268829D01*
X5558544Y12270379D01*
X5557839Y12271789D01*
X5556993Y12273340D01*
X5555724Y12274608D01*
X5555583Y12274749D01*
X5555019Y12275172D01*
X5554174Y12275595D01*
X5553046Y12276300D01*
X5551636Y12276864D01*
X5549803Y12277287D01*
X5547689Y12277710D01*
X5545292Y12277851D01*
D02*
G37*
G36*
X5315229Y12277287D02*
X5304093D01*
Y12219630D01*
X5316075D01*
X5317062Y12219771D01*
X5318190Y12219912D01*
X5319599Y12220053D01*
X5321009Y12220335D01*
X5322701Y12220617D01*
X5326225Y12221463D01*
X5329890Y12222872D01*
X5331582Y12223859D01*
X5333415Y12224846D01*
X5334965Y12225974D01*
X5336516Y12227383D01*
X5336657Y12227524D01*
X5336798Y12227806D01*
X5337221Y12228229D01*
X5337785Y12228793D01*
X5338348Y12229639D01*
X5338912Y12230626D01*
X5339617Y12231754D01*
X5340463Y12233022D01*
X5341168Y12234432D01*
X5341873Y12236124D01*
X5342437Y12237956D01*
X5343000Y12239930D01*
X5343564Y12242044D01*
X5343987Y12244300D01*
X5344128Y12246696D01*
X5344269Y12249234D01*
Y12249375D01*
Y12249516D01*
Y12249939D01*
Y12250503D01*
X5344128Y12251771D01*
X5343846Y12253604D01*
X5343423Y12255718D01*
X5342719Y12258115D01*
X5341873Y12260652D01*
X5340604Y12263331D01*
X5339053Y12265868D01*
X5337221Y12268406D01*
X5334824Y12270802D01*
X5332005Y12272917D01*
X5328763Y12274749D01*
X5326789Y12275454D01*
X5324815Y12276018D01*
X5322701Y12276582D01*
X5320304Y12277005D01*
X5317908Y12277146D01*
X5315229Y12277287D01*
D02*
G37*
G36*
X5843585Y12279542D02*
X5843021D01*
X5842175Y12279401D01*
X5841329Y12278978D01*
X5840202Y12278556D01*
X5838933Y12277851D01*
X5837664Y12276864D01*
X5836255Y12275595D01*
X5834845Y12273763D01*
X5833576Y12271648D01*
X5832307Y12269111D01*
X5831743Y12267560D01*
X5831180Y12266009D01*
X5830757Y12264177D01*
X5830334Y12262344D01*
X5829911Y12260229D01*
X5829629Y12257974D01*
X5829347Y12255577D01*
X5829065Y12253040D01*
X5828924Y12250362D01*
Y12247401D01*
Y12247260D01*
Y12247119D01*
Y12246696D01*
Y12246132D01*
X5829065Y12244582D01*
X5829206Y12242749D01*
X5829347Y12240494D01*
X5829629Y12237956D01*
X5830193Y12235137D01*
X5830757Y12232458D01*
X5831462Y12229639D01*
X5832448Y12226820D01*
X5833576Y12224282D01*
X5834986Y12222027D01*
X5836677Y12220194D01*
X5838510Y12218643D01*
X5839638Y12218079D01*
X5840766Y12217657D01*
X5842034Y12217516D01*
X5843303Y12217375D01*
X5843867D01*
X5844572Y12217516D01*
X5845559Y12217798D01*
X5846545Y12218361D01*
X5847814Y12218925D01*
X5849083Y12219912D01*
X5850352Y12221181D01*
X5851620Y12222872D01*
X5852889Y12224846D01*
X5854158Y12227383D01*
X5855144Y12230344D01*
X5855708Y12232035D01*
X5856131Y12233727D01*
X5856413Y12235701D01*
X5856836Y12237815D01*
X5857118Y12240212D01*
X5857259Y12242608D01*
X5857400Y12245146D01*
Y12247965D01*
Y12248106D01*
Y12248388D01*
Y12248811D01*
Y12249375D01*
X5857259Y12250925D01*
Y12252899D01*
X5856977Y12255296D01*
X5856695Y12257974D01*
X5856272Y12260793D01*
X5855708Y12263754D01*
X5855004Y12266714D01*
X5854017Y12269533D01*
X5852889Y12272212D01*
X5851620Y12274608D01*
X5849929Y12276582D01*
X5848096Y12278133D01*
X5847109Y12278697D01*
X5845981Y12279260D01*
X5844854Y12279401D01*
X5843585Y12279542D01*
D02*
G37*
G36*
X5614509D02*
X5613945D01*
X5613099Y12279401D01*
X5612253Y12278978D01*
X5611125Y12278556D01*
X5609857Y12277851D01*
X5608588Y12276864D01*
X5607178Y12275595D01*
X5605769Y12273763D01*
X5604500Y12271648D01*
X5603231Y12269111D01*
X5602667Y12267560D01*
X5602103Y12266009D01*
X5601680Y12264177D01*
X5601258Y12262344D01*
X5600835Y12260229D01*
X5600553Y12257974D01*
X5600271Y12255577D01*
X5599989Y12253040D01*
X5599848Y12250362D01*
Y12247401D01*
Y12247260D01*
Y12247119D01*
Y12246696D01*
Y12246132D01*
X5599989Y12244582D01*
X5600130Y12242749D01*
X5600271Y12240494D01*
X5600553Y12237956D01*
X5601117Y12235137D01*
X5601680Y12232458D01*
X5602385Y12229639D01*
X5603372Y12226820D01*
X5604500Y12224282D01*
X5605910Y12222027D01*
X5607601Y12220194D01*
X5609434Y12218643D01*
X5610562Y12218079D01*
X5611689Y12217657D01*
X5612958Y12217516D01*
X5614227Y12217375D01*
X5614791D01*
X5615495Y12217516D01*
X5616482Y12217798D01*
X5617469Y12218361D01*
X5618738Y12218925D01*
X5620007Y12219912D01*
X5621275Y12221181D01*
X5622544Y12222872D01*
X5623813Y12224846D01*
X5625081Y12227383D01*
X5626068Y12230344D01*
X5626632Y12232035D01*
X5627055Y12233727D01*
X5627337Y12235701D01*
X5627760Y12237815D01*
X5628042Y12240212D01*
X5628183Y12242608D01*
X5628324Y12245146D01*
Y12247965D01*
Y12248106D01*
Y12248388D01*
Y12248811D01*
Y12249375D01*
X5628183Y12250925D01*
Y12252899D01*
X5627901Y12255296D01*
X5627619Y12257974D01*
X5627196Y12260793D01*
X5626632Y12263754D01*
X5625927Y12266714D01*
X5624940Y12269533D01*
X5623813Y12272212D01*
X5622544Y12274608D01*
X5620852Y12276582D01*
X5619020Y12278133D01*
X5618033Y12278697D01*
X5616905Y12279260D01*
X5615777Y12279401D01*
X5614509Y12279542D01*
D02*
G37*
%LPD*%
D54*
X10943500Y11268900D02*
G03*
X10943500Y11268900I-10000J0D01*
G01*
X9457237Y9639784D02*
G03*
X9457237Y9639784I-10000J0D01*
G01*
X7657300Y8390663D02*
G03*
X7657300Y8390663I-10000J0D01*
G01*
Y9598800D02*
G03*
X7657300Y9598800I-10000J0D01*
G01*
X5602400Y8889400D02*
G03*
X5602400Y8889400I-10000J0D01*
G01*
Y10769000D02*
G03*
X5602400Y10769000I-10000J0D01*
G01*
X3523500Y9169500D02*
G03*
X3523500Y9169500I-10000J0D01*
G01*
Y7289900D02*
G03*
X3523500Y7289900I-10000J0D01*
G01*
X4542400Y11737500D02*
G03*
X4542400Y11757500I0J10000D01*
G01*
D02*
G03*
X4542400Y11737500I0J-10000D01*
G01*
X3351300Y11921300D02*
G03*
X3351300Y11921300I-10000J0D01*
G01*
X8531700Y7135900D02*
G03*
X8531700Y7135900I-10000J0D01*
G01*
X3351300Y9381300D02*
G03*
X3351300Y9381300I-10000J0D01*
G01*
X9392000Y11429900D02*
Y12115900D01*
X10039000Y11429900D02*
Y12115900D01*
X10000000Y8842900D02*
X10320000D01*
Y8352900D02*
Y8842900D01*
X10000000Y8352900D02*
X10320000D01*
X10000000D02*
Y8842900D01*
Y8207900D02*
X10320000D01*
Y7717900D02*
Y8207900D01*
X10000000Y7717900D02*
X10320000D01*
X10000000D02*
Y8207900D01*
X9269121Y10863100D02*
X9559121D01*
X9269121Y10803100D02*
Y10863100D01*
Y10803100D02*
X9559121D01*
Y10863100D01*
X8150100Y12230100D02*
X8690100D01*
X8150100Y11871300D02*
X8690100D01*
X10156700D02*
X10696700D01*
X10156700Y12230100D02*
X10696700D01*
X10383300Y11519300D02*
X10673300D01*
Y11569300D01*
X10383300D02*
X10673300D01*
X10383300Y11519300D02*
Y11569300D01*
X8364000Y11532000D02*
Y11582000D01*
X8654000D01*
Y11532000D02*
Y11582000D01*
X8364000Y11532000D02*
X8654000D01*
X7372700Y11429900D02*
Y12115900D01*
X8019700Y11429900D02*
Y12115900D01*
X10447000Y9757600D02*
Y10257600D01*
X10127000Y9767600D02*
Y10257600D01*
X6820471Y10183128D02*
Y10243128D01*
X6530471Y10183128D02*
X6820471D01*
X6530471D02*
Y10243128D01*
X6820471D01*
X4746700Y11488200D02*
Y11573200D01*
Y11488200D02*
X4851700D01*
X4746700Y11693200D02*
Y11778200D01*
X4851700D01*
X6439000Y10070800D02*
Y10350800D01*
X6134000Y10070800D02*
Y10350800D01*
X8394700Y7200900D02*
Y8470900D01*
X8648700Y7200900D02*
Y8470900D01*
X8394700Y7200900D02*
X8648700D01*
X8394700Y8470900D02*
X8648700D01*
X8923308Y7421899D02*
X9413308D01*
Y7741899D01*
X8923308D02*
X9413308D01*
X8923308Y7421899D02*
Y7741899D01*
D55*
X9897545Y8878970D02*
G03*
X9897545Y8878970I-10000J0D01*
G01*
Y8243970D02*
G03*
X9897545Y8243970I-10000J0D01*
G01*
X8897238Y7309444D02*
G03*
X8897238Y7309444I-10000J0D01*
G01*
D56*
X10130932Y8835319D02*
G03*
X10189133Y8835319I29100J0D01*
G01*
X10130932Y8200319D02*
G03*
X10189133Y8200319I29100J0D01*
G01*
X9617321Y10960100D02*
G03*
X9617321Y10960100I-12700J0D01*
G01*
X10350500Y11417300D02*
G03*
X10350500Y11417300I-12700J0D01*
G01*
X8331200Y11430000D02*
G03*
X8331200Y11430000I-12700J0D01*
G01*
X6878671Y10340128D02*
G03*
X6878671Y10340128I-12700J0D01*
G01*
X8930889Y7552831D02*
G03*
X8930889Y7611032I0J29100D01*
G01*
X10160000Y9062449D02*
X10185400Y9037049D01*
X10160000Y9011649D02*
Y9062449D01*
Y9011649D02*
X10185400Y9037049D01*
X10160000D02*
X10185400D01*
X10160000Y9240249D02*
X10185400Y9214849D01*
X10160000Y9189449D02*
Y9240249D01*
Y9189449D02*
X10185400Y9214849D01*
X10160000D02*
X10185400D01*
X10160000Y9418049D02*
X10185400Y9392649D01*
X10160000Y9367249D02*
Y9418049D01*
Y9367249D02*
X10185400Y9392649D01*
X10160000D02*
X10185400D01*
X6350000Y10591800D02*
Y10668000D01*
X6311900Y10629900D02*
X6388100D01*
D57*
X10287000Y10342800D02*
G03*
X10287000Y10332800I0J-5000D01*
G01*
D02*
G03*
X10287000Y10342800I0J5000D01*
G01*
X4991700Y11533200D02*
G03*
X4981700Y11533200I-5000J0D01*
G01*
D02*
G03*
X4991700Y11533200I5000J0D01*
G01*
X6286500Y9824800D02*
G03*
X6286500Y9834800I0J5000D01*
G01*
D02*
G03*
X6286500Y9824800I0J-5000D01*
G01*
X7525020Y8470900D02*
Y8661400D01*
X7182120D02*
X7525020D01*
X7182120Y8470900D02*
Y8661400D01*
Y8470900D02*
X7525020D01*
X8727576Y9949096D02*
X8817379Y10038899D01*
X8637774Y10218504D02*
X8817379Y10038899D01*
X8547971Y10128701D02*
X8637774Y10218504D01*
X8547971Y10128701D02*
X8727576Y9949096D01*
X9266724Y9848394D02*
X9446330Y10028000D01*
X9176922Y9938197D02*
X9266724Y9848394D01*
X9176922Y9938197D02*
X9356527Y10117802D01*
X9446330Y10028000D01*
X8971196Y10140499D02*
X9150801Y10320104D01*
X9240604Y10230301D01*
X9060999Y10050696D02*
X9240604Y10230301D01*
X8971196Y10140499D02*
X9060999Y10050696D01*
X9072796Y10038899D02*
X9252401Y10218504D01*
X9342204Y10128701D01*
X9162599Y9949096D02*
X9342204Y10128701D01*
X9072796Y10038899D02*
X9162599Y9949096D01*
X8743499Y8755296D02*
X8923104Y8934901D01*
X8653696Y8845099D02*
X8743499Y8755296D01*
X8653696Y8845099D02*
X8833301Y9024704D01*
X8923104Y8934901D01*
X9341535Y9167769D02*
X9548081Y8961223D01*
X9454839Y8867980D02*
X9548081Y8961223D01*
X9248293Y9074526D02*
X9454839Y8867980D01*
X9248293Y9074526D02*
X9341535Y9167769D01*
X9355916Y9185182D02*
X9562462Y8978636D01*
X9355916Y9185182D02*
X9449158Y9278424D01*
X9655704Y9071878D01*
X9562462Y8978636D02*
X9655704Y9071878D01*
X9512455Y9502573D02*
X9692061Y9322968D01*
X9602258Y9233165D02*
X9692061Y9322968D01*
X9422653Y9412771D02*
X9602258Y9233165D01*
X9422653Y9412771D02*
X9512455Y9502573D01*
X8845099Y8653696D02*
X9024704Y8833301D01*
X8755296Y8743499D02*
X8845099Y8653696D01*
X8755296Y8743499D02*
X8934901Y8923104D01*
X9024704Y8833301D01*
X8241849Y9256946D02*
X8421454Y9436551D01*
X8152046Y9346749D02*
X8241849Y9256946D01*
X8152046Y9346749D02*
X8331651Y9526354D01*
X8421454Y9436551D01*
X8139987Y9357550D02*
X8319592Y9537156D01*
X8050185Y9447353D02*
X8139987Y9357550D01*
X8050185Y9447353D02*
X8229790Y9626958D01*
X8319592Y9537156D01*
X10071100Y9702800D02*
Y9829800D01*
X9817100D02*
X10071100D01*
X9817100Y9702800D02*
Y9829800D01*
Y9702800D02*
X10071100D01*
X9652000Y8724900D02*
X9779000D01*
X9652000Y8470900D02*
Y8724900D01*
Y8470900D02*
X9779000D01*
Y8724900D01*
X9154400Y8022500D02*
Y8314600D01*
X9286265D01*
Y8022500D02*
Y8314600D01*
X9154400Y8022500D02*
X9286265D01*
X9306800D02*
Y8314600D01*
X9438665D01*
Y8022500D02*
Y8314600D01*
X9306800Y8022500D02*
X9438665D01*
X9109321Y10694400D02*
X9236321D01*
Y10948400D01*
X9109321D02*
X9236321D01*
X9109321Y10694400D02*
Y10948400D01*
X9601200Y10642600D02*
X9728200D01*
Y10896600D01*
X9601200D02*
X9728200D01*
X9601200Y10642600D02*
Y10896600D01*
X9591921Y11074400D02*
Y11201400D01*
X9337921D02*
X9591921D01*
X9337921Y11074400D02*
Y11201400D01*
Y11074400D02*
X9591921D01*
X8432800Y12052300D02*
X8458200D01*
X8394700D02*
X8432800Y12014200D01*
Y12090400D01*
X8394700Y12052300D02*
X8432800Y12090400D01*
X8394700Y12052300D02*
Y12090400D01*
X8380013D02*
X8394700D01*
Y12014200D02*
Y12052300D01*
Y12014200D02*
X8394948Y12014448D01*
X8411874D01*
X8369300Y12052300D02*
X8394700D01*
X10375900D02*
X10401300D01*
X10401548Y12014448D02*
X10418474D01*
X10401300Y12014200D02*
X10401548Y12014448D01*
X10401300Y12014200D02*
Y12052300D01*
X10386613Y12090400D02*
X10401300D01*
Y12052300D02*
Y12090400D01*
Y12052300D02*
X10439400Y12090400D01*
Y12014200D02*
Y12090400D01*
X10401300Y12052300D02*
X10439400Y12014200D01*
Y12052300D02*
X10464800D01*
X10109200Y11391900D02*
X10299700D01*
Y11734800D01*
X10109200D02*
X10299700D01*
X10109200Y11391900D02*
Y11734800D01*
X9626600Y11087100D02*
Y11315700D01*
Y11087100D02*
X10083800D01*
Y11315700D01*
X9626600D02*
X10083800D01*
X8915400Y11323100D02*
Y11780300D01*
X8686800Y11323100D02*
X8915400D01*
X8686800D02*
Y11780300D01*
X8915400D01*
X8089900Y11404600D02*
Y11747500D01*
X8280400D01*
Y11404600D02*
Y11747500D01*
X8089900Y11404600D02*
X8280400D01*
X7607300Y11315700D02*
X8064500D01*
Y11087100D02*
Y11315700D01*
X7607300Y11087100D02*
X8064500D01*
X7607300D02*
Y11315700D01*
X8838000Y11097500D02*
Y11229365D01*
X8545900D02*
X8838000D01*
X8545900Y11097500D02*
Y11229365D01*
Y11097500D02*
X8838000D01*
X8543200Y10944835D02*
Y11076700D01*
Y10944835D02*
X8835300D01*
Y11076700D01*
X8543200D02*
X8835300D01*
X8826500Y10553700D02*
Y10845800D01*
X8694635Y10553700D02*
X8826500D01*
X8694635D02*
Y10845800D01*
X8826500D01*
X8851900Y10553700D02*
X8983765D01*
Y10845800D01*
X8851900D02*
X8983765D01*
X8851900Y10553700D02*
Y10845800D01*
X10563555Y10917153D02*
Y11049017D01*
Y10917153D02*
X10855655D01*
Y11049017D01*
X10563555D02*
X10855655D01*
X10562355Y11072117D02*
X10854455D01*
X10562355D02*
Y11203982D01*
X10854455D01*
Y11072117D02*
Y11203982D01*
X10718800Y11780300D02*
X10947400D01*
X10718800Y11323100D02*
Y11780300D01*
Y11323100D02*
X10947400D01*
Y11780300D01*
X10286220Y10033471D02*
Y10058871D01*
X10248120Y10033471D02*
X10324320D01*
X10287000Y9956800D02*
Y9982200D01*
X10248900D02*
X10325100D01*
X10312400Y9994900D02*
Y10020300D01*
X10261600Y9994900D02*
X10312400D01*
X10261600D02*
Y10020300D01*
X10312400D01*
X9791700Y9982200D02*
X10083800D01*
Y9850335D02*
Y9982200D01*
X9791700Y9850335D02*
X10083800D01*
X9791700D02*
Y9982200D01*
X10070790Y10155560D02*
Y10282560D01*
X9816790D02*
X10070790D01*
X9816790Y10155560D02*
Y10282560D01*
Y10155560D02*
X10070790D01*
X9791700Y10134600D02*
X10083800D01*
Y10002735D02*
Y10134600D01*
X9791700Y10002735D02*
X10083800D01*
X9791700D02*
Y10134600D01*
X6811242Y7479334D02*
X7103342D01*
X6811242D02*
Y7611198D01*
X7103342D01*
Y7479334D02*
Y7611198D01*
X6811242Y8369300D02*
X7103342D01*
X6811242D02*
Y8501165D01*
X7103342D01*
Y8369300D02*
Y8501165D01*
X7721599Y8044045D02*
X7848599D01*
Y8298045D01*
X7721599D02*
X7848599D01*
X7721599Y8044045D02*
Y8298045D01*
X6810254Y9571122D02*
X7102354D01*
X6810254D02*
Y9702986D01*
X7102354D01*
Y9571122D02*
Y9702986D01*
X6811242Y8686800D02*
X7103342D01*
X6811242D02*
Y8818665D01*
X7103342D01*
Y8686800D02*
Y8818665D01*
X7721599Y9250484D02*
X7848599D01*
Y9504484D01*
X7721599D02*
X7848599D01*
X7721599Y9250484D02*
Y9504484D01*
X7525020Y9677400D02*
Y9867900D01*
X7182120D02*
X7525020D01*
X7182120Y9677400D02*
Y9867900D01*
Y9677400D02*
X7525020D01*
X5016500Y11493500D02*
Y11785600D01*
X5148365D01*
Y11493500D02*
Y11785600D01*
X5016500Y11493500D02*
X5148365D01*
X4305300Y11480800D02*
X4597400D01*
X4305300D02*
Y11612665D01*
X4597400D01*
Y11480800D02*
Y11612665D01*
X5168900Y11493500D02*
X5461000D01*
X5168900D02*
Y11625365D01*
X5461000D01*
Y11493500D02*
Y11625365D01*
X4648516Y11833663D02*
Y12125763D01*
X4516651Y11833663D02*
X4648516D01*
X4516651D02*
Y12125763D01*
X4648516D01*
X9296425Y10395623D02*
Y10583997D01*
X9636240Y10395623D02*
Y10583997D01*
X9296425D02*
X9636240D01*
X9296425Y10395623D02*
X9636240D01*
X9523390Y9513007D02*
X9613193Y9602810D01*
X9523390Y9513007D02*
X9702996Y9333402D01*
X9792798Y9423204D01*
X9613193Y9602810D02*
X9792798Y9423204D01*
X6515100Y10452100D02*
Y10579100D01*
Y10452100D02*
X6769100D01*
Y10579100D01*
X6515100D02*
X6769100D01*
X6908800Y10071100D02*
Y10363200D01*
X7040665D01*
Y10071100D02*
Y10363200D01*
X6908800Y10071100D02*
X7040665D01*
X7061200Y10110200D02*
X7188200D01*
Y10364200D01*
X7061200D02*
X7188200D01*
X7061200Y10110200D02*
Y10364200D01*
X10546200Y7518200D02*
Y10599200D01*
Y7518200D02*
X11801200D01*
Y10599200D01*
X10546200D02*
X11801200D01*
X8890609Y7665983D02*
Y7919983D01*
X8763609Y7665983D02*
X8890609D01*
X8763609D02*
Y7919983D01*
X8890609D01*
X8224735Y8001000D02*
X8356600D01*
X8224735Y7708900D02*
Y8001000D01*
Y7708900D02*
X8356600D01*
Y8001000D01*
D58*
X6975000Y11328400D02*
G03*
X6975000Y11328400I-625000J0D01*
G01*
X11993500Y11018900D02*
Y12018900D01*
X10993500D02*
X11993500D01*
X10993500Y11018900D02*
Y12018900D01*
Y11018900D02*
X11993500D01*
X8432539Y9516040D02*
X8456934Y9540435D01*
X8934585Y9013994D02*
X8958980Y9038389D01*
X8910189Y9993690D02*
X8934585Y10018086D01*
X9412235Y9491645D02*
X9436631Y9516040D01*
X8432539D02*
X8456934Y9491645D01*
X8910189Y9038389D02*
X8934585Y9013994D01*
Y10018086D02*
X8958980Y9993690D01*
X9412235Y9540435D02*
X9436631Y9516040D01*
X7669300Y7791663D02*
Y8181663D01*
X7164300Y7791663D02*
Y8181663D01*
X7669300Y8999800D02*
Y9389800D01*
X7164300Y8999800D02*
Y9389800D01*
X4716400Y8137400D02*
Y8393400D01*
X5748400Y8137400D02*
Y8393400D01*
X4716400D02*
X5748400D01*
X4716400Y10017000D02*
Y10273000D01*
X5748400Y10017000D02*
Y10273000D01*
X4716400D02*
X5748400D01*
X4389500Y9665500D02*
Y9921500D01*
X3357500Y9665500D02*
Y9921500D01*
Y9665500D02*
X4389500D01*
Y7785900D02*
Y8041900D01*
X3357500Y7785900D02*
Y8041900D01*
Y7785900D02*
X4389500D01*
X4270620Y11643995D02*
Y12306300D01*
X3386700Y11643995D02*
Y12306300D01*
X4270620D01*
X3386700Y11643995D02*
X4270620D01*
X2281300Y11171300D02*
Y12171300D01*
Y11171300D02*
X3281300D01*
Y12171300D01*
X2281300D02*
X3281300D01*
X2281300Y9631300D02*
X3281300D01*
Y8631300D02*
Y9631300D01*
X2281300Y8631300D02*
X3281300D01*
X2281300D02*
Y9631300D01*
D59*
X8788947Y12077292D02*
Y12027308D01*
X8813939D01*
X8822270Y12035639D01*
Y12068961D01*
X8813939Y12077292D01*
X8788947D01*
X8838931Y12068961D02*
X8847261Y12077292D01*
X8863923D01*
X8872253Y12068961D01*
Y12060631D01*
X8863923Y12052300D01*
X8855592D01*
X8863923D01*
X8872253Y12043969D01*
Y12035639D01*
X8863923Y12027308D01*
X8847261D01*
X8838931Y12035639D01*
X4683471Y12075371D02*
Y12125355D01*
X4708463D01*
X4716794Y12117024D01*
Y12100363D01*
X4708463Y12092032D01*
X4683471D01*
X4700132D02*
X4716794Y12075371D01*
X4766777D02*
X4733455D01*
X4766777Y12108694D01*
Y12117024D01*
X4758447Y12125355D01*
X4741786D01*
X4733455Y12117024D01*
X4783438Y12083702D02*
X4791769Y12075371D01*
X4808430D01*
X4816761Y12083702D01*
Y12117024D01*
X4808430Y12125355D01*
X4791769D01*
X4783438Y12117024D01*
Y12108694D01*
X4791769Y12100363D01*
X4816761D01*
X4137055Y11519308D02*
Y11569292D01*
X4162047D01*
X4170378Y11560961D01*
Y11544300D01*
X4162047Y11535969D01*
X4137055D01*
X4153716D02*
X4170378Y11519308D01*
X4220361D02*
X4187039D01*
X4220361Y11552631D01*
Y11560961D01*
X4212031Y11569292D01*
X4195370D01*
X4187039Y11560961D01*
X4237023Y11569292D02*
X4270345D01*
Y11560961D01*
X4237023Y11527639D01*
Y11519308D01*
X3420670Y11565739D02*
Y11599061D01*
X3412339Y11607392D01*
X3395678D01*
X3387347Y11599061D01*
Y11565739D01*
X3395678Y11557408D01*
X3412339D01*
X3404008Y11574069D02*
X3420670Y11557408D01*
X3412339D02*
X3420670Y11565739D01*
X3470653Y11607392D02*
X3437331D01*
Y11582400D01*
X3453992Y11590731D01*
X3462323D01*
X3470653Y11582400D01*
Y11565739D01*
X3462323Y11557408D01*
X3445661D01*
X3437331Y11565739D01*
X5026055Y11824108D02*
Y11874092D01*
X5051047D01*
X5059378Y11865761D01*
Y11849100D01*
X5051047Y11840769D01*
X5026055D01*
X5042716D02*
X5059378Y11824108D01*
X5076039Y11865761D02*
X5084370Y11874092D01*
X5101031D01*
X5109361Y11865761D01*
Y11857431D01*
X5101031Y11849100D01*
X5092700D01*
X5101031D01*
X5109361Y11840769D01*
Y11832439D01*
X5101031Y11824108D01*
X5084370D01*
X5076039Y11832439D01*
X5126023Y11865761D02*
X5134353Y11874092D01*
X5151014D01*
X5159345Y11865761D01*
Y11832439D01*
X5151014Y11824108D01*
X5134353D01*
X5126023Y11832439D01*
Y11865761D01*
X5330855Y11659008D02*
Y11708992D01*
X5355847D01*
X5364178Y11700661D01*
Y11684000D01*
X5355847Y11675669D01*
X5330855D01*
X5347516D02*
X5364178Y11659008D01*
X5414161D02*
X5380839D01*
X5414161Y11692331D01*
Y11700661D01*
X5405831Y11708992D01*
X5389170D01*
X5380839Y11700661D01*
X5430823D02*
X5439153Y11708992D01*
X5455814D01*
X5464145Y11700661D01*
Y11692331D01*
X5455814Y11684000D01*
X5464145Y11675669D01*
Y11667339D01*
X5455814Y11659008D01*
X5439153D01*
X5430823Y11667339D01*
Y11675669D01*
X5439153Y11684000D01*
X5430823Y11692331D01*
Y11700661D01*
X5439153Y11684000D02*
X5455814D01*
X4930370Y11845139D02*
Y11878461D01*
X4922039Y11886792D01*
X4905378D01*
X4897047Y11878461D01*
Y11845139D01*
X4905378Y11836808D01*
X4922039D01*
X4913708Y11853469D02*
X4930370Y11836808D01*
X4922039D02*
X4930370Y11845139D01*
X4980353Y11886792D02*
X4963692Y11878461D01*
X4947031Y11861800D01*
Y11845139D01*
X4955361Y11836808D01*
X4972023D01*
X4980353Y11845139D01*
Y11853469D01*
X4972023Y11861800D01*
X4947031D01*
X3255570Y12255092D02*
X3238908D01*
X3247239D01*
Y12213439D01*
X3238908Y12205108D01*
X3230578D01*
X3222247Y12213439D01*
X3305553Y12255092D02*
X3272231D01*
Y12230100D01*
X3288892Y12238431D01*
X3297223D01*
X3305553Y12230100D01*
Y12213439D01*
X3297223Y12205108D01*
X3280561D01*
X3272231Y12213439D01*
X6998720Y9232492D02*
Y9190839D01*
X7007051Y9182508D01*
X7023712D01*
X7032043Y9190839D01*
Y9232492D01*
X7048704Y9182508D02*
X7065365D01*
X7057035D01*
Y9232492D01*
X7048704Y9224161D01*
X7090357D02*
X7098688Y9232492D01*
X7115349D01*
X7123680Y9224161D01*
Y9190839D01*
X7115349Y9182508D01*
X7098688D01*
X7090357Y9190839D01*
Y9224161D01*
X7044947Y8013292D02*
Y7971639D01*
X7053278Y7963308D01*
X7069939D01*
X7078270Y7971639D01*
Y8013292D01*
X7094931Y7971639D02*
X7103261Y7963308D01*
X7119923D01*
X7128253Y7971639D01*
Y8004961D01*
X7119923Y8013292D01*
X7103261D01*
X7094931Y8004961D01*
Y7996631D01*
X7103261Y7988300D01*
X7128253D01*
X9499192Y7623553D02*
X9457539D01*
X9449208Y7615222D01*
Y7598561D01*
X9457539Y7590230D01*
X9499192D01*
Y7573569D02*
Y7540247D01*
X9490861D01*
X9457539Y7573569D01*
X9449208D01*
X9153147Y10642192D02*
Y10600539D01*
X9161478Y10592208D01*
X9178139D01*
X9186470Y10600539D01*
Y10642192D01*
X9236453Y10592208D02*
X9203131D01*
X9236453Y10625531D01*
Y10633861D01*
X9228123Y10642192D01*
X9211461D01*
X9203131Y10633861D01*
X10178702Y9600792D02*
X10212025Y9550808D01*
Y9600792D02*
X10178702Y9550808D01*
X10228686Y9600792D02*
X10262008D01*
X10245347D01*
Y9550808D01*
X10278670D02*
Y9584131D01*
X10295331Y9600792D01*
X10311992Y9584131D01*
Y9550808D01*
Y9575800D01*
X10278670D01*
X10328653Y9600792D02*
Y9550808D01*
X10361976D01*
X10378637D02*
X10395298D01*
X10386968D01*
Y9600792D01*
X10378637Y9592461D01*
X6634976Y9970656D02*
Y9929004D01*
X6643307Y9920673D01*
X6659968D01*
X6668299Y9929004D01*
Y9970656D01*
X6684960Y9962326D02*
X6693291Y9970656D01*
X6709952D01*
X6718282Y9962326D01*
Y9953995D01*
X6709952Y9945665D01*
X6718282Y9937334D01*
Y9929004D01*
X6709952Y9920673D01*
X6693291D01*
X6684960Y9929004D01*
Y9937334D01*
X6693291Y9945665D01*
X6684960Y9953995D01*
Y9962326D01*
X6693291Y9945665D02*
X6709952D01*
X10112762Y8932040D02*
Y8890387D01*
X10121093Y8882057D01*
X10137754D01*
X10146085Y8890387D01*
Y8932040D01*
X10196068D02*
X10179407Y8923710D01*
X10162746Y8907048D01*
Y8890387D01*
X10171076Y8882057D01*
X10187738D01*
X10196068Y8890387D01*
Y8898718D01*
X10187738Y8907048D01*
X10162746D01*
X10112762Y8293003D02*
Y8251350D01*
X10121093Y8243019D01*
X10137754D01*
X10146085Y8251350D01*
Y8293003D01*
X10196068D02*
X10162746D01*
Y8268011D01*
X10179407Y8276342D01*
X10187738D01*
X10196068Y8268011D01*
Y8251350D01*
X10187738Y8243019D01*
X10171076D01*
X10162746Y8251350D01*
X8370219Y9661025D02*
X8340766Y9631572D01*
Y9619791D01*
X8352547Y9608009D01*
X8364328D01*
X8393782Y9637463D01*
X8387891Y9572666D02*
X8423235Y9608009D01*
X8387891D01*
X8411453Y9584447D01*
X8340347Y11835992D02*
Y11794339D01*
X8348678Y11786008D01*
X8365339D01*
X8373670Y11794339D01*
Y11835992D01*
X8390331Y11827661D02*
X8398661Y11835992D01*
X8415323D01*
X8423653Y11827661D01*
Y11819331D01*
X8415323Y11811000D01*
X8406992D01*
X8415323D01*
X8423653Y11802669D01*
Y11794339D01*
X8415323Y11786008D01*
X8398661D01*
X8390331Y11794339D01*
X10367978Y11823292D02*
Y11781639D01*
X10376308Y11773308D01*
X10392970D01*
X10401300Y11781639D01*
Y11823292D01*
X10417961Y11773308D02*
X10434623D01*
X10426292D01*
Y11823292D01*
X10417961Y11814961D01*
X6804055Y8852308D02*
Y8902292D01*
X6829047D01*
X6837378Y8893961D01*
Y8877300D01*
X6829047Y8868969D01*
X6804055D01*
X6820716D02*
X6837378Y8852308D01*
X6887361D02*
X6854039D01*
X6887361Y8885631D01*
Y8893961D01*
X6879031Y8902292D01*
X6862370D01*
X6854039Y8893961D01*
X6937345Y8902292D02*
X6920684Y8893961D01*
X6904023Y8877300D01*
Y8860639D01*
X6912353Y8852308D01*
X6929014D01*
X6937345Y8860639D01*
Y8868969D01*
X6929014Y8877300D01*
X6904023D01*
X6816755Y7645808D02*
Y7695792D01*
X6841747D01*
X6850078Y7687461D01*
Y7670800D01*
X6841747Y7662469D01*
X6816755D01*
X6833416D02*
X6850078Y7645808D01*
X6900061D02*
X6866739D01*
X6900061Y7679131D01*
Y7687461D01*
X6891731Y7695792D01*
X6875070D01*
X6866739Y7687461D01*
X6950045Y7695792D02*
X6916723D01*
Y7670800D01*
X6933384Y7679131D01*
X6941714D01*
X6950045Y7670800D01*
Y7654139D01*
X6941714Y7645808D01*
X6925053D01*
X6916723Y7654139D01*
X6816755Y9741308D02*
Y9791292D01*
X6841747D01*
X6850078Y9782961D01*
Y9766300D01*
X6841747Y9757969D01*
X6816755D01*
X6833416D02*
X6850078Y9741308D01*
X6900061D02*
X6866739D01*
X6900061Y9774631D01*
Y9782961D01*
X6891731Y9791292D01*
X6875070D01*
X6866739Y9782961D01*
X6941714Y9741308D02*
Y9791292D01*
X6916723Y9766300D01*
X6950045D01*
X6816755Y8534808D02*
Y8584792D01*
X6841747D01*
X6850078Y8576461D01*
Y8559800D01*
X6841747Y8551469D01*
X6816755D01*
X6833416D02*
X6850078Y8534808D01*
X6900061D02*
X6866739D01*
X6900061Y8568131D01*
Y8576461D01*
X6891731Y8584792D01*
X6875070D01*
X6866739Y8576461D01*
X6916723D02*
X6925053Y8584792D01*
X6941714D01*
X6950045Y8576461D01*
Y8568131D01*
X6941714Y8559800D01*
X6933384D01*
X6941714D01*
X6950045Y8551469D01*
Y8543139D01*
X6941714Y8534808D01*
X6925053D01*
X6916723Y8543139D01*
X6905655Y9982608D02*
Y10032592D01*
X6930647D01*
X6938978Y10024261D01*
Y10007600D01*
X6930647Y9999269D01*
X6905655D01*
X6922316D02*
X6938978Y9982608D01*
X6988961D02*
X6955639D01*
X6988961Y10015931D01*
Y10024261D01*
X6980631Y10032592D01*
X6963970D01*
X6955639Y10024261D01*
X7038945Y9982608D02*
X7005623D01*
X7038945Y10015931D01*
Y10024261D01*
X7030614Y10032592D01*
X7013953D01*
X7005623Y10024261D01*
X6228186Y9741308D02*
Y9791292D01*
X6253178D01*
X6261508Y9782961D01*
Y9766300D01*
X6253178Y9757969D01*
X6228186D01*
X6244847D02*
X6261508Y9741308D01*
X6311492D02*
X6278170D01*
X6311492Y9774631D01*
Y9782961D01*
X6303161Y9791292D01*
X6286500D01*
X6278170Y9782961D01*
X6328153Y9741308D02*
X6344814D01*
X6336484D01*
Y9791292D01*
X6328153Y9782961D01*
X9153555Y8369708D02*
Y8419692D01*
X9178547D01*
X9186878Y8411361D01*
Y8394700D01*
X9178547Y8386369D01*
X9153555D01*
X9170216D02*
X9186878Y8369708D01*
X9236861D02*
X9203539D01*
X9236861Y8403031D01*
Y8411361D01*
X9228531Y8419692D01*
X9211870D01*
X9203539Y8411361D01*
X9253523D02*
X9261853Y8419692D01*
X9278514D01*
X9286845Y8411361D01*
Y8378039D01*
X9278514Y8369708D01*
X9261853D01*
X9253523Y8378039D01*
Y8411361D01*
X9322820Y8369708D02*
Y8419692D01*
X9347812D01*
X9356143Y8411361D01*
Y8394700D01*
X9347812Y8386369D01*
X9322820D01*
X9339481D02*
X9356143Y8369708D01*
X9372804D02*
X9389465D01*
X9381135D01*
Y8419692D01*
X9372804Y8411361D01*
X9414457Y8378039D02*
X9422788Y8369708D01*
X9439449D01*
X9447780Y8378039D01*
Y8411361D01*
X9439449Y8419692D01*
X9422788D01*
X9414457Y8411361D01*
Y8403031D01*
X9422788Y8394700D01*
X9447780D01*
X8698220Y10466408D02*
Y10516392D01*
X8723212D01*
X8731543Y10508061D01*
Y10491400D01*
X8723212Y10483069D01*
X8698220D01*
X8714881D02*
X8731543Y10466408D01*
X8748204D02*
X8764865D01*
X8756535D01*
Y10516392D01*
X8748204Y10508061D01*
X8814849Y10466408D02*
Y10516392D01*
X8789857Y10491400D01*
X8823180D01*
X8865620Y10465208D02*
Y10515192D01*
X8890612D01*
X8898943Y10506861D01*
Y10490200D01*
X8890612Y10481869D01*
X8865620D01*
X8882281D02*
X8898943Y10465208D01*
X8915604D02*
X8932265D01*
X8923935D01*
Y10515192D01*
X8915604Y10506861D01*
X8957257D02*
X8965588Y10515192D01*
X8982249D01*
X8990580Y10506861D01*
Y10498531D01*
X8982249Y10490200D01*
X8973918D01*
X8982249D01*
X8990580Y10481869D01*
Y10473539D01*
X8982249Y10465208D01*
X8965588D01*
X8957257Y10473539D01*
X9627620Y10046108D02*
Y10096092D01*
X9652612D01*
X9660943Y10087761D01*
Y10071100D01*
X9652612Y10062769D01*
X9627620D01*
X9644281D02*
X9660943Y10046108D01*
X9677604D02*
X9694265D01*
X9685935D01*
Y10096092D01*
X9677604Y10087761D01*
X9752580Y10046108D02*
X9719257D01*
X9752580Y10079431D01*
Y10087761D01*
X9744249Y10096092D01*
X9727588D01*
X9719257Y10087761D01*
X9635951Y9893708D02*
Y9943692D01*
X9660943D01*
X9669274Y9935361D01*
Y9918700D01*
X9660943Y9910369D01*
X9635951D01*
X9652612D02*
X9669274Y9893708D01*
X9685935D02*
X9702596D01*
X9694265D01*
Y9943692D01*
X9685935Y9935361D01*
X9727588Y9893708D02*
X9744249D01*
X9735919D01*
Y9943692D01*
X9727588Y9935361D01*
X9638192Y8929748D02*
X9602848Y8965092D01*
X9620520Y8982764D01*
X9632301Y8982764D01*
X9644083Y8970983D01*
Y8959201D01*
X9626411Y8941529D01*
X9638192Y8953311D02*
X9661755Y8953311D01*
X9673536Y8965092D02*
X9685317Y8976873D01*
X9679426Y8970983D01*
X9644083Y9006326D01*
X9644083Y8994545D01*
X9673536Y9023998D02*
Y9035780D01*
X9685317Y9047561D01*
X9697098D01*
X9720661Y9023998D01*
Y9012217D01*
X9708880Y9000436D01*
X9697098D01*
X9673536Y9023998D01*
X9246519Y9122275D02*
X9211175Y9157619D01*
X9228847Y9175291D01*
X9240628Y9175291D01*
X9252409Y9163509D01*
Y9151728D01*
X9234737Y9134056D01*
X9246519Y9145837D02*
X9270081Y9145837D01*
X9275972Y9163509D02*
X9287753D01*
X9299534Y9175291D01*
Y9187072D01*
X9275972Y9210634D01*
X9264191D01*
X9252409Y9198853D01*
X9252409Y9187072D01*
X9258300Y9181181D01*
X9270081D01*
X9287753Y9198853D01*
X8251447Y7620408D02*
Y7670392D01*
X8276439D01*
X8284770Y7662061D01*
Y7645400D01*
X8276439Y7637069D01*
X8251447D01*
X8268108D02*
X8284770Y7620408D01*
X8301431Y7662061D02*
X8309761Y7670392D01*
X8326423D01*
X8334753Y7662061D01*
Y7653731D01*
X8326423Y7645400D01*
X8334753Y7637069D01*
Y7628739D01*
X8326423Y7620408D01*
X8309761D01*
X8301431Y7628739D01*
Y7637069D01*
X8309761Y7645400D01*
X8301431Y7653731D01*
Y7662061D01*
X8309761Y7645400D02*
X8326423D01*
X8429247Y11138308D02*
Y11188292D01*
X8454239D01*
X8462570Y11179961D01*
Y11163300D01*
X8454239Y11154969D01*
X8429247D01*
X8445908D02*
X8462570Y11138308D01*
X8512553Y11188292D02*
X8479231D01*
Y11163300D01*
X8495892Y11171631D01*
X8504223D01*
X8512553Y11163300D01*
Y11146639D01*
X8504223Y11138308D01*
X8487561D01*
X8479231Y11146639D01*
X8429247Y10985908D02*
Y11035892D01*
X8454239D01*
X8462570Y11027561D01*
Y11010900D01*
X8454239Y11002569D01*
X8429247D01*
X8445908D02*
X8462570Y10985908D01*
X8504223D02*
Y11035892D01*
X8479231Y11010900D01*
X8512553D01*
X10445702Y11112925D02*
Y11162909D01*
X10470694D01*
X10479025Y11154579D01*
Y11137917D01*
X10470694Y11129587D01*
X10445702D01*
X10462363D02*
X10479025Y11112925D01*
X10495686Y11154579D02*
X10504017Y11162909D01*
X10520678D01*
X10529008Y11154579D01*
Y11146248D01*
X10520678Y11137917D01*
X10512347D01*
X10520678D01*
X10529008Y11129587D01*
Y11121256D01*
X10520678Y11112925D01*
X10504017D01*
X10495686Y11121256D01*
X10454033Y10960525D02*
Y11010509D01*
X10479025D01*
X10487355Y11002179D01*
Y10985517D01*
X10479025Y10977187D01*
X10454033D01*
X10470694D02*
X10487355Y10960525D01*
X10504017D02*
X10520678D01*
X10512347D01*
Y11010509D01*
X10504017Y11002179D01*
X3255570Y10778339D02*
Y10811661D01*
X3247239Y10819992D01*
X3230578D01*
X3222247Y10811661D01*
Y10778339D01*
X3230578Y10770008D01*
X3247239D01*
X3238908Y10786669D02*
X3255570Y10770008D01*
X3247239D02*
X3255570Y10778339D01*
X3297223Y10770008D02*
Y10819992D01*
X3272231Y10795000D01*
X3305553D01*
X3255570Y7781139D02*
Y7814461D01*
X3247239Y7822792D01*
X3230578D01*
X3222247Y7814461D01*
Y7781139D01*
X3230578Y7772808D01*
X3247239D01*
X3238908Y7789469D02*
X3255570Y7772808D01*
X3247239D02*
X3255570Y7781139D01*
X3272231Y7814461D02*
X3280561Y7822792D01*
X3297223D01*
X3305553Y7814461D01*
Y7806131D01*
X3297223Y7797800D01*
X3288892D01*
X3297223D01*
X3305553Y7789469D01*
Y7781139D01*
X3297223Y7772808D01*
X3280561D01*
X3272231Y7781139D01*
X4630149Y9143018D02*
Y9176341D01*
X4621818Y9184671D01*
X4605157D01*
X4596826Y9176341D01*
Y9143018D01*
X4605157Y9134687D01*
X4621818D01*
X4613487Y9151348D02*
X4630149Y9134687D01*
X4621818D02*
X4630149Y9143018D01*
X4680132Y9134687D02*
X4646810D01*
X4680132Y9168010D01*
Y9176341D01*
X4671802Y9184671D01*
X4655141D01*
X4646810Y9176341D01*
X5842000Y7247239D02*
Y7280561D01*
X5833670Y7288892D01*
X5817008D01*
X5808678Y7280561D01*
Y7247239D01*
X5817008Y7238908D01*
X5833670D01*
X5825339Y7255569D02*
X5842000Y7238908D01*
X5833670D02*
X5842000Y7247239D01*
X5858661Y7238908D02*
X5875323D01*
X5866992D01*
Y7288892D01*
X5858661Y7280561D01*
X7337047Y12267792D02*
Y12217808D01*
X7370370D01*
X7420353D02*
X7387031D01*
X7420353Y12251131D01*
Y12259461D01*
X7412023Y12267792D01*
X7395361D01*
X7387031Y12259461D01*
X9351978Y12267792D02*
Y12217808D01*
X9385300D01*
X9401961D02*
X9418623D01*
X9410292D01*
Y12267792D01*
X9401961Y12259461D01*
X3255570Y9727792D02*
X3238908D01*
X3247239D01*
Y9686139D01*
X3238908Y9677808D01*
X3230578D01*
X3222247Y9686139D01*
X3297223Y9677808D02*
Y9727792D01*
X3272231Y9702800D01*
X3305553D01*
X11027970Y12102692D02*
X11011308D01*
X11019639D01*
Y12061039D01*
X11011308Y12052708D01*
X11002978D01*
X10994647Y12061039D01*
X11044631Y12094361D02*
X11052961Y12102692D01*
X11069623D01*
X11077953Y12094361D01*
Y12086031D01*
X11069623Y12077700D01*
X11061292D01*
X11069623D01*
X11077953Y12069369D01*
Y12061039D01*
X11069623Y12052708D01*
X11052961D01*
X11044631Y12061039D01*
X10578870Y10679092D02*
X10562208D01*
X10570539D01*
Y10637439D01*
X10562208Y10629108D01*
X10553878D01*
X10545547Y10637439D01*
X10628853Y10629108D02*
X10595531D01*
X10628853Y10662431D01*
Y10670761D01*
X10620523Y10679092D01*
X10603861D01*
X10595531Y10670761D01*
X8673692Y8547100D02*
Y8563761D01*
Y8555430D01*
X8632039D01*
X8623708Y8563761D01*
Y8572092D01*
X8632039Y8580422D01*
X8623708Y8530439D02*
Y8513777D01*
Y8522108D01*
X8673692D01*
X8665361Y8530439D01*
X9182508Y10515192D02*
X9149186D01*
Y10490200D01*
X9165847D01*
X9149186D01*
Y10465208D01*
X9199170Y10515192D02*
Y10465208D01*
X9224161D01*
X9232492Y10473539D01*
Y10481869D01*
X9224161Y10490200D01*
X9199170D01*
X9224161D01*
X9232492Y10498531D01*
Y10506861D01*
X9224161Y10515192D01*
X9199170D01*
X9249153Y10465208D02*
X9265814D01*
X9257484D01*
Y10515192D01*
X9249153Y10506861D01*
X10410447Y9245192D02*
Y9195208D01*
X10435439D01*
X10443770Y9203539D01*
Y9236861D01*
X10435439Y9245192D01*
X10410447D01*
X10493753D02*
X10460431D01*
Y9220200D01*
X10477092Y9228531D01*
X10485423D01*
X10493753Y9220200D01*
Y9203539D01*
X10485423Y9195208D01*
X10468761D01*
X10460431Y9203539D01*
X10410447Y9067392D02*
Y9017408D01*
X10435439D01*
X10443770Y9025739D01*
Y9059061D01*
X10435439Y9067392D01*
X10410447D01*
X10485423Y9017408D02*
Y9067392D01*
X10460431Y9042400D01*
X10493753D01*
X10795547Y12077292D02*
Y12027308D01*
X10820539D01*
X10828870Y12035639D01*
Y12068961D01*
X10820539Y12077292D01*
X10795547D01*
X10878853Y12027308D02*
X10845531D01*
X10878853Y12060631D01*
Y12068961D01*
X10870523Y12077292D01*
X10853861D01*
X10845531Y12068961D01*
X10418778Y9422992D02*
Y9373008D01*
X10443770D01*
X10452100Y9381339D01*
Y9414661D01*
X10443770Y9422992D01*
X10418778D01*
X10468761Y9373008D02*
X10485423D01*
X10477092D01*
Y9422992D01*
X10468761Y9414661D01*
X7593298Y9782961D02*
X7584967Y9791292D01*
X7568306D01*
X7559975Y9782961D01*
Y9749639D01*
X7568306Y9741308D01*
X7584967D01*
X7593298Y9749639D01*
X7609959Y9782961D02*
X7618290Y9791292D01*
X7634951D01*
X7643282Y9782961D01*
Y9774631D01*
X7634951Y9766300D01*
X7626620D01*
X7634951D01*
X7643282Y9757969D01*
Y9749639D01*
X7634951Y9741308D01*
X7618290D01*
X7609959Y9749639D01*
X7659943Y9782961D02*
X7668273Y9791292D01*
X7684935D01*
X7693265Y9782961D01*
Y9749639D01*
X7684935Y9741308D01*
X7668273D01*
X7659943Y9749639D01*
Y9782961D01*
X7593298Y8576461D02*
X7584967Y8584792D01*
X7568306D01*
X7559975Y8576461D01*
Y8543139D01*
X7568306Y8534808D01*
X7584967D01*
X7593298Y8543139D01*
X7643282Y8534808D02*
X7609959D01*
X7643282Y8568131D01*
Y8576461D01*
X7634951Y8584792D01*
X7618290D01*
X7609959Y8576461D01*
X7659943Y8543139D02*
X7668273Y8534808D01*
X7684935D01*
X7693265Y8543139D01*
Y8576461D01*
X7684935Y8584792D01*
X7668273D01*
X7659943Y8576461D01*
Y8568131D01*
X7668273Y8559800D01*
X7693265D01*
X7764478Y9211461D02*
X7756147Y9219792D01*
X7739486D01*
X7731155Y9211461D01*
Y9178139D01*
X7739486Y9169808D01*
X7756147D01*
X7764478Y9178139D01*
X7814461Y9169808D02*
X7781139D01*
X7814461Y9203131D01*
Y9211461D01*
X7806131Y9219792D01*
X7789470D01*
X7781139Y9211461D01*
X7831123D02*
X7839453Y9219792D01*
X7856114D01*
X7864445Y9211461D01*
Y9203131D01*
X7856114Y9194800D01*
X7864445Y9186469D01*
Y9178139D01*
X7856114Y9169808D01*
X7839453D01*
X7831123Y9178139D01*
Y9186469D01*
X7839453Y9194800D01*
X7831123Y9203131D01*
Y9211461D01*
X7839453Y9194800D02*
X7856114D01*
X7751778Y8004961D02*
X7743447Y8013292D01*
X7726786D01*
X7718455Y8004961D01*
Y7971639D01*
X7726786Y7963308D01*
X7743447D01*
X7751778Y7971639D01*
X7801761Y7963308D02*
X7768439D01*
X7801761Y7996631D01*
Y8004961D01*
X7793431Y8013292D01*
X7776770D01*
X7768439Y8004961D01*
X7818423Y8013292D02*
X7851745D01*
Y8004961D01*
X7818423Y7971639D01*
Y7963308D01*
X7104078Y10062361D02*
X7095747Y10070692D01*
X7079086D01*
X7070755Y10062361D01*
Y10029039D01*
X7079086Y10020708D01*
X7095747D01*
X7104078Y10029039D01*
X7154061Y10020708D02*
X7120739D01*
X7154061Y10054031D01*
Y10062361D01*
X7145731Y10070692D01*
X7129070D01*
X7120739Y10062361D01*
X7204045Y10070692D02*
X7187384Y10062361D01*
X7170723Y10045700D01*
Y10029039D01*
X7179053Y10020708D01*
X7195714D01*
X7204045Y10029039D01*
Y10037369D01*
X7195714Y10045700D01*
X7170723D01*
X5872178Y10760861D02*
X5863847Y10769192D01*
X5847186D01*
X5838855Y10760861D01*
Y10727539D01*
X5847186Y10719208D01*
X5863847D01*
X5872178Y10727539D01*
X5922161Y10719208D02*
X5888839D01*
X5922161Y10752531D01*
Y10760861D01*
X5913831Y10769192D01*
X5897170D01*
X5888839Y10760861D01*
X5972145Y10769192D02*
X5938823D01*
Y10744200D01*
X5955484Y10752531D01*
X5963814D01*
X5972145Y10744200D01*
Y10727539D01*
X5963814Y10719208D01*
X5947153D01*
X5938823Y10727539D01*
X6837378Y10532261D02*
X6829047Y10540592D01*
X6812386D01*
X6804055Y10532261D01*
Y10498939D01*
X6812386Y10490608D01*
X6829047D01*
X6837378Y10498939D01*
X6887361Y10490608D02*
X6854039D01*
X6887361Y10523931D01*
Y10532261D01*
X6879031Y10540592D01*
X6862370D01*
X6854039Y10532261D01*
X6929014Y10490608D02*
Y10540592D01*
X6904023Y10515600D01*
X6937345D01*
X8793178Y7992261D02*
X8784847Y8000592D01*
X8768186D01*
X8759855Y7992261D01*
Y7958939D01*
X8768186Y7950608D01*
X8784847D01*
X8793178Y7958939D01*
X8843161Y7950608D02*
X8809839D01*
X8843161Y7983931D01*
Y7992261D01*
X8834831Y8000592D01*
X8818170D01*
X8809839Y7992261D01*
X8859823D02*
X8868153Y8000592D01*
X8884814D01*
X8893145Y7992261D01*
Y7983931D01*
X8884814Y7975600D01*
X8876484D01*
X8884814D01*
X8893145Y7967269D01*
Y7958939D01*
X8884814Y7950608D01*
X8868153D01*
X8859823Y7958939D01*
X9682178Y8805061D02*
X9673847Y8813392D01*
X9657186D01*
X9648855Y8805061D01*
Y8771739D01*
X9657186Y8763408D01*
X9673847D01*
X9682178Y8771739D01*
X9732161Y8763408D02*
X9698839D01*
X9732161Y8796731D01*
Y8805061D01*
X9723831Y8813392D01*
X9707170D01*
X9698839Y8805061D01*
X9782145Y8763408D02*
X9748823D01*
X9782145Y8796731D01*
Y8805061D01*
X9773814Y8813392D01*
X9757153D01*
X9748823Y8805061D01*
X9703208Y10240161D02*
X9694878Y10248492D01*
X9678217D01*
X9669886Y10240161D01*
Y10206839D01*
X9678217Y10198508D01*
X9694878D01*
X9703208Y10206839D01*
X9753192Y10198508D02*
X9719870D01*
X9753192Y10231831D01*
Y10240161D01*
X9744861Y10248492D01*
X9728200D01*
X9719870Y10240161D01*
X9769853Y10198508D02*
X9786514D01*
X9778184D01*
Y10248492D01*
X9769853Y10240161D01*
X9682178Y9782961D02*
X9673847Y9791292D01*
X9657186D01*
X9648855Y9782961D01*
Y9749639D01*
X9657186Y9741308D01*
X9673847D01*
X9682178Y9749639D01*
X9732161Y9741308D02*
X9698839D01*
X9732161Y9774631D01*
Y9782961D01*
X9723831Y9791292D01*
X9707170D01*
X9698839Y9782961D01*
X9748823D02*
X9757153Y9791292D01*
X9773814D01*
X9782145Y9782961D01*
Y9749639D01*
X9773814Y9741308D01*
X9757153D01*
X9748823Y9749639D01*
Y9782961D01*
X9439964Y10141599D02*
X9439964Y10153380D01*
X9428183Y10165161D01*
X9416402Y10165161D01*
X9392839Y10141599D01*
Y10129817D01*
X9404620Y10118036D01*
X9416402D01*
X9422292Y10100364D02*
X9434073Y10088583D01*
X9428183Y10094474D01*
X9463526Y10129817D01*
X9451745Y10129817D01*
X9457636Y10076802D02*
Y10065020D01*
X9469417Y10053239D01*
X9481198D01*
X9504761Y10076802D01*
Y10088583D01*
X9492980Y10100364D01*
X9481198D01*
X9475308Y10094474D01*
Y10082692D01*
X9492980Y10065020D01*
X9211364Y10370198D02*
X9211364Y10381979D01*
X9199583Y10393761D01*
X9187802Y10393761D01*
X9164239Y10370198D01*
Y10358417D01*
X9176020Y10346636D01*
X9187802D01*
X9193692Y10328964D02*
X9205473Y10317183D01*
X9199583Y10323073D01*
X9234926Y10358417D01*
X9223145Y10358417D01*
X9252598Y10328964D02*
X9264380D01*
X9276161Y10317183D01*
Y10305401D01*
X9270271Y10299511D01*
X9258489D01*
Y10287729D01*
X9252598Y10281839D01*
X9240817D01*
X9229036Y10293620D01*
Y10305401D01*
X9234926Y10311292D01*
X9246708D01*
Y10323073D01*
X9252598Y10328964D01*
X9246708Y10311292D02*
X9258489Y10299511D01*
X9325664Y10255899D02*
X9325664Y10267680D01*
X9313883Y10279461D01*
X9302102Y10279461D01*
X9278539Y10255899D01*
Y10244117D01*
X9290320Y10232336D01*
X9302102D01*
X9307992Y10214664D02*
X9319773Y10202883D01*
X9313883Y10208774D01*
X9349226Y10244117D01*
X9337445Y10244117D01*
X9372789Y10220555D02*
X9396352Y10196992D01*
X9390461Y10191102D01*
X9343336D01*
X9337445Y10185211D01*
X8523276Y10201964D02*
X8511495Y10201964D01*
X8499714Y10190183D01*
X8499714Y10178402D01*
X8523276Y10154839D01*
X8535058D01*
X8546839Y10166620D01*
Y10178402D01*
X8564511Y10184292D02*
X8576292Y10196073D01*
X8570401Y10190183D01*
X8535058Y10225527D01*
X8535057Y10213745D01*
X8582183Y10272652D02*
X8576292Y10254980D01*
X8576292Y10231417D01*
X8588073Y10219636D01*
X8599855D01*
X8611636Y10231417D01*
Y10243199D01*
X8605745Y10249089D01*
X8593964D01*
X8576292Y10231417D01*
X8040912Y9395847D02*
X8040912Y9407628D01*
X8029130Y9419409D01*
X8017349Y9419409D01*
X7993787Y9395847D01*
Y9384065D01*
X8005568Y9372284D01*
X8017349D01*
X8023240Y9354612D02*
X8035021Y9342831D01*
X8029130Y9348721D01*
X8064474Y9384065D01*
X8052693Y9384065D01*
X8111599Y9336940D02*
X8088037Y9360502D01*
X8070365Y9342831D01*
X8088037Y9336940D01*
X8093928Y9331049D01*
Y9319268D01*
X8082146Y9307487D01*
X8070365D01*
X8058584Y9319268D01*
Y9331049D01*
X8766864Y8681099D02*
X8766864Y8692880D01*
X8755083Y8704661D01*
X8743302Y8704661D01*
X8719739Y8681099D01*
Y8669317D01*
X8731520Y8657536D01*
X8743302D01*
X8749192Y8639864D02*
X8760973Y8628083D01*
X8755083Y8633974D01*
X8790427Y8669317D01*
X8778645Y8669317D01*
X8796317Y8592739D02*
X8831661Y8628083D01*
X8796317D01*
X8819880Y8604520D01*
X8652564Y8795399D02*
X8652564Y8807180D01*
X8640783Y8818961D01*
X8629002Y8818961D01*
X8605439Y8795399D01*
Y8783617D01*
X8617220Y8771836D01*
X8629002D01*
X8634892Y8754164D02*
X8646673Y8742383D01*
X8640783Y8748274D01*
X8676127Y8783617D01*
X8664345Y8783617D01*
X8693799Y8754164D02*
X8705580D01*
X8717361Y8742383D01*
Y8730602D01*
X8711471Y8724711D01*
X8699689D01*
X8693798Y8730602D01*
X8699689Y8724711D01*
Y8712929D01*
X8693799Y8707039D01*
X8682017D01*
X8670236Y8718820D01*
Y8730602D01*
X9651775Y9217673D02*
X9639994Y9217672D01*
X9628213Y9205891D01*
X9628213Y9194110D01*
X9651775Y9170548D01*
X9663557D01*
X9675338Y9182329D01*
Y9194110D01*
X9693010Y9200001D02*
X9704791Y9211782D01*
X9698901Y9205891D01*
X9663557Y9241235D01*
X9663557Y9229454D01*
X9746026Y9253016D02*
X9722463Y9229454D01*
Y9276579D01*
X9716573Y9282470D01*
X9704791D01*
X9693010Y9270688D01*
Y9258907D01*
X9766290Y9330457D02*
X9754509Y9330457D01*
X9742728Y9318676D01*
X9742727Y9306895D01*
X9766290Y9283332D01*
X9778071D01*
X9789852Y9295113D01*
Y9306895D01*
X9807524Y9312785D02*
X9819305Y9324566D01*
X9813415Y9318676D01*
X9778071Y9354019D01*
X9778071Y9342238D01*
X9836978D02*
X9848759Y9354019D01*
X9842868Y9348129D01*
X9807524Y9383473D01*
Y9371691D01*
X8150914Y9284348D02*
X8150914Y9296129D01*
X8139133Y9307911D01*
X8127352Y9307911D01*
X8103789Y9284348D01*
Y9272567D01*
X8115570Y9260786D01*
X8127352D01*
X8133242Y9243114D02*
X8145023Y9231333D01*
X8139133Y9237223D01*
X8174476Y9272567D01*
X8162695Y9272567D01*
X8192148Y9243114D02*
X8203930D01*
X8215711Y9231333D01*
Y9219551D01*
X8192148Y9195989D01*
X8180367D01*
X8168586Y9207770D01*
Y9219551D01*
X8192148Y9243114D01*
X7522770Y11218061D02*
X7514439Y11226392D01*
X7497778D01*
X7489447Y11218061D01*
Y11184739D01*
X7497778Y11176408D01*
X7514439D01*
X7522770Y11184739D01*
X7539431D02*
X7547761Y11176408D01*
X7564423D01*
X7572753Y11184739D01*
Y11218061D01*
X7564423Y11226392D01*
X7547761D01*
X7539431Y11218061D01*
Y11209731D01*
X7547761Y11201400D01*
X7572753D01*
X8868970Y11853061D02*
X8860639Y11861392D01*
X8843978D01*
X8835647Y11853061D01*
Y11819739D01*
X8843978Y11811408D01*
X8860639D01*
X8868970Y11819739D01*
X8885631Y11861392D02*
X8918953D01*
Y11853061D01*
X8885631Y11819739D01*
Y11811408D01*
X8183170Y11357761D02*
X8174839Y11366092D01*
X8158178D01*
X8149847Y11357761D01*
Y11324439D01*
X8158178Y11316108D01*
X8174839D01*
X8183170Y11324439D01*
X8199831Y11357761D02*
X8208161Y11366092D01*
X8224823D01*
X8233153Y11357761D01*
Y11349431D01*
X8224823Y11341100D01*
X8233153Y11332769D01*
Y11324439D01*
X8224823Y11316108D01*
X8208161D01*
X8199831Y11324439D01*
Y11332769D01*
X8208161Y11341100D01*
X8199831Y11349431D01*
Y11357761D01*
X8208161Y11341100D02*
X8224823D01*
X9161070Y11027561D02*
X9152739Y11035892D01*
X9136078D01*
X9127747Y11027561D01*
Y10994239D01*
X9136078Y10985908D01*
X9152739D01*
X9161070Y10994239D01*
X9211053Y11035892D02*
X9194392Y11027561D01*
X9177731Y11010900D01*
Y10994239D01*
X9186061Y10985908D01*
X9202723D01*
X9211053Y10994239D01*
Y11002569D01*
X9202723Y11010900D01*
X9177731D01*
X9694470Y10976761D02*
X9686139Y10985092D01*
X9669478D01*
X9661147Y10976761D01*
Y10943439D01*
X9669478Y10935108D01*
X9686139D01*
X9694470Y10943439D01*
X9744453Y10985092D02*
X9711131D01*
Y10960100D01*
X9727792Y10968431D01*
X9736123D01*
X9744453Y10960100D01*
Y10943439D01*
X9736123Y10935108D01*
X9719461D01*
X9711131Y10943439D01*
X9253390Y11154561D02*
X9245060Y11162892D01*
X9228399D01*
X9220068Y11154561D01*
Y11121239D01*
X9228399Y11112908D01*
X9245060D01*
X9253390Y11121239D01*
X9295043Y11112908D02*
Y11162892D01*
X9270052Y11137900D01*
X9303374D01*
X10151670Y11230761D02*
X10143339Y11239092D01*
X10126678D01*
X10118347Y11230761D01*
Y11197439D01*
X10126678Y11189108D01*
X10143339D01*
X10151670Y11197439D01*
X10168331Y11230761D02*
X10176661Y11239092D01*
X10193323D01*
X10201653Y11230761D01*
Y11222431D01*
X10193323Y11214100D01*
X10184992D01*
X10193323D01*
X10201653Y11205769D01*
Y11197439D01*
X10193323Y11189108D01*
X10176661D01*
X10168331Y11197439D01*
X10845800Y11860461D02*
X10837470Y11868792D01*
X10820808D01*
X10812478Y11860461D01*
Y11827139D01*
X10820808Y11818808D01*
X10837470D01*
X10845800Y11827139D01*
X10862461Y11818808D02*
X10879123D01*
X10870792D01*
Y11868792D01*
X10862461Y11860461D01*
X10202470Y11345061D02*
X10194139Y11353392D01*
X10177478D01*
X10169147Y11345061D01*
Y11311739D01*
X10177478Y11303408D01*
X10194139D01*
X10202470Y11311739D01*
X10252453Y11303408D02*
X10219131D01*
X10252453Y11336731D01*
Y11345061D01*
X10244123Y11353392D01*
X10227461D01*
X10219131Y11345061D01*
%TF.MD5,5535d9aae4dd2449201987d0fad2d259*%
M02*
