%TF.GenerationSoftware,Altium Limited,Altium Designer,24.6.1 (21)*%
G04 Layer_Color=0*
%FSLAX45Y45*%
%MOMM*%
%TF.SameCoordinates,FD53202A-208C-403B-AAB2-15DF5564725B*%
%TF.FilePolarity,Positive*%
%TF.FileFunction,Plated,1,4,PTH,Drill*%
%TF.Part,Single*%
G01*
G75*
%TA.AperFunction,ComponentDrill*%
%ADD98C,1.40000*%
%ADD99C,0.85000*%
%ADD100C,1.10000*%
%ADD101C,3.15000*%
%ADD102C,1.02000*%
%TA.AperFunction,ViaDrill,NotFilled*%
%ADD103C,0.50000*%
%ADD104C,0.30000*%
D98*
X11493500Y11768900D02*
D03*
Y11268900D02*
D03*
X2781300Y11421300D02*
D03*
Y11921300D02*
D03*
Y9381300D02*
D03*
Y8881300D02*
D03*
D99*
X6350000Y11578400D02*
D03*
Y11078400D02*
D03*
D100*
X11031700Y9612700D02*
D03*
Y9335700D02*
D03*
Y9058700D02*
D03*
Y8781700D02*
D03*
Y8504700D02*
D03*
X11315700Y9474200D02*
D03*
Y9197200D02*
D03*
Y8920200D02*
D03*
Y8643200D02*
D03*
D101*
X11173700Y10308200D02*
D03*
Y7809200D02*
D03*
D102*
X8521700Y8343900D02*
D03*
Y8089900D02*
D03*
Y7835900D02*
D03*
Y7581900D02*
D03*
Y7327900D02*
D03*
D103*
X5651500Y9863500D02*
D03*
X5511800D02*
D03*
X5651500Y9749200D02*
D03*
X5511800D02*
D03*
X5372100Y9863500D02*
D03*
Y9749200D02*
D03*
X5232400Y9863500D02*
D03*
Y9749200D02*
D03*
X5092700Y9863500D02*
D03*
X4953000D02*
D03*
X5092700Y9749200D02*
D03*
X4813300Y7983900D02*
D03*
X4953000D02*
D03*
X4813300Y7869600D02*
D03*
X4953000D02*
D03*
Y7768000D02*
D03*
X4813300D02*
D03*
X4953000Y7564800D02*
D03*
X4813300D02*
D03*
X4953000Y7463200D02*
D03*
X4813300D02*
D03*
Y7361600D02*
D03*
X4953000D02*
D03*
X5232400D02*
D03*
X5092700D02*
D03*
Y7463200D02*
D03*
X5232400D02*
D03*
X5092700Y7564800D02*
D03*
X5232400D02*
D03*
X5092700Y7768000D02*
D03*
X5232400D02*
D03*
Y7869600D02*
D03*
X5092700D02*
D03*
X5232400Y7983900D02*
D03*
X5092700D02*
D03*
X5511800Y7361600D02*
D03*
X5372100D02*
D03*
Y7463200D02*
D03*
X5511800D02*
D03*
X5372100Y7564800D02*
D03*
X5511800D02*
D03*
X5372100Y7768000D02*
D03*
X5511800D02*
D03*
Y7869600D02*
D03*
X5372100D02*
D03*
X5511800Y7983900D02*
D03*
X5372100D02*
D03*
X5651500D02*
D03*
Y7869600D02*
D03*
Y7768000D02*
D03*
Y7564800D02*
D03*
Y7463200D02*
D03*
Y7361600D02*
D03*
Y7666400D02*
D03*
X5511800D02*
D03*
X5372100D02*
D03*
X4953000D02*
D03*
X4813300D02*
D03*
X5092700D02*
D03*
X5232400D02*
D03*
X4813300Y9863500D02*
D03*
Y9749200D02*
D03*
X4953000D02*
D03*
Y9647600D02*
D03*
X4813300D02*
D03*
X4953000Y9444400D02*
D03*
X4813300D02*
D03*
X4953000Y9342800D02*
D03*
X4813300D02*
D03*
Y9241200D02*
D03*
X4953000D02*
D03*
X5232400D02*
D03*
X5092700D02*
D03*
Y9342800D02*
D03*
X5232400D02*
D03*
X5092700Y9444400D02*
D03*
X5232400D02*
D03*
X5092700Y9647600D02*
D03*
X5232400D02*
D03*
X5511800Y9241200D02*
D03*
X5372100D02*
D03*
Y9342800D02*
D03*
X5511800D02*
D03*
X5372100Y9444400D02*
D03*
X5511800D02*
D03*
X5372100Y9647600D02*
D03*
X5511800D02*
D03*
X5651500D02*
D03*
Y9444400D02*
D03*
Y9342800D02*
D03*
Y9241200D02*
D03*
Y9546000D02*
D03*
X5511800D02*
D03*
X5372100D02*
D03*
X4953000D02*
D03*
X4813300D02*
D03*
X5092700D02*
D03*
X5232400D02*
D03*
X11689998Y11059998D02*
D03*
X11619998Y10919998D02*
D03*
X11689998Y10779998D02*
D03*
X11619998Y10639998D02*
D03*
X11689998Y10499998D02*
D03*
X11619998Y10359998D02*
D03*
X11689998Y10219998D02*
D03*
X11619998Y10079998D02*
D03*
X11689998Y9939998D02*
D03*
X11619998Y9799998D02*
D03*
X11689998Y9659998D02*
D03*
X11619998Y9519998D02*
D03*
X11689998Y9379998D02*
D03*
X11619998Y9239998D02*
D03*
Y8119998D02*
D03*
X11689998Y7979999D02*
D03*
X11619998Y7839999D02*
D03*
X11689998Y7699999D02*
D03*
X11619998Y7559999D02*
D03*
X11689998Y7419999D02*
D03*
X11619998Y7279999D02*
D03*
X11549998Y11059998D02*
D03*
X11479998Y10919998D02*
D03*
X11549998Y10779998D02*
D03*
X11479998Y10639998D02*
D03*
X11549998Y10499998D02*
D03*
X11479998Y10359998D02*
D03*
X11549998Y10219998D02*
D03*
X11479998Y10079998D02*
D03*
X11549998Y9939998D02*
D03*
X11479998Y9799998D02*
D03*
X11549998Y9659998D02*
D03*
X11479998Y9519998D02*
D03*
X11549998Y9379998D02*
D03*
X11479998Y8119998D02*
D03*
X11549998Y7979999D02*
D03*
X11479998Y7839999D02*
D03*
X11549998Y7699999D02*
D03*
X11479998Y7559999D02*
D03*
X11549998Y7419999D02*
D03*
X11479998Y7279999D02*
D03*
X11339998Y11199998D02*
D03*
X11409998Y11059998D02*
D03*
X11339998Y10919998D02*
D03*
X11409998Y10779998D02*
D03*
X11339998Y10639998D02*
D03*
X11409998Y10499998D02*
D03*
Y9939998D02*
D03*
X11339998Y9799998D02*
D03*
X11409998Y9659998D02*
D03*
X11339998Y8119998D02*
D03*
Y7559999D02*
D03*
X11409998Y7419999D02*
D03*
X11339998Y7279999D02*
D03*
X11199998Y11199998D02*
D03*
X11269998Y11059998D02*
D03*
X11199998Y10919998D02*
D03*
X11269998Y10779998D02*
D03*
X11199998Y10639998D02*
D03*
X11269998Y9939998D02*
D03*
X11199998Y9799998D02*
D03*
X11269998Y9659998D02*
D03*
Y8259998D02*
D03*
X11199998Y8119998D02*
D03*
X11269998Y7419999D02*
D03*
X11199998Y7279999D02*
D03*
X11059998Y11199998D02*
D03*
X11129998Y11059998D02*
D03*
X11059998Y10919998D02*
D03*
X11129998Y10779998D02*
D03*
X11059998Y10639998D02*
D03*
X11129998Y9939998D02*
D03*
X11059998Y9799998D02*
D03*
X11129998Y8259998D02*
D03*
X11059998Y8119998D02*
D03*
X11129998Y7419999D02*
D03*
X11059998Y7279999D02*
D03*
X10919998Y11199998D02*
D03*
X10989998Y11059998D02*
D03*
Y10779998D02*
D03*
Y9939998D02*
D03*
Y8259998D02*
D03*
X10919998Y8119998D02*
D03*
Y7559999D02*
D03*
X10989998Y7419999D02*
D03*
X10919998Y7279999D02*
D03*
X10849998Y8259998D02*
D03*
Y7979999D02*
D03*
X10779998Y7839999D02*
D03*
X10849998Y7699999D02*
D03*
X10779998Y7559999D02*
D03*
X10849998Y7419999D02*
D03*
X10779998Y7279999D02*
D03*
X10639998Y10639998D02*
D03*
Y10359998D02*
D03*
Y10079998D02*
D03*
Y9799998D02*
D03*
Y8959998D02*
D03*
Y8399998D02*
D03*
X10709998Y7699999D02*
D03*
Y7419999D02*
D03*
X10499998Y11199998D02*
D03*
X10569998Y10779998D02*
D03*
X10499998Y10639998D02*
D03*
X10569998Y10499998D02*
D03*
X10499998Y10359998D02*
D03*
X10569998Y10219998D02*
D03*
X10499998Y10079998D02*
D03*
X10569998Y9939998D02*
D03*
X10499998Y9799998D02*
D03*
X10569998Y9659998D02*
D03*
Y9099998D02*
D03*
X10499998Y8959998D02*
D03*
X10359998Y11199998D02*
D03*
X10429998Y10779998D02*
D03*
X10359998Y10639998D02*
D03*
X10429998Y10499998D02*
D03*
X10359998Y10359998D02*
D03*
X10429998Y9659998D02*
D03*
Y9099998D02*
D03*
X10359998Y8959998D02*
D03*
X10289998Y10779998D02*
D03*
X10219998Y10639998D02*
D03*
X10289998Y10499998D02*
D03*
X10219998Y10359998D02*
D03*
Y8399998D02*
D03*
X10149998Y10779998D02*
D03*
X10079998Y10639998D02*
D03*
X10149998Y10499998D02*
D03*
X10079998Y10359998D02*
D03*
X10149998Y9659998D02*
D03*
X10079998Y8399998D02*
D03*
X10009998Y9659998D02*
D03*
X9239998Y11199998D02*
D03*
Y10639998D02*
D03*
X9169998Y11059998D02*
D03*
X9099998Y10639998D02*
D03*
X8959998Y11199998D02*
D03*
X9029998Y10779998D02*
D03*
Y10499998D02*
D03*
X8889998Y11059998D02*
D03*
X8749998Y10499998D02*
D03*
X8609998Y10779998D02*
D03*
X8539998Y10639998D02*
D03*
X8609998Y10499998D02*
D03*
X8399998Y11199998D02*
D03*
X8469998Y11059998D02*
D03*
Y10779998D02*
D03*
X8399998Y10639998D02*
D03*
X8469998Y10499998D02*
D03*
X8259998Y11199998D02*
D03*
X8329998Y11059998D02*
D03*
Y10779998D02*
D03*
X8259998Y10639998D02*
D03*
X8329998Y10499998D02*
D03*
X8119998Y11199998D02*
D03*
X8189998Y11059998D02*
D03*
Y10779998D02*
D03*
Y10499998D02*
D03*
X7839999Y11199998D02*
D03*
X7909998Y7419999D02*
D03*
X7839999Y7279999D02*
D03*
X7699999D02*
D03*
X7559999D02*
D03*
X7419999Y10639998D02*
D03*
Y10079998D02*
D03*
Y9239998D02*
D03*
Y7279999D02*
D03*
X7279999Y10639998D02*
D03*
X7349999Y10499998D02*
D03*
Y10219998D02*
D03*
X7279999Y10079998D02*
D03*
Y9239998D02*
D03*
X7349999Y9099998D02*
D03*
Y7979999D02*
D03*
X7279999Y7279999D02*
D03*
X7209999Y10499998D02*
D03*
X7139999Y9519998D02*
D03*
Y9239998D02*
D03*
X7209999Y9099998D02*
D03*
X7139999Y8959998D02*
D03*
Y8119998D02*
D03*
X7209999Y7979999D02*
D03*
X7139999Y7839999D02*
D03*
X7209999Y7419999D02*
D03*
X7139999Y7279999D02*
D03*
X6999999Y9519998D02*
D03*
X7069999Y9379998D02*
D03*
X6999999Y9239998D02*
D03*
X7069999Y9099998D02*
D03*
X6999999Y8959998D02*
D03*
X7069999Y8259998D02*
D03*
X6999999Y8119998D02*
D03*
X7069999Y7979999D02*
D03*
X6999999Y7839999D02*
D03*
X7069999Y7699999D02*
D03*
Y7419999D02*
D03*
X6999999Y7279999D02*
D03*
X6859999Y9519998D02*
D03*
X6929999Y9379998D02*
D03*
X6859999Y9239998D02*
D03*
X6929999Y9099998D02*
D03*
X6859999Y8959998D02*
D03*
X6929999Y8259998D02*
D03*
X6859999Y8119998D02*
D03*
X6929999Y7979999D02*
D03*
X6859999Y7839999D02*
D03*
X6929999Y7699999D02*
D03*
Y7419999D02*
D03*
X6859999Y7279999D02*
D03*
X6719999Y9519998D02*
D03*
X6789999Y9379998D02*
D03*
X6719999Y9239998D02*
D03*
X6789999Y9099998D02*
D03*
X6719999Y8959998D02*
D03*
Y8679998D02*
D03*
X6789999Y8259998D02*
D03*
X6719999Y8119998D02*
D03*
X6789999Y7979999D02*
D03*
X6719999Y7839999D02*
D03*
X6789999Y7699999D02*
D03*
Y7419999D02*
D03*
X6719999Y7279999D02*
D03*
X5109999Y11059998D02*
D03*
X4899999Y11199998D02*
D03*
X4969999Y11059998D02*
D03*
X4829999Y11339998D02*
D03*
X4759999Y11199998D02*
D03*
X4829999Y11059998D02*
D03*
X4619999Y11479998D02*
D03*
X4689999Y11339998D02*
D03*
X4619999Y11199998D02*
D03*
X4689999Y11059998D02*
D03*
X4549999Y11339998D02*
D03*
X4479999Y11199998D02*
D03*
X4549999Y11059998D02*
D03*
X4479999Y9799998D02*
D03*
X4549999Y9659998D02*
D03*
X4479999Y9519998D02*
D03*
X4549999Y9379998D02*
D03*
X4479999Y9239998D02*
D03*
X4549999Y7979999D02*
D03*
X4479999Y7839999D02*
D03*
X4549999Y7699999D02*
D03*
X4479999Y7559999D02*
D03*
X4549999Y7419999D02*
D03*
X4479999Y7279999D02*
D03*
X4409999Y11899998D02*
D03*
Y11339998D02*
D03*
X4339999Y11199998D02*
D03*
X4409999Y11059998D02*
D03*
X4339999Y9799998D02*
D03*
X4409999Y9659998D02*
D03*
X4339999Y9519998D02*
D03*
X4409999Y9379998D02*
D03*
X4339999Y9239998D02*
D03*
X4409999Y7979999D02*
D03*
X4339999Y7839999D02*
D03*
X4409999Y7699999D02*
D03*
X4339999Y7559999D02*
D03*
X4409999Y7419999D02*
D03*
X4339999Y7279999D02*
D03*
X4269999Y11339998D02*
D03*
X4199999Y11199998D02*
D03*
X4269999Y11059998D02*
D03*
X4199999Y9799998D02*
D03*
X4269999Y9659998D02*
D03*
Y9379998D02*
D03*
Y7979999D02*
D03*
X4199999Y7839999D02*
D03*
X4269999Y7699999D02*
D03*
Y7419999D02*
D03*
X4059999Y11479998D02*
D03*
X4129999Y11339998D02*
D03*
X4059999Y11199998D02*
D03*
X4129999Y11059998D02*
D03*
X4059999Y9799998D02*
D03*
X4129999Y9659998D02*
D03*
Y7979999D02*
D03*
X4059999Y7839999D02*
D03*
X3919999Y11479998D02*
D03*
X3989999Y11339998D02*
D03*
X3919999Y11199998D02*
D03*
X3989999Y11059998D02*
D03*
X3919999Y9799998D02*
D03*
X3989999Y9659998D02*
D03*
X3919999Y9519998D02*
D03*
X3989999Y9379998D02*
D03*
X3919999Y9239998D02*
D03*
X3989999Y7979999D02*
D03*
X3919999Y7839999D02*
D03*
X3989999Y7699999D02*
D03*
X3919999Y7559999D02*
D03*
X3989999Y7419999D02*
D03*
X3919999Y7279999D02*
D03*
X3779999Y11479998D02*
D03*
X3849999Y11339998D02*
D03*
X3779999Y11199998D02*
D03*
X3849999Y11059998D02*
D03*
X3779999Y9799998D02*
D03*
X3849999Y9659998D02*
D03*
X3779999Y9519998D02*
D03*
X3849999Y9379998D02*
D03*
X3779999Y9239998D02*
D03*
X3849999Y7979999D02*
D03*
X3779999Y7839999D02*
D03*
X3849999Y7699999D02*
D03*
X3779999Y7559999D02*
D03*
X3849999Y7419999D02*
D03*
X3779999Y7279999D02*
D03*
X3639999Y11479998D02*
D03*
X3709999Y11339998D02*
D03*
X3639999Y11199998D02*
D03*
X3709999Y11059998D02*
D03*
X3639999Y9799998D02*
D03*
X3709999Y9659998D02*
D03*
Y7979999D02*
D03*
X3639999Y7839999D02*
D03*
X3709999Y7699999D02*
D03*
X3499999Y11479998D02*
D03*
X3569999Y11339998D02*
D03*
X3499999Y11199998D02*
D03*
X3569999Y11059998D02*
D03*
X3499999Y9799998D02*
D03*
X3569999Y9659998D02*
D03*
X3499999Y9519998D02*
D03*
Y9239998D02*
D03*
X3569999Y7979999D02*
D03*
X3499999Y7839999D02*
D03*
Y7559999D02*
D03*
Y7279999D02*
D03*
X3359999Y11479998D02*
D03*
X3429999Y11339998D02*
D03*
X3359999Y11199998D02*
D03*
X3429999Y11059998D02*
D03*
Y9659998D02*
D03*
Y9379998D02*
D03*
Y9099998D02*
D03*
Y7979999D02*
D03*
X3359999Y7839999D02*
D03*
X3429999Y7699999D02*
D03*
X3359999Y7559999D02*
D03*
X3429999Y7419999D02*
D03*
X3359999Y7279999D02*
D03*
X3219999Y11479998D02*
D03*
X3289999Y11339998D02*
D03*
X3219999Y11199998D02*
D03*
X3289999Y11059998D02*
D03*
Y7979999D02*
D03*
X3219999Y7839999D02*
D03*
X3289999Y7699999D02*
D03*
X3219999Y7559999D02*
D03*
X3289999Y7419999D02*
D03*
X3219999Y7279999D02*
D03*
X3079999Y11479998D02*
D03*
X3149999Y11339998D02*
D03*
X3079999Y11199998D02*
D03*
X3149999Y11059998D02*
D03*
Y7979999D02*
D03*
X3079999Y7839999D02*
D03*
X3149999Y7699999D02*
D03*
X3079999Y7559999D02*
D03*
X3149999Y7419999D02*
D03*
X3079999Y7279999D02*
D03*
X2939999Y11479998D02*
D03*
X3009999Y11339998D02*
D03*
X2939999Y11199998D02*
D03*
X3009999Y11059998D02*
D03*
Y7979999D02*
D03*
X2939999Y7839999D02*
D03*
X3009999Y7699999D02*
D03*
X2939999Y7559999D02*
D03*
X3009999Y7419999D02*
D03*
X2939999Y7279999D02*
D03*
X2799999Y11199998D02*
D03*
X2869999Y11059998D02*
D03*
Y7979999D02*
D03*
X2799999Y7839999D02*
D03*
X2869999Y7699999D02*
D03*
X2799999Y7559999D02*
D03*
X2869999Y7419999D02*
D03*
X2799999Y7279999D02*
D03*
X2660000Y11199998D02*
D03*
X2729999Y11059998D02*
D03*
Y7979999D02*
D03*
X2660000Y7839999D02*
D03*
X2729999Y7699999D02*
D03*
X2660000Y7559999D02*
D03*
X2729999Y7419999D02*
D03*
X2660000Y7279999D02*
D03*
X3441700Y8801100D02*
D03*
X3581400D02*
D03*
X3441700Y8686800D02*
D03*
X3581400D02*
D03*
Y8585200D02*
D03*
X3441700D02*
D03*
X3581400Y8382000D02*
D03*
X3441700D02*
D03*
X3581400Y8280400D02*
D03*
X3441700D02*
D03*
Y8178800D02*
D03*
X3581400D02*
D03*
X3860800D02*
D03*
X3721100D02*
D03*
Y8280400D02*
D03*
X3860800D02*
D03*
X3721100Y8382000D02*
D03*
X3860800D02*
D03*
X3721100Y8585200D02*
D03*
X3860800D02*
D03*
Y8686800D02*
D03*
X3721100D02*
D03*
X3860800Y8801100D02*
D03*
X3721100D02*
D03*
X4140200Y8178800D02*
D03*
X4000500D02*
D03*
Y8280400D02*
D03*
X4140200D02*
D03*
X4000500Y8382000D02*
D03*
X4140200D02*
D03*
X4000500Y8585200D02*
D03*
X4140200D02*
D03*
Y8686800D02*
D03*
X4000500D02*
D03*
X4140200Y8801100D02*
D03*
X4000500D02*
D03*
X4279900D02*
D03*
Y8686800D02*
D03*
Y8585200D02*
D03*
Y8382000D02*
D03*
Y8280400D02*
D03*
Y8178800D02*
D03*
Y8483600D02*
D03*
X4140200D02*
D03*
X4000500D02*
D03*
X3581400D02*
D03*
X3441700D02*
D03*
X3721100D02*
D03*
X3860800D02*
D03*
Y10388600D02*
D03*
X3721100D02*
D03*
X3441700D02*
D03*
X3581400D02*
D03*
X4000500D02*
D03*
X4140200D02*
D03*
X4279900D02*
D03*
Y10083800D02*
D03*
Y10185400D02*
D03*
Y10287000D02*
D03*
Y10490200D02*
D03*
Y10591800D02*
D03*
Y10706100D02*
D03*
X4000500D02*
D03*
X4140200D02*
D03*
X4000500Y10591800D02*
D03*
X4140200D02*
D03*
Y10490200D02*
D03*
X4000500D02*
D03*
X4140200Y10287000D02*
D03*
X4000500D02*
D03*
X4140200Y10185400D02*
D03*
X4000500D02*
D03*
Y10083800D02*
D03*
X4140200D02*
D03*
X3721100Y10706100D02*
D03*
X3860800D02*
D03*
X3721100Y10591800D02*
D03*
X3860800D02*
D03*
Y10490200D02*
D03*
X3721100D02*
D03*
X3860800Y10287000D02*
D03*
X3721100D02*
D03*
X3860800Y10185400D02*
D03*
X3721100D02*
D03*
Y10083800D02*
D03*
X3860800D02*
D03*
X3581400D02*
D03*
X3441700D02*
D03*
Y10185400D02*
D03*
X3581400D02*
D03*
X3441700Y10287000D02*
D03*
X3581400D02*
D03*
X3441700Y10490200D02*
D03*
X3581400D02*
D03*
Y10591800D02*
D03*
X3441700D02*
D03*
X3581400Y10706100D02*
D03*
X3441700D02*
D03*
X5995002Y10560003D02*
D03*
X9021300Y11747500D02*
D03*
X9131300D02*
D03*
X11385003Y11880004D02*
D03*
X11330004Y11770004D02*
D03*
X11385003Y11660004D02*
D03*
X11275003D02*
D03*
X11165003D02*
D03*
X11055003D02*
D03*
X9185003D02*
D03*
X9075003D02*
D03*
X8965003D02*
D03*
X7150002Y11330004D02*
D03*
Y11110003D02*
D03*
Y10890003D02*
D03*
X7040002Y11330004D02*
D03*
X7095002Y11220003D02*
D03*
X7040002Y11110003D02*
D03*
X7095002Y11000003D02*
D03*
X7040002Y10890003D02*
D03*
X7095002Y10780003D02*
D03*
X7040002Y10670003D02*
D03*
X6930002Y11330004D02*
D03*
X6985002Y11220003D02*
D03*
X6930002Y11110003D02*
D03*
X6985002Y11000003D02*
D03*
X6930002Y10890003D02*
D03*
X6985002Y10780003D02*
D03*
X6930002Y10670003D02*
D03*
X6820002Y11330004D02*
D03*
X6875002Y11220003D02*
D03*
X6820002Y11110003D02*
D03*
X6875002Y11000003D02*
D03*
X6820002Y10890003D02*
D03*
X6875002Y10780003D02*
D03*
X6820002Y10670003D02*
D03*
X6710002Y11330004D02*
D03*
X6765002Y11220003D02*
D03*
X6710002Y11110003D02*
D03*
X6765002Y11000003D02*
D03*
X6710002Y10890003D02*
D03*
X6765002Y10780003D02*
D03*
X6710002Y10670003D02*
D03*
X6600002Y11330004D02*
D03*
X6655002Y11220003D02*
D03*
X6600002Y11110003D02*
D03*
X6655002Y11000003D02*
D03*
X6600002Y10890003D02*
D03*
X6655002Y10780003D02*
D03*
X6600002Y10670003D02*
D03*
X6490002Y11330004D02*
D03*
X6545002Y11220003D02*
D03*
X6490002Y11110003D02*
D03*
X6545002Y11000003D02*
D03*
X6490002Y10890003D02*
D03*
X6545002Y10780003D02*
D03*
X6490002Y10670003D02*
D03*
X6380002Y11330004D02*
D03*
X6435002Y11220003D02*
D03*
X6380002Y10890003D02*
D03*
X6435002Y10780003D02*
D03*
X6380002Y10670003D02*
D03*
X6270002Y11330004D02*
D03*
X6325002Y11220003D02*
D03*
X6270002Y10890003D02*
D03*
X6325002Y10780003D02*
D03*
X6270002Y10670003D02*
D03*
X6160002Y11330004D02*
D03*
X6215002Y11220003D02*
D03*
X6160002Y11110003D02*
D03*
X6215002Y11000003D02*
D03*
X6160002Y10890003D02*
D03*
X6215002Y10780003D02*
D03*
X6160002Y10670003D02*
D03*
X6050002Y11330004D02*
D03*
X6105002Y11220003D02*
D03*
X6050002Y11110003D02*
D03*
X6105002Y11000003D02*
D03*
X6050002Y10890003D02*
D03*
X6105002Y10780003D02*
D03*
X6050002Y10670003D02*
D03*
Y10450003D02*
D03*
X8711138Y7855776D02*
D03*
X10436232Y8228466D02*
D03*
D104*
X8559800Y8585200D02*
D03*
X7568647Y7567655D02*
D03*
X7767246Y7553985D02*
D03*
X4787900Y8559800D02*
D03*
X4483100Y10261600D02*
D03*
X7156082Y9772282D02*
D03*
X7150100Y8559800D02*
D03*
X4611446Y12190654D02*
D03*
X4687646D02*
D03*
X4713046Y12254154D02*
D03*
X4649546D02*
D03*
X4573346D02*
D03*
X9742246Y9168054D02*
D03*
X8934585Y9197842D02*
D03*
X8616386Y9516040D02*
D03*
X8934585Y9834238D02*
D03*
X9252783Y9516040D02*
D03*
X6985000Y10541000D02*
D03*
X6853312Y10118943D02*
D03*
X9055904Y9990542D02*
D03*
X9106986Y9954185D02*
D03*
X8890000Y10071100D02*
D03*
X8790120Y9978517D02*
D03*
X8153800Y9613900D02*
D03*
X9195720Y9863603D02*
D03*
X8291659Y8041624D02*
D03*
X6765801Y7545134D02*
D03*
X6764397Y8436503D02*
D03*
Y8754003D02*
D03*
X6743700Y9639300D02*
D03*
X5613400Y10883900D02*
D03*
X5600700Y9004300D02*
D03*
X3721100Y7200900D02*
D03*
X3695700Y9067800D02*
D03*
X7135752Y7544685D02*
D03*
X7605877Y8805063D02*
D03*
X7136250Y8751450D02*
D03*
X7353300Y9577437D02*
D03*
X7136201Y9642339D02*
D03*
Y8434203D02*
D03*
X7353300Y8369300D02*
D03*
X10790214Y10877969D02*
D03*
X7734300Y8382061D02*
D03*
X7797800D02*
D03*
X7861300D02*
D03*
X7899400Y8318561D02*
D03*
Y8255061D02*
D03*
Y9461500D02*
D03*
Y9525000D02*
D03*
X7861300Y9588500D02*
D03*
X7797800D02*
D03*
X7734300D02*
D03*
X9386752Y8892099D02*
D03*
X10338245Y9039349D02*
D03*
Y9217149D02*
D03*
X10341034Y9395719D02*
D03*
X8724900Y10236200D02*
D03*
X8128000Y9182100D02*
D03*
X5511800Y11557000D02*
D03*
X9067800Y8255000D02*
D03*
X9231808Y7965696D02*
D03*
X9358808Y7964604D02*
D03*
X8470900Y9702800D02*
D03*
X8407400Y9766300D02*
D03*
X8458200Y9829800D02*
D03*
X7683500Y10922000D02*
D03*
X7620000D02*
D03*
X7556500D02*
D03*
X7493000D02*
D03*
X7454900Y10871200D02*
D03*
X7518400D02*
D03*
X7581900D02*
D03*
X7645400D02*
D03*
X9296400Y8547100D02*
D03*
X8704677Y9116813D02*
D03*
X9670053Y7964537D02*
D03*
X9766300Y8407400D02*
D03*
X9383979Y9348553D02*
D03*
X10380532Y8875530D02*
D03*
X9489020Y9747842D02*
D03*
X9601200Y8661400D02*
D03*
X8013700Y8788400D02*
D03*
X9975203Y9391112D02*
D03*
X7707404Y10872384D02*
D03*
X8775700Y10909300D02*
D03*
X9144000Y11455400D02*
D03*
X9055100Y8724900D02*
D03*
X9017000Y8763000D02*
D03*
X9537700Y9613900D02*
D03*
X9588500Y9652000D02*
D03*
X8128000D02*
D03*
X9715500Y11036300D02*
D03*
X9652000D02*
D03*
X9918700Y10452100D02*
D03*
X9855200D02*
D03*
X9791700D02*
D03*
X9893300Y10515600D02*
D03*
X9817100D02*
D03*
X9918700Y10579100D02*
D03*
X9855200D02*
D03*
X9791700D02*
D03*
X9893300Y10642600D02*
D03*
X9817100D02*
D03*
X9918700Y10706100D02*
D03*
X9855200D02*
D03*
X9791700D02*
D03*
X9515144Y11277052D02*
D03*
X9300965Y11058249D02*
D03*
%TF.MD5,c74d0c8b8c1f7597c917aca69b0ec28f*%
M02*
