%TF.GenerationSoftware,Altium Limited,Altium Designer,24.6.1 (21)*%
G04 Layer_Color=16711935*
%FSLAX45Y45*%
%MOMM*%
%TF.SameCoordinates,FD53202A-208C-403B-AAB2-15DF5564725B*%
%TF.FilePolarity,Negative*%
%TF.FileFunction,Soldermask,Bot*%
%TF.Part,Single*%
G01*
G75*
%TA.AperFunction,SMDPad,CuDef*%
%ADD73R,1.15320X1.05320*%
%ADD76R,1.60320X1.50320*%
%ADD80R,1.05320X1.15320*%
%TA.AperFunction,ComponentPad*%
%ADD89C,2.30320*%
%ADD90R,2.30320X2.30320*%
%ADD91C,1.40320*%
%ADD92R,1.40320X1.40320*%
%ADD93C,1.85320*%
%ADD94C,4.92820*%
%ADD95C,1.70320*%
%ADD96R,1.70320X1.70320*%
G36*
X8432800Y11798300D02*
X6464300D01*
Y12179300D01*
X8432800D01*
Y11798300D01*
D02*
G37*
G36*
X10572750D02*
X8604250D01*
Y12179300D01*
X10572750D01*
Y11798300D01*
D02*
G37*
D73*
X11508500Y8505100D02*
D03*
Y8345100D02*
D03*
X11671300Y8503900D02*
D03*
Y8343900D02*
D03*
X11499790Y8921388D02*
D03*
Y8761388D02*
D03*
X11664890Y8921388D02*
D03*
Y8761388D02*
D03*
D76*
X3105518Y9219159D02*
D03*
Y9059159D02*
D03*
D80*
X10078160Y9039349D02*
D03*
X10238160D02*
D03*
X10078160Y9217149D02*
D03*
X10238160D02*
D03*
X10078160Y9398508D02*
D03*
X10238160D02*
D03*
D89*
X11493500Y11768900D02*
D03*
X2781300Y11421300D02*
D03*
Y8881300D02*
D03*
D90*
X11493500Y11268900D02*
D03*
X2781300Y11921300D02*
D03*
Y9381300D02*
D03*
D91*
X6350000Y11578400D02*
D03*
D92*
Y11078400D02*
D03*
D93*
X11031700Y9612700D02*
D03*
Y9335700D02*
D03*
Y9058700D02*
D03*
Y8781700D02*
D03*
Y8504700D02*
D03*
X11315700Y9474200D02*
D03*
Y9197200D02*
D03*
Y8920200D02*
D03*
Y8643200D02*
D03*
D94*
X11173700Y10308200D02*
D03*
Y7809200D02*
D03*
D95*
X8521700Y8343900D02*
D03*
Y8089900D02*
D03*
Y7835900D02*
D03*
Y7581900D02*
D03*
D96*
Y7327900D02*
D03*
%TF.MD5,35cc2dbe842629397f9931a21604e4f5*%
M02*
