%TF.GenerationSoftware,Altium Limited,Altium Designer,24.6.1 (21)*%
G04 Layer_Physical_Order=1*
G04 Layer_Color=255*
%FSLAX45Y45*%
%MOMM*%
%TF.SameCoordinates,FD53202A-208C-403B-AAB2-15DF5564725B*%
%TF.FilePolarity,Positive*%
%TF.FileFunction,Copper,L1,Top,Signal*%
%TF.Part,Single*%
G01*
G75*
%TA.AperFunction,SMDPad,CuDef*%
%ADD10R,3.35000X2.40000*%
%ADD11R,1.30000X1.40000*%
%ADD12R,3.40000X1.80000*%
G04:AMPARAMS|DCode=13|XSize=0.9mm|YSize=0.8mm|CornerRadius=0mm|HoleSize=0mm|Usage=FLASHONLY|Rotation=225.000|XOffset=0mm|YOffset=0mm|HoleType=Round|Shape=Rectangle|*
%AMROTATEDRECTD13*
4,1,4,0.03535,0.60104,0.60104,0.03535,-0.03535,-0.60104,-0.60104,-0.03535,0.03535,0.60104,0.0*
%
%ADD13ROTATEDRECTD13*%

G04:AMPARAMS|DCode=14|XSize=0.87mm|YSize=0.27mm|CornerRadius=0.03375mm|HoleSize=0mm|Usage=FLASHONLY|Rotation=315.000|XOffset=0mm|YOffset=0mm|HoleType=Round|Shape=RoundedRectangle|*
%AMROUNDEDRECTD14*
21,1,0.87000,0.20250,0,0,315.0*
21,1,0.80250,0.27000,0,0,315.0*
1,1,0.06750,0.21213,-0.35532*
1,1,0.06750,-0.35532,0.21213*
1,1,0.06750,-0.21213,0.35532*
1,1,0.06750,0.35532,-0.21213*
%
%ADD14ROUNDEDRECTD14*%
G04:AMPARAMS|DCode=15|XSize=0.87mm|YSize=0.27mm|CornerRadius=0.03375mm|HoleSize=0mm|Usage=FLASHONLY|Rotation=225.000|XOffset=0mm|YOffset=0mm|HoleType=Round|Shape=RoundedRectangle|*
%AMROUNDEDRECTD15*
21,1,0.87000,0.20250,0,0,225.0*
21,1,0.80250,0.27000,0,0,225.0*
1,1,0.06750,-0.35532,-0.21213*
1,1,0.06750,0.21213,0.35532*
1,1,0.06750,0.35532,0.21213*
1,1,0.06750,-0.21213,-0.35532*
%
%ADD15ROUNDEDRECTD15*%
%ADD16P,7.91960X4X270.0*%
G04:AMPARAMS|DCode=17|XSize=0.9mm|YSize=0.8mm|CornerRadius=0mm|HoleSize=0mm|Usage=FLASHONLY|Rotation=315.000|XOffset=0mm|YOffset=0mm|HoleType=Round|Shape=Rectangle|*
%AMROTATEDRECTD17*
4,1,4,-0.60104,0.03535,-0.03535,0.60104,0.60104,-0.03535,0.03535,-0.60104,-0.60104,0.03535,0.0*
%
%ADD17ROTATEDRECTD17*%

G04:AMPARAMS|DCode=18|XSize=0.95mm|YSize=0.85mm|CornerRadius=0mm|HoleSize=0mm|Usage=FLASHONLY|Rotation=45.000|XOffset=0mm|YOffset=0mm|HoleType=Round|Shape=Rectangle|*
%AMROTATEDRECTD18*
4,1,4,-0.03535,-0.63640,-0.63640,-0.03535,0.03535,0.63640,0.63640,0.03535,-0.03535,-0.63640,0.0*
%
%ADD18ROTATEDRECTD18*%

%ADD19R,0.90000X0.95000*%
%ADD20R,1.52500X0.65000*%
%ADD21R,0.80000X0.90000*%
%ADD22R,0.90000X0.80000*%
%ADD23R,0.95000X0.85000*%
%ADD24R,0.60000X1.20000*%
%ADD25R,2.20000X2.15000*%
%ADD26R,1.40000X1.30000*%
%ADD27R,0.60000X1.30000*%
%ADD28R,1.30000X1.80000*%
%ADD29R,1.80000X1.30000*%
%ADD30R,0.85000X0.95000*%
%ADD31R,2.40000X1.90000*%
G04:AMPARAMS|DCode=32|XSize=1.97mm|YSize=0.6mm|CornerRadius=0.075mm|HoleSize=0mm|Usage=FLASHONLY|Rotation=270.000|XOffset=0mm|YOffset=0mm|HoleType=Round|Shape=RoundedRectangle|*
%AMROUNDEDRECTD32*
21,1,1.97000,0.45000,0,0,270.0*
21,1,1.82000,0.60000,0,0,270.0*
1,1,0.15000,-0.22500,-0.91000*
1,1,0.15000,-0.22500,0.91000*
1,1,0.15000,0.22500,0.91000*
1,1,0.15000,0.22500,-0.91000*
%
%ADD32ROUNDEDRECTD32*%
%ADD33R,10.48000X8.12000*%
%ADD34R,0.94000X4.05000*%
%ADD35R,2.28600X1.39700*%
%ADD36R,6.18000X5.69000*%
%ADD37R,1.00000X0.60000*%
%ADD38R,0.65000X1.52500*%
%TA.AperFunction,Conductor*%
%ADD39C,0.25400*%
%ADD40C,0.30480*%
%ADD41C,0.12700*%
%ADD42C,0.50800*%
%TA.AperFunction,ComponentPad*%
%ADD43C,2.10000*%
%ADD44R,2.10000X2.10000*%
%ADD45C,1.20000*%
%ADD46R,1.20000X1.20000*%
%ADD47C,1.65000*%
%ADD48C,4.72500*%
%ADD49C,1.50000*%
%ADD50R,1.50000X1.50000*%
%TA.AperFunction,ViaPad*%
%ADD51C,0.70000*%
%ADD52C,0.50000*%
%ADD53C,0.80000*%
G36*
X4800600Y12293600D02*
Y12026900D01*
X4787900Y12014200D01*
X4279900D01*
X4237600Y12056500D01*
Y12289400D01*
X4254500Y12306300D01*
X4787900D01*
X4800600Y12293600D01*
D02*
G37*
G36*
X11797802Y7150598D02*
X3728835D01*
X3728599Y7163200D01*
X3742455Y7168939D01*
X3753061Y7179545D01*
X3758800Y7193401D01*
Y7208399D01*
X3753061Y7222255D01*
X3742455Y7232861D01*
X3728599Y7238600D01*
X3713601D01*
X3699745Y7232861D01*
X3693682Y7226798D01*
X3668327D01*
X3659158Y7235967D01*
X3664018Y7247700D01*
X3679200D01*
Y7678100D01*
X3559800D01*
Y7247700D01*
X3593602D01*
Y7239000D01*
X3595574Y7229089D01*
X3601188Y7220688D01*
X3639288Y7182588D01*
X3647689Y7176974D01*
X3657600Y7175002D01*
X3693682D01*
X3699745Y7168939D01*
X3713601Y7163200D01*
X3713365Y7150598D01*
X2565898D01*
Y8088459D01*
X2577631Y8093320D01*
X2630375Y8040575D01*
X2647179Y8029347D01*
X2667000Y8025405D01*
X4483100D01*
X4502921Y8029347D01*
X4519725Y8040575D01*
X4542603Y8063454D01*
X4609105D01*
Y7289800D01*
X4613047Y7269979D01*
X4624275Y7253175D01*
X4662375Y7215075D01*
X4679179Y7203847D01*
X4699000Y7199905D01*
X6438900D01*
X6458721Y7203847D01*
X6475525Y7215075D01*
X6475525Y7215076D01*
X6615225Y7354775D01*
X6626453Y7371579D01*
X6630395Y7391400D01*
Y9694046D01*
X6678725Y9742375D01*
X6689953Y9759178D01*
X6693895Y9779000D01*
Y10147300D01*
X6693322Y10150183D01*
X6701379Y10160000D01*
X6727771D01*
Y10015428D01*
X6813171D01*
Y10062230D01*
X6827069D01*
X6836980Y10064201D01*
X6845382Y10069815D01*
X6856810Y10081243D01*
X6860811D01*
X6874667Y10086983D01*
X6885272Y10097588D01*
X6889000Y10106588D01*
X6901700Y10104061D01*
Y10070600D01*
X6961900D01*
Y10138499D01*
Y10206400D01*
X6901700D01*
Y10133826D01*
X6889000Y10131299D01*
X6885272Y10140299D01*
X6874667Y10150904D01*
X6860811Y10156643D01*
X6845813D01*
X6831956Y10150904D01*
X6825871Y10144819D01*
X6813171Y10150079D01*
Y10272603D01*
X6914400D01*
Y10243300D01*
X7034800D01*
Y10273802D01*
X7058020D01*
X7067000Y10264822D01*
X7067000Y10247000D01*
X7057158Y10240100D01*
X7054300D01*
Y10216283D01*
X7047500Y10206400D01*
X7041600Y10206400D01*
X6987300D01*
Y10138499D01*
Y10070600D01*
X7047500D01*
Y10099417D01*
X7054300Y10109300D01*
X7060200Y10109300D01*
X7112000D01*
Y10174699D01*
X7124700D01*
Y10187399D01*
X7195100D01*
Y10240100D01*
X7192242D01*
X7182400Y10247000D01*
X7182400Y10252800D01*
Y10273802D01*
X8650673D01*
X8687200Y10237275D01*
Y10228701D01*
X8692939Y10214845D01*
X8703545Y10204239D01*
X8717401Y10198500D01*
X8732399D01*
X8746255Y10204239D01*
X8756861Y10214845D01*
X8762600Y10228701D01*
Y10243699D01*
X8756861Y10257555D01*
X8746255Y10268161D01*
X8732399Y10273900D01*
X8723825D01*
X8679712Y10318012D01*
X8671311Y10323626D01*
X8661400Y10325598D01*
X7182400D01*
Y10352400D01*
X7067000D01*
Y10325598D01*
X7034800D01*
Y10353700D01*
X6914400D01*
Y10324398D01*
X6813171D01*
Y10410828D01*
X6730871D01*
Y10423528D01*
X6718718D01*
Y10445200D01*
X6770000D01*
Y10502900D01*
X6704600D01*
Y10528300D01*
X6770000D01*
Y10565405D01*
X6940556D01*
X6949042Y10552705D01*
X6947300Y10548499D01*
Y10533501D01*
X6953039Y10519645D01*
X6963645Y10509039D01*
X6977501Y10503300D01*
X6992499D01*
X7006355Y10509039D01*
X7016961Y10519645D01*
X7022700Y10533501D01*
Y10548499D01*
X7020958Y10552705D01*
X7029444Y10565405D01*
X7112000D01*
X7131821Y10569347D01*
X7148625Y10580575D01*
X7237525Y10669475D01*
X7248753Y10686279D01*
X7252695Y10706100D01*
Y11379200D01*
X7248753Y11399021D01*
X7237525Y11415825D01*
X7174025Y11479325D01*
X7157221Y11490553D01*
X7137400Y11494495D01*
X6400872D01*
X6397470Y11507195D01*
X6402437Y11510063D01*
X6418337Y11525963D01*
X6419744Y11528400D01*
X6350000D01*
X6280256D01*
X6281663Y11525963D01*
X6297563Y11510063D01*
X6302530Y11507195D01*
X6299128Y11494495D01*
X5956300D01*
X5936479Y11490553D01*
X5919675Y11479325D01*
X5881576Y11441225D01*
X5881575Y11441225D01*
X5870347Y11424421D01*
X5866405Y11404600D01*
Y10934700D01*
X5115150D01*
X5091225Y10958625D01*
X5074421Y10969853D01*
X5054600Y10973795D01*
X2692400D01*
X2672579Y10969853D01*
X2655775Y10958625D01*
X2577631Y10880480D01*
X2565898Y10885341D01*
Y11657159D01*
X2577631Y11662020D01*
X2592275Y11647375D01*
X2609079Y11636147D01*
X2628900Y11632205D01*
X4025900D01*
X4030903Y11633200D01*
X4241800D01*
Y11664950D01*
X4338703D01*
Y11606800D01*
X4314800D01*
Y11486400D01*
X4425200D01*
Y11606800D01*
X4390498D01*
Y11664950D01*
X4491600D01*
Y11721602D01*
X4521200D01*
X4531111Y11723574D01*
X4539512Y11729188D01*
X4601028Y11790704D01*
X4606642Y11799105D01*
X4608614Y11809016D01*
Y11843163D01*
X4642916D01*
Y11953563D01*
X4522516D01*
Y11843163D01*
X4556818D01*
Y11819743D01*
X4510473Y11773398D01*
X4491600D01*
Y11830050D01*
X4241800D01*
Y12016266D01*
X4253533Y12021126D01*
X4270180Y12004480D01*
X4279900Y12000453D01*
X4279901Y12000454D01*
X4787899D01*
X4787900Y12000453D01*
X4797621Y12004479D01*
X4797621Y12004481D01*
X4810320Y12017180D01*
X4814347Y12026900D01*
X4814346Y12026901D01*
Y12293599D01*
X4814347Y12293600D01*
X4810321Y12303321D01*
X4810319Y12303321D01*
X4797620Y12316020D01*
X4787900Y12320047D01*
X4787899Y12320046D01*
X4254501D01*
X4254500Y12320047D01*
X4242228Y12327699D01*
X4241800Y12328533D01*
Y12356602D01*
X11797802D01*
Y7150598D01*
D02*
G37*
G36*
X4029985Y12282592D02*
Y11688085D01*
X4025900Y11684000D01*
X2628900D01*
X2590800Y11722100D01*
Y12255500D01*
X2628900Y12293600D01*
X4018976Y12293600D01*
X4029985Y12282592D01*
D02*
G37*
G36*
X7200900Y11379200D02*
Y10706100D01*
X7112000Y10617200D01*
X6654800D01*
X6624299Y10586699D01*
Y10586000D01*
X6592300D01*
Y10515600D01*
Y10445200D01*
X6624299D01*
Y10281899D01*
X6616700Y10274300D01*
X6540500D01*
X6438900Y10375900D01*
X5956300Y10375900D01*
X5918200Y10414000D01*
X5918200Y11404600D01*
X5956300Y11442700D01*
X7137400D01*
X7200900Y11379200D01*
D02*
G37*
G36*
X4596405Y9169400D02*
X4600347Y9149579D01*
X4611575Y9132775D01*
X4634454Y9109897D01*
Y9030695D01*
X3729872D01*
X3724611Y9043395D01*
X3727661Y9046445D01*
X3733400Y9060301D01*
Y9075299D01*
X3727661Y9089155D01*
X3717055Y9099761D01*
X3703199Y9105500D01*
X3688201D01*
X3674345Y9099761D01*
X3672989Y9098404D01*
X3663620D01*
X3647425Y9114600D01*
X3650292Y9127300D01*
X3679200D01*
Y9557700D01*
X3559800D01*
Y9127300D01*
X3593602D01*
Y9105900D01*
X3595574Y9095989D01*
X3601188Y9087588D01*
X3634581Y9054194D01*
X3642983Y9048581D01*
X3652893Y9046609D01*
X3654374D01*
X3656521Y9043395D01*
X3649733Y9030695D01*
X3412354D01*
X3364025Y9079025D01*
X3347221Y9090253D01*
X3327400Y9094195D01*
X2667000D01*
X2647179Y9090253D01*
X2630375Y9079025D01*
X2577631Y9026280D01*
X2565898Y9031141D01*
Y9218759D01*
X2577631Y9223620D01*
X2617675Y9183575D01*
X2634479Y9172347D01*
X2654300Y9168405D01*
X3276600D01*
X3296421Y9172347D01*
X3313225Y9183575D01*
X3338625Y9208975D01*
X3349852Y9225779D01*
X3353795Y9245600D01*
X3353795Y9909946D01*
X3361554Y9917705D01*
X4483099D01*
X4483100Y9917705D01*
X4502921Y9921647D01*
X4519725Y9932875D01*
X4542767Y9955917D01*
X4596405D01*
Y9169400D01*
D02*
G37*
G36*
X5080000Y10896600D02*
Y10375900D01*
X5041900Y10337800D01*
X4851400D01*
X4483100Y9969500D01*
X3340100D01*
X3302000Y9931400D01*
X3302000Y9245600D01*
X3276600Y9220200D01*
X2654300D01*
X2565898Y9308602D01*
Y10795498D01*
X2692400Y10922000D01*
X5054600D01*
X5080000Y10896600D01*
D02*
G37*
G36*
X3390900Y8978900D02*
X5016500D01*
X5080000Y8915400D01*
Y8521700D01*
X5016500Y8458200D01*
X4864100D01*
X4483100Y8077200D01*
X2667000D01*
X2565898Y8178302D01*
Y8941298D01*
X2667000Y9042400D01*
X3327400D01*
X3390900Y8978900D01*
D02*
G37*
G36*
X6642100Y10147300D02*
Y9779000D01*
X6578600Y9715500D01*
Y7391400D01*
X6438900Y7251700D01*
X4699000D01*
X4660900Y7289800D01*
Y8077200D01*
X4699000Y8115300D01*
X5753100D01*
X5854700Y8216900D01*
Y9017000D01*
X5753100Y9118600D01*
X4699000D01*
X4648200Y9169400D01*
Y10007600D01*
X4686300Y10045700D01*
X6477000D01*
X6527800Y10096500D01*
Y10147300D01*
X6538763Y10158263D01*
X6631137D01*
X6642100Y10147300D01*
D02*
G37*
%LPC*%
G36*
X10782100Y12185200D02*
X10659400D01*
Y12065000D01*
X10782100D01*
Y12185200D01*
D02*
G37*
G36*
X8775500D02*
X8652800D01*
Y12065000D01*
X8775500D01*
Y12185200D01*
D02*
G37*
G36*
X10782100Y12039600D02*
X10659400D01*
Y11919400D01*
X10782100D01*
Y12039600D01*
D02*
G37*
G36*
X8775500D02*
X8652800D01*
Y11919400D01*
X8775500D01*
Y12039600D01*
D02*
G37*
G36*
X4987100Y11783600D02*
X4924400D01*
Y11740900D01*
X4987100D01*
Y11783600D01*
D02*
G37*
G36*
X4899000D02*
X4836300D01*
Y11740900D01*
X4899000D01*
Y11783600D01*
D02*
G37*
G36*
X5155200Y11788800D02*
X5095000D01*
Y11733600D01*
X5155200D01*
Y11788800D01*
D02*
G37*
G36*
X5069600D02*
X5009400D01*
Y11733600D01*
X5069600D01*
Y11788800D01*
D02*
G37*
G36*
X4987100Y11715500D02*
X4924400D01*
Y11672800D01*
X4987100D01*
Y11715500D01*
D02*
G37*
G36*
X4899000D02*
X4836300D01*
Y11672800D01*
X4899000D01*
Y11715500D01*
D02*
G37*
G36*
X5155200Y11708200D02*
X5095000D01*
Y11653000D01*
X5155200D01*
Y11708200D01*
D02*
G37*
G36*
X5069600D02*
X5009400D01*
Y11653000D01*
X5069600D01*
Y11708200D01*
D02*
G37*
G36*
X6400000Y11648144D02*
Y11628400D01*
X6419744D01*
X6418337Y11630837D01*
X6402437Y11646737D01*
X6400000Y11648144D01*
D02*
G37*
G36*
X6300000D02*
X6297563Y11646737D01*
X6281663Y11630837D01*
X6280256Y11628400D01*
X6300000D01*
Y11648144D01*
D02*
G37*
G36*
X4774400Y11675900D02*
X4649000D01*
Y11659098D01*
X4548779D01*
X4538868Y11657126D01*
X4530467Y11651512D01*
X4515588Y11636633D01*
X4509974Y11628232D01*
X4508002Y11618321D01*
Y11606800D01*
X4474800D01*
Y11486400D01*
X4585200D01*
Y11606800D01*
X4597692Y11607302D01*
X4649000D01*
Y11590500D01*
X4774400D01*
Y11675900D01*
D02*
G37*
G36*
X5288800Y11619500D02*
X5178400D01*
Y11586798D01*
X5142500D01*
Y11616100D01*
X5022100D01*
Y11564098D01*
X4974400D01*
Y11580900D01*
X4849000D01*
Y11495500D01*
X4974400D01*
Y11512302D01*
X5022100D01*
Y11505700D01*
X5142500D01*
Y11535002D01*
X5178400D01*
Y11499100D01*
X5288800D01*
Y11619500D01*
D02*
G37*
G36*
X9537700Y12243795D02*
X9517879Y12239853D01*
X9501075Y12228625D01*
X9488375Y12215925D01*
X9477147Y12199121D01*
X9473205Y12179300D01*
Y11938001D01*
X9473205Y11938000D01*
X9477147Y11918179D01*
X9488375Y11901375D01*
X9501075Y11888675D01*
X9517879Y11877447D01*
X9537700Y11873505D01*
X9960746D01*
X10006605Y11827646D01*
Y11607800D01*
X10010547Y11587979D01*
X10021775Y11571175D01*
X10047175Y11545775D01*
X10063979Y11534547D01*
X10083800Y11530605D01*
X10108682D01*
X10111565Y11531178D01*
X10121382Y11523121D01*
Y11407160D01*
X10286782D01*
Y11416553D01*
X10390600D01*
Y11341600D01*
X10472900D01*
Y11328900D01*
X10515599D01*
Y11419299D01*
Y11509700D01*
X10472900D01*
Y11497000D01*
X10390600D01*
Y11494247D01*
X10286782D01*
Y11523121D01*
X10296599Y11531178D01*
X10299482Y11530605D01*
X10431963D01*
X10436318Y11531471D01*
X10440757Y11531357D01*
X10446134Y11533423D01*
X10451785Y11534547D01*
X10455477Y11537015D01*
X10459621Y11538607D01*
X10463798Y11542574D01*
X10468588Y11545775D01*
X10471055Y11549467D01*
X10474274Y11552525D01*
X10474565Y11552936D01*
X10483079Y11547247D01*
X10502900Y11543305D01*
X10668000Y11543305D01*
X11557000D01*
X11576821Y11547247D01*
X11593625Y11558475D01*
X11682525Y11647375D01*
X11693753Y11664179D01*
X11697695Y11684000D01*
Y11861800D01*
X11693753Y11881621D01*
X11682525Y11898425D01*
X11606325Y11974625D01*
X11589521Y11985853D01*
X11569700Y11989795D01*
X11353800D01*
X11333979Y11985853D01*
X11317175Y11974625D01*
X11179946Y11837395D01*
X10516595D01*
Y11919400D01*
X10634000D01*
Y12052300D01*
Y12185200D01*
X10511300D01*
Y12146544D01*
X10498600Y12142550D01*
X10412525Y12228625D01*
X10395721Y12239853D01*
X10375900Y12243795D01*
X9537701D01*
X9537700Y12243795D01*
D02*
G37*
G36*
X7518400D02*
X7498579Y12239853D01*
X7481775Y12228625D01*
X7469075Y12215925D01*
X7457847Y12199121D01*
X7453905Y12179300D01*
Y11938001D01*
X7453905Y11938000D01*
X7457847Y11918179D01*
X7469075Y11901375D01*
X7481775Y11888675D01*
X7498579Y11877447D01*
X7518400Y11873505D01*
X7941446D01*
X7987305Y11827646D01*
Y11607800D01*
X7991247Y11587979D01*
X8002475Y11571175D01*
X8027875Y11545775D01*
X8044679Y11534547D01*
X8064500Y11530605D01*
X8089382D01*
X8092265Y11531178D01*
X8102082Y11523121D01*
Y11419860D01*
X8267482D01*
Y11429253D01*
X8371300D01*
Y11354300D01*
X8453600D01*
Y11341600D01*
X8496299D01*
Y11431999D01*
Y11522400D01*
X8464546D01*
X8454992Y11524749D01*
X8454164Y11528174D01*
X8457430Y11537760D01*
X8469425Y11545775D01*
X8478618Y11554969D01*
X8490174Y11547247D01*
X8509995Y11543305D01*
X8636000Y11543305D01*
X8655821Y11547247D01*
X8672625Y11558475D01*
X8682854Y11568705D01*
X9283700D01*
X9303521Y11572647D01*
X9320325Y11583875D01*
X9333025Y11596575D01*
X9344252Y11613379D01*
X9348195Y11633200D01*
Y11772900D01*
X9344252Y11792722D01*
X9333025Y11809525D01*
X9282225Y11860325D01*
X9265421Y11871553D01*
X9245600Y11875495D01*
X8521700D01*
X8509995Y11873167D01*
X8497295Y11882602D01*
Y11909767D01*
X8504700Y11919400D01*
X8509995Y11919400D01*
X8627400D01*
Y12052300D01*
Y12185200D01*
X8504700D01*
Y12127058D01*
X8500984Y12125703D01*
X8492000Y12124946D01*
X8482125Y12139725D01*
X8393225Y12228625D01*
X8376421Y12239853D01*
X8356600Y12243795D01*
X7518401D01*
X7518400Y12243795D01*
D02*
G37*
G36*
X5448800Y11619500D02*
X5338400D01*
Y11499100D01*
X5448800D01*
Y11531102D01*
X5484382D01*
X5490445Y11525039D01*
X5504301Y11519300D01*
X5519299D01*
X5533155Y11525039D01*
X5543761Y11535645D01*
X5549500Y11549501D01*
Y11564499D01*
X5543761Y11578355D01*
X5533155Y11588961D01*
X5519299Y11594700D01*
X5504301D01*
X5490445Y11588961D01*
X5484382Y11582898D01*
X5448800D01*
Y11619500D01*
D02*
G37*
G36*
X10948500Y11497100D02*
X10845800D01*
Y11419400D01*
X10948500D01*
Y11497100D01*
D02*
G37*
G36*
X10820400D02*
X10717700D01*
Y11419400D01*
X10820400D01*
Y11497100D01*
D02*
G37*
G36*
X8916500D02*
X8813800D01*
Y11419400D01*
X8916500D01*
Y11497100D01*
D02*
G37*
G36*
X8788400D02*
X8685700D01*
Y11419400D01*
X8788400D01*
Y11497100D01*
D02*
G37*
G36*
X10948500Y11394000D02*
X10845800D01*
Y11316300D01*
X10948500D01*
Y11394000D01*
D02*
G37*
G36*
X10820400D02*
X10717700D01*
Y11316300D01*
X10820400D01*
Y11394000D01*
D02*
G37*
G36*
X8916500D02*
X8813800D01*
Y11316300D01*
X8916500D01*
Y11394000D01*
D02*
G37*
G36*
X8788400D02*
X8685700D01*
Y11316300D01*
X8788400D01*
Y11394000D01*
D02*
G37*
G36*
X10090600Y11316800D02*
X10012899D01*
Y11214101D01*
X10090600D01*
Y11316800D01*
D02*
G37*
G36*
X9893300Y11672295D02*
X9537700D01*
X9517879Y11668353D01*
X9501075Y11657125D01*
X9437575Y11593625D01*
X9426347Y11576821D01*
X9422405Y11557000D01*
Y11208300D01*
X9415121D01*
Y11137900D01*
X9402421D01*
Y11125200D01*
X9337021D01*
Y11093469D01*
X9324321Y11088208D01*
X9322320Y11090209D01*
X9308464Y11095949D01*
X9293466D01*
X9279610Y11090209D01*
X9269004Y11079604D01*
X9263265Y11065748D01*
Y11050750D01*
X9269004Y11036893D01*
X9275923Y11029974D01*
Y10975400D01*
X9276421Y10972898D01*
Y10885400D01*
X9358721D01*
Y10872700D01*
X9401420D01*
Y10958101D01*
X9422399D01*
Y10896602D01*
X9422399Y10896601D01*
X9426342Y10876777D01*
X9426820Y10876062D01*
Y10872700D01*
X9429073D01*
X9437575Y10859975D01*
X9450275Y10847275D01*
X9460080Y10840724D01*
Y10825476D01*
X9450275Y10818925D01*
X9437575Y10806225D01*
X9426347Y10789421D01*
X9422405Y10769600D01*
Y10585600D01*
X9422978Y10582717D01*
X9414921Y10572900D01*
X9307600D01*
Y10516098D01*
X9207500D01*
X9197589Y10514126D01*
X9189188Y10508512D01*
X9011388Y10330712D01*
X9005774Y10322311D01*
X9003802Y10312400D01*
Y10203489D01*
X9005774Y10193579D01*
X9011388Y10185177D01*
X9017732Y10178832D01*
X8983641Y10144741D01*
X9065241Y10063141D01*
X9084193Y10082094D01*
X9104194Y10062093D01*
X9085241Y10043141D01*
X9128596Y9999786D01*
X9121402Y9989020D01*
X9114485Y9991885D01*
X9099487D01*
X9093604Y9995816D01*
Y9998041D01*
X9087864Y10011898D01*
X9077259Y10022503D01*
X9063403Y10028242D01*
X9048405D01*
X9034548Y10022503D01*
X9023943Y10011898D01*
X9023098Y10009858D01*
X9010154Y10003706D01*
X9008025Y10004130D01*
X9003881Y10004954D01*
X8997609Y10003706D01*
X8995457Y10002268D01*
X8927700Y10070025D01*
Y10078599D01*
X8921961Y10092455D01*
X8911355Y10103061D01*
X8897499Y10108800D01*
X8882501D01*
X8877798Y10106852D01*
X8865098Y10115338D01*
Y10565900D01*
X8977900D01*
Y10676300D01*
X8857500D01*
Y10644297D01*
X8820900D01*
Y10673600D01*
X8700500D01*
Y10563200D01*
X8813302D01*
Y10059996D01*
X8806739Y10050015D01*
Y10050014D01*
X8806739D01*
D01*
X8800602Y10047473D01*
X8797748Y10050327D01*
X8734506Y10113569D01*
X8730405Y10117670D01*
X8732485Y10129509D01*
X8734506Y10131530D01*
X8697242Y10168794D01*
X8647462Y10119014D01*
X8597681Y10069233D01*
X8634945Y10031969D01*
X8636966Y10033990D01*
X8648805Y10036070D01*
X8652906Y10031969D01*
X8723334Y9961541D01*
X8739720Y9977928D01*
X8752420Y9972667D01*
Y9971018D01*
X8758160Y9957162D01*
X8768765Y9946556D01*
X8779244Y9942216D01*
X8782155Y9932284D01*
X8781943Y9928398D01*
X8768669Y9915124D01*
X8765116Y9909807D01*
X8760851Y9901906D01*
X8752949Y9897640D01*
X8747632Y9894087D01*
X8733314Y9879769D01*
X8729761Y9874451D01*
X8725496Y9866550D01*
X8717594Y9862285D01*
X8712277Y9858732D01*
X8697958Y9844413D01*
X8694406Y9839096D01*
X8690140Y9831195D01*
X8682239Y9826930D01*
X8676922Y9823377D01*
X8662603Y9809058D01*
X8659050Y9803741D01*
X8654785Y9795840D01*
X8646883Y9791574D01*
X8641566Y9788022D01*
X8627248Y9773703D01*
X8626524Y9772620D01*
X8613858Y9769721D01*
X8611086Y9770097D01*
X8533071Y9848112D01*
X8524669Y9853726D01*
X8514758Y9855698D01*
X8485618D01*
X8479555Y9861761D01*
X8465699Y9867500D01*
X8450701D01*
X8436845Y9861761D01*
X8426239Y9851155D01*
X8420500Y9837299D01*
Y9822301D01*
X8423937Y9814003D01*
X8414899Y9804000D01*
X8399901D01*
X8386045Y9798261D01*
X8375439Y9787655D01*
X8369700Y9773799D01*
Y9758801D01*
X8375439Y9744945D01*
X8386045Y9734339D01*
X8399901Y9728600D01*
X8414899D01*
X8428755Y9734339D01*
X8430501Y9733678D01*
X8431855Y9732150D01*
X8436342Y9717884D01*
X8433200Y9710299D01*
Y9695301D01*
X8438939Y9681445D01*
X8444063Y9676321D01*
X8441931Y9669272D01*
X8437928Y9664495D01*
X8431896Y9665695D01*
X8407400D01*
X8387579Y9661753D01*
X8370775Y9650525D01*
X8350250Y9630000D01*
X8228125Y9752124D01*
X8211321Y9763352D01*
X8191501Y9767295D01*
X8140700Y9767295D01*
X8120878Y9763353D01*
X8104075Y9752125D01*
X8040575Y9688625D01*
X8029347Y9671821D01*
X8025405Y9652000D01*
X8025405Y9626601D01*
X8025405Y9626600D01*
X8029347Y9606779D01*
X8040575Y9589975D01*
X8111812Y9518738D01*
X8099894Y9506820D01*
X8149674Y9457040D01*
X8140694Y9448060D01*
X8149674Y9439080D01*
X8103430Y9392835D01*
X8144230Y9352035D01*
X8144229D01*
X8146531Y9350991D01*
X8187331Y9310191D01*
X8233575Y9356436D01*
X8251536Y9338476D01*
X8205291Y9292231D01*
X8245267Y9252255D01*
X8201009Y9207998D01*
X8155418D01*
X8149355Y9214061D01*
X8135499Y9219800D01*
X8120501D01*
X8106645Y9214061D01*
X8096039Y9203455D01*
X8090300Y9189599D01*
Y9174601D01*
X8096039Y9160745D01*
X8106645Y9150139D01*
X8120501Y9144400D01*
X8135499D01*
X8149355Y9150139D01*
X8155418Y9156202D01*
X8201964D01*
X8207224Y9143502D01*
X7839919Y8776198D01*
X7646920D01*
X7639987Y8788898D01*
X7643577Y8797564D01*
Y8812563D01*
X7638436Y8824973D01*
X7638261Y8827946D01*
X7641736Y8840481D01*
X7644363Y8842237D01*
X7648828Y8848919D01*
X7650396Y8856800D01*
Y9038800D01*
X7648828Y9046681D01*
X7644363Y9053363D01*
X7637681Y9057828D01*
X7629800Y9059396D01*
X7584800D01*
X7576919Y9057828D01*
X7570237Y9053363D01*
X7565772Y9046681D01*
X7564204Y9038800D01*
Y8856800D01*
X7565772Y8848919D01*
X7570237Y8842237D01*
X7571158Y8841621D01*
X7573882Y8826603D01*
X7573672Y8825830D01*
X7568177Y8812563D01*
Y8797564D01*
X7571766Y8788898D01*
X7564833Y8776198D01*
X7427527D01*
X7379198Y8824527D01*
Y8836880D01*
X7383681Y8837772D01*
X7390363Y8842237D01*
X7394828Y8848919D01*
X7396396Y8856800D01*
Y9038800D01*
X7394828Y9046681D01*
X7390363Y9053363D01*
X7383681Y9057828D01*
X7375800Y9059396D01*
X7330800D01*
X7322919Y9057828D01*
X7316237Y9053363D01*
X7311772Y9046681D01*
X7310204Y9038800D01*
Y8856800D01*
X7311772Y8848919D01*
X7316237Y8842237D01*
X7322919Y8837772D01*
X7327402Y8836880D01*
Y8813800D01*
X7329374Y8803889D01*
X7334988Y8795488D01*
X7392378Y8738098D01*
X7387117Y8725398D01*
X7300527D01*
X7252198Y8773727D01*
Y8836880D01*
X7256681Y8837772D01*
X7263363Y8842237D01*
X7267828Y8848919D01*
X7269396Y8856800D01*
Y9038800D01*
X7267828Y9046681D01*
X7263363Y9053363D01*
X7256681Y9057828D01*
X7248800Y9059396D01*
X7203800D01*
X7195919Y9057828D01*
X7189237Y9053363D01*
X7184772Y9046681D01*
X7183204Y9038800D01*
Y8856800D01*
X7184772Y8848919D01*
X7189237Y8842237D01*
X7195919Y8837772D01*
X7200402Y8836880D01*
Y8763000D01*
X7202374Y8753089D01*
X7207988Y8744688D01*
X7271488Y8681188D01*
X7279889Y8675574D01*
X7289800Y8673602D01*
X8002206D01*
X8007467Y8660902D01*
X7995388Y8648823D01*
X7989774Y8640421D01*
X7987802Y8630511D01*
Y8433714D01*
X7975102Y8429862D01*
X7974125Y8431325D01*
X7936025Y8469425D01*
X7919221Y8480653D01*
X7899400Y8484595D01*
X7620000D01*
X7600179Y8480653D01*
X7583375Y8469425D01*
X7538719Y8424769D01*
X7527491Y8407965D01*
X7526701Y8403993D01*
X7513219Y8401312D01*
X7507769Y8409469D01*
X7470907Y8446330D01*
Y8483082D01*
X7509761D01*
Y8648482D01*
X7362461D01*
X7354361Y8648482D01*
X7341661Y8648482D01*
X7194361D01*
Y8588287D01*
X7174929D01*
X7171455Y8591761D01*
X7157599Y8597500D01*
X7142601D01*
X7128745Y8591761D01*
X7118139Y8581155D01*
X7112400Y8567299D01*
Y8552301D01*
X7118139Y8538445D01*
X7128745Y8527839D01*
X7142601Y8522100D01*
X7157599D01*
X7171455Y8527839D01*
X7174929Y8531313D01*
X7194361D01*
Y8483082D01*
X7233214D01*
Y8443852D01*
X7198831Y8409469D01*
X7190411Y8396866D01*
X7187453Y8382000D01*
Y8336558D01*
X7184772Y8332545D01*
X7183204Y8324663D01*
Y8142663D01*
X7184772Y8134782D01*
X7189237Y8128100D01*
X7195919Y8123635D01*
X7203800Y8122068D01*
X7248800D01*
X7256681Y8123635D01*
X7263363Y8128100D01*
X7267828Y8134782D01*
X7269396Y8142663D01*
Y8324663D01*
X7267828Y8332545D01*
X7265147Y8336558D01*
Y8365909D01*
X7299529Y8400292D01*
X7307950Y8412895D01*
X7310907Y8427761D01*
Y8474102D01*
X7319888Y8483082D01*
X7349761Y8483082D01*
X7362461Y8483082D01*
X7393214D01*
Y8430239D01*
X7396171Y8415373D01*
X7404592Y8402771D01*
X7441453Y8365909D01*
Y8336558D01*
X7438772Y8332545D01*
X7437204Y8324663D01*
Y8142663D01*
X7438772Y8134782D01*
X7443237Y8128100D01*
X7449919Y8123635D01*
X7457800Y8122068D01*
X7502800D01*
X7510681Y8123635D01*
X7517363Y8128100D01*
X7521828Y8134782D01*
X7523396Y8142663D01*
Y8319384D01*
X7531603Y8329492D01*
X7534988Y8331483D01*
X7537327Y8331428D01*
X7538719Y8329344D01*
X7540856Y8327916D01*
X7542486Y8325930D01*
X7542805Y8325668D01*
Y8233663D01*
X7546748Y8213842D01*
X7557975Y8197038D01*
X7564204Y8192876D01*
Y8142663D01*
X7565772Y8134782D01*
X7570237Y8128100D01*
X7576919Y8123635D01*
X7584800Y8122068D01*
X7629800D01*
X7637681Y8123635D01*
X7643408Y8127462D01*
X7643523Y8127386D01*
X7655256Y8122526D01*
X7655257Y8122525D01*
X7675077Y8118583D01*
X7675078D01*
X7694899Y8122525D01*
X7702000Y8127270D01*
X7710715Y8124104D01*
X7713860Y8121245D01*
X7785099D01*
X7855499D01*
Y8139705D01*
X7924799D01*
X7924800Y8139705D01*
X7944621Y8143647D01*
X7961425Y8154875D01*
X7974125Y8167575D01*
X7975102Y8169038D01*
X7987802Y8165186D01*
Y7681527D01*
X7787073Y7480798D01*
X7745439D01*
X7740179Y7493498D01*
X7762967Y7516285D01*
X7774745D01*
X7788602Y7522025D01*
X7799207Y7532630D01*
X7804946Y7546486D01*
Y7561484D01*
X7799207Y7575341D01*
X7788602Y7585946D01*
X7774745Y7591685D01*
X7759747D01*
X7745891Y7585946D01*
X7735286Y7575341D01*
X7729546Y7561484D01*
Y7556115D01*
X7705029Y7531598D01*
X7603866D01*
X7598605Y7544298D01*
X7600608Y7546300D01*
X7606347Y7560156D01*
Y7568831D01*
X7622266Y7584751D01*
X7627880Y7593152D01*
X7629851Y7603063D01*
Y7628078D01*
X7637681Y7629635D01*
X7644363Y7634100D01*
X7648828Y7640782D01*
X7650396Y7648663D01*
Y7830663D01*
X7648828Y7838545D01*
X7644363Y7845226D01*
X7637681Y7849691D01*
X7629800Y7851259D01*
X7584800D01*
X7576919Y7849691D01*
X7570237Y7845226D01*
X7565772Y7838545D01*
X7564204Y7830663D01*
Y7648663D01*
X7565772Y7640782D01*
X7570237Y7634100D01*
X7576919Y7629635D01*
X7578056Y7629409D01*
Y7613790D01*
X7569621Y7605355D01*
X7561148D01*
X7547292Y7599616D01*
X7536686Y7589011D01*
X7530947Y7575155D01*
Y7560156D01*
X7536686Y7546300D01*
X7538689Y7544298D01*
X7533428Y7531598D01*
X7456718D01*
X7380544Y7607772D01*
Y7629011D01*
X7383681Y7629635D01*
X7390363Y7634100D01*
X7394828Y7640782D01*
X7396396Y7648663D01*
Y7830663D01*
X7394828Y7838545D01*
X7390363Y7845226D01*
X7383681Y7849691D01*
X7375800Y7851259D01*
X7330800D01*
X7322919Y7849691D01*
X7316237Y7845226D01*
X7311772Y7838545D01*
X7310204Y7830663D01*
Y7648663D01*
X7311772Y7640782D01*
X7316237Y7634100D01*
X7322919Y7629635D01*
X7328749Y7628476D01*
Y7597045D01*
X7330720Y7587134D01*
X7336334Y7578733D01*
X7421569Y7493498D01*
X7416308Y7480798D01*
X7376727D01*
X7252198Y7605327D01*
Y7628743D01*
X7256681Y7629635D01*
X7263363Y7634100D01*
X7267828Y7640782D01*
X7269396Y7648663D01*
Y7830663D01*
X7267828Y7838545D01*
X7263363Y7845226D01*
X7256681Y7849691D01*
X7248800Y7851259D01*
X7203800D01*
X7195919Y7849691D01*
X7189237Y7845226D01*
X7184772Y7838545D01*
X7183204Y7830663D01*
Y7648663D01*
X7184772Y7640782D01*
X7189237Y7634100D01*
X7195919Y7629635D01*
X7200402Y7628743D01*
Y7594600D01*
X7202374Y7584689D01*
X7207988Y7576288D01*
X7347688Y7436588D01*
X7356089Y7430974D01*
X7366000Y7429002D01*
X7797800D01*
X7807711Y7430974D01*
X7816112Y7436588D01*
X8032012Y7652488D01*
X8037626Y7660889D01*
X8039598Y7670800D01*
Y8619783D01*
X8646442Y9226627D01*
X8649213Y9227004D01*
X8661880Y9224104D01*
X8662603Y9223022D01*
X8676922Y9208703D01*
X8682239Y9205150D01*
X8690140Y9200885D01*
X8694406Y9192983D01*
X8697958Y9187666D01*
X8712277Y9173348D01*
X8710306Y9161587D01*
X8704769Y9154513D01*
X8697177D01*
X8683321Y9148773D01*
X8672716Y9138168D01*
X8666977Y9124312D01*
Y9109314D01*
X8672716Y9095458D01*
X8683321Y9084852D01*
X8692498Y9081051D01*
X8696787Y9067380D01*
X8338288Y8708880D01*
X8332674Y8700479D01*
X8330702Y8690568D01*
Y8255000D01*
X8332674Y8245089D01*
X8338288Y8236688D01*
X8444094Y8130882D01*
X8439977Y8123751D01*
X8434000Y8101446D01*
Y8078354D01*
X8439977Y8056049D01*
X8451523Y8036051D01*
X8467851Y8019723D01*
X8487849Y8008177D01*
X8510154Y8002200D01*
X8533246D01*
X8555551Y8008177D01*
X8575549Y8019723D01*
X8591877Y8036051D01*
X8596648Y8044314D01*
X8613606Y8048286D01*
X8615339Y8047137D01*
Y7899913D01*
X8602639Y7896510D01*
X8602040Y7897547D01*
X8583347Y7916240D01*
X8560453Y7929458D01*
X8534918Y7936300D01*
X8534400D01*
Y7835900D01*
Y7735500D01*
X8534918D01*
X8560453Y7742342D01*
X8583347Y7755560D01*
X8602040Y7774253D01*
X8602639Y7775290D01*
X8615339Y7771887D01*
Y7712164D01*
X8562682Y7659506D01*
X8555551Y7663623D01*
X8533246Y7669600D01*
X8510154D01*
X8487849Y7663623D01*
X8467851Y7652077D01*
X8451523Y7635749D01*
X8439977Y7615751D01*
X8434000Y7593446D01*
Y7570354D01*
X8439977Y7548049D01*
X8451523Y7528051D01*
X8467851Y7511723D01*
X8487849Y7500177D01*
X8510154Y7494200D01*
X8533246D01*
X8555551Y7500177D01*
X8575549Y7511723D01*
X8591877Y7528051D01*
X8603423Y7548049D01*
X8609400Y7570354D01*
Y7593446D01*
X8603423Y7615751D01*
X8599306Y7622882D01*
X8659549Y7683124D01*
X8665163Y7691526D01*
X8667134Y7701436D01*
Y7808658D01*
X8678867Y7813518D01*
X8681286Y7811099D01*
X8700656Y7803076D01*
X8721621D01*
X8740990Y7811099D01*
X8746674Y7816783D01*
X8760428D01*
X8763681Y7813530D01*
X8762522Y7797955D01*
X8759567Y7795883D01*
X8756709D01*
Y7743183D01*
X8897508D01*
Y7795883D01*
X8896857D01*
X8892704Y7799772D01*
X8891918Y7812382D01*
X8893789Y7814253D01*
X8932608D01*
Y7764149D01*
X9023008D01*
Y7942049D01*
X8932608D01*
Y7891946D01*
X8884808D01*
Y7908183D01*
X8769409D01*
Y7894476D01*
X8746967D01*
X8740990Y7900453D01*
X8721621Y7908476D01*
X8700656D01*
X8681286Y7900453D01*
X8678867Y7898034D01*
X8667134Y7902894D01*
Y8147909D01*
X9162312Y8643088D01*
X9167926Y8651489D01*
X9169898Y8661400D01*
Y8844536D01*
X9182598Y8849796D01*
X9461002Y8571391D01*
Y8039100D01*
X9462974Y8029190D01*
X9468588Y8020788D01*
X9735288Y7754088D01*
X9743690Y7748474D01*
X9753600Y7746502D01*
X9799850D01*
Y7727200D01*
X9977750D01*
Y7817600D01*
X9799850D01*
Y7798298D01*
X9764327D01*
X9512798Y8049827D01*
Y8340984D01*
X9524531Y8345844D01*
X9735288Y8135088D01*
X9743689Y8129474D01*
X9753600Y8127502D01*
X9799850D01*
Y8108200D01*
X9977750D01*
Y8198600D01*
X9799850D01*
Y8179298D01*
X9764327D01*
X9550898Y8392727D01*
Y8597900D01*
X9548926Y8607811D01*
X9543312Y8616212D01*
X9266824Y8892701D01*
Y9047695D01*
X9278557Y9052555D01*
X9339131Y8991982D01*
X9424266Y9077117D01*
X9400121Y9101263D01*
X9423938Y9125079D01*
X9444658Y9104359D01*
X9529793Y9189495D01*
X9539356Y9181919D01*
X9556879Y9164396D01*
X9522298Y9129815D01*
X9570310Y9081802D01*
X9618323Y9033789D01*
X9652904Y9068371D01*
X9862902Y8858373D01*
Y8833600D01*
X9799850D01*
Y8743200D01*
X9977750D01*
Y8833600D01*
X9914697D01*
Y8869100D01*
X9912726Y8879011D01*
X9907112Y8887413D01*
X9479812Y9314712D01*
X9471411Y9320326D01*
X9461500Y9322298D01*
X9427633D01*
X9419170Y9334998D01*
X9421679Y9341054D01*
Y9356052D01*
X9415940Y9369909D01*
X9405335Y9380514D01*
X9403159Y9393190D01*
X9411797Y9399885D01*
X9423501Y9393628D01*
X9425959Y9392883D01*
X9428096Y9391455D01*
X9435559Y9389970D01*
X9442840Y9387762D01*
X9445397Y9388013D01*
X9446153Y9387863D01*
X9467558Y9366459D01*
X9484361Y9355231D01*
X9489397Y9354229D01*
X9505526Y9338100D01*
X9509627Y9333999D01*
X9507547Y9322161D01*
X9505526Y9320140D01*
X9542791Y9282875D01*
X9592571Y9332655D01*
X9601552Y9323675D01*
X9610532Y9332655D01*
X9656776Y9286411D01*
X9689629Y9319263D01*
X9698753Y9327886D01*
X9706703Y9335837D01*
X9739553Y9368687D01*
X9693308Y9414932D01*
X9702289Y9423912D01*
X9693308Y9432892D01*
X9743088Y9482672D01*
X9741035Y9484726D01*
X9741035Y9502686D01*
X9777525Y9539175D01*
X9786182Y9552132D01*
X9800646Y9555629D01*
X9829302Y9526973D01*
Y9182100D01*
X9831274Y9172189D01*
X9836888Y9163788D01*
X9981939Y9018736D01*
X9990341Y9013122D01*
X10000251Y9011151D01*
X10035000D01*
Y8976849D01*
X10150400D01*
Y9097249D01*
X10035000D01*
Y9062946D01*
X10010978D01*
X9881098Y9192827D01*
Y9292117D01*
X9893798Y9297378D01*
X9994639Y9196536D01*
X10003041Y9190922D01*
X10012951Y9188951D01*
X10035000D01*
Y9154649D01*
X10150400D01*
Y9275049D01*
X10035000D01*
Y9244075D01*
X10022300Y9242125D01*
X9931898Y9332527D01*
Y9364507D01*
X9938238Y9367441D01*
X9944598Y9368401D01*
X9953848Y9359151D01*
X9967704Y9353412D01*
X9982702D01*
X9996558Y9359151D01*
X10002621Y9365214D01*
X10035000D01*
Y9332449D01*
X10150400D01*
Y9452849D01*
X10035000D01*
Y9417009D01*
X10002621D01*
X9996558Y9423072D01*
X9982702Y9428811D01*
X9967704D01*
X9953848Y9423072D01*
X9944598Y9413822D01*
X9938238Y9414782D01*
X9931898Y9417716D01*
Y9550400D01*
X9929926Y9560311D01*
X9924312Y9568712D01*
X9632212Y9860812D01*
X9623811Y9866426D01*
X9613900Y9868398D01*
X9447594D01*
X9442333Y9881098D01*
X9451738Y9890502D01*
X9803900D01*
Y9856200D01*
X9914300D01*
Y9976600D01*
X9803900D01*
Y9942298D01*
X9450783D01*
X9445522Y9954998D01*
X9533427Y10042902D01*
X9803900D01*
Y10008600D01*
X9914300D01*
Y10129000D01*
X9803900D01*
Y10094698D01*
X9522700D01*
X9512789Y10092726D01*
X9504388Y10087112D01*
X9446439Y10029163D01*
X9411045Y10064557D01*
X9364800Y10018312D01*
X9346840Y10036272D01*
X9393085Y10082517D01*
X9357702Y10117900D01*
X9352285Y10123318D01*
X9342302Y10129876D01*
X9306919Y10165259D01*
X9260674Y10119014D01*
X9242713Y10136974D01*
X9288959Y10183219D01*
X9255100Y10217078D01*
X9248159Y10224019D01*
X9239178Y10233000D01*
X9205319Y10266859D01*
X9159074Y10220614D01*
X9150094Y10229594D01*
X9141113Y10220614D01*
X9091333Y10270394D01*
X9067331Y10246391D01*
X9055598Y10251252D01*
Y10301673D01*
X9218227Y10464302D01*
X9307600D01*
Y10407500D01*
X9437986D01*
X9447449Y10396050D01*
X9447419Y10394800D01*
X9445311Y10388240D01*
X9445500Y10385939D01*
X9444989Y10383687D01*
X9446319Y10375936D01*
X9446962Y10368098D01*
X9448017Y10366044D01*
X9448407Y10363768D01*
X9452602Y10357116D01*
X9456195Y10350121D01*
X9461288Y10343703D01*
X9463571Y10341766D01*
X9465235Y10339275D01*
X9471215Y10335279D01*
X9476698Y10330628D01*
X9479548Y10329711D01*
X9482039Y10328047D01*
X9489092Y10326645D01*
X9495938Y10324444D01*
X9498923Y10324689D01*
X9501860Y10324105D01*
X9969499D01*
X9969500Y10324105D01*
X9989321Y10328047D01*
X10006125Y10339275D01*
X10018825Y10351975D01*
X10030053Y10368779D01*
X10033995Y10388600D01*
Y10731500D01*
X10030053Y10751321D01*
X10018825Y10768125D01*
X9993425Y10793525D01*
X9976621Y10804753D01*
X9956800Y10808695D01*
X9735100D01*
Y10819401D01*
X9664700D01*
Y10832101D01*
X9652000D01*
Y10897500D01*
X9614895D01*
Y10933705D01*
X9753600Y10933705D01*
X9773421Y10937647D01*
X9790225Y10948875D01*
X9828324Y10986975D01*
X9828325Y10986975D01*
X9839553Y11003779D01*
X9843495Y11023600D01*
Y11086000D01*
X9839553Y11105821D01*
X9828325Y11122625D01*
X9811521Y11133853D01*
X9791700Y11137795D01*
X9787900D01*
Y11265005D01*
X9800599D01*
X9803036Y11265489D01*
X9805505Y11265238D01*
X9812871Y11267446D01*
X9820421Y11268947D01*
X9822487Y11270327D01*
X9824864Y11271040D01*
X9835296Y11276572D01*
X9835337Y11276605D01*
X9893300D01*
X9899983Y11277934D01*
X9909800Y11269877D01*
Y11214101D01*
X9987499D01*
Y11316800D01*
X9970348D01*
X9963560Y11329500D01*
X9966553Y11333979D01*
X9970495Y11353800D01*
Y11595100D01*
X9966553Y11614921D01*
X9955325Y11631725D01*
X9929925Y11657125D01*
X9913121Y11668353D01*
X9893300Y11672295D01*
D02*
G37*
G36*
X8071300Y11316800D02*
X7993600D01*
Y11214100D01*
X8071300D01*
Y11316800D01*
D02*
G37*
G36*
X7861300Y11672295D02*
X7366000D01*
X7346179Y11668353D01*
X7329375Y11657125D01*
X7291275Y11619025D01*
X7280047Y11602221D01*
X7276105Y11582400D01*
Y10883900D01*
X7280047Y10864079D01*
X7291275Y10847275D01*
X7367475Y10771075D01*
X7384279Y10759847D01*
X7404100Y10755905D01*
X7721600D01*
X7741421Y10759847D01*
X7758225Y10771075D01*
X7809025Y10821875D01*
X7820253Y10838679D01*
X7824195Y10858500D01*
Y11086000D01*
X7820253Y11105821D01*
X7809025Y11122625D01*
X7792221Y11133853D01*
X7772400Y11137795D01*
X7768600D01*
Y11252035D01*
X7768610Y11252058D01*
X7781300Y11261472D01*
X7793033Y11259138D01*
X7812854Y11263081D01*
X7814088Y11263905D01*
X7835900D01*
X7855721Y11267847D01*
X7872525Y11279075D01*
X7878767Y11285317D01*
X7890500Y11280457D01*
Y11214100D01*
X7968200D01*
Y11316800D01*
X7925648D01*
X7918860Y11329500D01*
X7921853Y11333979D01*
X7925795Y11353800D01*
Y11607799D01*
X7925795Y11607800D01*
X7921853Y11627621D01*
X7910625Y11644425D01*
X7897925Y11657125D01*
X7881121Y11668353D01*
X7861300Y11672295D01*
D02*
G37*
G36*
X8838500Y11236200D02*
X8783300D01*
Y11175999D01*
X8838500D01*
Y11236200D01*
D02*
G37*
G36*
X8757900D02*
X8702700D01*
Y11175999D01*
X8757900D01*
Y11236200D01*
D02*
G37*
G36*
X10854955Y11210817D02*
X10799755D01*
Y11150617D01*
X10854955D01*
Y11210817D01*
D02*
G37*
G36*
X10774355D02*
X10719155D01*
Y11150617D01*
X10774355D01*
Y11210817D01*
D02*
G37*
G36*
X9389721Y11208300D02*
X9337021D01*
Y11150600D01*
X9389721D01*
Y11208300D01*
D02*
G37*
G36*
X8838500Y11150599D02*
X8783300D01*
Y11090400D01*
X8838500D01*
Y11150599D01*
D02*
G37*
G36*
X8757900D02*
X8702700D01*
Y11090400D01*
X8757900D01*
Y11150599D01*
D02*
G37*
G36*
X10090600Y11188701D02*
X10012899D01*
Y11086000D01*
X10090600D01*
Y11188701D01*
D02*
G37*
G36*
X9987499D02*
X9909800D01*
Y11086000D01*
X9987499D01*
Y11188701D01*
D02*
G37*
G36*
X8071300Y11188700D02*
X7993600D01*
Y11086000D01*
X8071300D01*
Y11188700D01*
D02*
G37*
G36*
X7968200D02*
X7890500D01*
Y11086000D01*
X7968200D01*
Y11188700D01*
D02*
G37*
G36*
X10854955Y11125217D02*
X10799755D01*
Y11065017D01*
X10854955D01*
Y11125217D01*
D02*
G37*
G36*
X10774355D02*
X10719155D01*
Y11065017D01*
X10774355D01*
Y11125217D01*
D02*
G37*
G36*
X8521699Y11522400D02*
Y11431999D01*
Y11341600D01*
X8564400D01*
Y11354300D01*
X8578102D01*
Y11223500D01*
X8555400D01*
Y11103100D01*
X8578102D01*
Y11071100D01*
X8555400D01*
Y10950700D01*
X8665800D01*
Y11071100D01*
X8629898D01*
Y11103100D01*
X8665800D01*
Y11223500D01*
X8629898D01*
Y11354300D01*
X8646700D01*
Y11509700D01*
X8564400D01*
Y11522400D01*
X8521699D01*
D02*
G37*
G36*
X10583700Y11509700D02*
X10540999D01*
Y11419299D01*
Y11328900D01*
X10583700D01*
Y11341600D01*
X10597402D01*
Y11198117D01*
X10571855D01*
Y11077717D01*
X10597402D01*
Y11043417D01*
X10575755D01*
Y10923017D01*
X10686155D01*
Y11043417D01*
X10649198D01*
Y11077717D01*
X10682255D01*
Y11198117D01*
X10649198D01*
Y11341600D01*
X10666000D01*
Y11497000D01*
X10583700D01*
Y11509700D01*
D02*
G37*
G36*
X9243221Y10949300D02*
X9185521D01*
Y10896600D01*
X9243221D01*
Y10949300D01*
D02*
G37*
G36*
X9160121D02*
X9102421D01*
Y10896600D01*
X9160121D01*
Y10949300D01*
D02*
G37*
G36*
X8825800Y11071100D02*
X8715400D01*
Y10950700D01*
X8749802D01*
Y10936718D01*
X8743739Y10930655D01*
X8738000Y10916799D01*
Y10901801D01*
X8743739Y10887945D01*
X8754345Y10877339D01*
X8768201Y10871600D01*
X8783199D01*
X8797055Y10877339D01*
X8807661Y10887945D01*
X8813400Y10901801D01*
Y10916799D01*
X8807661Y10930655D01*
X8801598Y10936718D01*
Y10950700D01*
X8825800D01*
Y11071100D01*
D02*
G37*
G36*
X9735100Y10897500D02*
X9677400D01*
Y10844801D01*
X9735100D01*
Y10897500D01*
D02*
G37*
G36*
X10846155Y11043417D02*
X10735755D01*
Y10923017D01*
X10764316D01*
Y10905387D01*
X10758253Y10899324D01*
X10752514Y10885468D01*
Y10870469D01*
X10758253Y10856613D01*
X10768858Y10846008D01*
X10782715Y10840269D01*
X10797713D01*
X10811569Y10846008D01*
X10822174Y10856613D01*
X10827914Y10870469D01*
Y10885468D01*
X10822174Y10899324D01*
X10816111Y10905387D01*
Y10923017D01*
X10846155D01*
Y11043417D01*
D02*
G37*
G36*
X8833600Y10846300D02*
X8773400D01*
Y10791100D01*
X8833600D01*
Y10846300D01*
D02*
G37*
G36*
X8748000D02*
X8687800D01*
Y10791100D01*
X8748000D01*
Y10846300D01*
D02*
G37*
G36*
X9151499Y11493100D02*
X9136501D01*
X9122645Y11487361D01*
X9112039Y11476755D01*
X9106300Y11462899D01*
Y11447901D01*
X9112039Y11434045D01*
X9118102Y11427982D01*
Y11135927D01*
X8899388Y10917212D01*
X8893774Y10908811D01*
X8891802Y10898900D01*
Y10836300D01*
X8857500D01*
Y10725900D01*
X8977900D01*
Y10836300D01*
X8943598D01*
Y10888173D01*
X9162312Y11106888D01*
X9167926Y11115289D01*
X9169898Y11125200D01*
Y11427982D01*
X9175961Y11434045D01*
X9181700Y11447901D01*
Y11462899D01*
X9175961Y11476755D01*
X9165355Y11487361D01*
X9151499Y11493100D01*
D02*
G37*
G36*
X8833600Y10765700D02*
X8773400D01*
Y10710500D01*
X8833600D01*
Y10765700D01*
D02*
G37*
G36*
X8748000D02*
X8687800D01*
Y10710500D01*
X8748000D01*
Y10765700D01*
D02*
G37*
G36*
X9172821Y10883900D02*
D01*
Y10871200D01*
X9102421D01*
Y10818500D01*
X9105279D01*
X9115121Y10811600D01*
X9115121Y10805800D01*
Y10706200D01*
X9230521D01*
Y10715417D01*
X9276421D01*
Y10635400D01*
X9361821D01*
Y10780800D01*
X9276421D01*
Y10767212D01*
X9239501D01*
X9230521Y10776193D01*
X9230521Y10811600D01*
X9240363Y10818500D01*
X9243221D01*
Y10871200D01*
X9172821D01*
Y10883900D01*
D02*
G37*
G36*
X11199470Y10569850D02*
X11186400D01*
Y10320900D01*
X11435350D01*
Y10333970D01*
X11425295Y10384521D01*
X11405571Y10432138D01*
X11376937Y10474992D01*
X11340492Y10511437D01*
X11297638Y10540071D01*
X11250020Y10559795D01*
X11199470Y10569850D01*
D02*
G37*
G36*
X11161000D02*
X11147930D01*
X11097380Y10559795D01*
X11049762Y10540071D01*
X11006908Y10511437D01*
X10970463Y10474992D01*
X10941829Y10432138D01*
X10922105Y10384521D01*
X10912050Y10333970D01*
Y10320900D01*
X11161000D01*
Y10569850D01*
D02*
G37*
G36*
X9146559Y10325619D02*
X9109294Y10288354D01*
X9150094Y10247555D01*
X9187359Y10284819D01*
X9146559Y10325619D01*
D02*
G37*
G36*
X10419700Y10320300D02*
X10154300D01*
Y10244958D01*
X10058990D01*
Y10276760D01*
X9959390D01*
X9953590Y10276760D01*
X9946690Y10286602D01*
Y10289460D01*
X9893990D01*
Y10219060D01*
X9881290D01*
D01*
X9893990D01*
Y10148660D01*
X9946690D01*
Y10151518D01*
X9953590Y10161360D01*
X9959390Y10161360D01*
X9993203D01*
Y10129000D01*
X9963900D01*
Y10008600D01*
X10074300D01*
Y10129000D01*
X10044998D01*
Y10161360D01*
X10058990D01*
Y10193162D01*
X10154300D01*
Y10104900D01*
X10419700D01*
Y10320300D01*
D02*
G37*
G36*
X9868590Y10289460D02*
X9815890D01*
Y10231760D01*
X9868590D01*
Y10289460D01*
D02*
G37*
G36*
Y10206360D02*
X9815890D01*
Y10148660D01*
X9868590D01*
Y10206360D01*
D02*
G37*
G36*
X8642016Y10224019D02*
X8601216Y10183219D01*
X8638481Y10145955D01*
X8679281Y10186754D01*
X8642016Y10224019D01*
D02*
G37*
G36*
X7195100Y10161999D02*
X7137400D01*
Y10109300D01*
X7195100D01*
Y10161999D01*
D02*
G37*
G36*
X8583256Y10165259D02*
X8542456Y10124459D01*
X8579721Y10087194D01*
X8620521Y10127994D01*
X8583256Y10165259D01*
D02*
G37*
G36*
X11435350Y10295500D02*
X11186400D01*
Y10046550D01*
X11199470D01*
X11250020Y10056605D01*
X11297638Y10076329D01*
X11340492Y10104963D01*
X11376937Y10141408D01*
X11405571Y10184262D01*
X11425295Y10231880D01*
X11435350Y10282430D01*
Y10295500D01*
D02*
G37*
G36*
X11161000D02*
X10912050D01*
Y10282430D01*
X10922105Y10231880D01*
X10941829Y10184262D01*
X10970463Y10141408D01*
X11006908Y10104963D01*
X11049762Y10076329D01*
X11097380Y10056605D01*
X11147930Y10046550D01*
X11161000D01*
Y10295500D01*
D02*
G37*
G36*
X10074300Y9976600D02*
X9963900D01*
Y9856200D01*
X9993203D01*
Y9832980D01*
X9984222Y9824000D01*
X9953900Y9824000D01*
X9947000Y9833842D01*
Y9836700D01*
X9894300D01*
Y9766300D01*
Y9695900D01*
X9947000D01*
Y9698758D01*
X9953900Y9708600D01*
X9959700Y9708600D01*
X10059300D01*
Y9740402D01*
X10154300D01*
Y9694900D01*
X10419700D01*
Y9910300D01*
X10154300D01*
Y9792198D01*
X10059300D01*
Y9824000D01*
X10044998D01*
Y9856200D01*
X10074300D01*
Y9976600D01*
D02*
G37*
G36*
X7354361Y9854982D02*
X7341661Y9854982D01*
X7194361D01*
Y9800770D01*
X7180911D01*
X7177438Y9804243D01*
X7163581Y9809982D01*
X7148583D01*
X7134727Y9804243D01*
X7124122Y9793638D01*
X7118382Y9779781D01*
Y9764783D01*
X7124122Y9750927D01*
X7134727Y9740322D01*
X7148583Y9734582D01*
X7163581D01*
X7177438Y9740322D01*
X7180911Y9743795D01*
X7194361D01*
Y9689582D01*
X7233214D01*
Y9650352D01*
X7198831Y9615969D01*
X7190411Y9603366D01*
X7187453Y9588500D01*
Y9544694D01*
X7184772Y9540681D01*
X7183204Y9532800D01*
Y9350800D01*
X7184772Y9342919D01*
X7189237Y9336237D01*
X7195919Y9331772D01*
X7203800Y9330204D01*
X7248800D01*
X7256681Y9331772D01*
X7263363Y9336237D01*
X7267828Y9342919D01*
X7269396Y9350800D01*
Y9532800D01*
X7267828Y9540681D01*
X7265147Y9544694D01*
Y9572409D01*
X7299529Y9606792D01*
X7307950Y9619395D01*
X7310907Y9634261D01*
Y9680602D01*
X7319888Y9689582D01*
X7349761Y9689582D01*
X7362461Y9689582D01*
X7393214D01*
Y9636739D01*
X7396171Y9621873D01*
X7404592Y9609271D01*
X7441453Y9572409D01*
Y9544694D01*
X7438772Y9540681D01*
X7437204Y9532800D01*
Y9350800D01*
X7438772Y9342919D01*
X7443237Y9336237D01*
X7449919Y9331772D01*
X7457800Y9330204D01*
X7502800D01*
X7510681Y9331772D01*
X7517363Y9336237D01*
X7521828Y9342919D01*
X7523396Y9350800D01*
Y9527521D01*
X7531603Y9537629D01*
X7534988Y9539620D01*
X7537327Y9539564D01*
X7538719Y9537481D01*
X7540856Y9536053D01*
X7542486Y9534067D01*
X7542805Y9533805D01*
Y9441800D01*
X7546748Y9421979D01*
X7557975Y9405175D01*
X7564204Y9401013D01*
Y9350800D01*
X7565772Y9342919D01*
X7570237Y9336237D01*
X7576919Y9331772D01*
X7584800Y9330204D01*
X7629800D01*
X7637681Y9331772D01*
X7642138Y9334750D01*
X7643523Y9333825D01*
X7655256Y9328965D01*
X7655257Y9328964D01*
X7675077Y9325021D01*
X7675078D01*
X7694899Y9328964D01*
X7702000Y9333709D01*
X7710715Y9330543D01*
X7713860Y9327683D01*
X7785099D01*
X7855499D01*
Y9346144D01*
X7924799D01*
X7924800Y9346143D01*
X7944621Y9350086D01*
X7961425Y9361314D01*
X7974125Y9374014D01*
X7985353Y9390818D01*
X7989295Y9410639D01*
Y9601139D01*
X7985353Y9620960D01*
X7974125Y9637764D01*
X7936025Y9675864D01*
X7919221Y9687091D01*
X7899400Y9691034D01*
X7620000D01*
X7600179Y9687091D01*
X7583375Y9675864D01*
X7538719Y9631207D01*
X7527491Y9614404D01*
X7526711Y9610479D01*
X7513228Y9607798D01*
X7507769Y9615969D01*
X7470907Y9652830D01*
Y9689582D01*
X7509761D01*
Y9854982D01*
X7362461D01*
X7354361Y9854982D01*
D02*
G37*
G36*
X9868900Y9836700D02*
X9816200D01*
Y9779000D01*
X9868900D01*
Y9836700D01*
D02*
G37*
G36*
Y9753600D02*
X9816200D01*
Y9695900D01*
X9868900D01*
Y9753600D01*
D02*
G37*
G36*
X6930154Y9697122D02*
X6819754D01*
Y9665198D01*
X6771118D01*
X6765055Y9671261D01*
X6751199Y9677000D01*
X6736201D01*
X6722345Y9671261D01*
X6711739Y9660655D01*
X6706000Y9646799D01*
Y9631801D01*
X6711739Y9617945D01*
X6722345Y9607339D01*
X6736201Y9601600D01*
X6751199D01*
X6765055Y9607339D01*
X6771118Y9613402D01*
X6819754D01*
Y9576722D01*
X6930154D01*
Y9697122D01*
D02*
G37*
G36*
X11045905Y9720600D02*
X11044400D01*
Y9625401D01*
X11139600D01*
Y9626905D01*
X11132247Y9654348D01*
X11118042Y9678952D01*
X11097952Y9699042D01*
X11073348Y9713247D01*
X11045905Y9720600D01*
D02*
G37*
G36*
X11019000D02*
X11017495D01*
X10990052Y9713247D01*
X10965448Y9699042D01*
X10945359Y9678952D01*
X10931153Y9654348D01*
X10923800Y9626905D01*
Y9625401D01*
X11019000D01*
Y9720600D01*
D02*
G37*
G36*
X7090154Y9697122D02*
X6979754D01*
Y9576722D01*
X7090154D01*
Y9616442D01*
X7108783D01*
X7114846Y9610379D01*
X7128702Y9604639D01*
X7143700D01*
X7157556Y9610379D01*
X7168162Y9620984D01*
X7173901Y9634840D01*
Y9649838D01*
X7168162Y9663695D01*
X7157556Y9674300D01*
X7143700Y9680039D01*
X7128702D01*
X7114846Y9674300D01*
X7108783Y9668237D01*
X7090154D01*
Y9697122D01*
D02*
G37*
G36*
X11139600Y9600001D02*
X11044400D01*
Y9504800D01*
X11045905D01*
X11073348Y9512153D01*
X11097952Y9526359D01*
X11118042Y9546448D01*
X11132247Y9571052D01*
X11139600Y9598495D01*
Y9600001D01*
D02*
G37*
G36*
X11019000D02*
X10923800D01*
Y9598495D01*
X10931153Y9571052D01*
X10945359Y9546448D01*
X10965448Y9526359D01*
X10990052Y9512153D01*
X11017495Y9504800D01*
X11019000D01*
Y9600001D01*
D02*
G37*
G36*
X8081934Y9488860D02*
X8044669Y9451596D01*
X8085469Y9410796D01*
X8122733Y9448060D01*
X8081934Y9488860D01*
D02*
G37*
G36*
X9761049Y9464712D02*
X9720249Y9423912D01*
X9757514Y9386647D01*
X9798313Y9427447D01*
X9761049Y9464712D01*
D02*
G37*
G36*
X11328233Y9569400D02*
X11303167D01*
X11278954Y9562912D01*
X11257246Y9550379D01*
X11239521Y9532654D01*
X11226988Y9510946D01*
X11220500Y9486733D01*
Y9461667D01*
X11226988Y9437454D01*
X11239521Y9415746D01*
X11257246Y9398021D01*
X11278954Y9385488D01*
X11303167Y9379000D01*
X11328233D01*
X11352446Y9385488D01*
X11374154Y9398021D01*
X11391879Y9415746D01*
X11404412Y9437454D01*
X11410900Y9461667D01*
Y9486733D01*
X11404412Y9510946D01*
X11391879Y9532654D01*
X11374154Y9550379D01*
X11352446Y9562912D01*
X11328233Y9569400D01*
D02*
G37*
G36*
X10310400Y9452849D02*
X10195000D01*
Y9332449D01*
X10310400D01*
Y9355077D01*
X10313301Y9357791D01*
X10323100Y9362341D01*
X10333535Y9358019D01*
X10348533D01*
X10362389Y9363759D01*
X10372994Y9374364D01*
X10378734Y9388220D01*
Y9403218D01*
X10372994Y9417074D01*
X10362389Y9427680D01*
X10348533Y9433419D01*
X10333535D01*
X10323100Y9429097D01*
X10313301Y9433647D01*
X10310400Y9436361D01*
Y9452849D01*
D02*
G37*
G36*
X7360799Y9615137D02*
X7345801D01*
X7331945Y9609397D01*
X7321339Y9598792D01*
X7315600Y9584936D01*
Y9569938D01*
X7318483Y9562976D01*
X7321272Y9555967D01*
X7316237Y9547363D01*
X7311772Y9540681D01*
X7310204Y9532800D01*
Y9350800D01*
X7311772Y9342919D01*
X7316237Y9336237D01*
X7322919Y9331772D01*
X7330800Y9330204D01*
X7375800D01*
X7383681Y9331772D01*
X7390363Y9336237D01*
X7394828Y9342919D01*
X7396396Y9350800D01*
Y9532800D01*
X7394828Y9540681D01*
X7390363Y9547363D01*
X7385328Y9555967D01*
X7388117Y9562976D01*
X7391000Y9569938D01*
Y9584936D01*
X7385261Y9598792D01*
X7374655Y9609397D01*
X7360799Y9615137D01*
D02*
G37*
G36*
X7855499Y9302283D02*
X7797799D01*
Y9249584D01*
X7855499D01*
Y9302283D01*
D02*
G37*
G36*
X7772399D02*
X7714700D01*
Y9249584D01*
X7772399D01*
Y9302283D01*
D02*
G37*
G36*
X11044233Y9430900D02*
X11019167D01*
X10994954Y9424412D01*
X10973246Y9411879D01*
X10955521Y9394154D01*
X10942988Y9372446D01*
X10936500Y9348234D01*
Y9323167D01*
X10942988Y9298954D01*
X10955521Y9277246D01*
X10973246Y9259521D01*
X10994954Y9246988D01*
X11012277Y9242346D01*
Y9229323D01*
X10949801D01*
X10949800Y9229323D01*
X10942367Y9227845D01*
X10936066Y9223634D01*
X10936065Y9223634D01*
X10802825Y9090394D01*
X10798615Y9084093D01*
X10797136Y9076660D01*
Y8787344D01*
X10639815Y8630023D01*
X10520150D01*
Y8706600D01*
X10342250D01*
Y8616200D01*
X10475353D01*
X10476466Y8610607D01*
X10480676Y8604305D01*
X10487082Y8597900D01*
X10480676Y8591495D01*
X10476466Y8585193D01*
X10475353Y8579600D01*
X10342250D01*
Y8489200D01*
X10520150D01*
Y8565777D01*
X10658381D01*
X10665814Y8567255D01*
X10672116Y8571466D01*
X10855694Y8755044D01*
X10859904Y8761345D01*
X10861382Y8768778D01*
Y9058093D01*
X10968366Y9165077D01*
X11012277D01*
Y9152054D01*
X10994954Y9147412D01*
X10973246Y9134879D01*
X10955521Y9117154D01*
X10942988Y9095446D01*
X10936500Y9071234D01*
Y9046167D01*
X10942988Y9021955D01*
X10955521Y9000246D01*
X10973246Y8982521D01*
X10994954Y8969988D01*
X11019167Y8963500D01*
X11044233D01*
X11068446Y8969988D01*
X11090154Y8982521D01*
X11107879Y9000246D01*
X11120412Y9021955D01*
X11126900Y9046167D01*
Y9071234D01*
X11120412Y9095446D01*
X11107879Y9117154D01*
X11090154Y9134879D01*
X11068446Y9147412D01*
X11051123Y9152054D01*
Y9177060D01*
X11049645Y9184493D01*
X11045434Y9190795D01*
X11039029Y9197200D01*
X11045434Y9203605D01*
X11049645Y9209907D01*
X11051123Y9217340D01*
Y9242346D01*
X11068446Y9246988D01*
X11090154Y9259521D01*
X11107879Y9277246D01*
X11120412Y9298954D01*
X11126900Y9323167D01*
Y9348234D01*
X11120412Y9372446D01*
X11107879Y9394154D01*
X11090154Y9411879D01*
X11068446Y9424412D01*
X11044233Y9430900D01*
D02*
G37*
G36*
X9601552Y9305714D02*
X9560752Y9264914D01*
X9598016Y9227650D01*
X9638816Y9268450D01*
X9601552Y9305714D01*
D02*
G37*
G36*
X10310400Y9275049D02*
X10195000D01*
Y9154649D01*
X10310400D01*
Y9175085D01*
X10323100Y9182616D01*
X10330746Y9179449D01*
X10345744D01*
X10359601Y9185188D01*
X10370206Y9195793D01*
X10375945Y9209650D01*
Y9224648D01*
X10370206Y9238504D01*
X10359601Y9249109D01*
X10345744Y9254849D01*
X10330746D01*
X10323100Y9251682D01*
X10310400Y9259213D01*
Y9275049D01*
D02*
G37*
G36*
X11328233Y9292400D02*
X11303167D01*
X11278954Y9285912D01*
X11257246Y9273379D01*
X11239521Y9255654D01*
X11226988Y9233946D01*
X11220500Y9209733D01*
Y9184667D01*
X11226988Y9160454D01*
X11239521Y9138746D01*
X11257246Y9121021D01*
X11278954Y9108488D01*
X11303167Y9102000D01*
X11328233D01*
X11352446Y9108488D01*
X11374154Y9121021D01*
X11391879Y9138746D01*
X11404412Y9160454D01*
X11410900Y9184667D01*
Y9209733D01*
X11404412Y9233946D01*
X11391879Y9255654D01*
X11374154Y9273379D01*
X11352446Y9285912D01*
X11328233Y9292400D01*
D02*
G37*
G36*
X9504337Y9111854D02*
X9461770Y9069287D01*
X9500802Y9030254D01*
X9543370Y9072822D01*
X9504337Y9111854D01*
D02*
G37*
G36*
X10310400Y9097249D02*
X10195000D01*
Y8976849D01*
X10310400D01*
Y8997285D01*
X10323100Y9004816D01*
X10330746Y9001649D01*
X10345744D01*
X10359601Y9007388D01*
X10370206Y9017993D01*
X10375945Y9031850D01*
Y9046848D01*
X10370206Y9060704D01*
X10359601Y9071309D01*
X10345744Y9077049D01*
X10330746D01*
X10323100Y9073882D01*
X10310400Y9081413D01*
Y9097249D01*
D02*
G37*
G36*
X9561330Y9054861D02*
X9518763Y9012294D01*
X9557795Y8973261D01*
X9600362Y9015829D01*
X9561330Y9054861D01*
D02*
G37*
G36*
X7502800Y9072345D02*
X7493000D01*
Y8960500D01*
X7536345D01*
Y9038800D01*
X7533791Y9051637D01*
X7526520Y9062520D01*
X7515637Y9069791D01*
X7502800Y9072345D01*
D02*
G37*
G36*
X7467600D02*
X7457800D01*
X7444963Y9069791D01*
X7434080Y9062520D01*
X7426809Y9051637D01*
X7424255Y9038800D01*
Y8960500D01*
X7467600D01*
Y9072345D01*
D02*
G37*
G36*
X9459339Y9042045D02*
X9374203Y8956909D01*
X9389169Y8941943D01*
X9383353Y8929799D01*
X9379253D01*
X9365397Y8924060D01*
X9354791Y8913454D01*
X9349052Y8899598D01*
Y8884600D01*
X9354791Y8870744D01*
X9365397Y8860138D01*
X9379253Y8854399D01*
X9394251D01*
X9408107Y8860138D01*
X9418712Y8870744D01*
X9424452Y8884600D01*
Y8888700D01*
X9436596Y8894517D01*
X9452268Y8878845D01*
X9537404Y8963980D01*
X9459339Y9042045D01*
D02*
G37*
G36*
X11328233Y9015400D02*
X11303167D01*
X11278954Y9008912D01*
X11257246Y8996379D01*
X11239521Y8978654D01*
X11226988Y8956946D01*
X11220500Y8932733D01*
Y8907667D01*
X11226988Y8883454D01*
X11239521Y8861746D01*
X11257246Y8844021D01*
X11278954Y8831488D01*
X11303167Y8825000D01*
X11328233D01*
X11352446Y8831488D01*
X11374154Y8844021D01*
X11391879Y8861746D01*
X11404412Y8883454D01*
X11410900Y8907667D01*
Y8932733D01*
X11404412Y8956946D01*
X11391879Y8978654D01*
X11374154Y8996379D01*
X11352446Y9008912D01*
X11328233Y9015400D01*
D02*
G37*
G36*
X7536345Y8935100D02*
X7493000D01*
Y8823255D01*
X7502800D01*
X7515637Y8825809D01*
X7526520Y8833080D01*
X7533791Y8843963D01*
X7536345Y8856800D01*
Y8935100D01*
D02*
G37*
G36*
X7467600D02*
X7424255D01*
Y8856800D01*
X7426809Y8843963D01*
X7434080Y8833080D01*
X7444963Y8825809D01*
X7457800Y8823255D01*
X7467600D01*
Y8935100D01*
D02*
G37*
G36*
X6931142Y8812800D02*
X6820742D01*
Y8779901D01*
X6791816D01*
X6785753Y8785964D01*
X6771897Y8791703D01*
X6756898D01*
X6743042Y8785964D01*
X6732437Y8775359D01*
X6726697Y8761502D01*
Y8746504D01*
X6732437Y8732648D01*
X6743042Y8722043D01*
X6756898Y8716303D01*
X6771897D01*
X6785753Y8722043D01*
X6791816Y8728106D01*
X6820742D01*
Y8692400D01*
X6931142D01*
Y8812800D01*
D02*
G37*
G36*
X10388031Y8913230D02*
X10373033D01*
X10359177Y8907491D01*
X10348571Y8896885D01*
X10342832Y8883029D01*
Y8868031D01*
X10348571Y8854175D01*
X10356446Y8846300D01*
X10352611Y8833688D01*
X10352553Y8833600D01*
X10342250D01*
Y8743200D01*
X10520150D01*
Y8833600D01*
X10437839D01*
Y8844121D01*
X10435867Y8854032D01*
X10430253Y8862433D01*
X10418232Y8874455D01*
Y8883029D01*
X10412493Y8896885D01*
X10401887Y8907491D01*
X10388031Y8913230D01*
D02*
G37*
G36*
X7091142Y8812800D02*
X6980742D01*
Y8692400D01*
X7091142D01*
Y8726702D01*
X7107682D01*
X7114895Y8719490D01*
X7128751Y8713750D01*
X7143749D01*
X7157605Y8719490D01*
X7168211Y8730095D01*
X7173950Y8743951D01*
Y8758949D01*
X7168211Y8772805D01*
X7157605Y8783411D01*
X7143749Y8789150D01*
X7128751D01*
X7114895Y8783411D01*
X7109982Y8778498D01*
X7091142D01*
Y8812800D01*
D02*
G37*
G36*
X9773200Y8713100D02*
X9657800D01*
Y8687298D01*
X9628618D01*
X9622555Y8693361D01*
X9608699Y8699100D01*
X9593701D01*
X9579845Y8693361D01*
X9569239Y8682755D01*
X9563500Y8668899D01*
Y8653901D01*
X9569239Y8640045D01*
X9579845Y8629439D01*
X9593701Y8623700D01*
X9608699D01*
X9622555Y8629439D01*
X9628618Y8635502D01*
X9648820D01*
X9657800Y8626522D01*
X9657800Y8607700D01*
X9647958Y8600800D01*
X9645100D01*
Y8548100D01*
X9715500D01*
Y8535400D01*
X9728200D01*
Y8470000D01*
X9777142D01*
X9785900Y8470000D01*
X9795908Y8476500D01*
X9876100D01*
Y8534400D01*
Y8592300D01*
X9795079D01*
X9785900Y8600800D01*
X9783042D01*
X9773200Y8607700D01*
X9773200Y8613500D01*
Y8635502D01*
X9799850D01*
Y8616200D01*
X9977750D01*
Y8706600D01*
X9799850D01*
Y8687298D01*
X9773200D01*
Y8713100D01*
D02*
G37*
G36*
X11044233Y8876900D02*
X11019167D01*
X10994954Y8870412D01*
X10973246Y8857879D01*
X10955521Y8840154D01*
X10942988Y8818446D01*
X10936500Y8794233D01*
Y8769167D01*
X10942988Y8744954D01*
X10955521Y8723246D01*
X10973246Y8705521D01*
X10994954Y8692988D01*
X11012277Y8688346D01*
Y8675323D01*
X10916501D01*
X10916500Y8675324D01*
X10909067Y8673845D01*
X10902766Y8669634D01*
X10902765Y8669634D01*
X10692366Y8459234D01*
X10688155Y8452933D01*
X10686677Y8445500D01*
Y8083066D01*
X10598634Y7995023D01*
X10520150D01*
Y8071600D01*
X10342250D01*
Y7981200D01*
X10475353D01*
X10476466Y7975607D01*
X10480676Y7969305D01*
X10487082Y7962900D01*
X10480676Y7956495D01*
X10476466Y7950193D01*
X10475353Y7944600D01*
X10342250D01*
Y7854200D01*
X10520150D01*
Y7930777D01*
X10617200D01*
X10624633Y7932255D01*
X10630935Y7936466D01*
X10745234Y8050765D01*
X10749445Y8057067D01*
X10750923Y8064500D01*
X10750923Y8064501D01*
Y8426934D01*
X10935067Y8611077D01*
X11012277D01*
Y8598054D01*
X10994954Y8593412D01*
X10973246Y8580879D01*
X10955521Y8563154D01*
X10942988Y8541446D01*
X10936500Y8517233D01*
Y8492167D01*
X10942988Y8467954D01*
X10955521Y8446246D01*
X10973246Y8428521D01*
X10994954Y8415988D01*
X11019167Y8409500D01*
X11044233D01*
X11068446Y8415988D01*
X11090154Y8428521D01*
X11107879Y8446246D01*
X11120412Y8467954D01*
X11126900Y8492167D01*
Y8517233D01*
X11120412Y8541446D01*
X11107879Y8563154D01*
X11090154Y8580879D01*
X11068446Y8593412D01*
X11051123Y8598054D01*
Y8623060D01*
X11049645Y8630494D01*
X11045434Y8636795D01*
X11039029Y8643200D01*
X11045434Y8649606D01*
X11049645Y8655907D01*
X11051123Y8663340D01*
Y8688346D01*
X11068446Y8692988D01*
X11090154Y8705521D01*
X11107879Y8723246D01*
X11120412Y8744954D01*
X11126900Y8769167D01*
Y8794233D01*
X11120412Y8818446D01*
X11107879Y8840154D01*
X11090154Y8857879D01*
X11068446Y8870412D01*
X11044233Y8876900D01*
D02*
G37*
G36*
X11328233Y8738400D02*
X11303167D01*
X11278954Y8731912D01*
X11257246Y8719379D01*
X11239521Y8701654D01*
X11226988Y8679946D01*
X11220500Y8655734D01*
Y8630667D01*
X11226988Y8606454D01*
X11239521Y8584746D01*
X11257246Y8567021D01*
X11278954Y8554488D01*
X11303167Y8548000D01*
X11328233D01*
X11352446Y8554488D01*
X11374154Y8567021D01*
X11391879Y8584746D01*
X11404412Y8606454D01*
X11410900Y8630667D01*
Y8655734D01*
X11404412Y8679946D01*
X11391879Y8701654D01*
X11374154Y8719379D01*
X11352446Y8731912D01*
X11328233Y8738400D01*
D02*
G37*
G36*
X9901500Y8592300D02*
Y8547100D01*
X9990450D01*
Y8592300D01*
X9901500D01*
D02*
G37*
G36*
X9990450Y8521700D02*
X9901500D01*
Y8476500D01*
X9990450D01*
Y8521700D01*
D02*
G37*
G36*
X9702800Y8522700D02*
X9645100D01*
Y8470000D01*
X9702800D01*
Y8522700D01*
D02*
G37*
G36*
X6931142Y8495300D02*
X6820742D01*
Y8462401D01*
X6791816D01*
X6785753Y8468464D01*
X6771897Y8474203D01*
X6756898D01*
X6743042Y8468464D01*
X6732437Y8457859D01*
X6726697Y8444002D01*
Y8429004D01*
X6732437Y8415148D01*
X6743042Y8404543D01*
X6756898Y8398803D01*
X6771897D01*
X6785753Y8404543D01*
X6791816Y8410606D01*
X6820742D01*
Y8374900D01*
X6931142D01*
Y8495300D01*
D02*
G37*
G36*
X9977750Y8452600D02*
X9799850D01*
Y8445127D01*
X9787655Y8439361D01*
X9773799Y8445100D01*
X9758801D01*
X9744945Y8439361D01*
X9734339Y8428755D01*
X9728600Y8414899D01*
Y8399901D01*
X9734339Y8386045D01*
X9744945Y8375439D01*
X9758801Y8369700D01*
X9773799D01*
X9787655Y8375439D01*
X9799850Y8369673D01*
Y8362200D01*
X9977750D01*
Y8452600D01*
D02*
G37*
G36*
X7091142Y8495300D02*
X6980742D01*
Y8374900D01*
X7091142D01*
Y8408305D01*
X7108783D01*
X7114846Y8402242D01*
X7128702Y8396503D01*
X7143700D01*
X7157556Y8402242D01*
X7168162Y8412847D01*
X7173901Y8426703D01*
Y8441702D01*
X7168162Y8455558D01*
X7157556Y8466163D01*
X7143700Y8471903D01*
X7128702D01*
X7114846Y8466163D01*
X7108783Y8460100D01*
X7091142D01*
Y8495300D01*
D02*
G37*
G36*
X9303899Y8584800D02*
X9288901D01*
X9275045Y8579061D01*
X9264439Y8568455D01*
X9258700Y8554599D01*
Y8539601D01*
X9264439Y8525745D01*
X9270502Y8519682D01*
Y8507027D01*
X9201888Y8438412D01*
X9196274Y8430011D01*
X9194302Y8420100D01*
Y8305100D01*
X9160000D01*
Y8194700D01*
X9280400D01*
Y8305100D01*
X9246098D01*
Y8409373D01*
X9296400Y8459675D01*
X9346702Y8409373D01*
Y8305100D01*
X9312400D01*
Y8194700D01*
X9432800D01*
Y8305100D01*
X9398498D01*
Y8420100D01*
X9396526Y8430011D01*
X9390912Y8438412D01*
X9322298Y8507027D01*
Y8519682D01*
X9328361Y8525745D01*
X9334100Y8539601D01*
Y8554599D01*
X9328361Y8568455D01*
X9317755Y8579061D01*
X9303899Y8584800D01*
D02*
G37*
G36*
X7360799Y8407000D02*
X7345801D01*
X7331945Y8401261D01*
X7321339Y8390655D01*
X7315600Y8376799D01*
Y8361801D01*
X7318483Y8354840D01*
X7321272Y8347830D01*
X7316237Y8339226D01*
X7311772Y8332545D01*
X7310204Y8324663D01*
Y8142663D01*
X7311772Y8134782D01*
X7316237Y8128100D01*
X7322919Y8123635D01*
X7330800Y8122068D01*
X7375800D01*
X7383681Y8123635D01*
X7390363Y8128100D01*
X7394828Y8134782D01*
X7396396Y8142663D01*
Y8324663D01*
X7394828Y8332545D01*
X7390363Y8339226D01*
X7385328Y8347830D01*
X7388117Y8354840D01*
X7391000Y8361801D01*
Y8376799D01*
X7385261Y8390655D01*
X7374655Y8401261D01*
X7360799Y8407000D01*
D02*
G37*
G36*
X10520150Y8452600D02*
X10342250D01*
Y8362200D01*
X10410335D01*
Y8274781D01*
X10406380Y8273143D01*
X10391555Y8258318D01*
X10383532Y8238949D01*
Y8217984D01*
X10386301Y8211300D01*
X10377815Y8198600D01*
X10342250D01*
Y8108200D01*
X10520150D01*
Y8198600D01*
X10494650D01*
X10486164Y8211300D01*
X10488932Y8217984D01*
Y8238949D01*
X10480909Y8258318D01*
X10466084Y8273143D01*
X10462130Y8274781D01*
Y8362200D01*
X10520150D01*
Y8452600D01*
D02*
G37*
G36*
X7855499Y8095845D02*
X7797799D01*
Y8043145D01*
X7855499D01*
Y8095845D01*
D02*
G37*
G36*
X7772399D02*
X7714700D01*
Y8043145D01*
X7772399D01*
Y8095845D01*
D02*
G37*
G36*
X9977750Y8071600D02*
X9799850D01*
Y8035047D01*
X9774450D01*
X9764539Y8033076D01*
X9756137Y8027462D01*
X9717473Y7988798D01*
X9699108D01*
X9691409Y7996497D01*
X9677552Y8002237D01*
X9662554D01*
X9648698Y7996497D01*
X9638093Y7985892D01*
X9632353Y7972036D01*
Y7957038D01*
X9638093Y7943181D01*
X9648698Y7932576D01*
X9662554Y7926837D01*
X9677552D01*
X9691409Y7932576D01*
X9695835Y7937002D01*
X9717473D01*
X9756137Y7898338D01*
X9764539Y7892724D01*
X9774450Y7890753D01*
X9799850D01*
Y7854200D01*
X9977750D01*
Y7944600D01*
X9799850D01*
Y7942548D01*
X9785177D01*
X9764825Y7962900D01*
X9785177Y7983252D01*
X9799850D01*
Y7981200D01*
X9977750D01*
Y8071600D01*
D02*
G37*
G36*
X9432800Y8145100D02*
X9312400D01*
Y8034700D01*
X9332911D01*
Y7992022D01*
X9326848Y7985959D01*
X9321108Y7972103D01*
Y7957105D01*
X9322084Y7954749D01*
X9313608Y7942049D01*
X9313608D01*
Y7764149D01*
X9404008D01*
Y7942049D01*
X9404009D01*
X9395533Y7954749D01*
X9396508Y7957105D01*
Y7972103D01*
X9390769Y7985959D01*
X9384706Y7992022D01*
Y8034700D01*
X9432800D01*
Y8145100D01*
D02*
G37*
G36*
X8299158Y8079324D02*
X8284160D01*
X8270303Y8073584D01*
X8259698Y8062979D01*
X8253959Y8049123D01*
Y8034125D01*
X8259698Y8020268D01*
X8265761Y8014205D01*
Y7988800D01*
X8230600D01*
Y7878400D01*
X8351000D01*
Y7988800D01*
X8317556D01*
Y8014205D01*
X8323619Y8020268D01*
X8329359Y8034125D01*
Y8049123D01*
X8323619Y8062979D01*
X8313014Y8073584D01*
X8299158Y8079324D01*
D02*
G37*
G36*
X8509000Y7936300D02*
X8508482D01*
X8482947Y7929458D01*
X8460053Y7916240D01*
X8441360Y7897547D01*
X8428142Y7874653D01*
X8421300Y7849118D01*
Y7848600D01*
X8509000D01*
Y7936300D01*
D02*
G37*
G36*
X11199470Y8070850D02*
X11186400D01*
Y7821900D01*
X11435350D01*
Y7834970D01*
X11425295Y7885520D01*
X11405571Y7933138D01*
X11376937Y7975992D01*
X11340492Y8012437D01*
X11297638Y8041071D01*
X11250020Y8060795D01*
X11199470Y8070850D01*
D02*
G37*
G36*
X11161000D02*
X11147930D01*
X11097380Y8060795D01*
X11049762Y8041071D01*
X11006908Y8012437D01*
X10970463Y7975992D01*
X10941829Y7933138D01*
X10922105Y7885520D01*
X10912050Y7834970D01*
Y7821900D01*
X11161000D01*
Y8070850D01*
D02*
G37*
G36*
X10532850Y7830300D02*
X10443900D01*
Y7785100D01*
X10532850D01*
Y7830300D01*
D02*
G37*
G36*
X10418500D02*
X10329550D01*
Y7785100D01*
X10418500D01*
Y7830300D01*
D02*
G37*
G36*
X9280400Y8145100D02*
X9160000D01*
Y8034700D01*
X9205911D01*
Y7993114D01*
X9199848Y7987051D01*
X9194108Y7973195D01*
Y7958196D01*
X9195536Y7954749D01*
X9187050Y7942049D01*
X9186608D01*
Y7764149D01*
X9277008D01*
Y7942049D01*
X9276566D01*
X9268081Y7954749D01*
X9269508Y7958196D01*
Y7973195D01*
X9263769Y7987051D01*
X9257706Y7993114D01*
Y8034700D01*
X9280400D01*
Y8145100D01*
D02*
G37*
G36*
X9075299Y8292700D02*
X9060301D01*
X9046445Y8286961D01*
X9035839Y8276355D01*
X9030100Y8262499D01*
Y8247501D01*
X9035839Y8233645D01*
X9046445Y8223039D01*
X9060301Y8217300D01*
X9062219D01*
X9078911Y8200608D01*
Y7942049D01*
X9059608D01*
Y7764149D01*
X9150008D01*
Y7942049D01*
X9130706D01*
Y8211335D01*
X9128735Y8221246D01*
X9123121Y8229647D01*
X9105432Y8247336D01*
X9105500Y8247501D01*
Y8262499D01*
X9099761Y8276355D01*
X9089155Y8286961D01*
X9075299Y8292700D01*
D02*
G37*
G36*
X7502800Y7864208D02*
X7493000D01*
Y7752363D01*
X7536345D01*
Y7830663D01*
X7533791Y7843500D01*
X7526520Y7854383D01*
X7515637Y7861654D01*
X7502800Y7864208D01*
D02*
G37*
G36*
X7467600D02*
X7457800D01*
X7444963Y7861654D01*
X7434080Y7854383D01*
X7426809Y7843500D01*
X7424255Y7830663D01*
Y7752363D01*
X7467600D01*
Y7864208D01*
D02*
G37*
G36*
X8509000Y7823200D02*
X8421300D01*
Y7822682D01*
X8428142Y7797147D01*
X8441360Y7774253D01*
X8460053Y7755560D01*
X8482947Y7742342D01*
X8508482Y7735500D01*
X8509000D01*
Y7823200D01*
D02*
G37*
G36*
X10532850Y7759700D02*
X10443900D01*
Y7714500D01*
X10532850D01*
Y7759700D01*
D02*
G37*
G36*
X10418500D02*
X10329550D01*
Y7714500D01*
X10418500D01*
Y7759700D01*
D02*
G37*
G36*
X8897508Y7717783D02*
X8839809D01*
Y7665083D01*
X8897508D01*
Y7717783D01*
D02*
G37*
G36*
X8814409D02*
X8756709D01*
Y7665083D01*
X8814409D01*
Y7717783D01*
D02*
G37*
G36*
X7536345Y7726963D02*
X7493000D01*
Y7615119D01*
X7502800D01*
X7515637Y7617672D01*
X7526520Y7624944D01*
X7533791Y7635826D01*
X7536345Y7648663D01*
Y7726963D01*
D02*
G37*
G36*
X7467600D02*
X7424255D01*
Y7648663D01*
X7426809Y7635826D01*
X7434080Y7624944D01*
X7444963Y7617672D01*
X7457800Y7615119D01*
X7467600D01*
Y7726963D01*
D02*
G37*
G36*
X6931142Y7605334D02*
X6820742D01*
Y7571031D01*
X6793219D01*
X6787156Y7577094D01*
X6773300Y7582833D01*
X6758302D01*
X6744445Y7577094D01*
X6733840Y7566489D01*
X6728101Y7552633D01*
Y7537634D01*
X6733840Y7523778D01*
X6744445Y7513173D01*
X6758302Y7507434D01*
X6773300D01*
X6787156Y7513173D01*
X6793219Y7519236D01*
X6820742D01*
Y7484933D01*
X6931142D01*
Y7605334D01*
D02*
G37*
G36*
X11435350Y7796500D02*
X11186400D01*
Y7547550D01*
X11199470D01*
X11250020Y7557605D01*
X11297638Y7577329D01*
X11340492Y7605963D01*
X11376937Y7642408D01*
X11405571Y7685262D01*
X11425295Y7732880D01*
X11435350Y7783430D01*
Y7796500D01*
D02*
G37*
G36*
X11161000D02*
X10912050D01*
Y7783430D01*
X10922105Y7732880D01*
X10941829Y7685262D01*
X10970463Y7642408D01*
X11006908Y7605963D01*
X11049762Y7577329D01*
X11097380Y7557605D01*
X11147930Y7547550D01*
X11161000D01*
Y7796500D01*
D02*
G37*
G36*
X7091142Y7605334D02*
X6980742D01*
Y7484933D01*
X7091142D01*
Y7518787D01*
X7108334D01*
X7114397Y7512724D01*
X7128253Y7506985D01*
X7143251D01*
X7157108Y7512724D01*
X7167713Y7523329D01*
X7173452Y7537186D01*
Y7552184D01*
X7167713Y7566040D01*
X7157108Y7576645D01*
X7143251Y7582385D01*
X7128253D01*
X7114397Y7576645D01*
X7108334Y7570582D01*
X7091142D01*
Y7605334D01*
D02*
G37*
G36*
X9300908Y7412349D02*
X9289708D01*
X9288208Y7412349D01*
X9244509D01*
Y7310699D01*
Y7209049D01*
X9288208D01*
X9289708Y7209049D01*
X9300908D01*
X9302409Y7209049D01*
X9346109D01*
Y7310699D01*
Y7412349D01*
X9302409D01*
X9300908Y7412349D01*
D02*
G37*
G36*
X9173908D02*
X9162708D01*
X9161208Y7412349D01*
X9117509D01*
Y7310699D01*
Y7209049D01*
X9161208D01*
X9162708Y7209049D01*
X9173908D01*
X9175409Y7209049D01*
X9219109D01*
Y7310699D01*
Y7412349D01*
X9175409D01*
X9173908Y7412349D01*
D02*
G37*
G36*
X9371509Y7412349D02*
Y7323399D01*
X9416708D01*
Y7412349D01*
X9371509D01*
D02*
G37*
G36*
X8965109D02*
X8919908D01*
Y7323399D01*
X8965109D01*
Y7412349D01*
D02*
G37*
G36*
X8351000Y7828800D02*
X8230600D01*
Y7718400D01*
X8264902D01*
Y7533400D01*
X8266874Y7523489D01*
X8272488Y7515088D01*
X8415688Y7371888D01*
X8424089Y7366274D01*
X8434000Y7364303D01*
Y7240200D01*
X8609400D01*
Y7415600D01*
X8461903D01*
X8459400Y7416098D01*
X8444727D01*
X8316698Y7544127D01*
Y7718400D01*
X8351000D01*
Y7828800D01*
D02*
G37*
G36*
X9416708Y7297999D02*
X9371509D01*
Y7209049D01*
X9416708D01*
Y7297999D01*
D02*
G37*
G36*
X9046908Y7412349D02*
X9035708D01*
X9034208Y7412349D01*
X8990509D01*
Y7310699D01*
Y7209049D01*
X9034208D01*
X9035708Y7209049D01*
X9046908D01*
X9048409Y7209049D01*
X9092109D01*
Y7310699D01*
Y7412349D01*
X9048409D01*
X9046908Y7412349D01*
D02*
G37*
G36*
X8965109Y7297999D02*
X8919908D01*
Y7209049D01*
X8965109D01*
Y7297999D01*
D02*
G37*
%LPD*%
G36*
X11645900Y11861800D02*
Y11684000D01*
X11607800Y11645900D01*
X11557000Y11595100D01*
X10668000D01*
X10502900Y11595100D01*
X10490200Y11607800D01*
Y11760200D01*
X10515600Y11785600D01*
X11201400D01*
X11353800Y11938000D01*
X11569700D01*
X11645900Y11861800D01*
D02*
G37*
G36*
X10464800Y12103100D02*
Y11808050D01*
X10453575Y11796825D01*
X10442347Y11780021D01*
X10438405Y11760200D01*
Y11607801D01*
X10438405Y11607800D01*
X10440931Y11595100D01*
X10431963Y11582400D01*
X10299482D01*
Y11619460D01*
X10204082D01*
X10108682D01*
Y11582400D01*
X10083800D01*
X10058400Y11607800D01*
Y11849100D01*
X9982200Y11925300D01*
X9537700D01*
X9525000Y11938000D01*
Y12179300D01*
X9537700Y12192000D01*
X10375900D01*
X10464800Y12103100D01*
D02*
G37*
%LPC*%
G36*
X10299482Y11735259D02*
X10229482D01*
Y11670260D01*
X10299482D01*
Y11735259D01*
D02*
G37*
G36*
X10178682D02*
X10108682D01*
Y11670260D01*
X10178682D01*
Y11735259D01*
D02*
G37*
%LPD*%
G36*
X9296400Y11772900D02*
Y11633200D01*
X9283700Y11620500D01*
X8661400D01*
X8636000Y11595100D01*
X8509995Y11595100D01*
X8497295Y11607800D01*
Y11799295D01*
X8521700Y11823700D01*
X9245600D01*
X9296400Y11772900D01*
D02*
G37*
G36*
X8445500Y12103100D02*
Y11595100D01*
X8432800Y11582400D01*
X8280182D01*
Y11632160D01*
X8184782D01*
X8089382D01*
Y11582400D01*
X8064500D01*
X8039100Y11607800D01*
Y11849100D01*
X7962900Y11925300D01*
X7518400D01*
X7505700Y11938000D01*
Y12179300D01*
X7518400Y12192000D01*
X8356600D01*
X8445500Y12103100D01*
D02*
G37*
%LPC*%
G36*
X8280182Y11747959D02*
X8210182D01*
Y11682960D01*
X8280182D01*
Y11747959D01*
D02*
G37*
G36*
X8159382D02*
X8089382D01*
Y11682960D01*
X8159382D01*
Y11747959D01*
D02*
G37*
%LPD*%
G36*
X9918700Y11595100D02*
Y11353800D01*
X9893300Y11328400D01*
X9817100D01*
X9811032Y11322332D01*
X9800600Y11316800D01*
Y11316800D01*
X9800599Y11316800D01*
X9735601D01*
Y11201399D01*
Y11086000D01*
X9791700D01*
Y11023600D01*
X9753600Y10985500D01*
X9588500Y10985500D01*
X9563100Y10960100D01*
Y10896600D01*
X9550400Y10883900D01*
X9486900D01*
X9474200Y10896600D01*
Y11067500D01*
X9502021D01*
Y11137900D01*
Y11208300D01*
X9474200D01*
Y11557000D01*
X9537700Y11620500D01*
X9893300D01*
X9918700Y11595100D01*
D02*
G37*
G36*
X9563100Y10756900D02*
X9594300D01*
Y10732499D01*
X9664700D01*
X9735100D01*
Y10756900D01*
X9956800D01*
X9982200Y10731500D01*
Y10388600D01*
X9969500Y10375900D01*
X9501860D01*
X9496767Y10382318D01*
X9502327Y10394800D01*
X9519900D01*
Y10490200D01*
Y10585600D01*
X9474200D01*
Y10769600D01*
X9486900Y10782300D01*
X9537700D01*
X9563100Y10756900D01*
D02*
G37*
G36*
X9740900Y9601200D02*
Y9575800D01*
X9695430Y9530330D01*
X9672660Y9553100D01*
X9622880Y9503320D01*
X9613900Y9512300D01*
X9604920Y9503320D01*
X9558675Y9549565D01*
X9525825Y9516715D01*
X9516698Y9508088D01*
X9516698D01*
X9475898Y9467288D01*
X9522143Y9421044D01*
X9504182Y9403083D01*
X9457938Y9449328D01*
X9447917Y9439308D01*
X9436213Y9445564D01*
X9436447Y9446743D01*
X9434214Y9457971D01*
X9427854Y9467489D01*
X9408462Y9486881D01*
X9380557Y9458977D01*
X9362596Y9476937D01*
X9390501Y9504842D01*
X9379303Y9516040D01*
X9390501Y9527238D01*
X9362597Y9555143D01*
X9371577Y9564123D01*
X9362597Y9573103D01*
X9418568Y9629075D01*
X9418473Y9631056D01*
X9512300Y9715500D01*
X9626600D01*
X9740900Y9601200D01*
D02*
G37*
G36*
X8191500Y9715499D02*
X8331200Y9575800D01*
X8369300D01*
X8407400Y9613900D01*
X8431896D01*
X8438053Y9601200D01*
X8434955Y9596564D01*
X8432722Y9585337D01*
X8434955Y9574109D01*
X8441315Y9564591D01*
X8460707Y9545199D01*
X8488612Y9573103D01*
X8506573Y9555143D01*
X8478668Y9527238D01*
X8488260Y9517646D01*
X8425172Y9452066D01*
X8408902Y9450376D01*
X8386169Y9473109D01*
X8339925Y9426864D01*
X8321964Y9444824D01*
X8368209Y9491069D01*
X8327409Y9531869D01*
X8327409D01*
X8325107Y9532913D01*
X8284308Y9573713D01*
X8238063Y9527468D01*
X8229083Y9536449D01*
X8220103Y9527468D01*
X8170322Y9577249D01*
X8148437Y9555363D01*
X8077200Y9626600D01*
X8077200Y9652000D01*
X8140700Y9715500D01*
X8191500Y9715499D01*
D02*
G37*
G36*
X8923386Y9060123D02*
X8942282Y9079018D01*
X8953500Y9067800D01*
Y9042400D01*
X8928100Y9017000D01*
X9105900Y8839200D01*
Y8712200D01*
X9067800Y8674100D01*
X9029700D01*
X8952480Y8751320D01*
X8974994Y8773834D01*
X8925214Y8823614D01*
X8934194Y8832594D01*
X8925214Y8841574D01*
X8971459Y8887819D01*
X8930659Y8928619D01*
X8928619Y8930659D01*
X8887819Y8971459D01*
X8841575Y8925214D01*
X8823614Y8943174D01*
X8869859Y8989419D01*
X8856252Y9003026D01*
X8862509Y9014730D01*
X8865288Y9014177D01*
X8876515Y9016410D01*
X8886033Y9022770D01*
X8905426Y9042163D01*
X8877520Y9070068D01*
X8895481Y9088028D01*
X8923386Y9060123D01*
D02*
G37*
G36*
X8794145Y9073527D02*
X8794868Y9072444D01*
X8809187Y9058125D01*
X8813332Y9055356D01*
X8816791Y9048646D01*
X8817340Y9042457D01*
X8816860Y9039184D01*
X8816830Y9039147D01*
X8810573Y9027442D01*
X8809828Y9024984D01*
X8808400Y9022847D01*
X8806915Y9015384D01*
X8804707Y9008103D01*
X8804959Y9005546D01*
X8804457Y9003026D01*
X8805413Y8998222D01*
X8786990Y8979799D01*
X8786989Y8979799D01*
X8775761Y8962995D01*
X8774760Y8957959D01*
X8758631Y8941831D01*
X8754530Y8937730D01*
X8742691Y8939810D01*
X8740670Y8941831D01*
X8703406Y8904566D01*
X8753186Y8854786D01*
X8744206Y8845806D01*
X8753186Y8836826D01*
X8706941Y8790581D01*
X8740800Y8756722D01*
X8747741Y8749781D01*
X8756722Y8740800D01*
X8790581Y8706941D01*
X8836825Y8753186D01*
X8845806Y8744206D01*
X8854786Y8753186D01*
X8904566Y8703406D01*
X8915855Y8714695D01*
X8993075Y8637475D01*
X9009879Y8626247D01*
X9029700Y8622305D01*
X9050319D01*
X9055580Y8609605D01*
X8622924Y8176949D01*
X8617310Y8168547D01*
X8615339Y8158636D01*
Y8132663D01*
X8613606Y8131514D01*
X8596648Y8135486D01*
X8591877Y8143749D01*
X8575549Y8160077D01*
X8555551Y8171623D01*
X8533246Y8177600D01*
X8510154D01*
X8487849Y8171623D01*
X8480718Y8167506D01*
X8382498Y8265727D01*
Y8679841D01*
X8777885Y9075228D01*
X8794145Y9073527D01*
D02*
G37*
G36*
X7937500Y8394700D02*
Y8204200D01*
X7924800Y8191500D01*
X7855499D01*
Y8220845D01*
X7785099D01*
X7714700D01*
Y8191500D01*
X7696200D01*
X7675078Y8170378D01*
X7663345Y8175238D01*
Y8220963D01*
X7607300D01*
Y8233663D01*
X7594600D01*
Y8358208D01*
X7584800D01*
X7575344Y8365969D01*
Y8388144D01*
X7620000Y8432800D01*
X7899400D01*
X7937500Y8394700D01*
D02*
G37*
%LPC*%
G36*
X9684801Y11316800D02*
X9619800D01*
Y11226799D01*
X9684801D01*
Y11316800D01*
D02*
G37*
G36*
X9592821Y11208300D02*
X9552821D01*
Y11163300D01*
X9592821D01*
Y11208300D01*
D02*
G37*
G36*
X9684801Y11175999D02*
X9619800D01*
Y11086000D01*
X9684801D01*
Y11175999D01*
D02*
G37*
G36*
X9592821Y11112500D02*
X9552821D01*
Y11067500D01*
X9592821D01*
Y11112500D01*
D02*
G37*
G36*
X9735100Y10681699D02*
X9690100D01*
Y10641700D01*
X9735100D01*
Y10681699D01*
D02*
G37*
G36*
X9639300D02*
X9594300D01*
Y10641700D01*
X9639300D01*
Y10681699D01*
D02*
G37*
G36*
X9635700Y10585600D02*
X9570700D01*
Y10515600D01*
X9635700D01*
Y10585600D01*
D02*
G37*
G36*
Y10464800D02*
X9570700D01*
Y10394800D01*
X9635700D01*
Y10464800D01*
D02*
G37*
G36*
X9429313Y9603899D02*
X9389538Y9564123D01*
X9408462Y9545199D01*
X9427854Y9564591D01*
X9434214Y9574109D01*
X9436447Y9585337D01*
X9434214Y9596564D01*
X9429313Y9603899D01*
D02*
G37*
G36*
X9617435Y9608325D02*
X9576635Y9567525D01*
X9613900Y9530261D01*
X9654700Y9571060D01*
X9617435Y9608325D01*
D02*
G37*
G36*
X8225547Y9632473D02*
X8188283Y9595209D01*
X8229083Y9554409D01*
X8266347Y9591673D01*
X8225547Y9632473D01*
D02*
G37*
G36*
X8989419Y8869859D02*
X8952155Y8832594D01*
X8992955Y8791794D01*
X9030219Y8829059D01*
X8989419Y8869859D01*
D02*
G37*
G36*
X8685445Y8886606D02*
X8648181Y8849341D01*
X8688981Y8808541D01*
X8726245Y8845806D01*
X8685445Y8886606D01*
D02*
G37*
G36*
X8845806Y8726245D02*
X8808541Y8688981D01*
X8849341Y8648181D01*
X8886606Y8685445D01*
X8845806Y8726245D01*
D02*
G37*
G36*
X8533246Y8431600D02*
X8510154D01*
X8487849Y8425623D01*
X8467851Y8414077D01*
X8451523Y8397749D01*
X8439977Y8377751D01*
X8434000Y8355446D01*
Y8332354D01*
X8439977Y8310049D01*
X8451523Y8290051D01*
X8467851Y8273723D01*
X8487849Y8262177D01*
X8510154Y8256200D01*
X8533246D01*
X8555551Y8262177D01*
X8575549Y8273723D01*
X8591877Y8290051D01*
X8603423Y8310049D01*
X8609400Y8332354D01*
Y8355446D01*
X8603423Y8377751D01*
X8591877Y8397749D01*
X8575549Y8414077D01*
X8555551Y8425623D01*
X8533246Y8431600D01*
D02*
G37*
G36*
X7629800Y8358208D02*
X7620000D01*
Y8246363D01*
X7663345D01*
Y8324663D01*
X7660791Y8337500D01*
X7653520Y8348383D01*
X7642637Y8355654D01*
X7629800Y8358208D01*
D02*
G37*
G36*
X7855499Y8298945D02*
X7797799D01*
Y8246245D01*
X7855499D01*
Y8298945D01*
D02*
G37*
G36*
X7772399D02*
X7714700D01*
Y8246245D01*
X7772399D01*
Y8298945D01*
D02*
G37*
%LPD*%
G36*
X7874000Y11607800D02*
Y11353800D01*
X7835900Y11315700D01*
X7797800D01*
X7793033Y11310933D01*
X7781300Y11315793D01*
Y11316800D01*
X7716300D01*
Y11201400D01*
Y11086000D01*
X7772400D01*
Y10858500D01*
X7721600Y10807700D01*
X7404100D01*
X7327900Y10883900D01*
Y11582400D01*
X7366000Y11620500D01*
X7861300D01*
X7874000Y11607800D01*
D02*
G37*
%LPC*%
G36*
X7665500Y11316800D02*
X7600500D01*
Y11226800D01*
X7665500D01*
Y11316800D01*
D02*
G37*
G36*
Y11176000D02*
X7600500D01*
Y11086000D01*
X7665500D01*
Y11176000D01*
D02*
G37*
%LPD*%
G36*
X7937500Y9601139D02*
Y9410639D01*
X7924800Y9397939D01*
X7855499D01*
Y9427284D01*
X7785099D01*
X7714700D01*
Y9397939D01*
X7696200D01*
X7675078Y9376817D01*
X7663345Y9381677D01*
Y9429100D01*
X7607300D01*
Y9441800D01*
X7594600D01*
Y9566345D01*
X7584800D01*
X7575344Y9574105D01*
Y9594583D01*
X7620000Y9639239D01*
X7899400D01*
X7937500Y9601139D01*
D02*
G37*
%LPC*%
G36*
X7629800Y9566345D02*
X7620000D01*
Y9454500D01*
X7663345D01*
Y9532800D01*
X7660791Y9545637D01*
X7653520Y9556520D01*
X7642637Y9563791D01*
X7629800Y9566345D01*
D02*
G37*
G36*
X7855499Y9505384D02*
X7797799D01*
Y9452684D01*
X7855499D01*
Y9505384D01*
D02*
G37*
G36*
X7772399D02*
X7714700D01*
Y9452684D01*
X7772399D01*
Y9505384D01*
D02*
G37*
G36*
X6435400Y11163800D02*
X6400000D01*
Y11128400D01*
X6435400D01*
Y11163800D01*
D02*
G37*
G36*
X6300000D02*
X6264600D01*
Y11128400D01*
X6300000D01*
Y11163800D01*
D02*
G37*
G36*
X6435400Y11028400D02*
X6400000D01*
Y10993000D01*
X6435400D01*
Y11028400D01*
D02*
G37*
G36*
X6300000D02*
X6264600D01*
Y10993000D01*
X6300000D01*
Y11028400D01*
D02*
G37*
G36*
X6566900Y10586000D02*
X6514200D01*
Y10528300D01*
X6566900D01*
Y10586000D01*
D02*
G37*
G36*
Y10502900D02*
X6514200D01*
Y10445200D01*
X6566900D01*
Y10502900D01*
D02*
G37*
%LPD*%
D10*
X9715500Y11482900D02*
D03*
Y12062900D02*
D03*
X7696200Y11482900D02*
D03*
Y12062900D02*
D03*
D11*
X7432061Y8565782D02*
D03*
X7272061D02*
D03*
X7432061Y9772282D02*
D03*
X7272061D02*
D03*
X9385300Y10490200D02*
D03*
X9545300D02*
D03*
D12*
X6286500Y10470800D02*
D03*
Y9950800D02*
D03*
D13*
X8638481Y10127994D02*
D03*
X8726869Y10039606D02*
D03*
X9513163Y9412063D02*
D03*
X9601551Y9323675D02*
D03*
X9702288Y9423912D02*
D03*
X9613900Y9512300D02*
D03*
D14*
X8886501Y9953032D02*
D03*
X8851146Y9917677D02*
D03*
X8815791Y9882321D02*
D03*
X8780435Y9846966D02*
D03*
X8745080Y9811611D02*
D03*
X8709725Y9776255D02*
D03*
X8674369Y9740900D02*
D03*
X8639014Y9705544D02*
D03*
X8603659Y9670189D02*
D03*
X8568303Y9634834D02*
D03*
X8532948Y9599478D02*
D03*
X8497593Y9564123D02*
D03*
X8982668Y9079048D02*
D03*
X9018023Y9114403D02*
D03*
X9053379Y9149759D02*
D03*
X9088734Y9185114D02*
D03*
X9124089Y9220469D02*
D03*
X9159445Y9255825D02*
D03*
X9194800Y9291180D02*
D03*
X9230155Y9326535D02*
D03*
X9265511Y9361891D02*
D03*
X9300866Y9397246D02*
D03*
X9336221Y9432601D02*
D03*
X9371577Y9467956D02*
D03*
D15*
Y9564123D02*
D03*
X9336221Y9599478D02*
D03*
X9300866Y9634834D02*
D03*
X9265511Y9670189D02*
D03*
X9230155Y9705544D02*
D03*
X9194800Y9740900D02*
D03*
X9159445Y9776255D02*
D03*
X9124089Y9811611D02*
D03*
X9088734Y9846966D02*
D03*
X9053379Y9882321D02*
D03*
X9018023Y9917677D02*
D03*
X8982668Y9953032D02*
D03*
X8497593Y9467956D02*
D03*
X8532948Y9432601D02*
D03*
X8568303Y9397246D02*
D03*
X8603659Y9361891D02*
D03*
X8639014Y9326535D02*
D03*
X8674369Y9291180D02*
D03*
X8709725Y9255825D02*
D03*
X8745080Y9220469D02*
D03*
X8780435Y9185114D02*
D03*
X8815791Y9149759D02*
D03*
X8851146Y9114403D02*
D03*
X8886501Y9079048D02*
D03*
D16*
X8934585Y9516040D02*
D03*
D17*
X9355820Y10027292D02*
D03*
X9267432Y9938904D02*
D03*
X9061706Y10141206D02*
D03*
X9150094Y10229594D02*
D03*
X9163306Y10039606D02*
D03*
X9251694Y10127994D02*
D03*
X8832594Y8934194D02*
D03*
X8744206Y8845806D02*
D03*
X8934194Y8832594D02*
D03*
X8845806Y8744206D02*
D03*
X8330944Y9435844D02*
D03*
X8242556Y9347456D02*
D03*
X8229083Y9536449D02*
D03*
X8140694Y9448060D02*
D03*
D18*
X9455803Y8960445D02*
D03*
X9342666Y9073582D02*
D03*
X9448193Y9185960D02*
D03*
X9561330Y9072822D02*
D03*
D19*
X10252700Y9037049D02*
D03*
X10092700D02*
D03*
X10252700Y9214849D02*
D03*
X10092700D02*
D03*
X10252700Y9392649D02*
D03*
X10092700D02*
D03*
D20*
X9888800Y8788400D02*
D03*
Y8661400D02*
D03*
Y8534400D02*
D03*
Y8407400D02*
D03*
X10431200D02*
D03*
Y8534400D02*
D03*
Y8661400D02*
D03*
Y8788400D02*
D03*
X9888800Y8153400D02*
D03*
Y8026400D02*
D03*
Y7899400D02*
D03*
Y7772400D02*
D03*
X10431200D02*
D03*
Y7899400D02*
D03*
Y8026400D02*
D03*
Y8153400D02*
D03*
D21*
X9881600Y9766300D02*
D03*
X10006600D02*
D03*
X9402421Y11137900D02*
D03*
X9527421D02*
D03*
X9881290Y10219060D02*
D03*
X10006290D02*
D03*
X6704600Y10515600D02*
D03*
X6579600D02*
D03*
D22*
X9715500Y8535400D02*
D03*
Y8660400D02*
D03*
X9172821Y10883900D02*
D03*
Y10758900D02*
D03*
X9664700Y10832100D02*
D03*
Y10707100D02*
D03*
X7785099Y8233545D02*
D03*
Y8108545D02*
D03*
Y9439984D02*
D03*
Y9314984D02*
D03*
X7124700Y10299700D02*
D03*
Y10174700D02*
D03*
X8827109Y7855483D02*
D03*
Y7730483D02*
D03*
D23*
X9220200Y8249900D02*
D03*
Y8089900D02*
D03*
X9372600Y8249900D02*
D03*
Y8089900D02*
D03*
X8760700Y10618400D02*
D03*
Y10778400D02*
D03*
X8917700Y10621100D02*
D03*
Y10781100D02*
D03*
X5082300Y11720900D02*
D03*
Y11560900D02*
D03*
X4582716Y11898363D02*
D03*
Y12058363D02*
D03*
X6974600Y10298500D02*
D03*
Y10138500D02*
D03*
X8290800Y7933600D02*
D03*
Y7773600D02*
D03*
D24*
X9509121Y10708100D02*
D03*
X9319121D02*
D03*
Y10958100D02*
D03*
X9414121D02*
D03*
X9509121D02*
D03*
X6770471Y10338128D02*
D03*
X6675471D02*
D03*
X6580471D02*
D03*
Y10088128D02*
D03*
X6770471D02*
D03*
D25*
X8640100Y12052300D02*
D03*
X8200100D02*
D03*
X10206700D02*
D03*
X10646700D02*
D03*
D26*
X10204082Y11484859D02*
D03*
Y11644859D02*
D03*
X8184782Y11657559D02*
D03*
Y11497559D02*
D03*
D27*
X10433300Y11669300D02*
D03*
X10528300D02*
D03*
X10623300D02*
D03*
Y11419300D02*
D03*
X10528300D02*
D03*
X10433300D02*
D03*
X8414000Y11432000D02*
D03*
X8509000D02*
D03*
X8604000D02*
D03*
Y11682000D02*
D03*
X8509000D02*
D03*
X8414000D02*
D03*
D28*
X9710200Y11201400D02*
D03*
X10000200D02*
D03*
X7980900D02*
D03*
X7690900D02*
D03*
D29*
X8801100Y11406700D02*
D03*
Y11696700D02*
D03*
X10833100D02*
D03*
Y11406700D02*
D03*
D30*
X8770600Y11163300D02*
D03*
X8610600D02*
D03*
Y11010900D02*
D03*
X8770600D02*
D03*
X10630955Y10983217D02*
D03*
X10790955D02*
D03*
X10627055Y11137917D02*
D03*
X10787055D02*
D03*
X10019100Y9916400D02*
D03*
X9859100D02*
D03*
X10019100Y10068800D02*
D03*
X9859100D02*
D03*
X6875942Y7545134D02*
D03*
X7035942D02*
D03*
X6875942Y8435100D02*
D03*
X7035942D02*
D03*
X6874954Y9636922D02*
D03*
X7034954D02*
D03*
X6875942Y8752600D02*
D03*
X7035942D02*
D03*
X4370000Y11546600D02*
D03*
X4530000D02*
D03*
X5233600Y11559300D02*
D03*
X5393600D02*
D03*
D31*
X10287000Y9802600D02*
D03*
Y10212600D02*
D03*
D32*
X7607300Y8233663D02*
D03*
X7480300D02*
D03*
X7353300D02*
D03*
X7226300D02*
D03*
Y7739663D02*
D03*
X7353300D02*
D03*
X7480300D02*
D03*
X7607300D02*
D03*
Y9441800D02*
D03*
X7480300D02*
D03*
X7353300D02*
D03*
X7226300D02*
D03*
Y8947800D02*
D03*
X7353300D02*
D03*
X7480300D02*
D03*
X7607300D02*
D03*
D33*
X5232400Y7666400D02*
D03*
Y9546000D02*
D03*
X3873500Y10392500D02*
D03*
Y8512900D02*
D03*
D34*
X4978400Y8716400D02*
D03*
X5486400D02*
D03*
X4978400Y10596000D02*
D03*
X5486400D02*
D03*
X4127500Y9342500D02*
D03*
X3619500D02*
D03*
X4127500Y7462900D02*
D03*
X3619500D02*
D03*
D35*
X4364600Y11747500D02*
D03*
Y12204700D02*
D03*
D36*
X3721100Y11976100D02*
D03*
D37*
X4911700Y11538200D02*
D03*
Y11728200D02*
D03*
X4711700Y11633200D02*
D03*
D38*
X8977808Y7853099D02*
D03*
X9104808D02*
D03*
X9231808D02*
D03*
X9358808D02*
D03*
Y7310699D02*
D03*
X9231808D02*
D03*
X9104808D02*
D03*
X8977808D02*
D03*
D39*
X8290800Y7533400D02*
X8434000Y7390200D01*
X8290800Y7533400D02*
Y7773600D01*
X8459400Y7390200D02*
X8521700Y7327900D01*
X8434000Y7390200D02*
X8459400D01*
X8521700Y7581900D02*
X8641236Y7701436D01*
Y8158636D01*
X9144000Y8661400D01*
X8356600Y8690568D02*
X8815791Y9149759D01*
X7568647Y7567756D02*
X7603954Y7603063D01*
Y7736317D01*
X7568647Y7567655D02*
Y7567756D01*
X7445991Y7505700D02*
X7715756D01*
X7764042Y7553985D01*
X7354646Y7597045D02*
X7445991Y7505700D01*
X7764042Y7553985D02*
X7767246D01*
X7797800Y7454900D02*
X8013700Y7670800D01*
X7226300Y7594600D02*
X7366000Y7454900D01*
X7797800D01*
X7603954Y7736317D02*
X7607300Y7739663D01*
X10431200Y8407400D02*
X10436232Y8402368D01*
Y8228466D02*
Y8402368D01*
X6827069Y10088128D02*
X6853312Y10114370D01*
X6770471Y10088128D02*
X6827069D01*
X6853312Y10114370D02*
Y10118943D01*
X9163306Y10000998D02*
X9181138Y9983165D01*
X9088734Y9846966D02*
X9181138Y9939370D01*
X9163306Y10000998D02*
Y10039606D01*
X9181138Y9939370D02*
Y9983165D01*
X9102279Y9949478D02*
X9106986Y9954185D01*
X9052827Y9953612D02*
Y9987466D01*
X9055904Y9990542D01*
X5082300Y11560900D02*
X5232000D01*
X5233600Y11559300D01*
X4582716Y11809016D02*
Y11898363D01*
X4521200Y11747500D02*
X4582716Y11809016D01*
X8890000Y10071100D02*
X8994802Y9966298D01*
Y9965166D02*
Y9966298D01*
X8982668Y9953032D02*
X8994802Y9965166D01*
X8729217Y10039420D02*
Y10039606D01*
Y10039420D02*
X8790120Y9978517D01*
X8851053Y9917677D02*
X8851146D01*
X8790120Y9978517D02*
X8790213D01*
X8851053Y9917677D01*
X9191014Y9858896D02*
X9267432Y9935314D01*
X9191014Y9808955D02*
Y9858896D01*
X9159445Y9777387D02*
X9191014Y9808955D01*
X9267432Y9935314D02*
Y9938904D01*
X8291659Y7934459D02*
Y8041624D01*
X8290800Y7933600D02*
X8291659Y7934459D01*
X4364600Y11747500D02*
X4521200D01*
X4911700Y11538200D02*
X5059600D01*
X5082300Y11560900D01*
X4530000Y11546600D02*
X4533900Y11550500D01*
X4548779Y11633200D02*
X4711700D01*
X4533900Y11618321D02*
X4548779Y11633200D01*
X4533900Y11550500D02*
Y11618321D01*
X4364600Y11552000D02*
X4370000Y11546600D01*
X4364600Y11552000D02*
Y11747500D01*
X6765801Y7545134D02*
X6875942D01*
X6764397Y8436503D02*
X6874538D01*
X6764397Y8754003D02*
X6874538D01*
X6875942Y8752600D01*
X6743700Y9639300D02*
X6872576D01*
X6874954Y9636922D01*
X5524500Y10883900D02*
X5613400D01*
X5486400Y10845800D02*
X5524500Y10883900D01*
X5486400Y10596000D02*
Y10845800D01*
X5537200Y9004300D02*
X5600700D01*
X5486400Y8953500D02*
X5537200Y9004300D01*
X5486400Y8716400D02*
Y8953500D01*
X3619500Y7239000D02*
X3657600Y7200900D01*
X3721100D01*
X3619500Y7239000D02*
Y7462900D01*
X3690993Y9072507D02*
X3695700Y9067800D01*
X3652893Y9072507D02*
X3690993D01*
X3619500Y9105900D02*
X3652893Y9072507D01*
X3619500Y9105900D02*
Y9342500D01*
X7036390Y7544685D02*
X7135752D01*
X8013700Y7670800D02*
Y8630511D01*
X7354646Y7597045D02*
Y7738317D01*
X7606588Y8805775D02*
Y8947088D01*
X7605877Y8805063D02*
X7606588Y8805775D01*
Y8947088D02*
X7607300Y8947800D01*
X7135100Y8752600D02*
X7137400Y8750300D01*
X7035942Y8752600D02*
X7135100D01*
X7353300Y9441800D02*
Y9577437D01*
X7035942Y9643237D02*
X7036839Y9642339D01*
X7136201D01*
X7036839Y8434203D02*
X7136201D01*
X7035942Y8435100D02*
X7036839Y8434203D01*
X7353300Y8233663D02*
Y8369300D01*
X7850646Y8750300D02*
X8532948Y9432601D01*
X7353300Y8813800D02*
X7416800Y8750300D01*
X7850646D01*
X8011979Y8699500D02*
X8639014Y9326535D01*
X7226300Y8763000D02*
X7289800Y8699500D01*
X8011979D01*
X6770471Y10315800D02*
Y10338128D01*
X6787771Y10298500D02*
X6974600D01*
X6770471Y10315800D02*
X6787771Y10298500D01*
X6975800Y10299700D02*
X7124700D01*
X6974600Y10298500D02*
X6975800Y10299700D01*
X10623300Y10990872D02*
Y11419300D01*
Y10990872D02*
X10630955Y10983217D01*
X10790214Y10982476D02*
X10790955Y10983217D01*
X10790214Y10877969D02*
Y10982476D01*
X9455098Y8960445D02*
X9455803D01*
X9386752Y8892099D02*
X9455098Y8960445D01*
X9525000Y8382000D02*
X9753600Y8153400D01*
X9525000Y8382000D02*
Y8597900D01*
X9753600Y8153400D02*
X9888800D01*
X10255000Y9039349D02*
X10338245D01*
X10252700Y9037049D02*
X10255000Y9039349D01*
Y9217149D02*
X10338245D01*
X10252700Y9214849D02*
X10255000Y9217149D01*
X10252700Y9392649D02*
X10255770Y9395719D01*
X10341034D01*
X9053806Y9882321D02*
Y9883880D01*
X9018023Y9918808D02*
X9052827Y9953612D01*
X9018023Y9917677D02*
Y9918808D01*
X9053806Y9883880D02*
X9102279Y9932353D01*
Y9949478D01*
X9061706Y10141206D02*
X9166841Y10036070D01*
X8661400Y10299700D02*
X8724900Y10236200D01*
X7124700Y10299700D02*
X8661400D01*
X8128000Y9182100D02*
X8211736D01*
X8497593Y9467956D01*
X5395900Y11557000D02*
X5511800D01*
X5393600Y11559300D02*
X5395900Y11557000D01*
X9104808Y7853099D02*
Y8211335D01*
X9067800Y8248343D02*
X9104808Y8211335D01*
X9067800Y8248343D02*
Y8255000D01*
X9231808Y7965696D02*
Y8078292D01*
Y7853099D02*
Y7965696D01*
X9358808Y7964604D02*
Y8076108D01*
Y7853099D02*
Y7964604D01*
X8505044Y9698093D02*
X8568303Y9634834D01*
X8475607Y9698093D02*
X8505044D01*
X8470900Y9702800D02*
X8475607Y9698093D01*
X8407400Y9766300D02*
X8507548D01*
X8458200Y9829800D02*
X8514758D01*
X8639014Y9705544D01*
X8507548Y9766300D02*
X8603659Y9670189D01*
X9296400Y8496300D02*
Y8547100D01*
Y8496300D02*
X9372600Y8420100D01*
Y8249900D02*
Y8420100D01*
X9220200D02*
X9296400Y8496300D01*
X9220200Y8249900D02*
Y8420100D01*
Y8089900D02*
X9231808Y8078292D01*
X9358808Y8076108D02*
X9372600Y8089900D01*
X8711003Y9116813D02*
X8779304Y9185114D01*
X8780435D01*
X8704677Y9116813D02*
X8711003D01*
X9670053Y7964537D02*
X9671690Y7962900D01*
X9728200D01*
X9774450Y8009150D02*
X9871550D01*
X9888800Y8026400D01*
X9728200Y7962900D02*
X9774450Y8009150D01*
X9728200Y7962900D02*
X9774450Y7916650D01*
X9871550D01*
X9888800Y7899400D01*
X9766300Y8407400D02*
X9888800D01*
X9300866Y9397246D02*
X9300866D01*
X9348213Y9349899D02*
X9382633D01*
X9300866Y9397246D02*
X9348213Y9349899D01*
X9382633D02*
X9383979Y9348553D01*
X9331001Y9296400D02*
X9461500D01*
X9265511Y9361891D02*
X9331001Y9296400D01*
X9461500D02*
X9888800Y8869100D01*
Y8788400D02*
Y8869100D01*
X10380532Y8875530D02*
X10411941Y8844121D01*
Y8807659D02*
X10431200Y8788400D01*
X10411941Y8807659D02*
Y8844121D01*
X9336221Y9599478D02*
X9337353D01*
X9485717Y9747842D02*
X9489020D01*
X9337353Y9599478D02*
X9485717Y9747842D01*
X9387176Y9721479D02*
X9470097Y9804400D01*
X9300866Y9634834D02*
X9387176Y9721144D01*
Y9721479D01*
X9470097Y9804400D02*
X9588500D01*
X9855200Y9537700D01*
X9265511Y9670189D02*
X9437821Y9842500D01*
X9613900D01*
X9906000Y9550400D01*
X9342666Y9080432D02*
X9448193Y9185960D01*
X9342666Y9073582D02*
Y9080432D01*
X9388552Y9245600D02*
X9448193Y9185960D01*
X9311091Y9245600D02*
X9388552D01*
X9448193Y9185960D02*
X9448193D01*
X9230155Y9326535D02*
X9311091Y9245600D01*
X9240926Y8881974D02*
X9525000Y8597900D01*
X9486900Y8039100D02*
Y8582118D01*
X9240926Y8881974D02*
Y9243922D01*
X9194800Y8874218D02*
X9486900Y8582118D01*
X9194800Y8874218D02*
Y9219338D01*
X9486900Y8039100D02*
X9753600Y7772400D01*
X9601200Y8661400D02*
X9714500D01*
X9194800Y9290048D02*
X9240926Y9243922D01*
X9194800Y9290048D02*
Y9291180D01*
X9753600Y7772400D02*
X9888800D01*
X9159445Y9254693D02*
X9194800Y9219338D01*
X9159445Y9254693D02*
Y9255825D01*
X9906000Y9321800D02*
X10012951Y9214849D01*
X9906000Y9321800D02*
Y9550400D01*
X10012951Y9214849D02*
X10092700D01*
X9855200Y9182100D02*
Y9537700D01*
X10000251Y9037049D02*
X10092700D01*
X9855200Y9182100D02*
X10000251Y9037049D01*
X10006600Y9766300D02*
X10250700D01*
X10287000Y9802600D01*
X10019100Y9778800D02*
Y9916400D01*
X10006600Y9766300D02*
X10019100Y9778800D01*
X10006290Y10219060D02*
X10019100Y10206250D01*
Y10068800D02*
Y10206250D01*
X10006290Y10219060D02*
X10280540D01*
X10287000Y10212600D01*
X9159445Y9776255D02*
Y9777387D01*
X9441011Y9916400D02*
X9859100D01*
X9230155Y9705544D02*
X9441011Y9916400D01*
X9522700Y10068800D02*
X9859100D01*
X9194800Y9740900D02*
X9522700Y10068800D01*
X8013700Y8630511D02*
X8674369Y9291180D01*
X7353300Y7739663D02*
X7354646Y7738317D01*
X8013700Y8842642D02*
X8568303Y9397246D01*
X8013700Y8788400D02*
Y8842642D01*
X7353300Y8813800D02*
Y8947800D01*
X7226300Y7594600D02*
Y7739663D01*
Y8763000D02*
Y8947800D01*
X9144000Y8661400D02*
Y8917716D01*
X8982668Y9079048D02*
X9144000Y8917716D01*
X8356600Y8255000D02*
X8521700Y8089900D01*
X8356600Y8255000D02*
Y8690568D01*
X8616386Y9516040D02*
X8934585D01*
X8532948Y9599478D02*
X8616386Y9516040D01*
X8934585D02*
Y9622106D01*
X9124089Y9811611D01*
X8934585Y9516040D02*
X9252783D01*
X9336221Y9432601D01*
X8934585Y9197842D02*
Y9516040D01*
X8851146Y9114403D02*
X8934585Y9197842D01*
X9975203Y9391112D02*
X10091162D01*
X10092700Y9392649D01*
X8775700Y10909300D02*
Y11005800D01*
X8770600Y11010900D02*
X8775700Y11005800D01*
X8915000Y10618400D02*
X8917700Y10621100D01*
X8760700Y10618400D02*
X8915000D01*
X8604000Y11017500D02*
Y11432000D01*
Y11017500D02*
X8610600Y11010900D01*
X8917700Y10898900D02*
X9144000Y11125200D01*
X8917700Y10831900D02*
Y10898900D01*
X9144000Y11125200D02*
Y11455400D01*
X8839200Y10001464D02*
Y10617200D01*
Y10001464D02*
X8886501Y9954163D01*
X9029700Y10203489D02*
Y10312400D01*
X9207500Y10490200D02*
X9385300D01*
X9029700Y10312400D02*
X9207500Y10490200D01*
X9029700Y10203489D02*
X9061706Y10171483D01*
Y10141206D02*
Y10171483D01*
X9715500Y8660400D02*
X9716500Y8661400D01*
X9888800D01*
X9714500D02*
X9715500Y8660400D01*
X9190406Y10741315D02*
X9302677D01*
X9172821Y10758900D02*
X9190406Y10741315D01*
X9293426Y11053811D02*
Y11060468D01*
Y11053811D02*
X9301821Y11045416D01*
Y10975400D02*
Y11045416D01*
Y10975400D02*
X9319121Y10958100D01*
D40*
X6690231Y10352888D02*
Y10501231D01*
X6704600Y10515600D01*
X6675471Y10338128D02*
X6690231Y10352888D01*
X7156082Y9772282D02*
X7272061D01*
X7150100Y8559800D02*
X7266079D01*
X7272061Y8565782D01*
D41*
X10816559Y8779299D02*
Y9076660D01*
X10949800Y9209900D01*
X10841959Y8768778D02*
Y9066139D01*
X11024260Y9184500D02*
X11031700Y9177060D01*
X10949800Y9209900D02*
X11024260D01*
X10960321Y9184500D02*
X11024260D01*
X10841959Y9066139D02*
X10960321Y9184500D01*
X11031700Y9058700D02*
Y9177060D01*
X11024260Y9209900D02*
X11031700Y9217340D01*
Y9335700D01*
X10916500Y8655900D02*
X11024260D01*
X10706100Y8075021D02*
Y8445500D01*
X10927021Y8630500D02*
X11024260D01*
X10731500Y8064500D02*
Y8434979D01*
X11024260Y8630500D02*
X11031700Y8623060D01*
Y8504700D02*
Y8623060D01*
X10706100Y8445500D02*
X10916500Y8655900D01*
X10731500Y8434979D02*
X10927021Y8630500D01*
X11031700Y8663340D02*
Y8781700D01*
X11024260Y8655900D02*
X11031700Y8663340D01*
X10501850Y7975600D02*
X10606679D01*
X10501850Y7950200D02*
X10617200D01*
X10731500Y8064500D01*
X10606679Y7975600D02*
X10706100Y8075021D01*
X10494411Y7983040D02*
Y8000250D01*
X10468260Y8026400D02*
X10494411Y8000250D01*
Y7983040D02*
X10501850Y7975600D01*
X10431200Y8026400D02*
X10468260D01*
Y7899400D02*
X10494411Y7925550D01*
X10431200Y7899400D02*
X10468260D01*
X10494411Y7942760D02*
X10501850Y7950200D01*
X10494411Y7925550D02*
Y7942760D01*
X10501850Y8585200D02*
X10658381D01*
X10647860Y8610600D02*
X10816559Y8779299D01*
X10501850Y8610600D02*
X10647860D01*
X10658381Y8585200D02*
X10841959Y8768778D01*
X10468260Y8661400D02*
X10494411Y8635250D01*
X10468260Y8534400D02*
X10494411Y8560550D01*
X10431200Y8534400D02*
X10468260D01*
X10494411Y8560550D02*
Y8577760D01*
Y8618040D02*
Y8635250D01*
Y8618040D02*
X10501850Y8610600D01*
X10494411Y8577760D02*
X10501850Y8585200D01*
X10431200Y8661400D02*
X10468260D01*
D42*
X7226300Y9440163D02*
Y9588500D01*
X7272061Y9634261D01*
Y9772282D01*
X7480300Y9440163D02*
Y9588500D01*
X7432061Y9636739D02*
X7480300Y9588500D01*
X7432061Y9636739D02*
Y9772282D01*
Y8430239D02*
Y8565782D01*
Y8430239D02*
X7480300Y8382000D01*
Y8233663D02*
Y8382000D01*
X7272061Y8427761D02*
Y8565782D01*
X7226300Y8382000D02*
X7272061Y8427761D01*
X7226300Y8233663D02*
Y8382000D01*
X8711285Y7855630D02*
X8824578D01*
X8827109Y7853099D01*
X8711138Y7855776D02*
X8711285Y7855630D01*
X8827109Y7853099D02*
X8977808D01*
X10431200Y8153400D02*
X10436232Y8158432D01*
Y8228466D01*
X10214821Y11455400D02*
X10409979D01*
X8184782Y11497559D02*
X8214242Y11468100D01*
X8409400D02*
X8414000Y11463500D01*
X8214242Y11468100D02*
X8409400D01*
X8414000Y11432000D02*
Y11463500D01*
D43*
X11493500Y11768900D02*
D03*
X2781300Y11421300D02*
D03*
Y8881300D02*
D03*
D44*
X11493500Y11268900D02*
D03*
X2781300Y11921300D02*
D03*
Y9381300D02*
D03*
D45*
X6350000Y11578400D02*
D03*
D46*
Y11078400D02*
D03*
D47*
X11031700Y9612700D02*
D03*
Y9335700D02*
D03*
Y9058700D02*
D03*
Y8781700D02*
D03*
Y8504700D02*
D03*
X11315700Y9474200D02*
D03*
Y9197200D02*
D03*
Y8920200D02*
D03*
Y8643200D02*
D03*
D48*
X11173700Y10308200D02*
D03*
Y7809200D02*
D03*
D49*
X8521700Y8343900D02*
D03*
Y8089900D02*
D03*
Y7835900D02*
D03*
Y7581900D02*
D03*
D50*
Y7327900D02*
D03*
D51*
X5651500Y9863500D02*
D03*
X5511800D02*
D03*
X5651500Y9749200D02*
D03*
X5511800D02*
D03*
X5372100Y9863500D02*
D03*
Y9749200D02*
D03*
X5232400Y9863500D02*
D03*
Y9749200D02*
D03*
X5092700Y9863500D02*
D03*
X4953000D02*
D03*
X5092700Y9749200D02*
D03*
X4813300Y7983900D02*
D03*
X4953000D02*
D03*
X4813300Y7869600D02*
D03*
X4953000D02*
D03*
Y7768000D02*
D03*
X4813300D02*
D03*
X4953000Y7564800D02*
D03*
X4813300D02*
D03*
X4953000Y7463200D02*
D03*
X4813300D02*
D03*
Y7361600D02*
D03*
X4953000D02*
D03*
X5232400D02*
D03*
X5092700D02*
D03*
Y7463200D02*
D03*
X5232400D02*
D03*
X5092700Y7564800D02*
D03*
X5232400D02*
D03*
X5092700Y7768000D02*
D03*
X5232400D02*
D03*
Y7869600D02*
D03*
X5092700D02*
D03*
X5232400Y7983900D02*
D03*
X5092700D02*
D03*
X5511800Y7361600D02*
D03*
X5372100D02*
D03*
Y7463200D02*
D03*
X5511800D02*
D03*
X5372100Y7564800D02*
D03*
X5511800D02*
D03*
X5372100Y7768000D02*
D03*
X5511800D02*
D03*
Y7869600D02*
D03*
X5372100D02*
D03*
X5511800Y7983900D02*
D03*
X5372100D02*
D03*
X5651500D02*
D03*
Y7869600D02*
D03*
Y7768000D02*
D03*
Y7564800D02*
D03*
Y7463200D02*
D03*
Y7361600D02*
D03*
Y7666400D02*
D03*
X5511800D02*
D03*
X5372100D02*
D03*
X4953000D02*
D03*
X4813300D02*
D03*
X5092700D02*
D03*
X5232400D02*
D03*
X4813300Y9863500D02*
D03*
Y9749200D02*
D03*
X4953000D02*
D03*
Y9647600D02*
D03*
X4813300D02*
D03*
X4953000Y9444400D02*
D03*
X4813300D02*
D03*
X4953000Y9342800D02*
D03*
X4813300D02*
D03*
Y9241200D02*
D03*
X4953000D02*
D03*
X5232400D02*
D03*
X5092700D02*
D03*
Y9342800D02*
D03*
X5232400D02*
D03*
X5092700Y9444400D02*
D03*
X5232400D02*
D03*
X5092700Y9647600D02*
D03*
X5232400D02*
D03*
X5511800Y9241200D02*
D03*
X5372100D02*
D03*
Y9342800D02*
D03*
X5511800D02*
D03*
X5372100Y9444400D02*
D03*
X5511800D02*
D03*
X5372100Y9647600D02*
D03*
X5511800D02*
D03*
X5651500D02*
D03*
Y9444400D02*
D03*
Y9342800D02*
D03*
Y9241200D02*
D03*
Y9546000D02*
D03*
X5511800D02*
D03*
X5372100D02*
D03*
X4953000D02*
D03*
X4813300D02*
D03*
X5092700D02*
D03*
X5232400D02*
D03*
X11689998Y11059998D02*
D03*
X11619998Y10919998D02*
D03*
X11689998Y10779998D02*
D03*
X11619998Y10639998D02*
D03*
X11689998Y10499998D02*
D03*
X11619998Y10359998D02*
D03*
X11689998Y10219998D02*
D03*
X11619998Y10079998D02*
D03*
X11689998Y9939998D02*
D03*
X11619998Y9799998D02*
D03*
X11689998Y9659998D02*
D03*
X11619998Y9519998D02*
D03*
X11689998Y9379998D02*
D03*
X11619998Y9239998D02*
D03*
Y8119998D02*
D03*
X11689998Y7979999D02*
D03*
X11619998Y7839999D02*
D03*
X11689998Y7699999D02*
D03*
X11619998Y7559999D02*
D03*
X11689998Y7419999D02*
D03*
X11619998Y7279999D02*
D03*
X11549998Y11059998D02*
D03*
X11479998Y10919998D02*
D03*
X11549998Y10779998D02*
D03*
X11479998Y10639998D02*
D03*
X11549998Y10499998D02*
D03*
X11479998Y10359998D02*
D03*
X11549998Y10219998D02*
D03*
X11479998Y10079998D02*
D03*
X11549998Y9939998D02*
D03*
X11479998Y9799998D02*
D03*
X11549998Y9659998D02*
D03*
X11479998Y9519998D02*
D03*
X11549998Y9379998D02*
D03*
X11479998Y8119998D02*
D03*
X11549998Y7979999D02*
D03*
X11479998Y7839999D02*
D03*
X11549998Y7699999D02*
D03*
X11479998Y7559999D02*
D03*
X11549998Y7419999D02*
D03*
X11479998Y7279999D02*
D03*
X11339998Y11199998D02*
D03*
X11409998Y11059998D02*
D03*
X11339998Y10919998D02*
D03*
X11409998Y10779998D02*
D03*
X11339998Y10639998D02*
D03*
X11409998Y10499998D02*
D03*
Y9939998D02*
D03*
X11339998Y9799998D02*
D03*
X11409998Y9659998D02*
D03*
X11339998Y8119998D02*
D03*
Y7559999D02*
D03*
X11409998Y7419999D02*
D03*
X11339998Y7279999D02*
D03*
X11199998Y11199998D02*
D03*
X11269998Y11059998D02*
D03*
X11199998Y10919998D02*
D03*
X11269998Y10779998D02*
D03*
X11199998Y10639998D02*
D03*
X11269998Y9939998D02*
D03*
X11199998Y9799998D02*
D03*
X11269998Y9659998D02*
D03*
Y8259998D02*
D03*
X11199998Y8119998D02*
D03*
X11269998Y7419999D02*
D03*
X11199998Y7279999D02*
D03*
X11059998Y11199998D02*
D03*
X11129998Y11059998D02*
D03*
X11059998Y10919998D02*
D03*
X11129998Y10779998D02*
D03*
X11059998Y10639998D02*
D03*
X11129998Y9939998D02*
D03*
X11059998Y9799998D02*
D03*
X11129998Y8259998D02*
D03*
X11059998Y8119998D02*
D03*
X11129998Y7419999D02*
D03*
X11059998Y7279999D02*
D03*
X10919998Y11199998D02*
D03*
X10989998Y11059998D02*
D03*
Y10779998D02*
D03*
Y9939998D02*
D03*
Y8259998D02*
D03*
X10919998Y8119998D02*
D03*
Y7559999D02*
D03*
X10989998Y7419999D02*
D03*
X10919998Y7279999D02*
D03*
X10849998Y8259998D02*
D03*
Y7979999D02*
D03*
X10779998Y7839999D02*
D03*
X10849998Y7699999D02*
D03*
X10779998Y7559999D02*
D03*
X10849998Y7419999D02*
D03*
X10779998Y7279999D02*
D03*
X10639998Y10639998D02*
D03*
Y10359998D02*
D03*
Y10079998D02*
D03*
Y9799998D02*
D03*
Y8959998D02*
D03*
Y8399998D02*
D03*
X10709998Y7699999D02*
D03*
Y7419999D02*
D03*
X10499998Y11199998D02*
D03*
X10569998Y10779998D02*
D03*
X10499998Y10639998D02*
D03*
X10569998Y10499998D02*
D03*
X10499998Y10359998D02*
D03*
X10569998Y10219998D02*
D03*
X10499998Y10079998D02*
D03*
X10569998Y9939998D02*
D03*
X10499998Y9799998D02*
D03*
X10569998Y9659998D02*
D03*
Y9099998D02*
D03*
X10499998Y8959998D02*
D03*
X10359998Y11199998D02*
D03*
X10429998Y10779998D02*
D03*
X10359998Y10639998D02*
D03*
X10429998Y10499998D02*
D03*
X10359998Y10359998D02*
D03*
X10429998Y9659998D02*
D03*
Y9099998D02*
D03*
X10359998Y8959998D02*
D03*
X10289998Y10779998D02*
D03*
X10219998Y10639998D02*
D03*
X10289998Y10499998D02*
D03*
X10219998Y10359998D02*
D03*
Y8399998D02*
D03*
X10149998Y10779998D02*
D03*
X10079998Y10639998D02*
D03*
X10149998Y10499998D02*
D03*
X10079998Y10359998D02*
D03*
X10149998Y9659998D02*
D03*
X10079998Y8399998D02*
D03*
X10009998Y9659998D02*
D03*
X9239998Y11199998D02*
D03*
Y10639998D02*
D03*
X9169998Y11059998D02*
D03*
X9099998Y10639998D02*
D03*
X8959998Y11199998D02*
D03*
X9029998Y10779998D02*
D03*
Y10499998D02*
D03*
X8889998Y11059998D02*
D03*
X8749998Y10499998D02*
D03*
X8609998Y10779998D02*
D03*
X8539998Y10639998D02*
D03*
X8609998Y10499998D02*
D03*
X8399998Y11199998D02*
D03*
X8469998Y11059998D02*
D03*
Y10779998D02*
D03*
X8399998Y10639998D02*
D03*
X8469998Y10499998D02*
D03*
X8259998Y11199998D02*
D03*
X8329998Y11059998D02*
D03*
Y10779998D02*
D03*
X8259998Y10639998D02*
D03*
X8329998Y10499998D02*
D03*
X8119998Y11199998D02*
D03*
X8189998Y11059998D02*
D03*
Y10779998D02*
D03*
Y10499998D02*
D03*
X7839999Y11199998D02*
D03*
X7909998Y7419999D02*
D03*
X7839999Y7279999D02*
D03*
X7699999D02*
D03*
X7559999D02*
D03*
X7419999Y10639998D02*
D03*
Y10079998D02*
D03*
Y9239998D02*
D03*
Y7279999D02*
D03*
X7279999Y10639998D02*
D03*
X7349999Y10499998D02*
D03*
Y10219998D02*
D03*
X7279999Y10079998D02*
D03*
Y9239998D02*
D03*
X7349999Y9099998D02*
D03*
Y7979999D02*
D03*
X7279999Y7279999D02*
D03*
X7209999Y10499998D02*
D03*
X7139999Y9519998D02*
D03*
Y9239998D02*
D03*
X7209999Y9099998D02*
D03*
X7139999Y8959998D02*
D03*
Y8119998D02*
D03*
X7209999Y7979999D02*
D03*
X7139999Y7839999D02*
D03*
X7209999Y7419999D02*
D03*
X7139999Y7279999D02*
D03*
X6999999Y9519998D02*
D03*
X7069999Y9379998D02*
D03*
X6999999Y9239998D02*
D03*
X7069999Y9099998D02*
D03*
X6999999Y8959998D02*
D03*
X7069999Y8259998D02*
D03*
X6999999Y8119998D02*
D03*
X7069999Y7979999D02*
D03*
X6999999Y7839999D02*
D03*
X7069999Y7699999D02*
D03*
Y7419999D02*
D03*
X6999999Y7279999D02*
D03*
X6859999Y9519998D02*
D03*
X6929999Y9379998D02*
D03*
X6859999Y9239998D02*
D03*
X6929999Y9099998D02*
D03*
X6859999Y8959998D02*
D03*
X6929999Y8259998D02*
D03*
X6859999Y8119998D02*
D03*
X6929999Y7979999D02*
D03*
X6859999Y7839999D02*
D03*
X6929999Y7699999D02*
D03*
Y7419999D02*
D03*
X6859999Y7279999D02*
D03*
X6719999Y9519998D02*
D03*
X6789999Y9379998D02*
D03*
X6719999Y9239998D02*
D03*
X6789999Y9099998D02*
D03*
X6719999Y8959998D02*
D03*
Y8679998D02*
D03*
X6789999Y8259998D02*
D03*
X6719999Y8119998D02*
D03*
X6789999Y7979999D02*
D03*
X6719999Y7839999D02*
D03*
X6789999Y7699999D02*
D03*
Y7419999D02*
D03*
X6719999Y7279999D02*
D03*
X5109999Y11059998D02*
D03*
X4899999Y11199998D02*
D03*
X4969999Y11059998D02*
D03*
X4829999Y11339998D02*
D03*
X4759999Y11199998D02*
D03*
X4829999Y11059998D02*
D03*
X4619999Y11479998D02*
D03*
X4689999Y11339998D02*
D03*
X4619999Y11199998D02*
D03*
X4689999Y11059998D02*
D03*
X4549999Y11339998D02*
D03*
X4479999Y11199998D02*
D03*
X4549999Y11059998D02*
D03*
X4479999Y9799998D02*
D03*
X4549999Y9659998D02*
D03*
X4479999Y9519998D02*
D03*
X4549999Y9379998D02*
D03*
X4479999Y9239998D02*
D03*
X4549999Y7979999D02*
D03*
X4479999Y7839999D02*
D03*
X4549999Y7699999D02*
D03*
X4479999Y7559999D02*
D03*
X4549999Y7419999D02*
D03*
X4479999Y7279999D02*
D03*
X4409999Y11899998D02*
D03*
Y11339998D02*
D03*
X4339999Y11199998D02*
D03*
X4409999Y11059998D02*
D03*
X4339999Y9799998D02*
D03*
X4409999Y9659998D02*
D03*
X4339999Y9519998D02*
D03*
X4409999Y9379998D02*
D03*
X4339999Y9239998D02*
D03*
X4409999Y7979999D02*
D03*
X4339999Y7839999D02*
D03*
X4409999Y7699999D02*
D03*
X4339999Y7559999D02*
D03*
X4409999Y7419999D02*
D03*
X4339999Y7279999D02*
D03*
X4269999Y11339998D02*
D03*
X4199999Y11199998D02*
D03*
X4269999Y11059998D02*
D03*
X4199999Y9799998D02*
D03*
X4269999Y9659998D02*
D03*
Y9379998D02*
D03*
Y7979999D02*
D03*
X4199999Y7839999D02*
D03*
X4269999Y7699999D02*
D03*
Y7419999D02*
D03*
X4059999Y11479998D02*
D03*
X4129999Y11339998D02*
D03*
X4059999Y11199998D02*
D03*
X4129999Y11059998D02*
D03*
X4059999Y9799998D02*
D03*
X4129999Y9659998D02*
D03*
Y7979999D02*
D03*
X4059999Y7839999D02*
D03*
X3919999Y11479998D02*
D03*
X3989999Y11339998D02*
D03*
X3919999Y11199998D02*
D03*
X3989999Y11059998D02*
D03*
X3919999Y9799998D02*
D03*
X3989999Y9659998D02*
D03*
X3919999Y9519998D02*
D03*
X3989999Y9379998D02*
D03*
X3919999Y9239998D02*
D03*
X3989999Y7979999D02*
D03*
X3919999Y7839999D02*
D03*
X3989999Y7699999D02*
D03*
X3919999Y7559999D02*
D03*
X3989999Y7419999D02*
D03*
X3919999Y7279999D02*
D03*
X3779999Y11479998D02*
D03*
X3849999Y11339998D02*
D03*
X3779999Y11199998D02*
D03*
X3849999Y11059998D02*
D03*
X3779999Y9799998D02*
D03*
X3849999Y9659998D02*
D03*
X3779999Y9519998D02*
D03*
X3849999Y9379998D02*
D03*
X3779999Y9239998D02*
D03*
X3849999Y7979999D02*
D03*
X3779999Y7839999D02*
D03*
X3849999Y7699999D02*
D03*
X3779999Y7559999D02*
D03*
X3849999Y7419999D02*
D03*
X3779999Y7279999D02*
D03*
X3639999Y11479998D02*
D03*
X3709999Y11339998D02*
D03*
X3639999Y11199998D02*
D03*
X3709999Y11059998D02*
D03*
X3639999Y9799998D02*
D03*
X3709999Y9659998D02*
D03*
Y7979999D02*
D03*
X3639999Y7839999D02*
D03*
X3709999Y7699999D02*
D03*
X3499999Y11479998D02*
D03*
X3569999Y11339998D02*
D03*
X3499999Y11199998D02*
D03*
X3569999Y11059998D02*
D03*
X3499999Y9799998D02*
D03*
X3569999Y9659998D02*
D03*
X3499999Y9519998D02*
D03*
Y9239998D02*
D03*
X3569999Y7979999D02*
D03*
X3499999Y7839999D02*
D03*
Y7559999D02*
D03*
Y7279999D02*
D03*
X3359999Y11479998D02*
D03*
X3429999Y11339998D02*
D03*
X3359999Y11199998D02*
D03*
X3429999Y11059998D02*
D03*
Y9659998D02*
D03*
Y9379998D02*
D03*
Y9099998D02*
D03*
Y7979999D02*
D03*
X3359999Y7839999D02*
D03*
X3429999Y7699999D02*
D03*
X3359999Y7559999D02*
D03*
X3429999Y7419999D02*
D03*
X3359999Y7279999D02*
D03*
X3219999Y11479998D02*
D03*
X3289999Y11339998D02*
D03*
X3219999Y11199998D02*
D03*
X3289999Y11059998D02*
D03*
Y7979999D02*
D03*
X3219999Y7839999D02*
D03*
X3289999Y7699999D02*
D03*
X3219999Y7559999D02*
D03*
X3289999Y7419999D02*
D03*
X3219999Y7279999D02*
D03*
X3079999Y11479998D02*
D03*
X3149999Y11339998D02*
D03*
X3079999Y11199998D02*
D03*
X3149999Y11059998D02*
D03*
Y7979999D02*
D03*
X3079999Y7839999D02*
D03*
X3149999Y7699999D02*
D03*
X3079999Y7559999D02*
D03*
X3149999Y7419999D02*
D03*
X3079999Y7279999D02*
D03*
X2939999Y11479998D02*
D03*
X3009999Y11339998D02*
D03*
X2939999Y11199998D02*
D03*
X3009999Y11059998D02*
D03*
Y7979999D02*
D03*
X2939999Y7839999D02*
D03*
X3009999Y7699999D02*
D03*
X2939999Y7559999D02*
D03*
X3009999Y7419999D02*
D03*
X2939999Y7279999D02*
D03*
X2799999Y11199998D02*
D03*
X2869999Y11059998D02*
D03*
Y7979999D02*
D03*
X2799999Y7839999D02*
D03*
X2869999Y7699999D02*
D03*
X2799999Y7559999D02*
D03*
X2869999Y7419999D02*
D03*
X2799999Y7279999D02*
D03*
X2660000Y11199998D02*
D03*
X2729999Y11059998D02*
D03*
Y7979999D02*
D03*
X2660000Y7839999D02*
D03*
X2729999Y7699999D02*
D03*
X2660000Y7559999D02*
D03*
X2729999Y7419999D02*
D03*
X2660000Y7279999D02*
D03*
X3441700Y8801100D02*
D03*
X3581400D02*
D03*
X3441700Y8686800D02*
D03*
X3581400D02*
D03*
Y8585200D02*
D03*
X3441700D02*
D03*
X3581400Y8382000D02*
D03*
X3441700D02*
D03*
X3581400Y8280400D02*
D03*
X3441700D02*
D03*
Y8178800D02*
D03*
X3581400D02*
D03*
X3860800D02*
D03*
X3721100D02*
D03*
Y8280400D02*
D03*
X3860800D02*
D03*
X3721100Y8382000D02*
D03*
X3860800D02*
D03*
X3721100Y8585200D02*
D03*
X3860800D02*
D03*
Y8686800D02*
D03*
X3721100D02*
D03*
X3860800Y8801100D02*
D03*
X3721100D02*
D03*
X4140200Y8178800D02*
D03*
X4000500D02*
D03*
Y8280400D02*
D03*
X4140200D02*
D03*
X4000500Y8382000D02*
D03*
X4140200D02*
D03*
X4000500Y8585200D02*
D03*
X4140200D02*
D03*
Y8686800D02*
D03*
X4000500D02*
D03*
X4140200Y8801100D02*
D03*
X4000500D02*
D03*
X4279900D02*
D03*
Y8686800D02*
D03*
Y8585200D02*
D03*
Y8382000D02*
D03*
Y8280400D02*
D03*
Y8178800D02*
D03*
Y8483600D02*
D03*
X4140200D02*
D03*
X4000500D02*
D03*
X3581400D02*
D03*
X3441700D02*
D03*
X3721100D02*
D03*
X3860800D02*
D03*
Y10388600D02*
D03*
X3721100D02*
D03*
X3441700D02*
D03*
X3581400D02*
D03*
X4000500D02*
D03*
X4140200D02*
D03*
X4279900D02*
D03*
Y10083800D02*
D03*
Y10185400D02*
D03*
Y10287000D02*
D03*
Y10490200D02*
D03*
Y10591800D02*
D03*
Y10706100D02*
D03*
X4000500D02*
D03*
X4140200D02*
D03*
X4000500Y10591800D02*
D03*
X4140200D02*
D03*
Y10490200D02*
D03*
X4000500D02*
D03*
X4140200Y10287000D02*
D03*
X4000500D02*
D03*
X4140200Y10185400D02*
D03*
X4000500D02*
D03*
Y10083800D02*
D03*
X4140200D02*
D03*
X3721100Y10706100D02*
D03*
X3860800D02*
D03*
X3721100Y10591800D02*
D03*
X3860800D02*
D03*
Y10490200D02*
D03*
X3721100D02*
D03*
X3860800Y10287000D02*
D03*
X3721100D02*
D03*
X3860800Y10185400D02*
D03*
X3721100D02*
D03*
Y10083800D02*
D03*
X3860800D02*
D03*
X3581400D02*
D03*
X3441700D02*
D03*
Y10185400D02*
D03*
X3581400D02*
D03*
X3441700Y10287000D02*
D03*
X3581400D02*
D03*
X3441700Y10490200D02*
D03*
X3581400D02*
D03*
Y10591800D02*
D03*
X3441700D02*
D03*
X3581400Y10706100D02*
D03*
X3441700D02*
D03*
X5995002Y10560003D02*
D03*
X9021300Y11747500D02*
D03*
X9131300D02*
D03*
X11385003Y11880004D02*
D03*
X11330004Y11770004D02*
D03*
X11385003Y11660004D02*
D03*
X11275003D02*
D03*
X11165003D02*
D03*
X11055003D02*
D03*
X9185003D02*
D03*
X9075003D02*
D03*
X8965003D02*
D03*
X7150002Y11330004D02*
D03*
Y11110003D02*
D03*
Y10890003D02*
D03*
X7040002Y11330004D02*
D03*
X7095002Y11220003D02*
D03*
X7040002Y11110003D02*
D03*
X7095002Y11000003D02*
D03*
X7040002Y10890003D02*
D03*
X7095002Y10780003D02*
D03*
X7040002Y10670003D02*
D03*
X6930002Y11330004D02*
D03*
X6985002Y11220003D02*
D03*
X6930002Y11110003D02*
D03*
X6985002Y11000003D02*
D03*
X6930002Y10890003D02*
D03*
X6985002Y10780003D02*
D03*
X6930002Y10670003D02*
D03*
X6820002Y11330004D02*
D03*
X6875002Y11220003D02*
D03*
X6820002Y11110003D02*
D03*
X6875002Y11000003D02*
D03*
X6820002Y10890003D02*
D03*
X6875002Y10780003D02*
D03*
X6820002Y10670003D02*
D03*
X6710002Y11330004D02*
D03*
X6765002Y11220003D02*
D03*
X6710002Y11110003D02*
D03*
X6765002Y11000003D02*
D03*
X6710002Y10890003D02*
D03*
X6765002Y10780003D02*
D03*
X6710002Y10670003D02*
D03*
X6600002Y11330004D02*
D03*
X6655002Y11220003D02*
D03*
X6600002Y11110003D02*
D03*
X6655002Y11000003D02*
D03*
X6600002Y10890003D02*
D03*
X6655002Y10780003D02*
D03*
X6600002Y10670003D02*
D03*
X6490002Y11330004D02*
D03*
X6545002Y11220003D02*
D03*
X6490002Y11110003D02*
D03*
X6545002Y11000003D02*
D03*
X6490002Y10890003D02*
D03*
X6545002Y10780003D02*
D03*
X6490002Y10670003D02*
D03*
X6380002Y11330004D02*
D03*
X6435002Y11220003D02*
D03*
X6380002Y10890003D02*
D03*
X6435002Y10780003D02*
D03*
X6380002Y10670003D02*
D03*
X6270002Y11330004D02*
D03*
X6325002Y11220003D02*
D03*
X6270002Y10890003D02*
D03*
X6325002Y10780003D02*
D03*
X6270002Y10670003D02*
D03*
X6160002Y11330004D02*
D03*
X6215002Y11220003D02*
D03*
X6160002Y11110003D02*
D03*
X6215002Y11000003D02*
D03*
X6160002Y10890003D02*
D03*
X6215002Y10780003D02*
D03*
X6160002Y10670003D02*
D03*
X6050002Y11330004D02*
D03*
X6105002Y11220003D02*
D03*
X6050002Y11110003D02*
D03*
X6105002Y11000003D02*
D03*
X6050002Y10890003D02*
D03*
X6105002Y10780003D02*
D03*
X6050002Y10670003D02*
D03*
Y10450003D02*
D03*
D52*
X8559800Y8585200D02*
D03*
X7568647Y7567655D02*
D03*
X7767246Y7553985D02*
D03*
X4787900Y8559800D02*
D03*
X4483100Y10261600D02*
D03*
X7156082Y9772282D02*
D03*
X7150100Y8559800D02*
D03*
X4611446Y12190654D02*
D03*
X4687646D02*
D03*
X4713046Y12254154D02*
D03*
X4649546D02*
D03*
X4573346D02*
D03*
X9742246Y9168054D02*
D03*
X8934585Y9197842D02*
D03*
X8616386Y9516040D02*
D03*
X8934585Y9834238D02*
D03*
X9252783Y9516040D02*
D03*
X6985000Y10541000D02*
D03*
X6853312Y10118943D02*
D03*
X9055904Y9990542D02*
D03*
X9106986Y9954185D02*
D03*
X8890000Y10071100D02*
D03*
X8790120Y9978517D02*
D03*
X8153800Y9613900D02*
D03*
X9195720Y9863603D02*
D03*
X8291659Y8041624D02*
D03*
X6765801Y7545134D02*
D03*
X6764397Y8436503D02*
D03*
Y8754003D02*
D03*
X6743700Y9639300D02*
D03*
X5613400Y10883900D02*
D03*
X5600700Y9004300D02*
D03*
X3721100Y7200900D02*
D03*
X3695700Y9067800D02*
D03*
X7135752Y7544685D02*
D03*
X7605877Y8805063D02*
D03*
X7136250Y8751450D02*
D03*
X7353300Y9577437D02*
D03*
X7136201Y9642339D02*
D03*
Y8434203D02*
D03*
X7353300Y8369300D02*
D03*
X10790214Y10877969D02*
D03*
X7734300Y8382061D02*
D03*
X7797800D02*
D03*
X7861300D02*
D03*
X7899400Y8318561D02*
D03*
Y8255061D02*
D03*
Y9461500D02*
D03*
Y9525000D02*
D03*
X7861300Y9588500D02*
D03*
X7797800D02*
D03*
X7734300D02*
D03*
X9386752Y8892099D02*
D03*
X10338245Y9039349D02*
D03*
Y9217149D02*
D03*
X10341034Y9395719D02*
D03*
X8724900Y10236200D02*
D03*
X8128000Y9182100D02*
D03*
X5511800Y11557000D02*
D03*
X9067800Y8255000D02*
D03*
X9231808Y7965696D02*
D03*
X9358808Y7964604D02*
D03*
X8470900Y9702800D02*
D03*
X8407400Y9766300D02*
D03*
X8458200Y9829800D02*
D03*
X7683500Y10922000D02*
D03*
X7620000D02*
D03*
X7556500D02*
D03*
X7493000D02*
D03*
X7454900Y10871200D02*
D03*
X7518400D02*
D03*
X7581900D02*
D03*
X7645400D02*
D03*
X9296400Y8547100D02*
D03*
X8704677Y9116813D02*
D03*
X9670053Y7964537D02*
D03*
X9766300Y8407400D02*
D03*
X9383979Y9348553D02*
D03*
X10380532Y8875530D02*
D03*
X9489020Y9747842D02*
D03*
X9601200Y8661400D02*
D03*
X8013700Y8788400D02*
D03*
X9975203Y9391112D02*
D03*
X7707404Y10872384D02*
D03*
X8775700Y10909300D02*
D03*
X9144000Y11455400D02*
D03*
X9055100Y8724900D02*
D03*
X9017000Y8763000D02*
D03*
X9537700Y9613900D02*
D03*
X9588500Y9652000D02*
D03*
X8128000D02*
D03*
X9715500Y11036300D02*
D03*
X9652000D02*
D03*
X9918700Y10452100D02*
D03*
X9855200D02*
D03*
X9791700D02*
D03*
X9893300Y10515600D02*
D03*
X9817100D02*
D03*
X9918700Y10579100D02*
D03*
X9855200D02*
D03*
X9791700D02*
D03*
X9893300Y10642600D02*
D03*
X9817100D02*
D03*
X9918700Y10706100D02*
D03*
X9855200D02*
D03*
X9791700D02*
D03*
X9515144Y11277052D02*
D03*
X9300965Y11058249D02*
D03*
D53*
X8711138Y7855776D02*
D03*
X10436232Y8228466D02*
D03*
%TF.MD5,44481bbb17dea7389676472e16f5e359*%
M02*
