%TF.GenerationSoftware,Altium Limited,Altium Designer,24.6.1 (21)*%
G04 Layer_Color=8421504*
%FSLAX45Y45*%
%MOMM*%
%TF.SameCoordinates,FD53202A-208C-403B-AAB2-15DF5564725B*%
%TF.FilePolarity,Positive*%
%TF.FileFunction,Paste,Top*%
%TF.Part,Single*%
G01*
G75*
%TA.AperFunction,SMDPad,CuDef*%
%ADD10R,3.35000X2.40000*%
%ADD11R,1.30000X1.40000*%
%ADD12R,3.40000X1.80000*%
G04:AMPARAMS|DCode=13|XSize=0.9mm|YSize=0.8mm|CornerRadius=0mm|HoleSize=0mm|Usage=FLASHONLY|Rotation=225.000|XOffset=0mm|YOffset=0mm|HoleType=Round|Shape=Rectangle|*
%AMROTATEDRECTD13*
4,1,4,0.03535,0.60104,0.60104,0.03535,-0.03535,-0.60104,-0.60104,-0.03535,0.03535,0.60104,0.0*
%
%ADD13ROTATEDRECTD13*%

G04:AMPARAMS|DCode=14|XSize=0.87mm|YSize=0.27mm|CornerRadius=0.03375mm|HoleSize=0mm|Usage=FLASHONLY|Rotation=315.000|XOffset=0mm|YOffset=0mm|HoleType=Round|Shape=RoundedRectangle|*
%AMROUNDEDRECTD14*
21,1,0.87000,0.20250,0,0,315.0*
21,1,0.80250,0.27000,0,0,315.0*
1,1,0.06750,0.21213,-0.35532*
1,1,0.06750,-0.35532,0.21213*
1,1,0.06750,-0.21213,0.35532*
1,1,0.06750,0.35532,-0.21213*
%
%ADD14ROUNDEDRECTD14*%
G04:AMPARAMS|DCode=15|XSize=0.87mm|YSize=0.27mm|CornerRadius=0.03375mm|HoleSize=0mm|Usage=FLASHONLY|Rotation=225.000|XOffset=0mm|YOffset=0mm|HoleType=Round|Shape=RoundedRectangle|*
%AMROUNDEDRECTD15*
21,1,0.87000,0.20250,0,0,225.0*
21,1,0.80250,0.27000,0,0,225.0*
1,1,0.06750,-0.35532,-0.21213*
1,1,0.06750,0.21213,0.35532*
1,1,0.06750,0.35532,0.21213*
1,1,0.06750,-0.21213,-0.35532*
%
%ADD15ROUNDEDRECTD15*%
G04:AMPARAMS|DCode=17|XSize=0.9mm|YSize=0.8mm|CornerRadius=0mm|HoleSize=0mm|Usage=FLASHONLY|Rotation=315.000|XOffset=0mm|YOffset=0mm|HoleType=Round|Shape=Rectangle|*
%AMROTATEDRECTD17*
4,1,4,-0.60104,0.03535,-0.03535,0.60104,0.60104,-0.03535,0.03535,-0.60104,-0.60104,0.03535,0.0*
%
%ADD17ROTATEDRECTD17*%

G04:AMPARAMS|DCode=18|XSize=0.95mm|YSize=0.85mm|CornerRadius=0mm|HoleSize=0mm|Usage=FLASHONLY|Rotation=45.000|XOffset=0mm|YOffset=0mm|HoleType=Round|Shape=Rectangle|*
%AMROTATEDRECTD18*
4,1,4,-0.03535,-0.63640,-0.63640,-0.03535,0.03535,0.63640,0.63640,0.03535,-0.03535,-0.63640,0.0*
%
%ADD18ROTATEDRECTD18*%

%ADD19R,0.90000X0.95000*%
%ADD20R,1.52500X0.65000*%
%ADD21R,0.80000X0.90000*%
%ADD22R,0.90000X0.80000*%
%ADD23R,0.95000X0.85000*%
%ADD24R,0.60000X1.20000*%
%ADD25R,2.20000X2.15000*%
%ADD26R,1.40000X1.30000*%
%ADD27R,0.60000X1.30000*%
%ADD28R,1.30000X1.80000*%
%ADD29R,1.80000X1.30000*%
%ADD30R,0.85000X0.95000*%
%ADD31R,2.40000X1.90000*%
G04:AMPARAMS|DCode=32|XSize=1.97mm|YSize=0.6mm|CornerRadius=0.075mm|HoleSize=0mm|Usage=FLASHONLY|Rotation=270.000|XOffset=0mm|YOffset=0mm|HoleType=Round|Shape=RoundedRectangle|*
%AMROUNDEDRECTD32*
21,1,1.97000,0.45000,0,0,270.0*
21,1,1.82000,0.60000,0,0,270.0*
1,1,0.15000,-0.22500,-0.91000*
1,1,0.15000,-0.22500,0.91000*
1,1,0.15000,0.22500,0.91000*
1,1,0.15000,0.22500,-0.91000*
%
%ADD32ROUNDEDRECTD32*%
%ADD34R,0.94000X4.05000*%
%ADD35R,2.28600X1.39700*%
%ADD36R,6.18000X5.69000*%
%ADD37R,1.00000X0.60000*%
%ADD38R,0.65000X1.52500*%
G36*
X4365000Y10584000D02*
X4222000D01*
Y10743000D01*
X4365000D01*
Y10584000D01*
D02*
G37*
G36*
X4155000D02*
X4012000D01*
Y10743000D01*
X4155000D01*
Y10584000D01*
D02*
G37*
G36*
X3945000D02*
X3802000D01*
Y10743000D01*
X3945000D01*
Y10584000D01*
D02*
G37*
G36*
X3735000D02*
X3592000D01*
Y10743000D01*
X3735000D01*
Y10584000D01*
D02*
G37*
G36*
X3525000D02*
X3382000D01*
Y10743000D01*
X3525000D01*
Y10584000D01*
D02*
G37*
G36*
X4365000Y10313000D02*
X4222000D01*
Y10472000D01*
X4365000D01*
Y10313000D01*
D02*
G37*
G36*
X4155000D02*
X4012000D01*
Y10472000D01*
X4155000D01*
Y10313000D01*
D02*
G37*
G36*
X3945000D02*
X3802000D01*
Y10472000D01*
X3945000D01*
Y10313000D01*
D02*
G37*
G36*
X3735000D02*
X3592000D01*
Y10472000D01*
X3735000D01*
Y10313000D01*
D02*
G37*
G36*
X3525000D02*
X3382000D01*
Y10472000D01*
X3525000D01*
Y10313000D01*
D02*
G37*
G36*
X4365000Y10042000D02*
X4222000D01*
Y10201000D01*
X4365000D01*
Y10042000D01*
D02*
G37*
G36*
X4155000D02*
X4012000D01*
Y10201000D01*
X4155000D01*
Y10042000D01*
D02*
G37*
G36*
X3945000D02*
X3802000D01*
Y10201000D01*
X3945000D01*
Y10042000D01*
D02*
G37*
G36*
X3735000D02*
X3592000D01*
Y10201000D01*
X3735000D01*
Y10042000D01*
D02*
G37*
G36*
X3525000D02*
X3382000D01*
Y10201000D01*
X3525000D01*
Y10042000D01*
D02*
G37*
G36*
X5723900Y9737500D02*
X5580900D01*
Y9896500D01*
X5723900D01*
Y9737500D01*
D02*
G37*
G36*
X5513900D02*
X5370900D01*
Y9896500D01*
X5513900D01*
Y9737500D01*
D02*
G37*
G36*
X5303900D02*
X5160900D01*
Y9896500D01*
X5303900D01*
Y9737500D01*
D02*
G37*
G36*
X5093900D02*
X4950900D01*
Y9896500D01*
X5093900D01*
Y9737500D01*
D02*
G37*
G36*
X4883900D02*
X4740900D01*
Y9896500D01*
X4883900D01*
Y9737500D01*
D02*
G37*
G36*
X9060450Y9714030D02*
X8934585Y9588165D01*
X8808719Y9714030D01*
X8934585Y9839895D01*
X9060450Y9714030D01*
D02*
G37*
G36*
X5723900Y9466500D02*
X5580900D01*
Y9625500D01*
X5723900D01*
Y9466500D01*
D02*
G37*
G36*
X5513900D02*
X5370900D01*
Y9625500D01*
X5513900D01*
Y9466500D01*
D02*
G37*
G36*
X5303900D02*
X5160900D01*
Y9625500D01*
X5303900D01*
Y9466500D01*
D02*
G37*
G36*
X5093900D02*
X4950900D01*
Y9625500D01*
X5093900D01*
Y9466500D01*
D02*
G37*
G36*
X4883900D02*
X4740900D01*
Y9625500D01*
X4883900D01*
Y9466500D01*
D02*
G37*
G36*
X9258440Y9516040D02*
X9132575Y9390175D01*
X9006709Y9516040D01*
X9132575Y9641905D01*
X9258440Y9516040D01*
D02*
G37*
G36*
X8862460D02*
X8736595Y9390175D01*
X8610730Y9516040D01*
X8736595Y9641905D01*
X8862460Y9516040D01*
D02*
G37*
G36*
X5723900Y9195500D02*
X5580900D01*
Y9354500D01*
X5723900D01*
Y9195500D01*
D02*
G37*
G36*
X5513900D02*
X5370900D01*
Y9354500D01*
X5513900D01*
Y9195500D01*
D02*
G37*
G36*
X5303900D02*
X5160900D01*
Y9354500D01*
X5303900D01*
Y9195500D01*
D02*
G37*
G36*
X5093900D02*
X4950900D01*
Y9354500D01*
X5093900D01*
Y9195500D01*
D02*
G37*
G36*
X4883900D02*
X4740900D01*
Y9354500D01*
X4883900D01*
Y9195500D01*
D02*
G37*
G36*
X9060450Y9318050D02*
X8934585Y9192185D01*
X8808719Y9318050D01*
X8934585Y9443915D01*
X9060450Y9318050D01*
D02*
G37*
G36*
X4365000Y8704400D02*
X4222000D01*
Y8863400D01*
X4365000D01*
Y8704400D01*
D02*
G37*
G36*
X4155000D02*
X4012000D01*
Y8863400D01*
X4155000D01*
Y8704400D01*
D02*
G37*
G36*
X3945000D02*
X3802000D01*
Y8863400D01*
X3945000D01*
Y8704400D01*
D02*
G37*
G36*
X3735000D02*
X3592000D01*
Y8863400D01*
X3735000D01*
Y8704400D01*
D02*
G37*
G36*
X3525000D02*
X3382000D01*
Y8863400D01*
X3525000D01*
Y8704400D01*
D02*
G37*
G36*
X4365000Y8433400D02*
X4222000D01*
Y8592400D01*
X4365000D01*
Y8433400D01*
D02*
G37*
G36*
X4155000D02*
X4012000D01*
Y8592400D01*
X4155000D01*
Y8433400D01*
D02*
G37*
G36*
X3945000D02*
X3802000D01*
Y8592400D01*
X3945000D01*
Y8433400D01*
D02*
G37*
G36*
X3735000D02*
X3592000D01*
Y8592400D01*
X3735000D01*
Y8433400D01*
D02*
G37*
G36*
X3525000D02*
X3382000D01*
Y8592400D01*
X3525000D01*
Y8433400D01*
D02*
G37*
G36*
X4365000Y8162400D02*
X4222000D01*
Y8321400D01*
X4365000D01*
Y8162400D01*
D02*
G37*
G36*
X4155000D02*
X4012000D01*
Y8321400D01*
X4155000D01*
Y8162400D01*
D02*
G37*
G36*
X3945000D02*
X3802000D01*
Y8321400D01*
X3945000D01*
Y8162400D01*
D02*
G37*
G36*
X3735000D02*
X3592000D01*
Y8321400D01*
X3735000D01*
Y8162400D01*
D02*
G37*
G36*
X3525000D02*
X3382000D01*
Y8321400D01*
X3525000D01*
Y8162400D01*
D02*
G37*
G36*
X5723900Y7857900D02*
X5580900D01*
Y8016900D01*
X5723900D01*
Y7857900D01*
D02*
G37*
G36*
X5513900D02*
X5370900D01*
Y8016900D01*
X5513900D01*
Y7857900D01*
D02*
G37*
G36*
X5303900D02*
X5160900D01*
Y8016900D01*
X5303900D01*
Y7857900D01*
D02*
G37*
G36*
X5093900D02*
X4950900D01*
Y8016900D01*
X5093900D01*
Y7857900D01*
D02*
G37*
G36*
X4883900D02*
X4740900D01*
Y8016900D01*
X4883900D01*
Y7857900D01*
D02*
G37*
G36*
X5723900Y7586900D02*
X5580900D01*
Y7745900D01*
X5723900D01*
Y7586900D01*
D02*
G37*
G36*
X5513900D02*
X5370900D01*
Y7745900D01*
X5513900D01*
Y7586900D01*
D02*
G37*
G36*
X5303900D02*
X5160900D01*
Y7745900D01*
X5303900D01*
Y7586900D01*
D02*
G37*
G36*
X5093900D02*
X4950900D01*
Y7745900D01*
X5093900D01*
Y7586900D01*
D02*
G37*
G36*
X4883900D02*
X4740900D01*
Y7745900D01*
X4883900D01*
Y7586900D01*
D02*
G37*
G36*
X5723900Y7315900D02*
X5580900D01*
Y7474900D01*
X5723900D01*
Y7315900D01*
D02*
G37*
G36*
X5513900D02*
X5370900D01*
Y7474900D01*
X5513900D01*
Y7315900D01*
D02*
G37*
G36*
X5303900D02*
X5160900D01*
Y7474900D01*
X5303900D01*
Y7315900D01*
D02*
G37*
G36*
X5093900D02*
X4950900D01*
Y7474900D01*
X5093900D01*
Y7315900D01*
D02*
G37*
G36*
X4883900D02*
X4740900D01*
Y7474900D01*
X4883900D01*
Y7315900D01*
D02*
G37*
D10*
X9715500Y11482900D02*
D03*
Y12062900D02*
D03*
X7696200Y11482900D02*
D03*
Y12062900D02*
D03*
D11*
X7432061Y8565782D02*
D03*
X7272061D02*
D03*
X7432061Y9772282D02*
D03*
X7272061D02*
D03*
X9385300Y10490200D02*
D03*
X9545300D02*
D03*
D12*
X6286500Y10470800D02*
D03*
Y9950800D02*
D03*
D13*
X8638481Y10127994D02*
D03*
X8726869Y10039606D02*
D03*
X9513163Y9412063D02*
D03*
X9601551Y9323675D02*
D03*
X9702288Y9423912D02*
D03*
X9613900Y9512300D02*
D03*
D14*
X8886501Y9953032D02*
D03*
X8851146Y9917677D02*
D03*
X8815791Y9882321D02*
D03*
X8780435Y9846966D02*
D03*
X8745080Y9811611D02*
D03*
X8709725Y9776255D02*
D03*
X8674369Y9740900D02*
D03*
X8639014Y9705544D02*
D03*
X8603659Y9670189D02*
D03*
X8568303Y9634834D02*
D03*
X8532948Y9599478D02*
D03*
X8497593Y9564123D02*
D03*
X8982668Y9079048D02*
D03*
X9018023Y9114403D02*
D03*
X9053379Y9149759D02*
D03*
X9088734Y9185114D02*
D03*
X9124089Y9220469D02*
D03*
X9159445Y9255825D02*
D03*
X9194800Y9291180D02*
D03*
X9230155Y9326535D02*
D03*
X9265511Y9361891D02*
D03*
X9300866Y9397246D02*
D03*
X9336221Y9432601D02*
D03*
X9371577Y9467956D02*
D03*
D15*
Y9564123D02*
D03*
X9336221Y9599478D02*
D03*
X9300866Y9634834D02*
D03*
X9265511Y9670189D02*
D03*
X9230155Y9705544D02*
D03*
X9194800Y9740900D02*
D03*
X9159445Y9776255D02*
D03*
X9124089Y9811611D02*
D03*
X9088734Y9846966D02*
D03*
X9053379Y9882321D02*
D03*
X9018023Y9917677D02*
D03*
X8982668Y9953032D02*
D03*
X8497593Y9467956D02*
D03*
X8532948Y9432601D02*
D03*
X8568303Y9397246D02*
D03*
X8603659Y9361891D02*
D03*
X8639014Y9326535D02*
D03*
X8674369Y9291180D02*
D03*
X8709725Y9255825D02*
D03*
X8745080Y9220469D02*
D03*
X8780435Y9185114D02*
D03*
X8815791Y9149759D02*
D03*
X8851146Y9114403D02*
D03*
X8886501Y9079048D02*
D03*
D17*
X9355820Y10027292D02*
D03*
X9267432Y9938904D02*
D03*
X9061706Y10141206D02*
D03*
X9150094Y10229594D02*
D03*
X9163306Y10039606D02*
D03*
X9251694Y10127994D02*
D03*
X8832594Y8934194D02*
D03*
X8744206Y8845806D02*
D03*
X8934194Y8832594D02*
D03*
X8845806Y8744206D02*
D03*
X8330944Y9435844D02*
D03*
X8242556Y9347456D02*
D03*
X8229083Y9536449D02*
D03*
X8140694Y9448060D02*
D03*
D18*
X9455803Y8960445D02*
D03*
X9342666Y9073582D02*
D03*
X9448193Y9185960D02*
D03*
X9561330Y9072822D02*
D03*
D19*
X10252700Y9037049D02*
D03*
X10092700D02*
D03*
X10252700Y9214849D02*
D03*
X10092700D02*
D03*
X10252700Y9392649D02*
D03*
X10092700D02*
D03*
D20*
X9888800Y8788400D02*
D03*
Y8661400D02*
D03*
Y8534400D02*
D03*
Y8407400D02*
D03*
X10431200D02*
D03*
Y8534400D02*
D03*
Y8661400D02*
D03*
Y8788400D02*
D03*
X9888800Y8153400D02*
D03*
Y8026400D02*
D03*
Y7899400D02*
D03*
Y7772400D02*
D03*
X10431200D02*
D03*
Y7899400D02*
D03*
Y8026400D02*
D03*
Y8153400D02*
D03*
D21*
X9881600Y9766300D02*
D03*
X10006600D02*
D03*
X9402421Y11137900D02*
D03*
X9527421D02*
D03*
X9881290Y10219060D02*
D03*
X10006290D02*
D03*
X6704600Y10515600D02*
D03*
X6579600D02*
D03*
D22*
X9715500Y8535400D02*
D03*
Y8660400D02*
D03*
X9172821Y10883900D02*
D03*
Y10758900D02*
D03*
X9664700Y10832100D02*
D03*
Y10707100D02*
D03*
X7785099Y8233545D02*
D03*
Y8108545D02*
D03*
Y9439984D02*
D03*
Y9314984D02*
D03*
X7124700Y10299700D02*
D03*
Y10174700D02*
D03*
X8827109Y7855483D02*
D03*
Y7730483D02*
D03*
D23*
X9220200Y8249900D02*
D03*
Y8089900D02*
D03*
X9372600Y8249900D02*
D03*
Y8089900D02*
D03*
X8760700Y10618400D02*
D03*
Y10778400D02*
D03*
X8917700Y10621100D02*
D03*
Y10781100D02*
D03*
X5082300Y11720900D02*
D03*
Y11560900D02*
D03*
X4582716Y11898363D02*
D03*
Y12058363D02*
D03*
X6974600Y10298500D02*
D03*
Y10138500D02*
D03*
X8290800Y7933600D02*
D03*
Y7773600D02*
D03*
D24*
X9509121Y10708100D02*
D03*
X9319121D02*
D03*
Y10958100D02*
D03*
X9414121D02*
D03*
X9509121D02*
D03*
X6770471Y10338128D02*
D03*
X6675471D02*
D03*
X6580471D02*
D03*
Y10088128D02*
D03*
X6770471D02*
D03*
D25*
X8640100Y12052300D02*
D03*
X8200100D02*
D03*
X10206700D02*
D03*
X10646700D02*
D03*
D26*
X10204082Y11484859D02*
D03*
Y11644859D02*
D03*
X8184782Y11657559D02*
D03*
Y11497559D02*
D03*
D27*
X10433300Y11669300D02*
D03*
X10528300D02*
D03*
X10623300D02*
D03*
Y11419300D02*
D03*
X10528300D02*
D03*
X10433300D02*
D03*
X8414000Y11432000D02*
D03*
X8509000D02*
D03*
X8604000D02*
D03*
Y11682000D02*
D03*
X8509000D02*
D03*
X8414000D02*
D03*
D28*
X9710200Y11201400D02*
D03*
X10000200D02*
D03*
X7980900D02*
D03*
X7690900D02*
D03*
D29*
X8801100Y11406700D02*
D03*
Y11696700D02*
D03*
X10833100D02*
D03*
Y11406700D02*
D03*
D30*
X8770600Y11163300D02*
D03*
X8610600D02*
D03*
Y11010900D02*
D03*
X8770600D02*
D03*
X10630955Y10983217D02*
D03*
X10790955D02*
D03*
X10627055Y11137917D02*
D03*
X10787055D02*
D03*
X10019100Y9916400D02*
D03*
X9859100D02*
D03*
X10019100Y10068800D02*
D03*
X9859100D02*
D03*
X6875942Y7545134D02*
D03*
X7035942D02*
D03*
X6875942Y8435100D02*
D03*
X7035942D02*
D03*
X6874954Y9636922D02*
D03*
X7034954D02*
D03*
X6875942Y8752600D02*
D03*
X7035942D02*
D03*
X4370000Y11546600D02*
D03*
X4530000D02*
D03*
X5233600Y11559300D02*
D03*
X5393600D02*
D03*
D31*
X10287000Y9802600D02*
D03*
Y10212600D02*
D03*
D32*
X7607300Y8233663D02*
D03*
X7480300D02*
D03*
X7353300D02*
D03*
X7226300D02*
D03*
Y7739663D02*
D03*
X7353300D02*
D03*
X7480300D02*
D03*
X7607300D02*
D03*
Y9441800D02*
D03*
X7480300D02*
D03*
X7353300D02*
D03*
X7226300D02*
D03*
Y8947800D02*
D03*
X7353300D02*
D03*
X7480300D02*
D03*
X7607300D02*
D03*
D34*
X4978400Y8716400D02*
D03*
X5486400D02*
D03*
X4978400Y10596000D02*
D03*
X5486400D02*
D03*
X4127500Y9342500D02*
D03*
X3619500D02*
D03*
X4127500Y7462900D02*
D03*
X3619500D02*
D03*
D35*
X4364600Y11747500D02*
D03*
Y12204700D02*
D03*
D36*
X3721100Y11976100D02*
D03*
D37*
X4911700Y11538200D02*
D03*
Y11728200D02*
D03*
X4711700Y11633200D02*
D03*
D38*
X8977808Y7853099D02*
D03*
X9104808D02*
D03*
X9231808D02*
D03*
X9358808D02*
D03*
Y7310699D02*
D03*
X9231808D02*
D03*
X9104808D02*
D03*
X8977808D02*
D03*
%TF.MD5,3eaa448b9fff9e22aeec5aaea261a247*%
M02*
