%TF.GenerationSoftware,Altium Limited,Altium Designer,24.6.1 (21)*%
G04 Layer_Physical_Order=4*
G04 Layer_Color=16711680*
%FSLAX45Y45*%
%MOMM*%
%TF.SameCoordinates,FD53202A-208C-403B-AAB2-15DF5564725B*%
%TF.FilePolarity,Positive*%
%TF.FileFunction,Copper,L4,Bot,Signal*%
%TF.Part,Single*%
G01*
G75*
%TA.AperFunction,SMDPad,CuDef*%
%ADD23R,0.95000X0.85000*%
%ADD26R,1.40000X1.30000*%
%ADD30R,0.85000X0.95000*%
%TA.AperFunction,Conductor*%
%ADD39C,0.25400*%
%TA.AperFunction,ComponentPad*%
%ADD43C,2.10000*%
%ADD44R,2.10000X2.10000*%
%ADD45C,1.20000*%
%ADD46R,1.20000X1.20000*%
%ADD47C,1.65000*%
%ADD48C,4.72500*%
%ADD49C,1.50000*%
%ADD50R,1.50000X1.50000*%
%TA.AperFunction,ViaPad*%
%ADD51C,0.70000*%
%ADD52C,0.50000*%
%ADD53C,0.80000*%
G36*
X11709400Y12331700D02*
Y11430000D01*
X11684000Y11404600D01*
X7239000D01*
X7188200Y11353800D01*
Y10655300D01*
X7022631Y10489731D01*
X7010898Y10494591D01*
Y10541000D01*
X7008926Y10550911D01*
X7003312Y10559312D01*
X6994911Y10564926D01*
X6985000Y10566898D01*
X6975089Y10564926D01*
X6966688Y10559312D01*
X6961074Y10550911D01*
X6959102Y10541000D01*
Y10426202D01*
X6896100Y10363200D01*
X5956300D01*
X5931398Y10388102D01*
Y11277600D01*
X5929426Y11287511D01*
X5923812Y11295912D01*
X5644412Y11575312D01*
X5636011Y11580926D01*
X5626100Y11582898D01*
X5539218D01*
X5533155Y11588961D01*
X5519299Y11594700D01*
X5504301D01*
X5490445Y11588961D01*
X5479839Y11578355D01*
X5474100Y11564499D01*
Y11549501D01*
X5479839Y11535645D01*
X5490445Y11525039D01*
X5504301Y11519300D01*
X5519299D01*
X5533155Y11525039D01*
X5539218Y11531102D01*
X5615373D01*
X5879602Y11266873D01*
Y10773883D01*
X5866902Y10768622D01*
X5733312Y10902212D01*
X5724911Y10907826D01*
X5715000Y10909798D01*
X5640818D01*
X5634755Y10915861D01*
X5620899Y10921600D01*
X5605901D01*
X5592045Y10915861D01*
X5581439Y10905255D01*
X5575700Y10891399D01*
Y10876401D01*
X5581439Y10862545D01*
X5592045Y10851939D01*
X5605901Y10846200D01*
X5620899D01*
X5634755Y10851939D01*
X5640818Y10858002D01*
X5704273D01*
X5828802Y10733473D01*
Y10507291D01*
X5817069Y10502431D01*
X4508500Y11811000D01*
Y12356602D01*
X11684498D01*
X11709400Y12331700D01*
D02*
G37*
G36*
X11797802Y7150598D02*
X3728835D01*
X3728599Y7163200D01*
X3742455Y7168939D01*
X3748518Y7175002D01*
X6311900D01*
X6321811Y7176974D01*
X6330212Y7182588D01*
X6666861Y7519236D01*
X6738383D01*
X6744445Y7513173D01*
X6758302Y7507434D01*
X6773300D01*
X6787156Y7513173D01*
X6797761Y7523778D01*
X6803501Y7537634D01*
Y7552633D01*
X6797761Y7566489D01*
X6787156Y7577094D01*
X6773300Y7582833D01*
X6758302D01*
X6744445Y7577094D01*
X6738383Y7571031D01*
X6656133D01*
X6646223Y7569060D01*
X6637821Y7563446D01*
X6301173Y7226798D01*
X3748518D01*
X3742455Y7232861D01*
X3728599Y7238600D01*
X3713601D01*
X3699745Y7232861D01*
X3689139Y7222255D01*
X3683400Y7208399D01*
Y7193401D01*
X3689139Y7179545D01*
X3699745Y7168939D01*
X3713601Y7163200D01*
X3713365Y7150598D01*
X2565898D01*
Y8106544D01*
X2578598Y8107795D01*
X2581047Y8095479D01*
X2592275Y8078675D01*
X2630375Y8040575D01*
X2647179Y8029347D01*
X2667000Y8025405D01*
X4483100D01*
X4502921Y8029347D01*
X4519725Y8040575D01*
X4885554Y8406405D01*
X5016500D01*
X5036321Y8410347D01*
X5053125Y8421575D01*
X5116625Y8485075D01*
X5127853Y8501879D01*
X5131795Y8521700D01*
Y8915400D01*
X5127853Y8935221D01*
X5116625Y8952025D01*
X5053125Y9015525D01*
X5036321Y9026753D01*
X5024005Y9029202D01*
X5025256Y9041902D01*
X5567026D01*
X5572287Y9029202D01*
X5568739Y9025655D01*
X5563000Y9011799D01*
Y8996801D01*
X5568739Y8982945D01*
X5579345Y8972339D01*
X5593201Y8966600D01*
X5608199D01*
X5622055Y8972339D01*
X5628118Y8978402D01*
X6136073D01*
X6696284Y8418191D01*
X6704686Y8412577D01*
X6714597Y8410606D01*
X6736979D01*
X6743042Y8404543D01*
X6756898Y8398803D01*
X6771897D01*
X6785753Y8404543D01*
X6796358Y8415148D01*
X6802097Y8429004D01*
Y8444002D01*
X6796358Y8457859D01*
X6785753Y8468464D01*
X6771897Y8474203D01*
X6756898D01*
X6743042Y8468464D01*
X6736979Y8462401D01*
X6725324D01*
X6165112Y9022612D01*
X6156711Y9028226D01*
X6151803Y9029202D01*
X6153054Y9041902D01*
X6371223D01*
X6677435Y8735691D01*
X6685837Y8730077D01*
X6695747Y8728106D01*
X6736979D01*
X6743042Y8722043D01*
X6756898Y8716303D01*
X6771897D01*
X6785753Y8722043D01*
X6796358Y8732648D01*
X6802097Y8746504D01*
Y8761502D01*
X6796358Y8775359D01*
X6785753Y8785964D01*
X6771897Y8791703D01*
X6756898D01*
X6743042Y8785964D01*
X6736979Y8779901D01*
X6706475D01*
X6400263Y9086112D01*
X6391861Y9091726D01*
X6381951Y9093698D01*
X3723118D01*
X3717055Y9099761D01*
X3703199Y9105500D01*
X3688201D01*
X3674345Y9099761D01*
X3663739Y9089155D01*
X3658000Y9075299D01*
Y9060301D01*
X3663739Y9046445D01*
X3666789Y9043395D01*
X3661528Y9030695D01*
X3412354D01*
X3364025Y9079025D01*
X3347221Y9090253D01*
X3327400Y9094195D01*
X3200918D01*
X3199017Y9093817D01*
X3188218Y9103016D01*
X3188218Y9136859D01*
X3188218Y9160921D01*
X3198035Y9168978D01*
X3200918Y9168405D01*
X3276600D01*
X3296421Y9172347D01*
X3313225Y9183575D01*
X3338625Y9208975D01*
X3349852Y9225779D01*
X3353795Y9245600D01*
X3353795Y9909946D01*
X3361554Y9917705D01*
X4483099D01*
X4483100Y9917705D01*
X4502921Y9921647D01*
X4519725Y9932875D01*
X4872854Y10286005D01*
X5041900D01*
X5061721Y10289947D01*
X5078525Y10301175D01*
X5116625Y10339275D01*
X5127853Y10356079D01*
X5131795Y10375900D01*
Y10896600D01*
X5127853Y10916421D01*
X5116625Y10933225D01*
X5091225Y10958625D01*
X5074421Y10969853D01*
X5054600Y10973795D01*
X2692400D01*
X2672579Y10969853D01*
X2655775Y10958625D01*
X2577631Y10880480D01*
X2565898Y10885341D01*
Y12356602D01*
X4456705D01*
Y11811000D01*
X4460647Y11791179D01*
X4471875Y11774375D01*
X5780445Y10465806D01*
X5797248Y10454578D01*
X5817070Y10450635D01*
X5828802Y10440998D01*
Y10134600D01*
X5830774Y10124689D01*
X5836388Y10116288D01*
X6331688Y9620988D01*
X6340089Y9615374D01*
X6350000Y9613402D01*
X6716282D01*
X6722345Y9607339D01*
X6736201Y9601600D01*
X6751199D01*
X6765055Y9607339D01*
X6775661Y9617945D01*
X6781400Y9631801D01*
Y9646799D01*
X6775661Y9660655D01*
X6765055Y9671261D01*
X6751199Y9677000D01*
X6736201D01*
X6722345Y9671261D01*
X6716282Y9665198D01*
X6360727D01*
X6165454Y9860471D01*
X6173550Y9870336D01*
X6174989Y9869374D01*
X6184900Y9867402D01*
X7685473D01*
X7975102Y9577773D01*
Y9309100D01*
X7977074Y9299189D01*
X7982688Y9290788D01*
X8090300Y9183175D01*
Y9174601D01*
X8096039Y9160745D01*
X8106645Y9150139D01*
X8120501Y9144400D01*
X8135499D01*
X8149355Y9150139D01*
X8159961Y9160745D01*
X8165700Y9174601D01*
Y9189599D01*
X8159961Y9203455D01*
X8149355Y9214061D01*
X8135499Y9219800D01*
X8126925D01*
X8026898Y9319827D01*
Y9588500D01*
X8024926Y9598411D01*
X8019312Y9606812D01*
X7714512Y9911612D01*
X7706111Y9917226D01*
X7696200Y9919198D01*
X6195627D01*
X5931398Y10183427D01*
Y10304631D01*
X5944098Y10313832D01*
X5956300Y10311405D01*
X6896100D01*
X6915921Y10315347D01*
X6932725Y10326575D01*
X6947369Y10341220D01*
X6959102Y10336359D01*
Y10261359D01*
X6854387Y10156643D01*
X6845813D01*
X6831956Y10150904D01*
X6821351Y10140299D01*
X6815612Y10126443D01*
Y10111444D01*
X6821351Y10097588D01*
X6831956Y10086983D01*
X6845813Y10081243D01*
X6860811D01*
X6874667Y10086983D01*
X6885272Y10097588D01*
X6891012Y10111444D01*
Y10120019D01*
X7003312Y10232319D01*
X7008926Y10240721D01*
X7010898Y10250632D01*
Y10428888D01*
X7022630Y10437936D01*
X7042452Y10441878D01*
X7059255Y10453106D01*
X7224825Y10618675D01*
X7236053Y10635479D01*
X7239995Y10655300D01*
Y11332346D01*
X7260454Y11352805D01*
X11684000D01*
X11703821Y11356747D01*
X11720625Y11367975D01*
X11746025Y11393375D01*
X11757253Y11410179D01*
X11761195Y11430000D01*
Y12331700D01*
X11758768Y12343902D01*
X11767969Y12356602D01*
X11797802D01*
Y7150598D01*
D02*
G37*
G36*
X5080000Y10896600D02*
Y10375900D01*
X5041900Y10337800D01*
X4851400D01*
X4483100Y9969500D01*
X3340100D01*
X3302000Y9931400D01*
X3302000Y9245600D01*
X3276600Y9220200D01*
X3200918D01*
Y9309559D01*
X3155518D01*
Y9219159D01*
X3055518D01*
Y9309559D01*
X3010118D01*
Y9220200D01*
X2565898D01*
Y10819638D01*
X2577630Y10828685D01*
X2597452Y10832628D01*
X2614255Y10843855D01*
X2688793Y10918393D01*
D01*
X2692400Y10922000D01*
X5054600D01*
X5080000Y10896600D01*
D02*
G37*
G36*
X3155518Y8968760D02*
X3200918D01*
Y9042400D01*
X3327400D01*
X3390900Y8978900D01*
X5016500D01*
X5080000Y8915400D01*
Y8521700D01*
X5016500Y8458200D01*
X4864100D01*
X4483100Y8077200D01*
X2667000D01*
X2628900Y8115300D01*
Y9004300D01*
X2667000Y9042400D01*
X3010118D01*
Y8968760D01*
X3055518D01*
Y9059159D01*
X3155518D01*
Y8968760D01*
D02*
G37*
%LPC*%
G36*
X6359571Y11651100D02*
X6340429D01*
X6321939Y11646146D01*
X6305361Y11636574D01*
X6291826Y11623039D01*
X6282254Y11606461D01*
X6277300Y11587971D01*
Y11568829D01*
X6282254Y11550339D01*
X6291826Y11533761D01*
X6305361Y11520226D01*
X6321939Y11510654D01*
X6340429Y11505700D01*
X6359571D01*
X6378061Y11510654D01*
X6394639Y11520226D01*
X6408174Y11533761D01*
X6417746Y11550339D01*
X6422700Y11568829D01*
Y11587971D01*
X6417746Y11606461D01*
X6408174Y11623039D01*
X6394639Y11636574D01*
X6378061Y11646146D01*
X6359571Y11651100D01*
D02*
G37*
G36*
X6435400Y11163800D02*
X6400000D01*
Y11128400D01*
X6435400D01*
Y11163800D01*
D02*
G37*
G36*
X6300000D02*
X6264600D01*
Y11128400D01*
X6300000D01*
Y11163800D01*
D02*
G37*
G36*
X6435400Y11028400D02*
X6400000D01*
Y10993000D01*
X6435400D01*
Y11028400D01*
D02*
G37*
G36*
X6300000D02*
X6264600D01*
Y10993000D01*
X6300000D01*
Y11028400D01*
D02*
G37*
G36*
X2899000Y12039000D02*
X2663600D01*
Y11803600D01*
X2899000D01*
Y12039000D01*
D02*
G37*
G36*
X9522643Y11314752D02*
X9507645D01*
X9493788Y11309013D01*
X9483183Y11298408D01*
X9477444Y11284551D01*
Y11269553D01*
X9483183Y11255697D01*
X9493788Y11245092D01*
X9507645Y11239352D01*
X9522643D01*
X9536499Y11245092D01*
X9547104Y11255697D01*
X9552844Y11269553D01*
Y11284551D01*
X9547104Y11298408D01*
X9536499Y11309013D01*
X9522643Y11314752D01*
D02*
G37*
G36*
X9722999Y11074000D02*
X9708001D01*
X9694145Y11068261D01*
X9683750Y11057866D01*
X9673355Y11068261D01*
X9659499Y11074000D01*
X9644501D01*
X9630645Y11068261D01*
X9620039Y11057655D01*
X9614300Y11043799D01*
Y11028801D01*
X9620039Y11014945D01*
X9630645Y11004339D01*
X9644501Y10998600D01*
X9659499D01*
X9673355Y11004339D01*
X9683750Y11014734D01*
X9694145Y11004339D01*
X9708001Y10998600D01*
X9722999D01*
X9736855Y11004339D01*
X9747461Y11014945D01*
X9753200Y11028801D01*
Y11043799D01*
X9747461Y11057655D01*
X9736855Y11068261D01*
X9722999Y11074000D01*
D02*
G37*
G36*
X9308464Y11095949D02*
X9293466D01*
X9279610Y11090209D01*
X9269004Y11079604D01*
X9263265Y11065748D01*
Y11050750D01*
X9269004Y11036893D01*
X9279610Y11026288D01*
X9293466Y11020549D01*
X9308464D01*
X9322320Y11026288D01*
X9332925Y11036893D01*
X9338665Y11050750D01*
Y11065748D01*
X9332925Y11079604D01*
X9322320Y11090209D01*
X9308464Y11095949D01*
D02*
G37*
G36*
X7690999Y10959700D02*
X7676001D01*
X7662145Y10953961D01*
X7651750Y10943566D01*
X7641355Y10953961D01*
X7627499Y10959700D01*
X7612501D01*
X7598645Y10953961D01*
X7588250Y10943566D01*
X7577855Y10953961D01*
X7563999Y10959700D01*
X7549001D01*
X7535145Y10953961D01*
X7524750Y10943566D01*
X7514355Y10953961D01*
X7500499Y10959700D01*
X7485501D01*
X7471645Y10953961D01*
X7461039Y10943355D01*
X7455300Y10929499D01*
Y10914501D01*
X7444390Y10907653D01*
X7433545Y10903161D01*
X7422939Y10892555D01*
X7417200Y10878699D01*
Y10863701D01*
X7422939Y10849845D01*
X7433545Y10839239D01*
X7447401Y10833500D01*
X7462399D01*
X7476255Y10839239D01*
X7486650Y10849634D01*
X7497045Y10839239D01*
X7510901Y10833500D01*
X7525899D01*
X7539755Y10839239D01*
X7550150Y10849634D01*
X7560545Y10839239D01*
X7574401Y10833500D01*
X7589399D01*
X7603255Y10839239D01*
X7613650Y10849634D01*
X7624045Y10839239D01*
X7637901Y10833500D01*
X7652899D01*
X7666755Y10839239D01*
X7676994Y10849478D01*
X7686049Y10840423D01*
X7699905Y10834684D01*
X7714904D01*
X7728760Y10840423D01*
X7734823Y10846486D01*
X8732127D01*
X8742038Y10848457D01*
X8750439Y10854071D01*
X8768036Y10871668D01*
X8768201Y10871600D01*
X8783199D01*
X8797055Y10877339D01*
X8807661Y10887945D01*
X8813400Y10901801D01*
Y10916799D01*
X8807661Y10930655D01*
X8797055Y10941261D01*
X8783199Y10947000D01*
X8768201D01*
X8754345Y10941261D01*
X8743739Y10930655D01*
X8738000Y10916799D01*
Y10914881D01*
X8721400Y10898281D01*
X7734823D01*
X7728760Y10904344D01*
X7718716Y10908504D01*
X7721200Y10914501D01*
Y10929499D01*
X7715461Y10943355D01*
X7704855Y10953961D01*
X7690999Y10959700D01*
D02*
G37*
G36*
X10797713Y10915669D02*
X10782715D01*
X10768858Y10909929D01*
X10758253Y10899324D01*
X10752514Y10885468D01*
Y10870469D01*
X10758253Y10856613D01*
X10768858Y10846008D01*
X10782715Y10840269D01*
X10797713D01*
X10811569Y10846008D01*
X10822174Y10856613D01*
X10827914Y10870469D01*
Y10885468D01*
X10822174Y10899324D01*
X10811569Y10909929D01*
X10797713Y10915669D01*
D02*
G37*
G36*
X9926199Y10743800D02*
X9911201D01*
X9897345Y10738061D01*
X9886950Y10727666D01*
X9876555Y10738061D01*
X9862699Y10743800D01*
X9847701D01*
X9833845Y10738061D01*
X9823450Y10727666D01*
X9813055Y10738061D01*
X9799199Y10743800D01*
X9784201D01*
X9770345Y10738061D01*
X9759739Y10727455D01*
X9754000Y10713599D01*
Y10698601D01*
X9759739Y10684745D01*
X9770345Y10674139D01*
X9775733Y10671908D01*
X9783633Y10665229D01*
X9782083Y10656577D01*
X9779400Y10650099D01*
Y10635101D01*
X9782083Y10628623D01*
X9783633Y10619971D01*
X9775733Y10613292D01*
X9770345Y10611061D01*
X9759739Y10600455D01*
X9754000Y10586599D01*
Y10571601D01*
X9759739Y10557745D01*
X9770345Y10547139D01*
X9775733Y10544908D01*
X9783633Y10538229D01*
X9782083Y10529577D01*
X9779400Y10523099D01*
Y10508101D01*
X9782083Y10501623D01*
X9783633Y10492971D01*
X9775733Y10486292D01*
X9770345Y10484061D01*
X9759739Y10473455D01*
X9754000Y10459599D01*
Y10444601D01*
X9759739Y10430745D01*
X9770345Y10420139D01*
X9784201Y10414400D01*
X9799199D01*
X9813055Y10420139D01*
X9823450Y10430534D01*
X9833845Y10420139D01*
X9847701Y10414400D01*
X9862699D01*
X9876555Y10420139D01*
X9886950Y10430534D01*
X9897345Y10420139D01*
X9911201Y10414400D01*
X9926199D01*
X9940055Y10420139D01*
X9950661Y10430745D01*
X9956400Y10444601D01*
Y10459599D01*
X9950661Y10473455D01*
X9940055Y10484061D01*
X9934667Y10486292D01*
X9926767Y10492971D01*
X9928317Y10501623D01*
X9931000Y10508101D01*
Y10523099D01*
X9928317Y10529577D01*
X9926767Y10538229D01*
X9934667Y10544908D01*
X9940055Y10547139D01*
X9950661Y10557745D01*
X9956400Y10571601D01*
Y10586599D01*
X9950661Y10600455D01*
X9940055Y10611061D01*
X9934667Y10613292D01*
X9926767Y10619971D01*
X9928317Y10628623D01*
X9931000Y10635101D01*
Y10650099D01*
X9928317Y10656577D01*
X9926767Y10665229D01*
X9934667Y10671908D01*
X9940055Y10674139D01*
X9950661Y10684745D01*
X9956400Y10698601D01*
Y10713599D01*
X9950661Y10727455D01*
X9940055Y10738061D01*
X9926199Y10743800D01*
D02*
G37*
G36*
X11199470Y10569850D02*
X11186400D01*
Y10320900D01*
X11435350D01*
Y10333970D01*
X11425295Y10384521D01*
X11405571Y10432138D01*
X11376937Y10474992D01*
X11340492Y10511437D01*
X11297638Y10540071D01*
X11250020Y10559795D01*
X11199470Y10569850D01*
D02*
G37*
G36*
X11161000D02*
X11147930D01*
X11097380Y10559795D01*
X11049762Y10540071D01*
X11006908Y10511437D01*
X10970463Y10474992D01*
X10941829Y10432138D01*
X10922105Y10384521D01*
X10912050Y10333970D01*
Y10320900D01*
X11161000D01*
Y10569850D01*
D02*
G37*
G36*
X11435350Y10295500D02*
X11186400D01*
Y10046550D01*
X11199470D01*
X11250020Y10056605D01*
X11297638Y10076329D01*
X11340492Y10104963D01*
X11376937Y10141408D01*
X11405571Y10184262D01*
X11425295Y10231880D01*
X11435350Y10282430D01*
Y10295500D01*
D02*
G37*
G36*
X11161000D02*
X10912050D01*
Y10282430D01*
X10922105Y10231880D01*
X10941829Y10184262D01*
X10970463Y10141408D01*
X11006908Y10104963D01*
X11049762Y10076329D01*
X11097380Y10056605D01*
X11147930Y10046550D01*
X11161000D01*
Y10295500D01*
D02*
G37*
G36*
X9004300Y9919198D02*
X8343900D01*
X8333989Y9917226D01*
X8325588Y9911612D01*
X8198588Y9784612D01*
X8192974Y9776211D01*
X8191002Y9766300D01*
Y9647974D01*
X8178302Y9642714D01*
X8175155Y9645861D01*
X8165700Y9649777D01*
Y9659499D01*
X8159961Y9673355D01*
X8149355Y9683961D01*
X8135499Y9689700D01*
X8120501D01*
X8106645Y9683961D01*
X8096039Y9673355D01*
X8090300Y9659499D01*
Y9644501D01*
X8096039Y9630645D01*
X8106645Y9620039D01*
X8116100Y9616123D01*
Y9606401D01*
X8121839Y9592545D01*
X8132445Y9581939D01*
X8146301Y9576200D01*
X8161299D01*
X8175155Y9581939D01*
X8178302Y9585086D01*
X8191002Y9579826D01*
Y8648700D01*
X8192974Y8638789D01*
X8198588Y8630388D01*
X8444094Y8384882D01*
X8439977Y8377751D01*
X8434000Y8355446D01*
Y8332354D01*
X8439977Y8310049D01*
X8444094Y8302918D01*
X8273346Y8132171D01*
X8267733Y8123769D01*
X8265761Y8113859D01*
Y8069042D01*
X8259698Y8062979D01*
X8253959Y8049123D01*
Y8034125D01*
X8259698Y8020268D01*
X8270303Y8009663D01*
X8284160Y8003924D01*
X8299158D01*
X8313014Y8009663D01*
X8323619Y8020268D01*
X8329359Y8034125D01*
Y8049123D01*
X8323619Y8062979D01*
X8317556Y8069042D01*
Y8103132D01*
X8480718Y8266294D01*
X8487849Y8262177D01*
X8510154Y8256200D01*
X8533246D01*
X8555551Y8262177D01*
X8575549Y8273723D01*
X8591877Y8290051D01*
X8603423Y8310049D01*
X8609400Y8332354D01*
Y8355446D01*
X8603423Y8377751D01*
X8591877Y8397749D01*
X8575549Y8414077D01*
X8555551Y8425623D01*
X8533246Y8431600D01*
X8510154D01*
X8487849Y8425623D01*
X8480718Y8421506D01*
X8242798Y8659427D01*
Y9036146D01*
X8255498Y9037397D01*
X8256474Y9032489D01*
X8262088Y9024088D01*
X9030100Y8256075D01*
Y8247501D01*
X9035839Y8233645D01*
X9046445Y8223039D01*
X9060301Y8217300D01*
X9075299D01*
X9089155Y8223039D01*
X9099761Y8233645D01*
X9105500Y8247501D01*
Y8251615D01*
X9118200Y8256875D01*
X9205911Y8169165D01*
Y7993114D01*
X9199848Y7987051D01*
X9194108Y7973195D01*
Y7958196D01*
X9199848Y7944340D01*
X9210453Y7933735D01*
X9224309Y7927996D01*
X9239307D01*
X9253164Y7933735D01*
X9263769Y7944340D01*
X9269508Y7958196D01*
Y7973195D01*
X9263769Y7987051D01*
X9257706Y7993114D01*
Y8179892D01*
X9255735Y8189802D01*
X9250121Y8198204D01*
X8369798Y9078527D01*
Y9692073D01*
X8406325Y9728600D01*
X8414899D01*
X8428755Y9734339D01*
X8439361Y9744945D01*
X8445100Y9758801D01*
Y9773799D01*
X8441663Y9782097D01*
X8450701Y9792100D01*
X8465699D01*
X8479555Y9797839D01*
X8490161Y9808445D01*
X8495900Y9822301D01*
Y9837299D01*
X8490161Y9851155D01*
X8486613Y9854702D01*
X8491874Y9867402D01*
X8993573D01*
X9015685Y9845291D01*
X9024086Y9839677D01*
X9033997Y9837706D01*
X9168302D01*
X9174365Y9831643D01*
X9188221Y9825903D01*
X9203220D01*
X9217076Y9831643D01*
X9227681Y9842248D01*
X9233420Y9856104D01*
Y9871102D01*
X9227681Y9884959D01*
X9217076Y9895564D01*
X9203220Y9901303D01*
X9188221D01*
X9174365Y9895564D01*
X9168302Y9889501D01*
X9044724D01*
X9022613Y9911612D01*
X9014211Y9917226D01*
X9004300Y9919198D01*
D02*
G37*
G36*
X5660988Y9911200D02*
X5642012D01*
X5624480Y9903938D01*
X5611062Y9890520D01*
X5603800Y9872988D01*
Y9854012D01*
X5611062Y9836480D01*
X5624480Y9823062D01*
X5642012Y9815800D01*
X5660988D01*
X5678520Y9823062D01*
X5691938Y9836480D01*
X5699200Y9854012D01*
Y9872988D01*
X5691938Y9890520D01*
X5678520Y9903938D01*
X5660988Y9911200D01*
D02*
G37*
G36*
X5521288D02*
X5502312D01*
X5484780Y9903938D01*
X5471362Y9890520D01*
X5464100Y9872988D01*
Y9854012D01*
X5471362Y9836480D01*
X5484780Y9823062D01*
X5502312Y9815800D01*
X5521288D01*
X5538820Y9823062D01*
X5552238Y9836480D01*
X5559500Y9854012D01*
Y9872988D01*
X5552238Y9890520D01*
X5538820Y9903938D01*
X5521288Y9911200D01*
D02*
G37*
G36*
X5381588D02*
X5362612D01*
X5345080Y9903938D01*
X5331662Y9890520D01*
X5324400Y9872988D01*
Y9854012D01*
X5331662Y9836480D01*
X5345080Y9823062D01*
X5362612Y9815800D01*
X5381588D01*
X5399120Y9823062D01*
X5412538Y9836480D01*
X5419800Y9854012D01*
Y9872988D01*
X5412538Y9890520D01*
X5399120Y9903938D01*
X5381588Y9911200D01*
D02*
G37*
G36*
X5241888D02*
X5222912D01*
X5205380Y9903938D01*
X5191962Y9890520D01*
X5184700Y9872988D01*
Y9854012D01*
X5191962Y9836480D01*
X5205380Y9823062D01*
X5222912Y9815800D01*
X5241888D01*
X5259420Y9823062D01*
X5272838Y9836480D01*
X5280100Y9854012D01*
Y9872988D01*
X5272838Y9890520D01*
X5259420Y9903938D01*
X5241888Y9911200D01*
D02*
G37*
G36*
X5102188D02*
X5083212D01*
X5065680Y9903938D01*
X5052262Y9890520D01*
X5045000Y9872988D01*
Y9854012D01*
X5052262Y9836480D01*
X5065680Y9823062D01*
X5083212Y9815800D01*
X5102188D01*
X5119720Y9823062D01*
X5133138Y9836480D01*
X5140400Y9854012D01*
Y9872988D01*
X5133138Y9890520D01*
X5119720Y9903938D01*
X5102188Y9911200D01*
D02*
G37*
G36*
X4962488D02*
X4943512D01*
X4925980Y9903938D01*
X4912562Y9890520D01*
X4905300Y9872988D01*
Y9854012D01*
X4912562Y9836480D01*
X4925980Y9823062D01*
X4943512Y9815800D01*
X4962488D01*
X4980020Y9823062D01*
X4993438Y9836480D01*
X5000700Y9854012D01*
Y9872988D01*
X4993438Y9890520D01*
X4980020Y9903938D01*
X4962488Y9911200D01*
D02*
G37*
G36*
X4822788D02*
X4803812D01*
X4786280Y9903938D01*
X4772862Y9890520D01*
X4765600Y9872988D01*
Y9854012D01*
X4772862Y9836480D01*
X4786280Y9823062D01*
X4803812Y9815800D01*
X4822788D01*
X4840320Y9823062D01*
X4853738Y9836480D01*
X4861000Y9854012D01*
Y9872988D01*
X4853738Y9890520D01*
X4840320Y9903938D01*
X4822788Y9911200D01*
D02*
G37*
G36*
X8732399Y10273900D02*
X8717401D01*
X8703545Y10268161D01*
X8692939Y10257555D01*
X8687200Y10243699D01*
Y10228701D01*
X8692939Y10214845D01*
X8703545Y10204239D01*
X8717401Y10198500D01*
X8725975D01*
X8852300Y10072175D01*
Y10063601D01*
X8858039Y10049745D01*
X8861587Y10046198D01*
X8856326Y10033498D01*
X8819203D01*
X8809293Y10031526D01*
X8800891Y10025912D01*
X8791195Y10016217D01*
X8782621D01*
X8768765Y10010478D01*
X8758160Y9999872D01*
X8752420Y9986016D01*
Y9971018D01*
X8758160Y9957162D01*
X8768765Y9946556D01*
X8782621Y9940817D01*
X8797619D01*
X8811475Y9946556D01*
X8822081Y9957162D01*
X8827820Y9971018D01*
Y9979592D01*
X8829930Y9981702D01*
X8978900D01*
X8988811Y9983674D01*
X8997212Y9989288D01*
X9005504Y9997579D01*
X9018204Y9992318D01*
Y9983043D01*
X9023943Y9969187D01*
X9034548Y9958582D01*
X9048405Y9952842D01*
X9063402D01*
X9069286Y9948911D01*
Y9946686D01*
X9075026Y9932830D01*
X9085631Y9922224D01*
X9099487Y9916485D01*
X9114485D01*
X9128341Y9922224D01*
X9138947Y9932830D01*
X9144686Y9946686D01*
Y9955260D01*
X9196528Y10007102D01*
X9349173D01*
X9569835Y9786440D01*
X9564575Y9773740D01*
X9516439D01*
X9510376Y9779803D01*
X9496519Y9785542D01*
X9481521D01*
X9467665Y9779803D01*
X9457060Y9769198D01*
X9451320Y9755341D01*
Y9740343D01*
X9457060Y9726487D01*
X9467665Y9715882D01*
X9481521Y9710142D01*
X9496519D01*
X9510376Y9715882D01*
X9516439Y9721945D01*
X9570830D01*
X9590375Y9702400D01*
X9585115Y9689700D01*
X9581001D01*
X9567145Y9683961D01*
X9556539Y9673355D01*
X9552047Y9662510D01*
X9545199Y9651600D01*
X9530201D01*
X9516345Y9645861D01*
X9505739Y9635255D01*
X9500000Y9621399D01*
Y9606401D01*
X9505739Y9592545D01*
X9516345Y9581939D01*
X9530201Y9576200D01*
X9545199D01*
X9559055Y9581939D01*
X9569661Y9592545D01*
X9574153Y9603390D01*
X9581001Y9614300D01*
X9595999D01*
X9609855Y9620039D01*
X9620461Y9630645D01*
X9626200Y9644501D01*
Y9648615D01*
X9638900Y9653875D01*
X9778502Y9514273D01*
Y8940800D01*
X9780474Y8930889D01*
X9786088Y8922488D01*
X9851357Y8857218D01*
X9859759Y8851604D01*
X9869670Y8849633D01*
X10353114D01*
X10359177Y8843570D01*
X10373033Y8837830D01*
X10388031D01*
X10401887Y8843570D01*
X10412493Y8854175D01*
X10418232Y8868031D01*
Y8883029D01*
X10412493Y8896885D01*
X10401887Y8907491D01*
X10388031Y8913230D01*
X10373033D01*
X10359177Y8907491D01*
X10353114Y8901428D01*
X9880397D01*
X9830298Y8951527D01*
Y9508017D01*
X9842998Y9513278D01*
X9874988Y9481288D01*
X9883389Y9475674D01*
X9893300Y9473702D01*
X9998510D01*
X10010259Y9471408D01*
X10010260Y9461002D01*
Y9427331D01*
X9997560Y9422071D01*
X9996558Y9423072D01*
X9982702Y9428811D01*
X9967704D01*
X9953848Y9423072D01*
X9943242Y9412467D01*
X9937503Y9398611D01*
Y9383612D01*
X9943242Y9369756D01*
X9953848Y9359151D01*
X9967704Y9353412D01*
X9982702D01*
X9996558Y9359151D01*
X9997560Y9360152D01*
X10010260Y9354892D01*
Y9325608D01*
X10065459D01*
Y9398507D01*
X10078159D01*
Y9411207D01*
X10146060D01*
X10146060Y9471408D01*
X10157809Y9473702D01*
X10314373D01*
X10341956Y9446119D01*
X10336696Y9433419D01*
X10333535D01*
X10319679Y9427680D01*
X10313616Y9421617D01*
X10293360D01*
Y9458708D01*
X10182960D01*
Y9338308D01*
X10293360D01*
Y9369821D01*
X10313616D01*
X10319679Y9363759D01*
X10333535Y9358019D01*
X10348533D01*
X10362389Y9363759D01*
X10372994Y9374364D01*
X10378734Y9388220D01*
Y9391381D01*
X10391434Y9396642D01*
X10845302Y8942773D01*
Y8458200D01*
X10847274Y8448289D01*
X10852888Y8439888D01*
X10967188Y8325588D01*
X10975589Y8319974D01*
X10985500Y8318002D01*
X11448300D01*
Y8289900D01*
X11568700D01*
Y8318002D01*
X11611100D01*
Y8288700D01*
X11731500D01*
Y8399100D01*
X11611100D01*
Y8369798D01*
X11568700D01*
Y8400300D01*
X11448300D01*
Y8369798D01*
X10996227D01*
X10897098Y8468927D01*
Y8936517D01*
X10909798Y8941778D01*
X10954488Y8897088D01*
X10962889Y8891474D01*
X10972800Y8889502D01*
X11018931D01*
X11019166Y8876900D01*
X10994954Y8870412D01*
X10973246Y8857879D01*
X10955521Y8840154D01*
X10942988Y8818446D01*
X10936500Y8794233D01*
Y8769167D01*
X10942988Y8744954D01*
X10955521Y8723246D01*
X10973246Y8705521D01*
X10994954Y8692988D01*
X11019167Y8686500D01*
X11044233D01*
X11068446Y8692988D01*
X11090154Y8705521D01*
X11107879Y8723246D01*
X11120412Y8744954D01*
X11126900Y8769167D01*
Y8794233D01*
X11120412Y8818446D01*
X11107879Y8840154D01*
X11090154Y8857879D01*
X11068446Y8870412D01*
X11044234Y8876900D01*
X11044469Y8889502D01*
X11114473D01*
X11260900Y8743075D01*
X11266457Y8739362D01*
X11267758Y8729277D01*
X11266948Y8724981D01*
X11257246Y8719379D01*
X11239521Y8701654D01*
X11226988Y8679946D01*
X11220500Y8655734D01*
Y8630667D01*
X11226988Y8606454D01*
X11239521Y8584746D01*
X11257246Y8567021D01*
X11278954Y8554488D01*
X11303167Y8548000D01*
X11328233D01*
X11338835Y8550841D01*
X11402888Y8486788D01*
X11411289Y8481174D01*
X11421200Y8479202D01*
X11448300D01*
Y8449900D01*
X11568700D01*
Y8560300D01*
X11448300D01*
Y8530998D01*
X11431927D01*
X11385029Y8577896D01*
X11391879Y8584746D01*
X11404412Y8606454D01*
X11410900Y8630667D01*
Y8655734D01*
X11404412Y8679946D01*
X11391879Y8701654D01*
X11374154Y8719379D01*
X11368246Y8722790D01*
X11371649Y8735490D01*
X11439590D01*
Y8706188D01*
X11559990D01*
Y8735490D01*
X11604690D01*
Y8706188D01*
X11725090D01*
Y8816588D01*
X11604690D01*
Y8787285D01*
X11559990D01*
Y8816588D01*
X11439590D01*
Y8787285D01*
X11289940D01*
X11143512Y8933712D01*
X11135111Y8939326D01*
X11125200Y8941298D01*
X10983527D01*
X10483454Y9441371D01*
X10491550Y9451236D01*
X10492989Y9450274D01*
X10502900Y9448302D01*
X11224081D01*
X11226988Y9437454D01*
X11239521Y9415746D01*
X11257246Y9398021D01*
X11278954Y9385488D01*
X11303167Y9379000D01*
X11328233D01*
X11352446Y9385488D01*
X11374154Y9398021D01*
X11391879Y9415746D01*
X11404412Y9437454D01*
X11410900Y9461667D01*
Y9486733D01*
X11404412Y9510946D01*
X11391879Y9532654D01*
X11374154Y9550379D01*
X11352446Y9562912D01*
X11328233Y9569400D01*
X11303167D01*
X11278954Y9562912D01*
X11257246Y9550379D01*
X11239521Y9532654D01*
X11226988Y9510946D01*
X11224081Y9500098D01*
X11081120D01*
X11080158Y9501713D01*
X11084545Y9518618D01*
X11097952Y9526359D01*
X11118042Y9546448D01*
X11132247Y9571052D01*
X11139600Y9598495D01*
Y9600001D01*
X11031700D01*
X10923800D01*
Y9598495D01*
X10931153Y9571052D01*
X10945359Y9546448D01*
X10965448Y9526359D01*
X10978855Y9518618D01*
X10983242Y9501713D01*
X10982281Y9500098D01*
X10513627D01*
X10419612Y9594112D01*
X10411211Y9599726D01*
X10401300Y9601698D01*
X9942127D01*
X9403612Y10140212D01*
X9395211Y10145826D01*
X9385300Y10147798D01*
X9093200D01*
X9083289Y10145826D01*
X9074888Y10140212D01*
X8968173Y10033498D01*
X8923674D01*
X8918413Y10046198D01*
X8921961Y10049745D01*
X8927700Y10063601D01*
Y10078599D01*
X8921961Y10092455D01*
X8911355Y10103061D01*
X8897499Y10108800D01*
X8888925D01*
X8762600Y10235125D01*
Y10243699D01*
X8756861Y10257555D01*
X8746255Y10268161D01*
X8732399Y10273900D01*
D02*
G37*
G36*
X7163581Y9809982D02*
X7148583D01*
X7134727Y9804243D01*
X7124122Y9793638D01*
X7118382Y9779781D01*
Y9764783D01*
X7124122Y9750927D01*
X7134727Y9740322D01*
X7148583Y9734582D01*
X7163581D01*
X7177438Y9740322D01*
X7188043Y9750927D01*
X7193782Y9764783D01*
Y9779781D01*
X7188043Y9793638D01*
X7177438Y9804243D01*
X7163581Y9809982D01*
D02*
G37*
G36*
X11045905Y9720600D02*
X11044400D01*
Y9625401D01*
X11139600D01*
Y9626905D01*
X11132247Y9654348D01*
X11118042Y9678952D01*
X11097952Y9699042D01*
X11073348Y9713247D01*
X11045905Y9720600D01*
D02*
G37*
G36*
X11019000D02*
X11017495D01*
X10990052Y9713247D01*
X10965448Y9699042D01*
X10945359Y9678952D01*
X10931153Y9654348D01*
X10923800Y9626905D01*
Y9625401D01*
X11019000D01*
Y9720600D01*
D02*
G37*
G36*
X7868799Y9626200D02*
X7853801D01*
X7839945Y9620461D01*
X7829550Y9610066D01*
X7819155Y9620461D01*
X7805299Y9626200D01*
X7790301D01*
X7776445Y9620461D01*
X7766050Y9610066D01*
X7755655Y9620461D01*
X7741799Y9626200D01*
X7726801D01*
X7712945Y9620461D01*
X7702339Y9609855D01*
X7696600Y9595999D01*
Y9581001D01*
X7702339Y9567145D01*
X7712945Y9556539D01*
X7726801Y9550800D01*
X7741799D01*
X7755655Y9556539D01*
X7766050Y9566934D01*
X7776445Y9556539D01*
X7790301Y9550800D01*
X7805299D01*
X7819155Y9556539D01*
X7829550Y9566934D01*
X7839945Y9556539D01*
X7853801Y9550800D01*
X7855534D01*
X7864020Y9538100D01*
X7861700Y9532499D01*
Y9517501D01*
X7867439Y9503645D01*
X7877834Y9493250D01*
X7867439Y9482855D01*
X7861700Y9468999D01*
Y9454001D01*
X7867439Y9440145D01*
X7878045Y9429539D01*
X7891901Y9423800D01*
X7906899D01*
X7920755Y9429539D01*
X7931361Y9440145D01*
X7937100Y9454001D01*
Y9468999D01*
X7931361Y9482855D01*
X7920966Y9493250D01*
X7931361Y9503645D01*
X7937100Y9517501D01*
Y9532499D01*
X7931361Y9546355D01*
X7920755Y9556961D01*
X7906899Y9562700D01*
X7905166D01*
X7896680Y9575400D01*
X7899000Y9581001D01*
Y9595999D01*
X7893261Y9609855D01*
X7882655Y9620461D01*
X7868799Y9626200D01*
D02*
G37*
G36*
X7143700Y9680039D02*
X7128702D01*
X7114846Y9674300D01*
X7104241Y9663695D01*
X7098501Y9649838D01*
Y9634840D01*
X7104241Y9620984D01*
X7114846Y9610379D01*
X7128702Y9604639D01*
X7143700D01*
X7157556Y9610379D01*
X7163619Y9616442D01*
X7277670D01*
X7315600Y9578512D01*
Y9569938D01*
X7321339Y9556081D01*
X7331945Y9545476D01*
X7345801Y9539737D01*
X7360799D01*
X7374655Y9545476D01*
X7385261Y9556081D01*
X7391000Y9569938D01*
Y9584936D01*
X7385261Y9598792D01*
X7374655Y9609397D01*
X7360799Y9615137D01*
X7352225D01*
X7306710Y9660652D01*
X7298308Y9666266D01*
X7288397Y9668237D01*
X7163619D01*
X7157556Y9674300D01*
X7143700Y9680039D01*
D02*
G37*
G36*
X10146060Y9385807D02*
X10090859D01*
Y9325608D01*
X10146060D01*
Y9385807D01*
D02*
G37*
G36*
X11044233Y9430900D02*
X11019167D01*
X10994954Y9424412D01*
X10973246Y9411879D01*
X10955521Y9394154D01*
X10942988Y9372446D01*
X10936500Y9348234D01*
Y9323167D01*
X10942988Y9298954D01*
X10955521Y9277246D01*
X10973246Y9259521D01*
X10994954Y9246988D01*
X11019167Y9240500D01*
X11044233D01*
X11068446Y9246988D01*
X11090154Y9259521D01*
X11107879Y9277246D01*
X11120412Y9298954D01*
X11126900Y9323167D01*
Y9348234D01*
X11120412Y9372446D01*
X11107879Y9394154D01*
X11090154Y9411879D01*
X11068446Y9424412D01*
X11044233Y9430900D01*
D02*
G37*
G36*
X10146060Y9290049D02*
X10090859D01*
Y9229848D01*
X10146060D01*
Y9290049D01*
D02*
G37*
G36*
X10065459D02*
X10010260D01*
Y9229848D01*
X10065459D01*
Y9290049D01*
D02*
G37*
G36*
X5660988Y9796900D02*
X5642012D01*
X5624480Y9789638D01*
X5611062Y9776220D01*
X5603800Y9758688D01*
Y9739712D01*
X5611062Y9722180D01*
X5624480Y9708762D01*
X5632903Y9705273D01*
Y9691527D01*
X5624480Y9688038D01*
X5611062Y9674620D01*
X5603800Y9657088D01*
Y9638112D01*
X5611062Y9620580D01*
X5624480Y9607162D01*
X5632903Y9603673D01*
Y9589927D01*
X5624480Y9586438D01*
X5611062Y9573020D01*
X5603800Y9555488D01*
Y9536512D01*
X5611062Y9518980D01*
X5624480Y9505562D01*
X5632903Y9502073D01*
Y9488327D01*
X5624480Y9484838D01*
X5611062Y9471420D01*
X5603800Y9453888D01*
Y9434912D01*
X5611062Y9417380D01*
X5624480Y9403962D01*
X5632903Y9400473D01*
Y9386727D01*
X5624480Y9383238D01*
X5611062Y9369820D01*
X5603800Y9352288D01*
Y9333312D01*
X5611062Y9315780D01*
X5624480Y9302362D01*
X5632903Y9298873D01*
Y9285127D01*
X5624480Y9281638D01*
X5611062Y9268220D01*
X5603800Y9250688D01*
Y9231712D01*
X5611062Y9214180D01*
X5624480Y9200762D01*
X5642012Y9193500D01*
X5660988D01*
X5678520Y9200762D01*
X5691938Y9214180D01*
X5699200Y9231712D01*
Y9250688D01*
X5691938Y9268220D01*
X5678520Y9281638D01*
X5670097Y9285127D01*
Y9298873D01*
X5678520Y9302362D01*
X5691938Y9315780D01*
X5699200Y9333312D01*
Y9352288D01*
X5691938Y9369820D01*
X5678520Y9383238D01*
X5670097Y9386727D01*
Y9400473D01*
X5678520Y9403962D01*
X5691938Y9417380D01*
X5699200Y9434912D01*
Y9453888D01*
X5691938Y9471420D01*
X5678520Y9484838D01*
X5670097Y9488327D01*
Y9502073D01*
X5678520Y9505562D01*
X5691938Y9518980D01*
X5699200Y9536512D01*
Y9555488D01*
X5691938Y9573020D01*
X5678520Y9586438D01*
X5670097Y9589927D01*
Y9603673D01*
X5678520Y9607162D01*
X5691938Y9620580D01*
X5699200Y9638112D01*
Y9657088D01*
X5691938Y9674620D01*
X5678520Y9688038D01*
X5670097Y9691527D01*
Y9705273D01*
X5678520Y9708762D01*
X5691938Y9722180D01*
X5699200Y9739712D01*
Y9758688D01*
X5691938Y9776220D01*
X5678520Y9789638D01*
X5660988Y9796900D01*
D02*
G37*
G36*
X5521288D02*
X5502312D01*
X5484780Y9789638D01*
X5471362Y9776220D01*
X5464100Y9758688D01*
Y9739712D01*
X5471362Y9722180D01*
X5484780Y9708762D01*
X5493203Y9705273D01*
Y9691527D01*
X5484780Y9688038D01*
X5471362Y9674620D01*
X5464100Y9657088D01*
Y9638112D01*
X5471362Y9620580D01*
X5484780Y9607162D01*
X5493203Y9603673D01*
Y9589927D01*
X5484780Y9586438D01*
X5471362Y9573020D01*
X5464100Y9555488D01*
Y9536512D01*
X5471362Y9518980D01*
X5484780Y9505562D01*
X5493203Y9502073D01*
Y9488327D01*
X5484780Y9484838D01*
X5471362Y9471420D01*
X5464100Y9453888D01*
Y9434912D01*
X5471362Y9417380D01*
X5484780Y9403962D01*
X5493203Y9400473D01*
Y9386727D01*
X5484780Y9383238D01*
X5471362Y9369820D01*
X5464100Y9352288D01*
Y9333312D01*
X5471362Y9315780D01*
X5484780Y9302362D01*
X5493203Y9298873D01*
Y9285127D01*
X5484780Y9281638D01*
X5471362Y9268220D01*
X5464100Y9250688D01*
Y9231712D01*
X5471362Y9214180D01*
X5484780Y9200762D01*
X5502312Y9193500D01*
X5521288D01*
X5538820Y9200762D01*
X5552238Y9214180D01*
X5559500Y9231712D01*
Y9250688D01*
X5552238Y9268220D01*
X5538820Y9281638D01*
X5530397Y9285127D01*
Y9298873D01*
X5538820Y9302362D01*
X5552238Y9315780D01*
X5559500Y9333312D01*
Y9352288D01*
X5552238Y9369820D01*
X5538820Y9383238D01*
X5530397Y9386727D01*
Y9400473D01*
X5538820Y9403962D01*
X5552238Y9417380D01*
X5559500Y9434912D01*
Y9453888D01*
X5552238Y9471420D01*
X5538820Y9484838D01*
X5530397Y9488327D01*
Y9502073D01*
X5538820Y9505562D01*
X5552238Y9518980D01*
X5559500Y9536512D01*
Y9555488D01*
X5552238Y9573020D01*
X5538820Y9586438D01*
X5530397Y9589927D01*
Y9603673D01*
X5538820Y9607162D01*
X5552238Y9620580D01*
X5559500Y9638112D01*
Y9657088D01*
X5552238Y9674620D01*
X5538820Y9688038D01*
X5530397Y9691527D01*
Y9705273D01*
X5538820Y9708762D01*
X5552238Y9722180D01*
X5559500Y9739712D01*
Y9758688D01*
X5552238Y9776220D01*
X5538820Y9789638D01*
X5521288Y9796900D01*
D02*
G37*
G36*
X5381588D02*
X5362612D01*
X5345080Y9789638D01*
X5331662Y9776220D01*
X5324400Y9758688D01*
Y9739712D01*
X5331662Y9722180D01*
X5345080Y9708762D01*
X5353503Y9705273D01*
Y9691527D01*
X5345080Y9688038D01*
X5331662Y9674620D01*
X5324400Y9657088D01*
Y9638112D01*
X5331662Y9620580D01*
X5345080Y9607162D01*
X5353503Y9603673D01*
Y9589927D01*
X5345080Y9586438D01*
X5331662Y9573020D01*
X5324400Y9555488D01*
Y9536512D01*
X5331662Y9518980D01*
X5345080Y9505562D01*
X5353503Y9502073D01*
Y9488327D01*
X5345080Y9484838D01*
X5331662Y9471420D01*
X5324400Y9453888D01*
Y9434912D01*
X5331662Y9417380D01*
X5345080Y9403962D01*
X5353503Y9400473D01*
Y9386727D01*
X5345080Y9383238D01*
X5331662Y9369820D01*
X5324400Y9352288D01*
Y9333312D01*
X5331662Y9315780D01*
X5345080Y9302362D01*
X5353503Y9298873D01*
Y9285127D01*
X5345080Y9281638D01*
X5331662Y9268220D01*
X5324400Y9250688D01*
Y9231712D01*
X5331662Y9214180D01*
X5345080Y9200762D01*
X5362612Y9193500D01*
X5381588D01*
X5399120Y9200762D01*
X5412538Y9214180D01*
X5419800Y9231712D01*
Y9250688D01*
X5412538Y9268220D01*
X5399120Y9281638D01*
X5390697Y9285127D01*
Y9298873D01*
X5399120Y9302362D01*
X5412538Y9315780D01*
X5419800Y9333312D01*
Y9352288D01*
X5412538Y9369820D01*
X5399120Y9383238D01*
X5390697Y9386727D01*
Y9400473D01*
X5399120Y9403962D01*
X5412538Y9417380D01*
X5419800Y9434912D01*
Y9453888D01*
X5412538Y9471420D01*
X5399120Y9484838D01*
X5390697Y9488327D01*
Y9502073D01*
X5399120Y9505562D01*
X5412538Y9518980D01*
X5419800Y9536512D01*
Y9555488D01*
X5412538Y9573020D01*
X5399120Y9586438D01*
X5390697Y9589927D01*
Y9603673D01*
X5399120Y9607162D01*
X5412538Y9620580D01*
X5419800Y9638112D01*
Y9657088D01*
X5412538Y9674620D01*
X5399120Y9688038D01*
X5390697Y9691527D01*
Y9705273D01*
X5399120Y9708762D01*
X5412538Y9722180D01*
X5419800Y9739712D01*
Y9758688D01*
X5412538Y9776220D01*
X5399120Y9789638D01*
X5381588Y9796900D01*
D02*
G37*
G36*
X5241888D02*
X5222912D01*
X5205380Y9789638D01*
X5191962Y9776220D01*
X5184700Y9758688D01*
Y9739712D01*
X5191962Y9722180D01*
X5205380Y9708762D01*
X5213803Y9705273D01*
Y9691527D01*
X5205380Y9688038D01*
X5191962Y9674620D01*
X5184700Y9657088D01*
Y9638112D01*
X5191962Y9620580D01*
X5205380Y9607162D01*
X5213803Y9603673D01*
Y9589927D01*
X5205380Y9586438D01*
X5191962Y9573020D01*
X5184700Y9555488D01*
Y9536512D01*
X5191962Y9518980D01*
X5205380Y9505562D01*
X5213803Y9502073D01*
Y9488327D01*
X5205380Y9484838D01*
X5191962Y9471420D01*
X5184700Y9453888D01*
Y9434912D01*
X5191962Y9417380D01*
X5205380Y9403962D01*
X5213803Y9400473D01*
Y9386727D01*
X5205380Y9383238D01*
X5191962Y9369820D01*
X5184700Y9352288D01*
Y9333312D01*
X5191962Y9315780D01*
X5205380Y9302362D01*
X5213803Y9298873D01*
Y9285127D01*
X5205380Y9281638D01*
X5191962Y9268220D01*
X5184700Y9250688D01*
Y9231712D01*
X5191962Y9214180D01*
X5205380Y9200762D01*
X5222912Y9193500D01*
X5241888D01*
X5259420Y9200762D01*
X5272838Y9214180D01*
X5280100Y9231712D01*
Y9250688D01*
X5272838Y9268220D01*
X5259420Y9281638D01*
X5250997Y9285127D01*
Y9298873D01*
X5259420Y9302362D01*
X5272838Y9315780D01*
X5280100Y9333312D01*
Y9352288D01*
X5272838Y9369820D01*
X5259420Y9383238D01*
X5250997Y9386727D01*
Y9400473D01*
X5259420Y9403962D01*
X5272838Y9417380D01*
X5280100Y9434912D01*
Y9453888D01*
X5272838Y9471420D01*
X5259420Y9484838D01*
X5250997Y9488327D01*
Y9502073D01*
X5259420Y9505562D01*
X5272838Y9518980D01*
X5280100Y9536512D01*
Y9555488D01*
X5272838Y9573020D01*
X5259420Y9586438D01*
X5250997Y9589927D01*
Y9603673D01*
X5259420Y9607162D01*
X5272838Y9620580D01*
X5280100Y9638112D01*
Y9657088D01*
X5272838Y9674620D01*
X5259420Y9688038D01*
X5250997Y9691527D01*
Y9705273D01*
X5259420Y9708762D01*
X5272838Y9722180D01*
X5280100Y9739712D01*
Y9758688D01*
X5272838Y9776220D01*
X5259420Y9789638D01*
X5241888Y9796900D01*
D02*
G37*
G36*
X5102188D02*
X5083212D01*
X5065680Y9789638D01*
X5052262Y9776220D01*
X5045000Y9758688D01*
Y9739712D01*
X5052262Y9722180D01*
X5065680Y9708762D01*
X5074103Y9705273D01*
Y9691527D01*
X5065680Y9688038D01*
X5052262Y9674620D01*
X5045000Y9657088D01*
Y9638112D01*
X5052262Y9620580D01*
X5065680Y9607162D01*
X5074103Y9603673D01*
Y9589927D01*
X5065680Y9586438D01*
X5052262Y9573020D01*
X5045000Y9555488D01*
Y9536512D01*
X5052262Y9518980D01*
X5065680Y9505562D01*
X5074103Y9502073D01*
Y9488327D01*
X5065680Y9484838D01*
X5052262Y9471420D01*
X5045000Y9453888D01*
Y9434912D01*
X5052262Y9417380D01*
X5065680Y9403962D01*
X5074103Y9400473D01*
Y9386727D01*
X5065680Y9383238D01*
X5052262Y9369820D01*
X5045000Y9352288D01*
Y9333312D01*
X5052262Y9315780D01*
X5065680Y9302362D01*
X5074103Y9298873D01*
Y9285127D01*
X5065680Y9281638D01*
X5052262Y9268220D01*
X5045000Y9250688D01*
Y9231712D01*
X5052262Y9214180D01*
X5065680Y9200762D01*
X5083212Y9193500D01*
X5102188D01*
X5119720Y9200762D01*
X5133138Y9214180D01*
X5140400Y9231712D01*
Y9250688D01*
X5133138Y9268220D01*
X5119720Y9281638D01*
X5111297Y9285127D01*
Y9298873D01*
X5119720Y9302362D01*
X5133138Y9315780D01*
X5140400Y9333312D01*
Y9352288D01*
X5133138Y9369820D01*
X5119720Y9383238D01*
X5111297Y9386727D01*
Y9400473D01*
X5119720Y9403962D01*
X5133138Y9417380D01*
X5140400Y9434912D01*
Y9453888D01*
X5133138Y9471420D01*
X5119720Y9484838D01*
X5111297Y9488327D01*
Y9502073D01*
X5119720Y9505562D01*
X5133138Y9518980D01*
X5140400Y9536512D01*
Y9555488D01*
X5133138Y9573020D01*
X5119720Y9586438D01*
X5111297Y9589927D01*
Y9603673D01*
X5119720Y9607162D01*
X5133138Y9620580D01*
X5140400Y9638112D01*
Y9657088D01*
X5133138Y9674620D01*
X5119720Y9688038D01*
X5111297Y9691527D01*
Y9705273D01*
X5119720Y9708762D01*
X5133138Y9722180D01*
X5140400Y9739712D01*
Y9758688D01*
X5133138Y9776220D01*
X5119720Y9789638D01*
X5102188Y9796900D01*
D02*
G37*
G36*
X4962488D02*
X4943512D01*
X4925980Y9789638D01*
X4912562Y9776220D01*
X4905300Y9758688D01*
Y9739712D01*
X4912562Y9722180D01*
X4925980Y9708762D01*
X4934403Y9705273D01*
Y9691527D01*
X4925980Y9688038D01*
X4912562Y9674620D01*
X4905300Y9657088D01*
Y9638112D01*
X4912562Y9620580D01*
X4925980Y9607162D01*
X4934403Y9603673D01*
Y9589927D01*
X4925980Y9586438D01*
X4912562Y9573020D01*
X4905300Y9555488D01*
Y9536512D01*
X4912562Y9518980D01*
X4925980Y9505562D01*
X4934403Y9502073D01*
Y9488327D01*
X4925980Y9484838D01*
X4912562Y9471420D01*
X4905300Y9453888D01*
Y9434912D01*
X4912562Y9417380D01*
X4925980Y9403962D01*
X4934403Y9400473D01*
Y9386727D01*
X4925980Y9383238D01*
X4912562Y9369820D01*
X4905300Y9352288D01*
Y9333312D01*
X4912562Y9315780D01*
X4925980Y9302362D01*
X4934403Y9298873D01*
Y9285127D01*
X4925980Y9281638D01*
X4912562Y9268220D01*
X4905300Y9250688D01*
Y9231712D01*
X4912562Y9214180D01*
X4925980Y9200762D01*
X4943512Y9193500D01*
X4962488D01*
X4980020Y9200762D01*
X4993438Y9214180D01*
X5000700Y9231712D01*
Y9250688D01*
X4993438Y9268220D01*
X4980020Y9281638D01*
X4971597Y9285127D01*
Y9298873D01*
X4980020Y9302362D01*
X4993438Y9315780D01*
X5000700Y9333312D01*
Y9352288D01*
X4993438Y9369820D01*
X4980020Y9383238D01*
X4971597Y9386727D01*
Y9400473D01*
X4980020Y9403962D01*
X4993438Y9417380D01*
X5000700Y9434912D01*
Y9453888D01*
X4993438Y9471420D01*
X4980020Y9484838D01*
X4971597Y9488327D01*
Y9502073D01*
X4980020Y9505562D01*
X4993438Y9518980D01*
X5000700Y9536512D01*
Y9555488D01*
X4993438Y9573020D01*
X4980020Y9586438D01*
X4971597Y9589927D01*
Y9603673D01*
X4980020Y9607162D01*
X4993438Y9620580D01*
X5000700Y9638112D01*
Y9657088D01*
X4993438Y9674620D01*
X4980020Y9688038D01*
X4971597Y9691527D01*
Y9705273D01*
X4980020Y9708762D01*
X4993438Y9722180D01*
X5000700Y9739712D01*
Y9758688D01*
X4993438Y9776220D01*
X4980020Y9789638D01*
X4962488Y9796900D01*
D02*
G37*
G36*
X4822788D02*
X4803812D01*
X4786280Y9789638D01*
X4772862Y9776220D01*
X4765600Y9758688D01*
Y9739712D01*
X4772862Y9722180D01*
X4786280Y9708762D01*
X4794703Y9705273D01*
Y9691527D01*
X4786280Y9688038D01*
X4772862Y9674620D01*
X4765600Y9657088D01*
Y9638112D01*
X4772862Y9620580D01*
X4786280Y9607162D01*
X4794703Y9603673D01*
Y9589927D01*
X4786280Y9586438D01*
X4772862Y9573020D01*
X4765600Y9555488D01*
Y9536512D01*
X4772862Y9518980D01*
X4786280Y9505562D01*
X4794703Y9502073D01*
Y9488327D01*
X4786280Y9484838D01*
X4772862Y9471420D01*
X4765600Y9453888D01*
Y9434912D01*
X4772862Y9417380D01*
X4786280Y9403962D01*
X4794703Y9400473D01*
Y9386727D01*
X4786280Y9383238D01*
X4772862Y9369820D01*
X4765600Y9352288D01*
Y9333312D01*
X4772862Y9315780D01*
X4786280Y9302362D01*
X4794703Y9298873D01*
Y9285127D01*
X4786280Y9281638D01*
X4772862Y9268220D01*
X4765600Y9250688D01*
Y9231712D01*
X4772862Y9214180D01*
X4786280Y9200762D01*
X4803812Y9193500D01*
X4822788D01*
X4840320Y9200762D01*
X4853738Y9214180D01*
X4861000Y9231712D01*
Y9250688D01*
X4853738Y9268220D01*
X4840320Y9281638D01*
X4831897Y9285127D01*
Y9298873D01*
X4840320Y9302362D01*
X4853738Y9315780D01*
X4861000Y9333312D01*
Y9352288D01*
X4853738Y9369820D01*
X4840320Y9383238D01*
X4831897Y9386727D01*
Y9400473D01*
X4840320Y9403962D01*
X4853738Y9417380D01*
X4861000Y9434912D01*
Y9453888D01*
X4853738Y9471420D01*
X4840320Y9484838D01*
X4831897Y9488327D01*
Y9502073D01*
X4840320Y9505562D01*
X4853738Y9518980D01*
X4861000Y9536512D01*
Y9555488D01*
X4853738Y9573020D01*
X4840320Y9586438D01*
X4831897Y9589927D01*
Y9603673D01*
X4840320Y9607162D01*
X4853738Y9620580D01*
X4861000Y9638112D01*
Y9657088D01*
X4853738Y9674620D01*
X4840320Y9688038D01*
X4831897Y9691527D01*
Y9705273D01*
X4840320Y9708762D01*
X4853738Y9722180D01*
X4861000Y9739712D01*
Y9758688D01*
X4853738Y9776220D01*
X4840320Y9789638D01*
X4822788Y9796900D01*
D02*
G37*
G36*
X10293360Y9277349D02*
X10182960D01*
Y9156949D01*
X10293360D01*
Y9191251D01*
X10310827D01*
X10316890Y9185188D01*
X10330746Y9179449D01*
X10345744D01*
X10359601Y9185188D01*
X10370206Y9195793D01*
X10375945Y9209650D01*
Y9224648D01*
X10370206Y9238504D01*
X10359601Y9249109D01*
X10345744Y9254849D01*
X10330746D01*
X10316890Y9249109D01*
X10310827Y9243046D01*
X10293360D01*
Y9277349D01*
D02*
G37*
G36*
X10146060Y9204448D02*
X10090859D01*
Y9144249D01*
X10146060D01*
Y9204448D01*
D02*
G37*
G36*
X10065459D02*
X10010260D01*
Y9144249D01*
X10065459D01*
Y9204448D01*
D02*
G37*
G36*
X11328233Y9292400D02*
X11303167D01*
X11278954Y9285912D01*
X11257246Y9273379D01*
X11239521Y9255654D01*
X11226988Y9233946D01*
X11220500Y9209733D01*
Y9184667D01*
X11226988Y9160454D01*
X11239521Y9138746D01*
X11257246Y9121021D01*
X11278954Y9108488D01*
X11303167Y9102000D01*
X11328233D01*
X11352446Y9108488D01*
X11374154Y9121021D01*
X11391879Y9138746D01*
X11404412Y9160454D01*
X11410900Y9184667D01*
Y9209733D01*
X11404412Y9233946D01*
X11391879Y9255654D01*
X11374154Y9273379D01*
X11352446Y9285912D01*
X11328233Y9292400D01*
D02*
G37*
G36*
X10146060Y9112249D02*
X10090859D01*
Y9052048D01*
X10146060D01*
Y9112249D01*
D02*
G37*
G36*
X10065459D02*
X10010260D01*
Y9052048D01*
X10065459D01*
Y9112249D01*
D02*
G37*
G36*
X10293360Y9099549D02*
X10182960D01*
Y8979149D01*
X10293360D01*
Y9013451D01*
X10310827D01*
X10316890Y9007388D01*
X10330746Y9001649D01*
X10345744D01*
X10359601Y9007388D01*
X10370206Y9017993D01*
X10375945Y9031850D01*
Y9046848D01*
X10370206Y9060704D01*
X10359601Y9071309D01*
X10345744Y9077049D01*
X10330746D01*
X10316890Y9071309D01*
X10310827Y9065246D01*
X10293360D01*
Y9099549D01*
D02*
G37*
G36*
X10146060Y9026648D02*
X10090859D01*
Y8966449D01*
X10146060D01*
Y9026648D01*
D02*
G37*
G36*
X10065459D02*
X10010260D01*
Y8966449D01*
X10065459D01*
Y9026648D01*
D02*
G37*
G36*
X11044233Y9153900D02*
X11019167D01*
X10994954Y9147412D01*
X10973246Y9134879D01*
X10955521Y9117154D01*
X10942988Y9095446D01*
X10936500Y9071234D01*
Y9046167D01*
X10942988Y9021955D01*
X10955521Y9000246D01*
X10973246Y8982521D01*
X10994954Y8969988D01*
X11019167Y8963500D01*
X11044233D01*
X11068446Y8969988D01*
X11090154Y8982521D01*
X11107879Y9000246D01*
X11120412Y9021955D01*
X11126900Y9046167D01*
Y9071234D01*
X11120412Y9095446D01*
X11107879Y9117154D01*
X11090154Y9134879D01*
X11068446Y9147412D01*
X11044233Y9153900D01*
D02*
G37*
G36*
X11737790Y8989288D02*
X11677590D01*
Y8934089D01*
X11737790D01*
Y8989288D01*
D02*
G37*
G36*
X11652190D02*
X11591990D01*
Y8934089D01*
X11652190D01*
Y8989288D01*
D02*
G37*
G36*
X11328233Y9015400D02*
X11303167D01*
X11278954Y9008912D01*
X11257246Y8996379D01*
X11239521Y8978654D01*
X11226988Y8956946D01*
X11220500Y8932733D01*
Y8907667D01*
X11226988Y8883454D01*
X11239521Y8861746D01*
X11257246Y8844021D01*
X11278954Y8831488D01*
X11303167Y8825000D01*
X11328233D01*
X11352446Y8831488D01*
X11374154Y8844021D01*
X11391879Y8861746D01*
X11404412Y8883454D01*
X11407319Y8894303D01*
X11439590D01*
Y8866188D01*
X11559990D01*
Y8976588D01*
X11439590D01*
Y8946098D01*
X11407319D01*
X11404412Y8956946D01*
X11391879Y8978654D01*
X11374154Y8996379D01*
X11352446Y9008912D01*
X11328233Y9015400D01*
D02*
G37*
G36*
X9394251Y8929799D02*
X9379253D01*
X9365397Y8924060D01*
X9354791Y8913454D01*
X9349052Y8899598D01*
Y8884600D01*
X9354791Y8870744D01*
X9365397Y8860138D01*
X9379253Y8854399D01*
X9394251D01*
X9408107Y8860138D01*
X9418712Y8870744D01*
X9424452Y8884600D01*
Y8899598D01*
X9418712Y8913454D01*
X9408107Y8924060D01*
X9394251Y8929799D01*
D02*
G37*
G36*
X11737790Y8908689D02*
X11677590D01*
Y8853488D01*
X11737790D01*
Y8908689D01*
D02*
G37*
G36*
X11652190D02*
X11591990D01*
Y8853488D01*
X11652190D01*
Y8908689D01*
D02*
G37*
G36*
X7613376Y8842763D02*
X7598377D01*
X7584521Y8837024D01*
X7573916Y8826419D01*
X7568177Y8812563D01*
Y8803988D01*
X7541536Y8777348D01*
X7163668D01*
X7157605Y8783411D01*
X7143749Y8789150D01*
X7128751D01*
X7114895Y8783411D01*
X7104290Y8772805D01*
X7098550Y8758949D01*
Y8743951D01*
X7104290Y8730095D01*
X7114895Y8719490D01*
X7128751Y8713750D01*
X7143749D01*
X7157605Y8719490D01*
X7163668Y8725553D01*
X7552263D01*
X7562174Y8727524D01*
X7570576Y8733138D01*
X7604801Y8767363D01*
X7613376D01*
X7627232Y8773103D01*
X7637837Y8783708D01*
X7643577Y8797564D01*
Y8812563D01*
X7637837Y8826419D01*
X7627232Y8837024D01*
X7613376Y8842763D01*
D02*
G37*
G36*
X9391478Y9386253D02*
X9376480D01*
X9362624Y9380514D01*
X9352019Y9369909D01*
X9346279Y9356052D01*
Y9341054D01*
X9352019Y9327198D01*
X9362624Y9316593D01*
X9376480Y9310853D01*
X9385054D01*
X9638802Y9057105D01*
Y8695074D01*
X9626102Y8689813D01*
X9622555Y8693361D01*
X9608699Y8699100D01*
X9593701D01*
X9579845Y8693361D01*
X9569239Y8682755D01*
X9563500Y8668899D01*
Y8653901D01*
X9569239Y8640045D01*
X9579845Y8629439D01*
X9593701Y8623700D01*
X9608699D01*
X9622555Y8629439D01*
X9626102Y8632987D01*
X9638802Y8627726D01*
Y8470676D01*
X9640774Y8460766D01*
X9646388Y8452364D01*
X9709608Y8389144D01*
X9718010Y8383530D01*
X9727920Y8381559D01*
X9738825D01*
X9744945Y8375439D01*
X9758801Y8369700D01*
X9773799D01*
X9787655Y8375439D01*
X9798261Y8386045D01*
X9804000Y8399901D01*
Y8414899D01*
X9798261Y8428755D01*
X9787655Y8439361D01*
X9773799Y8445100D01*
X9758801D01*
X9744945Y8439361D01*
X9738938Y8433354D01*
X9738647D01*
X9690598Y8481404D01*
Y9067833D01*
X9688626Y9077743D01*
X9683012Y9086145D01*
X9421679Y9347478D01*
Y9356052D01*
X9415940Y9369909D01*
X9405335Y9380514D01*
X9391478Y9386253D01*
D02*
G37*
G36*
X9024499Y8800700D02*
X9009501D01*
X8995645Y8794961D01*
X8985039Y8784355D01*
X8979300Y8770499D01*
Y8755501D01*
X8985039Y8741645D01*
X8995645Y8731039D01*
X9009501Y8725300D01*
X9017400D01*
Y8717401D01*
X9023139Y8703545D01*
X9033745Y8692939D01*
X9047601Y8687200D01*
X9062599D01*
X9076455Y8692939D01*
X9087061Y8703545D01*
X9092800Y8717401D01*
Y8732399D01*
X9087061Y8746255D01*
X9076455Y8756861D01*
X9062599Y8762600D01*
X9054700D01*
Y8770499D01*
X9048961Y8784355D01*
X9038355Y8794961D01*
X9024499Y8800700D01*
D02*
G37*
G36*
X7157599Y8597500D02*
X7142601D01*
X7128745Y8591761D01*
X7118139Y8581155D01*
X7112400Y8567299D01*
Y8552301D01*
X7118139Y8538445D01*
X7128745Y8527839D01*
X7142601Y8522100D01*
X7157599D01*
X7171455Y8527839D01*
X7182061Y8538445D01*
X7187800Y8552301D01*
Y8567299D01*
X7182061Y8581155D01*
X7171455Y8591761D01*
X7157599Y8597500D01*
D02*
G37*
G36*
X11744200Y8571800D02*
X11684000D01*
Y8516600D01*
X11744200D01*
Y8571800D01*
D02*
G37*
G36*
X11658600D02*
X11598400D01*
Y8516600D01*
X11658600D01*
Y8571800D01*
D02*
G37*
G36*
X9303899Y8584800D02*
X9288901D01*
X9275045Y8579061D01*
X9264439Y8568455D01*
X9258700Y8554599D01*
Y8539601D01*
X9264439Y8525745D01*
X9275045Y8515139D01*
X9288901Y8509400D01*
X9303899D01*
X9317755Y8515139D01*
X9328361Y8525745D01*
X9334100Y8539601D01*
Y8554599D01*
X9328361Y8568455D01*
X9317755Y8579061D01*
X9303899Y8584800D01*
D02*
G37*
G36*
X11744200Y8491200D02*
X11684000D01*
Y8436000D01*
X11744200D01*
Y8491200D01*
D02*
G37*
G36*
X11658600D02*
X11598400D01*
Y8436000D01*
X11658600D01*
Y8491200D01*
D02*
G37*
G36*
X11044233Y8599900D02*
X11019167D01*
X10994954Y8593412D01*
X10973246Y8580879D01*
X10955521Y8563154D01*
X10942988Y8541446D01*
X10936500Y8517233D01*
Y8492167D01*
X10942988Y8467954D01*
X10955521Y8446246D01*
X10973246Y8428521D01*
X10994954Y8415988D01*
X11019167Y8409500D01*
X11044233D01*
X11068446Y8415988D01*
X11090154Y8428521D01*
X11107879Y8446246D01*
X11120412Y8467954D01*
X11126900Y8492167D01*
Y8517233D01*
X11120412Y8541446D01*
X11107879Y8563154D01*
X11090154Y8580879D01*
X11068446Y8593412D01*
X11044233Y8599900D01*
D02*
G37*
G36*
X7868799Y8419761D02*
X7853801D01*
X7839945Y8414022D01*
X7829550Y8403627D01*
X7819155Y8414022D01*
X7805299Y8419761D01*
X7790301D01*
X7776445Y8414022D01*
X7766050Y8403627D01*
X7755655Y8414022D01*
X7741799Y8419761D01*
X7726801D01*
X7712945Y8414022D01*
X7702339Y8403417D01*
X7696600Y8389560D01*
Y8374562D01*
X7702339Y8360706D01*
X7712945Y8350101D01*
X7726801Y8344361D01*
X7741799D01*
X7755655Y8350101D01*
X7766050Y8360495D01*
X7776445Y8350101D01*
X7790301Y8344361D01*
X7805299D01*
X7819155Y8350101D01*
X7829550Y8360495D01*
X7839945Y8350101D01*
X7853801Y8344361D01*
X7855534D01*
X7864020Y8331661D01*
X7861700Y8326060D01*
Y8311062D01*
X7867439Y8297206D01*
X7877834Y8286811D01*
X7867439Y8276417D01*
X7861700Y8262560D01*
Y8247562D01*
X7867439Y8233706D01*
X7878045Y8223101D01*
X7891901Y8217361D01*
X7906899D01*
X7920755Y8223101D01*
X7931361Y8233706D01*
X7937100Y8247562D01*
Y8262560D01*
X7931361Y8276417D01*
X7920966Y8286811D01*
X7931361Y8297206D01*
X7937100Y8311062D01*
Y8326060D01*
X7931361Y8339917D01*
X7920755Y8350522D01*
X7906899Y8356261D01*
X7905166D01*
X7896680Y8368961D01*
X7899000Y8374562D01*
Y8389560D01*
X7893261Y8403417D01*
X7882655Y8414022D01*
X7868799Y8419761D01*
D02*
G37*
G36*
X7143700Y8471903D02*
X7128702D01*
X7114846Y8466163D01*
X7104241Y8455558D01*
X7098501Y8441702D01*
Y8426703D01*
X7104241Y8412847D01*
X7114846Y8402242D01*
X7128702Y8396503D01*
X7143700D01*
X7157556Y8402242D01*
X7163619Y8408305D01*
X7277670D01*
X7315600Y8370375D01*
Y8361801D01*
X7321339Y8347945D01*
X7331945Y8337339D01*
X7345801Y8331600D01*
X7360799D01*
X7374655Y8337339D01*
X7385261Y8347945D01*
X7391000Y8361801D01*
Y8376799D01*
X7385261Y8390655D01*
X7374655Y8401261D01*
X7360799Y8407000D01*
X7352225D01*
X7306710Y8452515D01*
X7298308Y8458129D01*
X7288397Y8460100D01*
X7163619D01*
X7157556Y8466163D01*
X7143700Y8471903D01*
D02*
G37*
G36*
X10446715Y8281166D02*
X10425750D01*
X10406380Y8273143D01*
X10391555Y8258318D01*
X10383532Y8238949D01*
Y8217984D01*
X10391555Y8198614D01*
X10406380Y8183789D01*
X10425750Y8175766D01*
X10446715D01*
X10466084Y8183789D01*
X10480909Y8198614D01*
X10488932Y8217984D01*
Y8238949D01*
X10480909Y8258318D01*
X10466084Y8273143D01*
X10446715Y8281166D01*
D02*
G37*
G36*
X8533246Y8177600D02*
X8510154D01*
X8487849Y8171623D01*
X8467851Y8160077D01*
X8451523Y8143749D01*
X8439977Y8123751D01*
X8434000Y8101446D01*
Y8078354D01*
X8439977Y8056049D01*
X8451523Y8036051D01*
X8467851Y8019723D01*
X8487849Y8008177D01*
X8510154Y8002200D01*
X8533246D01*
X8555551Y8008177D01*
X8575549Y8019723D01*
X8591877Y8036051D01*
X8603423Y8056049D01*
X8609400Y8078354D01*
Y8101446D01*
X8603423Y8123751D01*
X8591877Y8143749D01*
X8575549Y8160077D01*
X8555551Y8171623D01*
X8533246Y8177600D01*
D02*
G37*
G36*
X5660988Y8031600D02*
X5642012D01*
X5624480Y8024338D01*
X5611062Y8010920D01*
X5603800Y7993388D01*
Y7974412D01*
X5611062Y7956880D01*
X5624480Y7943462D01*
X5642012Y7936200D01*
X5660988D01*
X5678520Y7943462D01*
X5691938Y7956880D01*
X5699200Y7974412D01*
Y7993388D01*
X5691938Y8010920D01*
X5678520Y8024338D01*
X5660988Y8031600D01*
D02*
G37*
G36*
X5521288D02*
X5502312D01*
X5484780Y8024338D01*
X5471362Y8010920D01*
X5464100Y7993388D01*
Y7974412D01*
X5471362Y7956880D01*
X5484780Y7943462D01*
X5502312Y7936200D01*
X5521288D01*
X5538820Y7943462D01*
X5552238Y7956880D01*
X5559500Y7974412D01*
Y7993388D01*
X5552238Y8010920D01*
X5538820Y8024338D01*
X5521288Y8031600D01*
D02*
G37*
G36*
X5381588D02*
X5362612D01*
X5345080Y8024338D01*
X5331662Y8010920D01*
X5324400Y7993388D01*
Y7974412D01*
X5331662Y7956880D01*
X5345080Y7943462D01*
X5362612Y7936200D01*
X5381588D01*
X5399120Y7943462D01*
X5412538Y7956880D01*
X5419800Y7974412D01*
Y7993388D01*
X5412538Y8010920D01*
X5399120Y8024338D01*
X5381588Y8031600D01*
D02*
G37*
G36*
X5241888D02*
X5222912D01*
X5205380Y8024338D01*
X5191962Y8010920D01*
X5184700Y7993388D01*
Y7974412D01*
X5191962Y7956880D01*
X5205380Y7943462D01*
X5222912Y7936200D01*
X5241888D01*
X5259420Y7943462D01*
X5272838Y7956880D01*
X5280100Y7974412D01*
Y7993388D01*
X5272838Y8010920D01*
X5259420Y8024338D01*
X5241888Y8031600D01*
D02*
G37*
G36*
X5102188D02*
X5083212D01*
X5065680Y8024338D01*
X5052262Y8010920D01*
X5045000Y7993388D01*
Y7974412D01*
X5052262Y7956880D01*
X5065680Y7943462D01*
X5083212Y7936200D01*
X5102188D01*
X5119720Y7943462D01*
X5133138Y7956880D01*
X5140400Y7974412D01*
Y7993388D01*
X5133138Y8010920D01*
X5119720Y8024338D01*
X5102188Y8031600D01*
D02*
G37*
G36*
X4962488D02*
X4943512D01*
X4925980Y8024338D01*
X4912562Y8010920D01*
X4905300Y7993388D01*
Y7974412D01*
X4912562Y7956880D01*
X4925980Y7943462D01*
X4943512Y7936200D01*
X4962488D01*
X4980020Y7943462D01*
X4993438Y7956880D01*
X5000700Y7974412D01*
Y7993388D01*
X4993438Y8010920D01*
X4980020Y8024338D01*
X4962488Y8031600D01*
D02*
G37*
G36*
X4822788D02*
X4803812D01*
X4786280Y8024338D01*
X4772862Y8010920D01*
X4765600Y7993388D01*
Y7974412D01*
X4772862Y7956880D01*
X4786280Y7943462D01*
X4803812Y7936200D01*
X4822788D01*
X4840320Y7943462D01*
X4853738Y7956880D01*
X4861000Y7974412D01*
Y7993388D01*
X4853738Y8010920D01*
X4840320Y8024338D01*
X4822788Y8031600D01*
D02*
G37*
G36*
X8478399Y9740500D02*
X8463401D01*
X8449545Y9734761D01*
X8438939Y9724155D01*
X8433200Y9710299D01*
Y9701725D01*
X8401788Y9670312D01*
X8396174Y9661911D01*
X8394202Y9652000D01*
Y9105900D01*
X8396174Y9095989D01*
X8401788Y9087588D01*
X9332911Y8156465D01*
Y7992022D01*
X9326848Y7985959D01*
X9321108Y7972103D01*
Y7957105D01*
X9326848Y7943249D01*
X9337453Y7932643D01*
X9351309Y7926904D01*
X9366307D01*
X9380164Y7932643D01*
X9390769Y7943249D01*
X9396508Y7957105D01*
Y7972103D01*
X9390769Y7985959D01*
X9384706Y7992022D01*
Y8167192D01*
X9382735Y8177102D01*
X9377121Y8185504D01*
X8445998Y9116627D01*
Y9641273D01*
X8469825Y9665100D01*
X8478399D01*
X8492255Y9670839D01*
X8502861Y9681445D01*
X8508600Y9695301D01*
Y9710299D01*
X8502861Y9724155D01*
X8492255Y9734761D01*
X8478399Y9740500D01*
D02*
G37*
G36*
X8712176Y9154513D02*
X8697177D01*
X8683321Y9148773D01*
X8672716Y9138168D01*
X8666977Y9124312D01*
Y9115738D01*
X8643088Y9091849D01*
X8637474Y9083447D01*
X8635502Y9073536D01*
Y8973190D01*
X8637474Y8963280D01*
X8643088Y8954878D01*
X9632353Y7965612D01*
Y7957038D01*
X9638093Y7943181D01*
X9648698Y7932576D01*
X9662554Y7926837D01*
X9677552D01*
X9691409Y7932576D01*
X9702014Y7943181D01*
X9707753Y7957038D01*
Y7972036D01*
X9702014Y7985892D01*
X9691409Y7996497D01*
X9677552Y8002237D01*
X9668978D01*
X8687298Y8983917D01*
Y9062809D01*
X8703601Y9079113D01*
X8712176D01*
X8726032Y9084852D01*
X8736637Y9095458D01*
X8742376Y9109314D01*
Y9124312D01*
X8736637Y9138168D01*
X8726032Y9148773D01*
X8712176Y9154513D01*
D02*
G37*
G36*
X8534918Y7936300D02*
X8534400D01*
Y7848600D01*
X8622100D01*
Y7849118D01*
X8615258Y7874653D01*
X8602040Y7897547D01*
X8583347Y7916240D01*
X8560453Y7929458D01*
X8534918Y7936300D01*
D02*
G37*
G36*
X8509000D02*
X8508482D01*
X8482947Y7929458D01*
X8460053Y7916240D01*
X8441360Y7897547D01*
X8428142Y7874653D01*
X8421300Y7849118D01*
Y7848600D01*
X8509000D01*
Y7936300D01*
D02*
G37*
G36*
X11199470Y8070850D02*
X11186400D01*
Y7821900D01*
X11435350D01*
Y7834970D01*
X11425295Y7885520D01*
X11405571Y7933138D01*
X11376937Y7975992D01*
X11340492Y8012437D01*
X11297638Y8041071D01*
X11250020Y8060795D01*
X11199470Y8070850D01*
D02*
G37*
G36*
X11161000D02*
X11147930D01*
X11097380Y8060795D01*
X11049762Y8041071D01*
X11006908Y8012437D01*
X10970463Y7975992D01*
X10941829Y7933138D01*
X10922105Y7885520D01*
X10912050Y7834970D01*
Y7821900D01*
X11161000D01*
Y8070850D01*
D02*
G37*
G36*
X8721621Y7908476D02*
X8700656D01*
X8681286Y7900453D01*
X8666461Y7885628D01*
X8658438Y7866259D01*
Y7845293D01*
X8666461Y7825924D01*
X8681286Y7811099D01*
X8700656Y7803076D01*
X8721621D01*
X8740990Y7811099D01*
X8755815Y7825924D01*
X8763838Y7845293D01*
Y7866259D01*
X8755815Y7885628D01*
X8740990Y7900453D01*
X8721621Y7908476D01*
D02*
G37*
G36*
X8622100Y7823200D02*
X8534400D01*
Y7735500D01*
X8534918D01*
X8560453Y7742342D01*
X8583347Y7755560D01*
X8602040Y7774253D01*
X8615258Y7797147D01*
X8622100Y7822682D01*
Y7823200D01*
D02*
G37*
G36*
X8509000D02*
X8421300D01*
Y7822682D01*
X8428142Y7797147D01*
X8441360Y7774253D01*
X8460053Y7755560D01*
X8482947Y7742342D01*
X8508482Y7735500D01*
X8509000D01*
Y7823200D01*
D02*
G37*
G36*
X7576146Y7605355D02*
X7561148D01*
X7547292Y7599616D01*
X7536686Y7589011D01*
X7530947Y7575155D01*
Y7570789D01*
X7530741Y7570582D01*
X7163171D01*
X7157108Y7576645D01*
X7143251Y7582385D01*
X7128253D01*
X7114397Y7576645D01*
X7103792Y7566040D01*
X7098052Y7552184D01*
Y7537186D01*
X7103792Y7523329D01*
X7114397Y7512724D01*
X7128253Y7506985D01*
X7143251D01*
X7157108Y7512724D01*
X7163171Y7518787D01*
X7541468D01*
X7551379Y7520758D01*
X7559780Y7526372D01*
X7563364Y7529955D01*
X7576146D01*
X7590002Y7535695D01*
X7600608Y7546300D01*
X7606347Y7560156D01*
Y7575155D01*
X7600608Y7589011D01*
X7590002Y7599616D01*
X7576146Y7605355D01*
D02*
G37*
G36*
X11435350Y7796500D02*
X11186400D01*
Y7547550D01*
X11199470D01*
X11250020Y7557605D01*
X11297638Y7577329D01*
X11340492Y7605963D01*
X11376937Y7642408D01*
X11405571Y7685262D01*
X11425295Y7732880D01*
X11435350Y7783430D01*
Y7796500D01*
D02*
G37*
G36*
X11161000D02*
X10912050D01*
Y7783430D01*
X10922105Y7732880D01*
X10941829Y7685262D01*
X10970463Y7642408D01*
X11006908Y7605963D01*
X11049762Y7577329D01*
X11097380Y7557605D01*
X11147930Y7547550D01*
X11161000D01*
Y7796500D01*
D02*
G37*
G36*
X8021199Y8826100D02*
X8006201D01*
X7992345Y8820361D01*
X7981739Y8809755D01*
X7976000Y8795899D01*
Y8780901D01*
X7981739Y8767045D01*
X7987802Y8760982D01*
Y7795827D01*
X7884667Y7692692D01*
X7880056D01*
X7870145Y7690721D01*
X7861743Y7685107D01*
X7768322Y7591685D01*
X7759747D01*
X7745891Y7585946D01*
X7735286Y7575341D01*
X7729546Y7561484D01*
Y7546486D01*
X7735286Y7532630D01*
X7745891Y7522025D01*
X7759747Y7516285D01*
X7774745D01*
X7788602Y7522025D01*
X7799207Y7532630D01*
X7804946Y7546486D01*
Y7555061D01*
X7890783Y7640897D01*
X7895395D01*
X7905305Y7642868D01*
X7913707Y7648482D01*
X8032012Y7766788D01*
X8037626Y7775189D01*
X8039598Y7785100D01*
Y8760982D01*
X8045661Y8767045D01*
X8051400Y8780901D01*
Y8795899D01*
X8045661Y8809755D01*
X8035055Y8820361D01*
X8021199Y8826100D01*
D02*
G37*
G36*
X8533246Y7669600D02*
X8510154D01*
X8487849Y7663623D01*
X8467851Y7652077D01*
X8451523Y7635749D01*
X8439977Y7615751D01*
X8434000Y7593446D01*
Y7570354D01*
X8439977Y7548049D01*
X8451523Y7528051D01*
X8467851Y7511723D01*
X8487849Y7500177D01*
X8510154Y7494200D01*
X8533246D01*
X8555551Y7500177D01*
X8575549Y7511723D01*
X8591877Y7528051D01*
X8603423Y7548049D01*
X8609400Y7570354D01*
Y7593446D01*
X8603423Y7615751D01*
X8591877Y7635749D01*
X8575549Y7652077D01*
X8555551Y7663623D01*
X8533246Y7669600D01*
D02*
G37*
G36*
X5660988Y7917300D02*
X5642012D01*
X5624480Y7910038D01*
X5611062Y7896620D01*
X5603800Y7879088D01*
Y7860112D01*
X5611062Y7842580D01*
X5624480Y7829162D01*
X5632903Y7825673D01*
Y7811927D01*
X5624480Y7808438D01*
X5611062Y7795020D01*
X5603800Y7777488D01*
Y7758512D01*
X5611062Y7740980D01*
X5624480Y7727562D01*
X5632903Y7724073D01*
Y7710327D01*
X5624480Y7706838D01*
X5611062Y7693420D01*
X5603800Y7675888D01*
Y7656912D01*
X5611062Y7639380D01*
X5624480Y7625962D01*
X5632903Y7622473D01*
Y7608727D01*
X5624480Y7605238D01*
X5611062Y7591820D01*
X5603800Y7574288D01*
Y7555312D01*
X5611062Y7537780D01*
X5624480Y7524362D01*
X5632903Y7520873D01*
Y7507127D01*
X5624480Y7503638D01*
X5611062Y7490220D01*
X5603800Y7472688D01*
Y7453712D01*
X5611062Y7436180D01*
X5624480Y7422762D01*
X5632903Y7419273D01*
Y7405527D01*
X5624480Y7402038D01*
X5611062Y7388620D01*
X5603800Y7371088D01*
Y7352112D01*
X5611062Y7334580D01*
X5624480Y7321162D01*
X5642012Y7313900D01*
X5660988D01*
X5678520Y7321162D01*
X5691938Y7334580D01*
X5699200Y7352112D01*
Y7371088D01*
X5691938Y7388620D01*
X5678520Y7402038D01*
X5670097Y7405527D01*
Y7419273D01*
X5678520Y7422762D01*
X5691938Y7436180D01*
X5699200Y7453712D01*
Y7472688D01*
X5691938Y7490220D01*
X5678520Y7503638D01*
X5670097Y7507127D01*
Y7520873D01*
X5678520Y7524362D01*
X5691938Y7537780D01*
X5699200Y7555312D01*
Y7574288D01*
X5691938Y7591820D01*
X5678520Y7605238D01*
X5670097Y7608727D01*
Y7622473D01*
X5678520Y7625962D01*
X5691938Y7639380D01*
X5699200Y7656912D01*
Y7675888D01*
X5691938Y7693420D01*
X5678520Y7706838D01*
X5670097Y7710327D01*
Y7724073D01*
X5678520Y7727562D01*
X5691938Y7740980D01*
X5699200Y7758512D01*
Y7777488D01*
X5691938Y7795020D01*
X5678520Y7808438D01*
X5670097Y7811927D01*
Y7825673D01*
X5678520Y7829162D01*
X5691938Y7842580D01*
X5699200Y7860112D01*
Y7879088D01*
X5691938Y7896620D01*
X5678520Y7910038D01*
X5660988Y7917300D01*
D02*
G37*
G36*
X5521288D02*
X5502312D01*
X5484780Y7910038D01*
X5471362Y7896620D01*
X5464100Y7879088D01*
Y7860112D01*
X5471362Y7842580D01*
X5484780Y7829162D01*
X5493203Y7825673D01*
Y7811927D01*
X5484780Y7808438D01*
X5471362Y7795020D01*
X5464100Y7777488D01*
Y7758512D01*
X5471362Y7740980D01*
X5484780Y7727562D01*
X5493203Y7724073D01*
Y7710327D01*
X5484780Y7706838D01*
X5471362Y7693420D01*
X5464100Y7675888D01*
Y7656912D01*
X5471362Y7639380D01*
X5484780Y7625962D01*
X5493203Y7622473D01*
Y7608727D01*
X5484780Y7605238D01*
X5471362Y7591820D01*
X5464100Y7574288D01*
Y7555312D01*
X5471362Y7537780D01*
X5484780Y7524362D01*
X5493203Y7520873D01*
Y7507127D01*
X5484780Y7503638D01*
X5471362Y7490220D01*
X5464100Y7472688D01*
Y7453712D01*
X5471362Y7436180D01*
X5484780Y7422762D01*
X5493203Y7419273D01*
Y7405527D01*
X5484780Y7402038D01*
X5471362Y7388620D01*
X5464100Y7371088D01*
Y7352112D01*
X5471362Y7334580D01*
X5484780Y7321162D01*
X5502312Y7313900D01*
X5521288D01*
X5538820Y7321162D01*
X5552238Y7334580D01*
X5559500Y7352112D01*
Y7371088D01*
X5552238Y7388620D01*
X5538820Y7402038D01*
X5530397Y7405527D01*
Y7419273D01*
X5538820Y7422762D01*
X5552238Y7436180D01*
X5559500Y7453712D01*
Y7472688D01*
X5552238Y7490220D01*
X5538820Y7503638D01*
X5530397Y7507127D01*
Y7520873D01*
X5538820Y7524362D01*
X5552238Y7537780D01*
X5559500Y7555312D01*
Y7574288D01*
X5552238Y7591820D01*
X5538820Y7605238D01*
X5530397Y7608727D01*
Y7622473D01*
X5538820Y7625962D01*
X5552238Y7639380D01*
X5559500Y7656912D01*
Y7675888D01*
X5552238Y7693420D01*
X5538820Y7706838D01*
X5530397Y7710327D01*
Y7724073D01*
X5538820Y7727562D01*
X5552238Y7740980D01*
X5559500Y7758512D01*
Y7777488D01*
X5552238Y7795020D01*
X5538820Y7808438D01*
X5530397Y7811927D01*
Y7825673D01*
X5538820Y7829162D01*
X5552238Y7842580D01*
X5559500Y7860112D01*
Y7879088D01*
X5552238Y7896620D01*
X5538820Y7910038D01*
X5521288Y7917300D01*
D02*
G37*
G36*
X5381588D02*
X5362612D01*
X5345080Y7910038D01*
X5331662Y7896620D01*
X5324400Y7879088D01*
Y7860112D01*
X5331662Y7842580D01*
X5345080Y7829162D01*
X5353503Y7825673D01*
Y7811927D01*
X5345080Y7808438D01*
X5331662Y7795020D01*
X5324400Y7777488D01*
Y7758512D01*
X5331662Y7740980D01*
X5345080Y7727562D01*
X5353503Y7724073D01*
Y7710327D01*
X5345080Y7706838D01*
X5331662Y7693420D01*
X5324400Y7675888D01*
Y7656912D01*
X5331662Y7639380D01*
X5345080Y7625962D01*
X5353503Y7622473D01*
Y7608727D01*
X5345080Y7605238D01*
X5331662Y7591820D01*
X5324400Y7574288D01*
Y7555312D01*
X5331662Y7537780D01*
X5345080Y7524362D01*
X5353503Y7520873D01*
Y7507127D01*
X5345080Y7503638D01*
X5331662Y7490220D01*
X5324400Y7472688D01*
Y7453712D01*
X5331662Y7436180D01*
X5345080Y7422762D01*
X5353503Y7419273D01*
Y7405527D01*
X5345080Y7402038D01*
X5331662Y7388620D01*
X5324400Y7371088D01*
Y7352112D01*
X5331662Y7334580D01*
X5345080Y7321162D01*
X5362612Y7313900D01*
X5381588D01*
X5399120Y7321162D01*
X5412538Y7334580D01*
X5419800Y7352112D01*
Y7371088D01*
X5412538Y7388620D01*
X5399120Y7402038D01*
X5390697Y7405527D01*
Y7419273D01*
X5399120Y7422762D01*
X5412538Y7436180D01*
X5419800Y7453712D01*
Y7472688D01*
X5412538Y7490220D01*
X5399120Y7503638D01*
X5390697Y7507127D01*
Y7520873D01*
X5399120Y7524362D01*
X5412538Y7537780D01*
X5419800Y7555312D01*
Y7574288D01*
X5412538Y7591820D01*
X5399120Y7605238D01*
X5390697Y7608727D01*
Y7622473D01*
X5399120Y7625962D01*
X5412538Y7639380D01*
X5419800Y7656912D01*
Y7675888D01*
X5412538Y7693420D01*
X5399120Y7706838D01*
X5390697Y7710327D01*
Y7724073D01*
X5399120Y7727562D01*
X5412538Y7740980D01*
X5419800Y7758512D01*
Y7777488D01*
X5412538Y7795020D01*
X5399120Y7808438D01*
X5390697Y7811927D01*
Y7825673D01*
X5399120Y7829162D01*
X5412538Y7842580D01*
X5419800Y7860112D01*
Y7879088D01*
X5412538Y7896620D01*
X5399120Y7910038D01*
X5381588Y7917300D01*
D02*
G37*
G36*
X5241888D02*
X5222912D01*
X5205380Y7910038D01*
X5191962Y7896620D01*
X5184700Y7879088D01*
Y7860112D01*
X5191962Y7842580D01*
X5205380Y7829162D01*
X5213803Y7825673D01*
Y7811927D01*
X5205380Y7808438D01*
X5191962Y7795020D01*
X5184700Y7777488D01*
Y7758512D01*
X5191962Y7740980D01*
X5205380Y7727562D01*
X5213803Y7724073D01*
Y7710327D01*
X5205380Y7706838D01*
X5191962Y7693420D01*
X5184700Y7675888D01*
Y7656912D01*
X5191962Y7639380D01*
X5205380Y7625962D01*
X5213803Y7622473D01*
Y7608727D01*
X5205380Y7605238D01*
X5191962Y7591820D01*
X5184700Y7574288D01*
Y7555312D01*
X5191962Y7537780D01*
X5205380Y7524362D01*
X5213803Y7520873D01*
Y7507127D01*
X5205380Y7503638D01*
X5191962Y7490220D01*
X5184700Y7472688D01*
Y7453712D01*
X5191962Y7436180D01*
X5205380Y7422762D01*
X5213803Y7419273D01*
Y7405527D01*
X5205380Y7402038D01*
X5191962Y7388620D01*
X5184700Y7371088D01*
Y7352112D01*
X5191962Y7334580D01*
X5205380Y7321162D01*
X5222912Y7313900D01*
X5241888D01*
X5259420Y7321162D01*
X5272838Y7334580D01*
X5280100Y7352112D01*
Y7371088D01*
X5272838Y7388620D01*
X5259420Y7402038D01*
X5250997Y7405527D01*
Y7419273D01*
X5259420Y7422762D01*
X5272838Y7436180D01*
X5280100Y7453712D01*
Y7472688D01*
X5272838Y7490220D01*
X5259420Y7503638D01*
X5250997Y7507127D01*
Y7520873D01*
X5259420Y7524362D01*
X5272838Y7537780D01*
X5280100Y7555312D01*
Y7574288D01*
X5272838Y7591820D01*
X5259420Y7605238D01*
X5250997Y7608727D01*
Y7622473D01*
X5259420Y7625962D01*
X5272838Y7639380D01*
X5280100Y7656912D01*
Y7675888D01*
X5272838Y7693420D01*
X5259420Y7706838D01*
X5250997Y7710327D01*
Y7724073D01*
X5259420Y7727562D01*
X5272838Y7740980D01*
X5280100Y7758512D01*
Y7777488D01*
X5272838Y7795020D01*
X5259420Y7808438D01*
X5250997Y7811927D01*
Y7825673D01*
X5259420Y7829162D01*
X5272838Y7842580D01*
X5280100Y7860112D01*
Y7879088D01*
X5272838Y7896620D01*
X5259420Y7910038D01*
X5241888Y7917300D01*
D02*
G37*
G36*
X5102188D02*
X5083212D01*
X5065680Y7910038D01*
X5052262Y7896620D01*
X5045000Y7879088D01*
Y7860112D01*
X5052262Y7842580D01*
X5065680Y7829162D01*
X5074103Y7825673D01*
Y7811927D01*
X5065680Y7808438D01*
X5052262Y7795020D01*
X5045000Y7777488D01*
Y7758512D01*
X5052262Y7740980D01*
X5065680Y7727562D01*
X5074103Y7724073D01*
Y7710327D01*
X5065680Y7706838D01*
X5052262Y7693420D01*
X5045000Y7675888D01*
Y7656912D01*
X5052262Y7639380D01*
X5065680Y7625962D01*
X5074103Y7622473D01*
Y7608727D01*
X5065680Y7605238D01*
X5052262Y7591820D01*
X5045000Y7574288D01*
Y7555312D01*
X5052262Y7537780D01*
X5065680Y7524362D01*
X5074103Y7520873D01*
Y7507127D01*
X5065680Y7503638D01*
X5052262Y7490220D01*
X5045000Y7472688D01*
Y7453712D01*
X5052262Y7436180D01*
X5065680Y7422762D01*
X5074103Y7419273D01*
Y7405527D01*
X5065680Y7402038D01*
X5052262Y7388620D01*
X5045000Y7371088D01*
Y7352112D01*
X5052262Y7334580D01*
X5065680Y7321162D01*
X5083212Y7313900D01*
X5102188D01*
X5119720Y7321162D01*
X5133138Y7334580D01*
X5140400Y7352112D01*
Y7371088D01*
X5133138Y7388620D01*
X5119720Y7402038D01*
X5111297Y7405527D01*
Y7419273D01*
X5119720Y7422762D01*
X5133138Y7436180D01*
X5140400Y7453712D01*
Y7472688D01*
X5133138Y7490220D01*
X5119720Y7503638D01*
X5111297Y7507127D01*
Y7520873D01*
X5119720Y7524362D01*
X5133138Y7537780D01*
X5140400Y7555312D01*
Y7574288D01*
X5133138Y7591820D01*
X5119720Y7605238D01*
X5111297Y7608727D01*
Y7622473D01*
X5119720Y7625962D01*
X5133138Y7639380D01*
X5140400Y7656912D01*
Y7675888D01*
X5133138Y7693420D01*
X5119720Y7706838D01*
X5111297Y7710327D01*
Y7724073D01*
X5119720Y7727562D01*
X5133138Y7740980D01*
X5140400Y7758512D01*
Y7777488D01*
X5133138Y7795020D01*
X5119720Y7808438D01*
X5111297Y7811927D01*
Y7825673D01*
X5119720Y7829162D01*
X5133138Y7842580D01*
X5140400Y7860112D01*
Y7879088D01*
X5133138Y7896620D01*
X5119720Y7910038D01*
X5102188Y7917300D01*
D02*
G37*
G36*
X4962488D02*
X4943512D01*
X4925980Y7910038D01*
X4912562Y7896620D01*
X4905300Y7879088D01*
Y7860112D01*
X4912562Y7842580D01*
X4925980Y7829162D01*
X4934403Y7825673D01*
Y7811927D01*
X4925980Y7808438D01*
X4912562Y7795020D01*
X4905300Y7777488D01*
Y7758512D01*
X4912562Y7740980D01*
X4925980Y7727562D01*
X4934403Y7724073D01*
Y7710327D01*
X4925980Y7706838D01*
X4912562Y7693420D01*
X4905300Y7675888D01*
Y7656912D01*
X4912562Y7639380D01*
X4925980Y7625962D01*
X4934403Y7622473D01*
Y7608727D01*
X4925980Y7605238D01*
X4912562Y7591820D01*
X4905300Y7574288D01*
Y7555312D01*
X4912562Y7537780D01*
X4925980Y7524362D01*
X4934403Y7520873D01*
Y7507127D01*
X4925980Y7503638D01*
X4912562Y7490220D01*
X4905300Y7472688D01*
Y7453712D01*
X4912562Y7436180D01*
X4925980Y7422762D01*
X4934403Y7419273D01*
Y7405527D01*
X4925980Y7402038D01*
X4912562Y7388620D01*
X4905300Y7371088D01*
Y7352112D01*
X4912562Y7334580D01*
X4925980Y7321162D01*
X4943512Y7313900D01*
X4962488D01*
X4980020Y7321162D01*
X4993438Y7334580D01*
X5000700Y7352112D01*
Y7371088D01*
X4993438Y7388620D01*
X4980020Y7402038D01*
X4971597Y7405527D01*
Y7419273D01*
X4980020Y7422762D01*
X4993438Y7436180D01*
X5000700Y7453712D01*
Y7472688D01*
X4993438Y7490220D01*
X4980020Y7503638D01*
X4971597Y7507127D01*
Y7520873D01*
X4980020Y7524362D01*
X4993438Y7537780D01*
X5000700Y7555312D01*
Y7574288D01*
X4993438Y7591820D01*
X4980020Y7605238D01*
X4971597Y7608727D01*
Y7622473D01*
X4980020Y7625962D01*
X4993438Y7639380D01*
X5000700Y7656912D01*
Y7675888D01*
X4993438Y7693420D01*
X4980020Y7706838D01*
X4971597Y7710327D01*
Y7724073D01*
X4980020Y7727562D01*
X4993438Y7740980D01*
X5000700Y7758512D01*
Y7777488D01*
X4993438Y7795020D01*
X4980020Y7808438D01*
X4971597Y7811927D01*
Y7825673D01*
X4980020Y7829162D01*
X4993438Y7842580D01*
X5000700Y7860112D01*
Y7879088D01*
X4993438Y7896620D01*
X4980020Y7910038D01*
X4962488Y7917300D01*
D02*
G37*
G36*
X4822788D02*
X4803812D01*
X4786280Y7910038D01*
X4772862Y7896620D01*
X4765600Y7879088D01*
Y7860112D01*
X4772862Y7842580D01*
X4786280Y7829162D01*
X4794703Y7825673D01*
Y7811927D01*
X4786280Y7808438D01*
X4772862Y7795020D01*
X4765600Y7777488D01*
Y7758512D01*
X4772862Y7740980D01*
X4786280Y7727562D01*
X4794703Y7724073D01*
Y7710327D01*
X4786280Y7706838D01*
X4772862Y7693420D01*
X4765600Y7675888D01*
Y7656912D01*
X4772862Y7639380D01*
X4786280Y7625962D01*
X4794703Y7622473D01*
Y7608727D01*
X4786280Y7605238D01*
X4772862Y7591820D01*
X4765600Y7574288D01*
Y7555312D01*
X4772862Y7537780D01*
X4786280Y7524362D01*
X4794703Y7520873D01*
Y7507127D01*
X4786280Y7503638D01*
X4772862Y7490220D01*
X4765600Y7472688D01*
Y7453712D01*
X4772862Y7436180D01*
X4786280Y7422762D01*
X4794703Y7419273D01*
Y7405527D01*
X4786280Y7402038D01*
X4772862Y7388620D01*
X4765600Y7371088D01*
Y7352112D01*
X4772862Y7334580D01*
X4786280Y7321162D01*
X4803812Y7313900D01*
X4822788D01*
X4840320Y7321162D01*
X4853738Y7334580D01*
X4861000Y7352112D01*
Y7371088D01*
X4853738Y7388620D01*
X4840320Y7402038D01*
X4831897Y7405527D01*
Y7419273D01*
X4840320Y7422762D01*
X4853738Y7436180D01*
X4861000Y7453712D01*
Y7472688D01*
X4853738Y7490220D01*
X4840320Y7503638D01*
X4831897Y7507127D01*
Y7520873D01*
X4840320Y7524362D01*
X4853738Y7537780D01*
X4861000Y7555312D01*
Y7574288D01*
X4853738Y7591820D01*
X4840320Y7605238D01*
X4831897Y7608727D01*
Y7622473D01*
X4840320Y7625962D01*
X4853738Y7639380D01*
X4861000Y7656912D01*
Y7675888D01*
X4853738Y7693420D01*
X4840320Y7706838D01*
X4831897Y7710327D01*
Y7724073D01*
X4840320Y7727562D01*
X4853738Y7740980D01*
X4861000Y7758512D01*
Y7777488D01*
X4853738Y7795020D01*
X4840320Y7808438D01*
X4831897Y7811927D01*
Y7825673D01*
X4840320Y7829162D01*
X4853738Y7842580D01*
X4861000Y7860112D01*
Y7879088D01*
X4853738Y7896620D01*
X4840320Y7910038D01*
X4822788Y7917300D01*
D02*
G37*
G36*
X8609400Y7415600D02*
X8434000D01*
Y7240200D01*
X8609400D01*
Y7415600D01*
D02*
G37*
%LPD*%
D23*
X11508500Y8505100D02*
D03*
Y8345100D02*
D03*
X11671300Y8503900D02*
D03*
Y8343900D02*
D03*
X11499790Y8921388D02*
D03*
Y8761388D02*
D03*
X11664890Y8921388D02*
D03*
Y8761388D02*
D03*
D26*
X3105518Y9219159D02*
D03*
Y9059159D02*
D03*
D30*
X10078160Y9039349D02*
D03*
X10238160D02*
D03*
X10078160Y9217149D02*
D03*
X10238160D02*
D03*
X10078160Y9398508D02*
D03*
X10238160D02*
D03*
D39*
X7541468Y7544685D02*
X7564439Y7567655D01*
X7568647D01*
X7135752Y7544685D02*
X7541468D01*
X7767246Y7553985D02*
X7880056Y7666795D01*
X7895395D01*
X8013700Y7785100D01*
X5854700Y10134600D02*
X6350000Y9639300D01*
X6146800Y9004300D02*
X6714597Y8436503D01*
X5600700Y9004300D02*
X6146800D01*
X6853312Y10118943D02*
X6985000Y10250632D01*
Y10541000D01*
X9055904Y9990542D02*
X9146581Y10081219D01*
X9106986Y9954185D02*
X9185801Y10033000D01*
X6184900Y9893300D02*
X7696200D01*
X8001000Y9309100D02*
Y9588500D01*
X7696200Y9893300D02*
X8001000Y9588500D01*
Y9309100D02*
X8128000Y9182100D01*
X5905500Y10172700D02*
Y11277600D01*
Y10172700D02*
X6184900Y9893300D01*
X5626100Y11557000D02*
X5905500Y11277600D01*
X5511800Y11557000D02*
X5626100D01*
X9385300Y10121900D02*
X9931400Y9575800D01*
X10401300D02*
X10502900Y9474200D01*
X9931400Y9575800D02*
X10401300D01*
X9915618Y9537700D02*
X10350500D01*
X10972800Y8915400D01*
X9372099Y10081219D02*
X9915618Y9537700D01*
X9359900Y10033000D02*
X9893300Y9499600D01*
X10325100D02*
X10871200Y8953500D01*
X9893300Y9499600D02*
X10325100D01*
X9146581Y10081219D02*
X9372099D01*
X9093200Y10121900D02*
X9385300D01*
X8790120Y9978517D02*
X8819203Y10007600D01*
X8978900D02*
X9093200Y10121900D01*
X8819203Y10007600D02*
X8978900D01*
X8724900Y10236200D02*
X8890000Y10071100D01*
X10502900Y9474200D02*
X11315700D01*
X9185801Y10033000D02*
X9359900D01*
X9804400Y8940800D02*
Y9525000D01*
X9581558Y9747842D02*
X9804400Y9525000D01*
X9489020Y9747842D02*
X9581558D01*
X8216900Y9766300D02*
X8343900Y9893300D01*
X9004300D02*
X9033997Y9863603D01*
X8343900Y9893300D02*
X9004300D01*
X9033997Y9863603D02*
X9195720D01*
X8216900Y8648700D02*
Y9766300D01*
Y8648700D02*
X8521700Y8343900D01*
X8280400Y9042400D02*
X9067800Y8255000D01*
X8280400Y9042400D02*
Y9753600D01*
X8356600Y9829800D01*
X8343900Y9067800D02*
Y9702800D01*
Y9067800D02*
X9231808Y8179892D01*
X8291659Y8041624D02*
Y8113859D01*
X8521700Y8343900D01*
X11315700Y8610600D02*
Y8643200D01*
X11421200Y8505100D02*
X11508500D01*
X11315700Y8610600D02*
X11421200Y8505100D01*
X10871200Y8458200D02*
X10985500Y8343900D01*
X10871200Y8458200D02*
Y8953500D01*
X6350000Y9639300D02*
X6743700D01*
X6656133Y7545134D02*
X6772201D01*
X6311900Y7200900D02*
X6656133Y7545134D01*
X3721100Y7200900D02*
X6311900D01*
X6714597Y8436503D02*
X6764397D01*
X3695700Y9067800D02*
X6381951D01*
X6695747Y8754003D01*
X6764397D01*
X5854700Y10134600D02*
Y10744200D01*
X5715000Y10883900D02*
X5854700Y10744200D01*
X5613400Y10883900D02*
X5715000D01*
X8013700Y7785100D02*
Y8788400D01*
X7552263Y8751450D02*
X7605877Y8805063D01*
X7136250Y8751450D02*
X7552263D01*
X7288397Y9642339D02*
X7353300Y9577437D01*
X7136201Y9642339D02*
X7288397D01*
X7136201Y8434203D02*
X7288397D01*
X7353300Y8369300D01*
X10238160Y9039349D02*
X10338245D01*
X10235371Y9042137D02*
X10238160Y9039349D01*
Y9217149D02*
X10338245D01*
X10235371Y9219937D02*
X10238160Y9217149D01*
Y9398508D02*
X10240949Y9395719D01*
X10341034D01*
X10972800Y8915400D02*
X11125200D01*
X11279212Y8761388D02*
X11499790D01*
X11125200Y8915400D02*
X11279212Y8761388D01*
X10985500Y8343900D02*
X11508500D01*
X11671300D01*
X11499790Y8761388D02*
X11664890D01*
X11315700Y8920200D02*
X11498602D01*
X11499790Y8921388D01*
X8356600Y9829800D02*
X8458200D01*
X9231808Y7965696D02*
Y8179892D01*
X8420100Y9105900D02*
X9358808Y8167192D01*
X8420100Y9105900D02*
Y9652000D01*
X8343900Y9702800D02*
X8407400Y9766300D01*
X8420100Y9652000D02*
X8470900Y9702800D01*
X9358808Y7964604D02*
Y8167192D01*
X8661400Y9073536D02*
X8704677Y9116813D01*
X8661400Y8973190D02*
Y9073536D01*
Y8973190D02*
X9670053Y7964537D01*
X9766244Y8407456D02*
X9766300Y8407400D01*
X9664700Y8470676D02*
X9727920Y8407456D01*
X9664700Y8470676D02*
Y9067833D01*
X9727920Y8407456D02*
X9766244D01*
X9383979Y9348553D02*
X9664700Y9067833D01*
X9869670Y8875530D02*
X10380532D01*
X9804400Y8940800D02*
X9869670Y8875530D01*
X8732127Y10872384D02*
X8769043Y10909300D01*
X7707404Y10872384D02*
X8732127D01*
X8769043Y10909300D02*
X8775700D01*
D43*
X11493500Y11768900D02*
D03*
X2781300Y11421300D02*
D03*
Y8881300D02*
D03*
D44*
X11493500Y11268900D02*
D03*
X2781300Y11921300D02*
D03*
Y9381300D02*
D03*
D45*
X6350000Y11578400D02*
D03*
D46*
Y11078400D02*
D03*
D47*
X11031700Y9612700D02*
D03*
Y9335700D02*
D03*
Y9058700D02*
D03*
Y8781700D02*
D03*
Y8504700D02*
D03*
X11315700Y9474200D02*
D03*
Y9197200D02*
D03*
Y8920200D02*
D03*
Y8643200D02*
D03*
D48*
X11173700Y10308200D02*
D03*
Y7809200D02*
D03*
D49*
X8521700Y8343900D02*
D03*
Y8089900D02*
D03*
Y7835900D02*
D03*
Y7581900D02*
D03*
D50*
Y7327900D02*
D03*
D51*
X5651500Y9863500D02*
D03*
X5511800D02*
D03*
X5651500Y9749200D02*
D03*
X5511800D02*
D03*
X5372100Y9863500D02*
D03*
Y9749200D02*
D03*
X5232400Y9863500D02*
D03*
Y9749200D02*
D03*
X5092700Y9863500D02*
D03*
X4953000D02*
D03*
X5092700Y9749200D02*
D03*
X4813300Y7983900D02*
D03*
X4953000D02*
D03*
X4813300Y7869600D02*
D03*
X4953000D02*
D03*
Y7768000D02*
D03*
X4813300D02*
D03*
X4953000Y7564800D02*
D03*
X4813300D02*
D03*
X4953000Y7463200D02*
D03*
X4813300D02*
D03*
Y7361600D02*
D03*
X4953000D02*
D03*
X5232400D02*
D03*
X5092700D02*
D03*
Y7463200D02*
D03*
X5232400D02*
D03*
X5092700Y7564800D02*
D03*
X5232400D02*
D03*
X5092700Y7768000D02*
D03*
X5232400D02*
D03*
Y7869600D02*
D03*
X5092700D02*
D03*
X5232400Y7983900D02*
D03*
X5092700D02*
D03*
X5511800Y7361600D02*
D03*
X5372100D02*
D03*
Y7463200D02*
D03*
X5511800D02*
D03*
X5372100Y7564800D02*
D03*
X5511800D02*
D03*
X5372100Y7768000D02*
D03*
X5511800D02*
D03*
Y7869600D02*
D03*
X5372100D02*
D03*
X5511800Y7983900D02*
D03*
X5372100D02*
D03*
X5651500D02*
D03*
Y7869600D02*
D03*
Y7768000D02*
D03*
Y7564800D02*
D03*
Y7463200D02*
D03*
Y7361600D02*
D03*
Y7666400D02*
D03*
X5511800D02*
D03*
X5372100D02*
D03*
X4953000D02*
D03*
X4813300D02*
D03*
X5092700D02*
D03*
X5232400D02*
D03*
X4813300Y9863500D02*
D03*
Y9749200D02*
D03*
X4953000D02*
D03*
Y9647600D02*
D03*
X4813300D02*
D03*
X4953000Y9444400D02*
D03*
X4813300D02*
D03*
X4953000Y9342800D02*
D03*
X4813300D02*
D03*
Y9241200D02*
D03*
X4953000D02*
D03*
X5232400D02*
D03*
X5092700D02*
D03*
Y9342800D02*
D03*
X5232400D02*
D03*
X5092700Y9444400D02*
D03*
X5232400D02*
D03*
X5092700Y9647600D02*
D03*
X5232400D02*
D03*
X5511800Y9241200D02*
D03*
X5372100D02*
D03*
Y9342800D02*
D03*
X5511800D02*
D03*
X5372100Y9444400D02*
D03*
X5511800D02*
D03*
X5372100Y9647600D02*
D03*
X5511800D02*
D03*
X5651500D02*
D03*
Y9444400D02*
D03*
Y9342800D02*
D03*
Y9241200D02*
D03*
Y9546000D02*
D03*
X5511800D02*
D03*
X5372100D02*
D03*
X4953000D02*
D03*
X4813300D02*
D03*
X5092700D02*
D03*
X5232400D02*
D03*
X11689998Y11059998D02*
D03*
X11619998Y10919998D02*
D03*
X11689998Y10779998D02*
D03*
X11619998Y10639998D02*
D03*
X11689998Y10499998D02*
D03*
X11619998Y10359998D02*
D03*
X11689998Y10219998D02*
D03*
X11619998Y10079998D02*
D03*
X11689998Y9939998D02*
D03*
X11619998Y9799998D02*
D03*
X11689998Y9659998D02*
D03*
X11619998Y9519998D02*
D03*
X11689998Y9379998D02*
D03*
X11619998Y9239998D02*
D03*
Y8119998D02*
D03*
X11689998Y7979999D02*
D03*
X11619998Y7839999D02*
D03*
X11689998Y7699999D02*
D03*
X11619998Y7559999D02*
D03*
X11689998Y7419999D02*
D03*
X11619998Y7279999D02*
D03*
X11549998Y11059998D02*
D03*
X11479998Y10919998D02*
D03*
X11549998Y10779998D02*
D03*
X11479998Y10639998D02*
D03*
X11549998Y10499998D02*
D03*
X11479998Y10359998D02*
D03*
X11549998Y10219998D02*
D03*
X11479998Y10079998D02*
D03*
X11549998Y9939998D02*
D03*
X11479998Y9799998D02*
D03*
X11549998Y9659998D02*
D03*
X11479998Y9519998D02*
D03*
X11549998Y9379998D02*
D03*
X11479998Y8119998D02*
D03*
X11549998Y7979999D02*
D03*
X11479998Y7839999D02*
D03*
X11549998Y7699999D02*
D03*
X11479998Y7559999D02*
D03*
X11549998Y7419999D02*
D03*
X11479998Y7279999D02*
D03*
X11339998Y11199998D02*
D03*
X11409998Y11059998D02*
D03*
X11339998Y10919998D02*
D03*
X11409998Y10779998D02*
D03*
X11339998Y10639998D02*
D03*
X11409998Y10499998D02*
D03*
Y9939998D02*
D03*
X11339998Y9799998D02*
D03*
X11409998Y9659998D02*
D03*
X11339998Y8119998D02*
D03*
Y7559999D02*
D03*
X11409998Y7419999D02*
D03*
X11339998Y7279999D02*
D03*
X11199998Y11199998D02*
D03*
X11269998Y11059998D02*
D03*
X11199998Y10919998D02*
D03*
X11269998Y10779998D02*
D03*
X11199998Y10639998D02*
D03*
X11269998Y9939998D02*
D03*
X11199998Y9799998D02*
D03*
X11269998Y9659998D02*
D03*
Y8259998D02*
D03*
X11199998Y8119998D02*
D03*
X11269998Y7419999D02*
D03*
X11199998Y7279999D02*
D03*
X11059998Y11199998D02*
D03*
X11129998Y11059998D02*
D03*
X11059998Y10919998D02*
D03*
X11129998Y10779998D02*
D03*
X11059998Y10639998D02*
D03*
X11129998Y9939998D02*
D03*
X11059998Y9799998D02*
D03*
X11129998Y8259998D02*
D03*
X11059998Y8119998D02*
D03*
X11129998Y7419999D02*
D03*
X11059998Y7279999D02*
D03*
X10919998Y11199998D02*
D03*
X10989998Y11059998D02*
D03*
Y10779998D02*
D03*
Y9939998D02*
D03*
Y8259998D02*
D03*
X10919998Y8119998D02*
D03*
Y7559999D02*
D03*
X10989998Y7419999D02*
D03*
X10919998Y7279999D02*
D03*
X10849998Y8259998D02*
D03*
Y7979999D02*
D03*
X10779998Y7839999D02*
D03*
X10849998Y7699999D02*
D03*
X10779998Y7559999D02*
D03*
X10849998Y7419999D02*
D03*
X10779998Y7279999D02*
D03*
X10639998Y10639998D02*
D03*
Y10359998D02*
D03*
Y10079998D02*
D03*
Y9799998D02*
D03*
Y8959998D02*
D03*
Y8399998D02*
D03*
X10709998Y7699999D02*
D03*
Y7419999D02*
D03*
X10499998Y11199998D02*
D03*
X10569998Y10779998D02*
D03*
X10499998Y10639998D02*
D03*
X10569998Y10499998D02*
D03*
X10499998Y10359998D02*
D03*
X10569998Y10219998D02*
D03*
X10499998Y10079998D02*
D03*
X10569998Y9939998D02*
D03*
X10499998Y9799998D02*
D03*
X10569998Y9659998D02*
D03*
Y9099998D02*
D03*
X10499998Y8959998D02*
D03*
X10359998Y11199998D02*
D03*
X10429998Y10779998D02*
D03*
X10359998Y10639998D02*
D03*
X10429998Y10499998D02*
D03*
X10359998Y10359998D02*
D03*
X10429998Y9659998D02*
D03*
Y9099998D02*
D03*
X10359998Y8959998D02*
D03*
X10289998Y10779998D02*
D03*
X10219998Y10639998D02*
D03*
X10289998Y10499998D02*
D03*
X10219998Y10359998D02*
D03*
Y8399998D02*
D03*
X10149998Y10779998D02*
D03*
X10079998Y10639998D02*
D03*
X10149998Y10499998D02*
D03*
X10079998Y10359998D02*
D03*
X10149998Y9659998D02*
D03*
X10079998Y8399998D02*
D03*
X10009998Y9659998D02*
D03*
X9239998Y11199998D02*
D03*
Y10639998D02*
D03*
X9169998Y11059998D02*
D03*
X9099998Y10639998D02*
D03*
X8959998Y11199998D02*
D03*
X9029998Y10779998D02*
D03*
Y10499998D02*
D03*
X8889998Y11059998D02*
D03*
X8749998Y10499998D02*
D03*
X8609998Y10779998D02*
D03*
X8539998Y10639998D02*
D03*
X8609998Y10499998D02*
D03*
X8399998Y11199998D02*
D03*
X8469998Y11059998D02*
D03*
Y10779998D02*
D03*
X8399998Y10639998D02*
D03*
X8469998Y10499998D02*
D03*
X8259998Y11199998D02*
D03*
X8329998Y11059998D02*
D03*
Y10779998D02*
D03*
X8259998Y10639998D02*
D03*
X8329998Y10499998D02*
D03*
X8119998Y11199998D02*
D03*
X8189998Y11059998D02*
D03*
Y10779998D02*
D03*
Y10499998D02*
D03*
X7839999Y11199998D02*
D03*
X7909998Y7419999D02*
D03*
X7839999Y7279999D02*
D03*
X7699999D02*
D03*
X7559999D02*
D03*
X7419999Y10639998D02*
D03*
Y10079998D02*
D03*
Y9239998D02*
D03*
Y7279999D02*
D03*
X7279999Y10639998D02*
D03*
X7349999Y10499998D02*
D03*
Y10219998D02*
D03*
X7279999Y10079998D02*
D03*
Y9239998D02*
D03*
X7349999Y9099998D02*
D03*
Y7979999D02*
D03*
X7279999Y7279999D02*
D03*
X7209999Y10499998D02*
D03*
X7139999Y9519998D02*
D03*
Y9239998D02*
D03*
X7209999Y9099998D02*
D03*
X7139999Y8959998D02*
D03*
Y8119998D02*
D03*
X7209999Y7979999D02*
D03*
X7139999Y7839999D02*
D03*
X7209999Y7419999D02*
D03*
X7139999Y7279999D02*
D03*
X6999999Y9519998D02*
D03*
X7069999Y9379998D02*
D03*
X6999999Y9239998D02*
D03*
X7069999Y9099998D02*
D03*
X6999999Y8959998D02*
D03*
X7069999Y8259998D02*
D03*
X6999999Y8119998D02*
D03*
X7069999Y7979999D02*
D03*
X6999999Y7839999D02*
D03*
X7069999Y7699999D02*
D03*
Y7419999D02*
D03*
X6999999Y7279999D02*
D03*
X6859999Y9519998D02*
D03*
X6929999Y9379998D02*
D03*
X6859999Y9239998D02*
D03*
X6929999Y9099998D02*
D03*
X6859999Y8959998D02*
D03*
X6929999Y8259998D02*
D03*
X6859999Y8119998D02*
D03*
X6929999Y7979999D02*
D03*
X6859999Y7839999D02*
D03*
X6929999Y7699999D02*
D03*
Y7419999D02*
D03*
X6859999Y7279999D02*
D03*
X6719999Y9519998D02*
D03*
X6789999Y9379998D02*
D03*
X6719999Y9239998D02*
D03*
X6789999Y9099998D02*
D03*
X6719999Y8959998D02*
D03*
Y8679998D02*
D03*
X6789999Y8259998D02*
D03*
X6719999Y8119998D02*
D03*
X6789999Y7979999D02*
D03*
X6719999Y7839999D02*
D03*
X6789999Y7699999D02*
D03*
Y7419999D02*
D03*
X6719999Y7279999D02*
D03*
X5109999Y11059998D02*
D03*
X4899999Y11199998D02*
D03*
X4969999Y11059998D02*
D03*
X4829999Y11339998D02*
D03*
X4759999Y11199998D02*
D03*
X4829999Y11059998D02*
D03*
X4619999Y11479998D02*
D03*
X4689999Y11339998D02*
D03*
X4619999Y11199998D02*
D03*
X4689999Y11059998D02*
D03*
X4549999Y11339998D02*
D03*
X4479999Y11199998D02*
D03*
X4549999Y11059998D02*
D03*
X4479999Y9799998D02*
D03*
X4549999Y9659998D02*
D03*
X4479999Y9519998D02*
D03*
X4549999Y9379998D02*
D03*
X4479999Y9239998D02*
D03*
X4549999Y7979999D02*
D03*
X4479999Y7839999D02*
D03*
X4549999Y7699999D02*
D03*
X4479999Y7559999D02*
D03*
X4549999Y7419999D02*
D03*
X4479999Y7279999D02*
D03*
X4409999Y11899998D02*
D03*
Y11339998D02*
D03*
X4339999Y11199998D02*
D03*
X4409999Y11059998D02*
D03*
X4339999Y9799998D02*
D03*
X4409999Y9659998D02*
D03*
X4339999Y9519998D02*
D03*
X4409999Y9379998D02*
D03*
X4339999Y9239998D02*
D03*
X4409999Y7979999D02*
D03*
X4339999Y7839999D02*
D03*
X4409999Y7699999D02*
D03*
X4339999Y7559999D02*
D03*
X4409999Y7419999D02*
D03*
X4339999Y7279999D02*
D03*
X4269999Y11339998D02*
D03*
X4199999Y11199998D02*
D03*
X4269999Y11059998D02*
D03*
X4199999Y9799998D02*
D03*
X4269999Y9659998D02*
D03*
Y9379998D02*
D03*
Y7979999D02*
D03*
X4199999Y7839999D02*
D03*
X4269999Y7699999D02*
D03*
Y7419999D02*
D03*
X4059999Y11479998D02*
D03*
X4129999Y11339998D02*
D03*
X4059999Y11199998D02*
D03*
X4129999Y11059998D02*
D03*
X4059999Y9799998D02*
D03*
X4129999Y9659998D02*
D03*
Y7979999D02*
D03*
X4059999Y7839999D02*
D03*
X3919999Y11479998D02*
D03*
X3989999Y11339998D02*
D03*
X3919999Y11199998D02*
D03*
X3989999Y11059998D02*
D03*
X3919999Y9799998D02*
D03*
X3989999Y9659998D02*
D03*
X3919999Y9519998D02*
D03*
X3989999Y9379998D02*
D03*
X3919999Y9239998D02*
D03*
X3989999Y7979999D02*
D03*
X3919999Y7839999D02*
D03*
X3989999Y7699999D02*
D03*
X3919999Y7559999D02*
D03*
X3989999Y7419999D02*
D03*
X3919999Y7279999D02*
D03*
X3779999Y11479998D02*
D03*
X3849999Y11339998D02*
D03*
X3779999Y11199998D02*
D03*
X3849999Y11059998D02*
D03*
X3779999Y9799998D02*
D03*
X3849999Y9659998D02*
D03*
X3779999Y9519998D02*
D03*
X3849999Y9379998D02*
D03*
X3779999Y9239998D02*
D03*
X3849999Y7979999D02*
D03*
X3779999Y7839999D02*
D03*
X3849999Y7699999D02*
D03*
X3779999Y7559999D02*
D03*
X3849999Y7419999D02*
D03*
X3779999Y7279999D02*
D03*
X3639999Y11479998D02*
D03*
X3709999Y11339998D02*
D03*
X3639999Y11199998D02*
D03*
X3709999Y11059998D02*
D03*
X3639999Y9799998D02*
D03*
X3709999Y9659998D02*
D03*
Y7979999D02*
D03*
X3639999Y7839999D02*
D03*
X3709999Y7699999D02*
D03*
X3499999Y11479998D02*
D03*
X3569999Y11339998D02*
D03*
X3499999Y11199998D02*
D03*
X3569999Y11059998D02*
D03*
X3499999Y9799998D02*
D03*
X3569999Y9659998D02*
D03*
X3499999Y9519998D02*
D03*
Y9239998D02*
D03*
X3569999Y7979999D02*
D03*
X3499999Y7839999D02*
D03*
Y7559999D02*
D03*
Y7279999D02*
D03*
X3359999Y11479998D02*
D03*
X3429999Y11339998D02*
D03*
X3359999Y11199998D02*
D03*
X3429999Y11059998D02*
D03*
Y9659998D02*
D03*
Y9379998D02*
D03*
Y9099998D02*
D03*
Y7979999D02*
D03*
X3359999Y7839999D02*
D03*
X3429999Y7699999D02*
D03*
X3359999Y7559999D02*
D03*
X3429999Y7419999D02*
D03*
X3359999Y7279999D02*
D03*
X3219999Y11479998D02*
D03*
X3289999Y11339998D02*
D03*
X3219999Y11199998D02*
D03*
X3289999Y11059998D02*
D03*
Y7979999D02*
D03*
X3219999Y7839999D02*
D03*
X3289999Y7699999D02*
D03*
X3219999Y7559999D02*
D03*
X3289999Y7419999D02*
D03*
X3219999Y7279999D02*
D03*
X3079999Y11479998D02*
D03*
X3149999Y11339998D02*
D03*
X3079999Y11199998D02*
D03*
X3149999Y11059998D02*
D03*
Y7979999D02*
D03*
X3079999Y7839999D02*
D03*
X3149999Y7699999D02*
D03*
X3079999Y7559999D02*
D03*
X3149999Y7419999D02*
D03*
X3079999Y7279999D02*
D03*
X2939999Y11479998D02*
D03*
X3009999Y11339998D02*
D03*
X2939999Y11199998D02*
D03*
X3009999Y11059998D02*
D03*
Y7979999D02*
D03*
X2939999Y7839999D02*
D03*
X3009999Y7699999D02*
D03*
X2939999Y7559999D02*
D03*
X3009999Y7419999D02*
D03*
X2939999Y7279999D02*
D03*
X2799999Y11199998D02*
D03*
X2869999Y11059998D02*
D03*
Y7979999D02*
D03*
X2799999Y7839999D02*
D03*
X2869999Y7699999D02*
D03*
X2799999Y7559999D02*
D03*
X2869999Y7419999D02*
D03*
X2799999Y7279999D02*
D03*
X2660000Y11199998D02*
D03*
X2729999Y11059998D02*
D03*
Y7979999D02*
D03*
X2660000Y7839999D02*
D03*
X2729999Y7699999D02*
D03*
X2660000Y7559999D02*
D03*
X2729999Y7419999D02*
D03*
X2660000Y7279999D02*
D03*
X3441700Y8801100D02*
D03*
X3581400D02*
D03*
X3441700Y8686800D02*
D03*
X3581400D02*
D03*
Y8585200D02*
D03*
X3441700D02*
D03*
X3581400Y8382000D02*
D03*
X3441700D02*
D03*
X3581400Y8280400D02*
D03*
X3441700D02*
D03*
Y8178800D02*
D03*
X3581400D02*
D03*
X3860800D02*
D03*
X3721100D02*
D03*
Y8280400D02*
D03*
X3860800D02*
D03*
X3721100Y8382000D02*
D03*
X3860800D02*
D03*
X3721100Y8585200D02*
D03*
X3860800D02*
D03*
Y8686800D02*
D03*
X3721100D02*
D03*
X3860800Y8801100D02*
D03*
X3721100D02*
D03*
X4140200Y8178800D02*
D03*
X4000500D02*
D03*
Y8280400D02*
D03*
X4140200D02*
D03*
X4000500Y8382000D02*
D03*
X4140200D02*
D03*
X4000500Y8585200D02*
D03*
X4140200D02*
D03*
Y8686800D02*
D03*
X4000500D02*
D03*
X4140200Y8801100D02*
D03*
X4000500D02*
D03*
X4279900D02*
D03*
Y8686800D02*
D03*
Y8585200D02*
D03*
Y8382000D02*
D03*
Y8280400D02*
D03*
Y8178800D02*
D03*
Y8483600D02*
D03*
X4140200D02*
D03*
X4000500D02*
D03*
X3581400D02*
D03*
X3441700D02*
D03*
X3721100D02*
D03*
X3860800D02*
D03*
Y10388600D02*
D03*
X3721100D02*
D03*
X3441700D02*
D03*
X3581400D02*
D03*
X4000500D02*
D03*
X4140200D02*
D03*
X4279900D02*
D03*
Y10083800D02*
D03*
Y10185400D02*
D03*
Y10287000D02*
D03*
Y10490200D02*
D03*
Y10591800D02*
D03*
Y10706100D02*
D03*
X4000500D02*
D03*
X4140200D02*
D03*
X4000500Y10591800D02*
D03*
X4140200D02*
D03*
Y10490200D02*
D03*
X4000500D02*
D03*
X4140200Y10287000D02*
D03*
X4000500D02*
D03*
X4140200Y10185400D02*
D03*
X4000500D02*
D03*
Y10083800D02*
D03*
X4140200D02*
D03*
X3721100Y10706100D02*
D03*
X3860800D02*
D03*
X3721100Y10591800D02*
D03*
X3860800D02*
D03*
Y10490200D02*
D03*
X3721100D02*
D03*
X3860800Y10287000D02*
D03*
X3721100D02*
D03*
X3860800Y10185400D02*
D03*
X3721100D02*
D03*
Y10083800D02*
D03*
X3860800D02*
D03*
X3581400D02*
D03*
X3441700D02*
D03*
Y10185400D02*
D03*
X3581400D02*
D03*
X3441700Y10287000D02*
D03*
X3581400D02*
D03*
X3441700Y10490200D02*
D03*
X3581400D02*
D03*
Y10591800D02*
D03*
X3441700D02*
D03*
X3581400Y10706100D02*
D03*
X3441700D02*
D03*
X5995002Y10560003D02*
D03*
X9021300Y11747500D02*
D03*
X9131300D02*
D03*
X11385003Y11880004D02*
D03*
X11330004Y11770004D02*
D03*
X11385003Y11660004D02*
D03*
X11275003D02*
D03*
X11165003D02*
D03*
X11055003D02*
D03*
X9185003D02*
D03*
X9075003D02*
D03*
X8965003D02*
D03*
X7150002Y11330004D02*
D03*
Y11110003D02*
D03*
Y10890003D02*
D03*
X7040002Y11330004D02*
D03*
X7095002Y11220003D02*
D03*
X7040002Y11110003D02*
D03*
X7095002Y11000003D02*
D03*
X7040002Y10890003D02*
D03*
X7095002Y10780003D02*
D03*
X7040002Y10670003D02*
D03*
X6930002Y11330004D02*
D03*
X6985002Y11220003D02*
D03*
X6930002Y11110003D02*
D03*
X6985002Y11000003D02*
D03*
X6930002Y10890003D02*
D03*
X6985002Y10780003D02*
D03*
X6930002Y10670003D02*
D03*
X6820002Y11330004D02*
D03*
X6875002Y11220003D02*
D03*
X6820002Y11110003D02*
D03*
X6875002Y11000003D02*
D03*
X6820002Y10890003D02*
D03*
X6875002Y10780003D02*
D03*
X6820002Y10670003D02*
D03*
X6710002Y11330004D02*
D03*
X6765002Y11220003D02*
D03*
X6710002Y11110003D02*
D03*
X6765002Y11000003D02*
D03*
X6710002Y10890003D02*
D03*
X6765002Y10780003D02*
D03*
X6710002Y10670003D02*
D03*
X6600002Y11330004D02*
D03*
X6655002Y11220003D02*
D03*
X6600002Y11110003D02*
D03*
X6655002Y11000003D02*
D03*
X6600002Y10890003D02*
D03*
X6655002Y10780003D02*
D03*
X6600002Y10670003D02*
D03*
X6490002Y11330004D02*
D03*
X6545002Y11220003D02*
D03*
X6490002Y11110003D02*
D03*
X6545002Y11000003D02*
D03*
X6490002Y10890003D02*
D03*
X6545002Y10780003D02*
D03*
X6490002Y10670003D02*
D03*
X6380002Y11330004D02*
D03*
X6435002Y11220003D02*
D03*
X6380002Y10890003D02*
D03*
X6435002Y10780003D02*
D03*
X6380002Y10670003D02*
D03*
X6270002Y11330004D02*
D03*
X6325002Y11220003D02*
D03*
X6270002Y10890003D02*
D03*
X6325002Y10780003D02*
D03*
X6270002Y10670003D02*
D03*
X6160002Y11330004D02*
D03*
X6215002Y11220003D02*
D03*
X6160002Y11110003D02*
D03*
X6215002Y11000003D02*
D03*
X6160002Y10890003D02*
D03*
X6215002Y10780003D02*
D03*
X6160002Y10670003D02*
D03*
X6050002Y11330004D02*
D03*
X6105002Y11220003D02*
D03*
X6050002Y11110003D02*
D03*
X6105002Y11000003D02*
D03*
X6050002Y10890003D02*
D03*
X6105002Y10780003D02*
D03*
X6050002Y10670003D02*
D03*
Y10450003D02*
D03*
D52*
X8559800Y8585200D02*
D03*
X7568647Y7567655D02*
D03*
X7767246Y7553985D02*
D03*
X4787900Y8559800D02*
D03*
X4483100Y10261600D02*
D03*
X7156082Y9772282D02*
D03*
X7150100Y8559800D02*
D03*
X4611446Y12190654D02*
D03*
X4687646D02*
D03*
X4713046Y12254154D02*
D03*
X4649546D02*
D03*
X4573346D02*
D03*
X9742246Y9168054D02*
D03*
X8934585Y9197842D02*
D03*
X8616386Y9516040D02*
D03*
X8934585Y9834238D02*
D03*
X9252783Y9516040D02*
D03*
X6985000Y10541000D02*
D03*
X6853312Y10118943D02*
D03*
X9055904Y9990542D02*
D03*
X9106986Y9954185D02*
D03*
X8890000Y10071100D02*
D03*
X8790120Y9978517D02*
D03*
X8153800Y9613900D02*
D03*
X9195720Y9863603D02*
D03*
X8291659Y8041624D02*
D03*
X6765801Y7545134D02*
D03*
X6764397Y8436503D02*
D03*
Y8754003D02*
D03*
X6743700Y9639300D02*
D03*
X5613400Y10883900D02*
D03*
X5600700Y9004300D02*
D03*
X3721100Y7200900D02*
D03*
X3695700Y9067800D02*
D03*
X7135752Y7544685D02*
D03*
X7605877Y8805063D02*
D03*
X7136250Y8751450D02*
D03*
X7353300Y9577437D02*
D03*
X7136201Y9642339D02*
D03*
Y8434203D02*
D03*
X7353300Y8369300D02*
D03*
X10790214Y10877969D02*
D03*
X7734300Y8382061D02*
D03*
X7797800D02*
D03*
X7861300D02*
D03*
X7899400Y8318561D02*
D03*
Y8255061D02*
D03*
Y9461500D02*
D03*
Y9525000D02*
D03*
X7861300Y9588500D02*
D03*
X7797800D02*
D03*
X7734300D02*
D03*
X9386752Y8892099D02*
D03*
X10338245Y9039349D02*
D03*
Y9217149D02*
D03*
X10341034Y9395719D02*
D03*
X8724900Y10236200D02*
D03*
X8128000Y9182100D02*
D03*
X5511800Y11557000D02*
D03*
X9067800Y8255000D02*
D03*
X9231808Y7965696D02*
D03*
X9358808Y7964604D02*
D03*
X8470900Y9702800D02*
D03*
X8407400Y9766300D02*
D03*
X8458200Y9829800D02*
D03*
X7683500Y10922000D02*
D03*
X7620000D02*
D03*
X7556500D02*
D03*
X7493000D02*
D03*
X7454900Y10871200D02*
D03*
X7518400D02*
D03*
X7581900D02*
D03*
X7645400D02*
D03*
X9296400Y8547100D02*
D03*
X8704677Y9116813D02*
D03*
X9670053Y7964537D02*
D03*
X9766300Y8407400D02*
D03*
X9383979Y9348553D02*
D03*
X10380532Y8875530D02*
D03*
X9489020Y9747842D02*
D03*
X9601200Y8661400D02*
D03*
X8013700Y8788400D02*
D03*
X9975203Y9391112D02*
D03*
X7707404Y10872384D02*
D03*
X8775700Y10909300D02*
D03*
X9144000Y11455400D02*
D03*
X9055100Y8724900D02*
D03*
X9017000Y8763000D02*
D03*
X9537700Y9613900D02*
D03*
X9588500Y9652000D02*
D03*
X8128000D02*
D03*
X9715500Y11036300D02*
D03*
X9652000D02*
D03*
X9918700Y10452100D02*
D03*
X9855200D02*
D03*
X9791700D02*
D03*
X9893300Y10515600D02*
D03*
X9817100D02*
D03*
X9918700Y10579100D02*
D03*
X9855200D02*
D03*
X9791700D02*
D03*
X9893300Y10642600D02*
D03*
X9817100D02*
D03*
X9918700Y10706100D02*
D03*
X9855200D02*
D03*
X9791700D02*
D03*
X9515144Y11277052D02*
D03*
X9300965Y11058249D02*
D03*
D53*
X8711138Y7855776D02*
D03*
X10436232Y8228466D02*
D03*
%TF.MD5,0ef4362d23c6d046d8b940d5e825a607*%
M02*
